<svg width="525" height="354" viewBox="0 0 525 354" fill="none" xmlns="http://www.w3.org/2000/svg">
<g clip-path="url(#clip0_381_2)">
<mask id="mask0_381_2" style="mask-type:luminance" maskUnits="userSpaceOnUse" x="0" y="0" width="525" height="354">
<path d="M519.026 -4.59548e-05L0.41748 7.5498L5.45699 353.72L524.066 346.17L519.026 -4.59548e-05Z" fill="white"/>
</mask>
<g mask="url(#mask0_381_2)">
<path d="M279.201 104.47C279.866 102.817 270.544 98.3827 269.513 98.0875C261.969 95.9266 253.592 101.352 251.79 108.992C251.023 112.242 251.832 115.715 253.415 118.654C257.09 125.476 263.5 130.465 270.215 134.073C274.228 136.229 278.425 138.445 282.822 139.696C292.446 142.432 296.9 129.392 299.989 122.485C303.96 113.603 308.486 93.9877 293.021 92.5807C286.349 91.9729 281.414 98.9627 279.201 104.47Z" fill="#FF3B4E"/>
<path d="M284.984 130.832C277.027 129.707 269.959 124.616 265.325 118.042C262.953 114.679 261.12 110.826 260.752 106.726C260.485 103.752 261.077 100.64 262.569 98.0833C257.461 99.4561 253.041 103.689 251.791 108.992C251.024 112.242 251.832 115.715 253.416 118.654C257.091 125.476 263.501 130.465 270.215 134.073C274.228 136.229 278.426 138.445 282.823 139.696C289.759 141.668 294.009 135.446 296.999 129.231C293.25 130.824 289.021 131.402 284.984 130.832Z" fill="#ED2338"/>
<path d="M297.711 97.8737C296.012 96.2247 294.089 95.876 291.828 96.3382C290.579 96.5932 289.957 98.1818 290.842 99.1661C291.629 100.042 292.449 100.845 293.254 101.687C293.233 101.665 293.419 101.874 293.47 101.918C293.517 102.006 293.628 102.204 293.692 102.332C293.681 102.35 293.725 102.576 293.737 102.629C293.84 103.087 293.966 103.519 294.124 103.965C294.975 106.368 298.788 105.946 299.509 103.684C300.174 101.599 299.232 99.3487 297.711 97.8737Z" fill="#FF646C"/>
<path d="M298.912 111.027C298.744 109.889 297.696 108.722 296.459 109.309C295.833 109.606 295.577 110.196 295.409 110.819C295.369 110.969 295.348 111.125 295.319 111.278C295.311 111.294 295.302 111.317 295.287 111.355C295.118 111.789 295.14 112.201 295.193 112.649C295.324 113.761 296.609 114.188 297.516 113.813C298.543 113.388 299.069 112.091 298.912 111.027Z" fill="#FF646C"/>
<path d="M327.089 85.9424C327.784 85.5078 325.519 81.3298 325.216 80.9402C322.996 78.0897 318.413 77.833 315.674 80.1837C314.509 81.1833 313.87 82.6939 313.663 84.2163C313.182 87.7501 314.214 91.3443 315.734 94.5076C316.642 96.3981 317.602 98.3611 318.899 100.019C321.736 103.649 326.922 100.011 329.94 98.2805C333.821 96.0566 340.814 89.9931 335.446 85.273C333.13 83.2362 329.403 84.4954 327.089 85.9424Z" fill="#FF3B4E"/>
<path d="M322.103 97.3117C319.449 94.7341 318.2 90.9228 318.256 87.2214C318.285 85.3277 318.647 83.3973 319.62 81.7738C320.327 80.5953 321.389 79.5993 322.636 79.0541C320.365 78.178 317.576 78.5523 315.675 80.1838C314.51 81.1834 313.87 82.694 313.664 84.2164C313.183 87.7502 314.215 91.3444 315.735 94.5077C316.643 96.3981 317.603 98.3612 318.9 100.02C320.944 102.635 324.209 101.476 327.003 99.9771C325.178 99.5521 323.449 98.6189 322.103 97.3117Z" fill="#ED2338"/>
<path d="M335.757 88.5135C335.572 87.4394 334.951 86.7878 333.985 86.3455C333.453 86.1012 332.791 86.5235 332.853 87.1293C332.909 87.6686 332.996 88.1895 333.068 88.7209C333.067 88.7071 333.079 88.835 333.086 88.8654C333.08 88.9105 333.068 89.0145 333.056 89.0798C333.047 89.0834 333.002 89.1796 332.992 89.2026C332.907 89.4005 332.836 89.5955 332.774 89.8041C332.44 90.9287 333.972 91.8066 334.853 91.1609C335.664 90.5667 335.923 89.4743 335.757 88.5135Z" fill="#FF646C"/>
<path d="M332.643 93.7297C332.888 93.2608 332.815 92.5423 332.195 92.4246C331.882 92.3655 331.628 92.5153 331.396 92.7015C331.341 92.7466 331.291 92.7979 331.239 92.8471C331.232 92.8514 331.222 92.857 331.206 92.867C331.026 92.9825 330.922 93.1419 330.821 93.3227C330.568 93.7716 330.931 94.2795 331.369 94.386C331.865 94.5069 332.413 94.1672 332.643 93.7297Z" fill="#FF646C"/>
<path d="M185.225 93.024C185.379 92.6174 183.08 91.5782 182.828 91.5112C180.975 91.0195 178.954 92.3854 178.55 94.2603C178.378 95.0578 178.592 95.9023 178.993 96.6125C179.924 98.2616 181.513 99.4496 183.171 100.299C184.162 100.806 185.198 101.327 186.277 101.612C188.642 102.234 189.667 99.0276 190.389 97.3247C191.316 95.1361 192.329 90.3217 188.544 90.0527C186.911 89.9366 185.739 91.6676 185.225 93.024Z" fill="#FF3B4E"/>
<path d="M186.763 99.4362C184.814 99.2 183.063 97.9901 181.899 96.406C181.304 95.5955 180.837 94.6633 180.728 93.6635C180.648 92.9383 180.778 92.1753 181.131 91.5435C179.889 91.9037 178.83 92.9585 178.55 94.2603C178.378 95.0578 178.592 95.9023 178.993 96.6125C179.923 98.2616 181.513 99.4496 183.171 100.299C184.161 100.806 185.197 101.327 186.277 101.612C187.981 102.061 188.99 100.52 189.69 98.9878C188.783 99.395 187.752 99.5561 186.763 99.4362Z" fill="#ED2338"/>
<path d="M189.715 91.323C189.292 90.9282 188.821 90.8526 188.27 90.9763C187.966 91.0444 187.821 91.4357 188.043 91.6721C188.239 91.8825 188.443 92.0741 188.644 92.2762C188.639 92.2707 188.685 92.3206 188.698 92.3315C188.71 92.3528 188.738 92.4009 188.754 92.4318C188.752 92.436 188.763 92.4912 188.767 92.5043C188.794 92.6154 188.827 92.7209 188.868 92.829C189.087 93.4117 190.017 93.2908 190.182 92.7344C190.334 92.2218 190.093 91.6762 189.715 91.323Z" fill="#FF646C"/>
<path d="M190.072 94.531C190.025 94.2539 189.763 93.9731 189.464 94.1229C189.312 94.1985 189.253 94.3434 189.215 94.497C189.206 94.5339 189.201 94.572 189.195 94.6095C189.193 94.6137 189.191 94.6193 189.188 94.6283C189.148 94.7355 189.156 94.8358 189.171 94.945C189.208 95.2159 189.524 95.3145 189.744 95.2185C189.992 95.1096 190.115 94.79 190.072 94.531Z" fill="#FF646C"/>
<path d="M368.936 111.93C369.366 111.862 369.128 109.349 369.062 109.095C368.57 107.239 366.385 106.158 364.557 106.736C363.78 106.981 363.154 107.586 362.736 108.287C361.766 109.913 361.523 111.884 361.607 113.746C361.657 114.859 361.719 116.018 362.007 117.099C362.638 119.463 365.928 118.767 367.763 118.552C370.121 118.274 374.799 116.771 373.159 113.344C372.451 111.867 370.368 111.705 368.936 111.93Z" fill="#FF3B4E"/>
<path d="M364.135 116.444C363.375 114.631 363.557 112.509 364.355 110.712C364.762 109.793 365.34 108.926 366.154 108.335C366.744 107.907 367.471 107.642 368.193 107.635C367.266 106.734 365.826 106.334 364.557 106.736C363.78 106.981 363.154 107.586 362.736 108.287C361.766 109.913 361.523 111.884 361.607 113.746C361.657 114.859 361.719 116.018 362.007 117.099C362.462 118.803 364.298 118.917 365.975 118.767C365.171 118.18 364.521 117.363 364.135 116.444Z" fill="#ED2338"/>
<path d="M372.636 114.993C372.769 114.43 372.601 113.982 372.222 113.564C372.012 113.334 371.601 113.402 371.505 113.711C371.42 113.986 371.355 114.259 371.279 114.534C371.281 114.527 371.261 114.592 371.258 114.608C371.245 114.629 371.218 114.677 371.199 114.707C371.193 114.707 371.152 114.744 371.142 114.753C371.059 114.832 370.984 114.913 370.91 115.002C370.514 115.481 371.079 116.23 371.644 116.098C372.163 115.977 372.517 115.497 372.636 114.993Z" fill="#FF646C"/>
<path d="M370.029 116.892C370.247 116.714 370.36 116.348 370.082 116.161C369.942 116.067 369.786 116.087 369.634 116.13C369.598 116.14 369.563 116.155 369.527 116.168C369.523 116.169 369.517 116.169 369.507 116.171C369.395 116.19 369.311 116.247 369.224 116.313C369.007 116.48 369.079 116.803 369.271 116.947C369.488 117.11 369.826 117.058 370.029 116.892Z" fill="#FF646C"/>
<path d="M235.759 115.743C237.289 114.41 230.129 105.065 229.236 104.23C222.7 98.116 211.385 99.2675 205.595 106.085C203.132 108.984 202.153 112.928 202.236 116.734C202.428 125.568 206.346 133.962 211.291 141.114C214.245 145.388 217.356 149.819 221.17 153.373C229.52 161.153 240.8 150.234 247.517 144.829C256.152 137.88 270.916 120.326 255.95 110.86C249.492 106.775 240.859 111.304 235.759 115.743Z" fill="#FF848F"/>
<path d="M227.96 145.501C220.466 140.224 215.933 131.384 214.638 122.303C213.975 117.658 214.112 112.795 215.864 108.443C217.136 105.285 219.35 102.435 222.19 100.616C216.293 99.3544 209.613 101.353 205.595 106.085C203.132 108.984 202.153 112.928 202.236 116.734C202.428 125.568 206.346 133.962 211.29 141.114C214.245 145.387 217.355 149.818 221.17 153.373C227.188 158.98 234.727 154.875 240.983 150.121C236.353 149.79 231.761 148.178 227.96 145.501Z" fill="#FF646C"/>
<path d="M257.964 118.669C257.095 116.113 255.324 114.759 252.789 114.052C251.39 113.662 249.934 114.951 250.322 116.41C250.667 117.708 251.083 118.948 251.464 120.222C251.454 120.189 251.535 120.496 251.563 120.569C251.565 120.682 251.576 120.942 251.573 121.104C251.553 121.117 251.48 121.369 251.465 121.43C251.332 121.948 251.236 122.452 251.165 122.987C250.783 125.868 254.872 127.422 256.777 125.501C258.531 123.729 258.742 120.956 257.964 118.669Z" fill="#FFB3BC"/>
<path d="M252.363 132.642C252.782 131.4 252.324 129.67 250.764 129.623C249.975 129.6 249.41 130.065 248.916 130.611C248.798 130.742 248.695 130.888 248.587 131.029C248.571 131.042 248.549 131.06 248.514 131.091C248.118 131.444 247.927 131.874 247.748 132.355C247.304 133.552 248.388 134.654 249.503 134.744C250.763 134.847 251.971 133.804 252.363 132.642Z" fill="#FFB3BC"/>
<path d="M302.88 122.781C303.502 120.57 290.937 116.181 289.573 115.946C279.602 114.226 269.615 122.347 268.365 132.393C267.833 136.666 269.352 141.005 271.79 144.553C277.448 152.789 286.358 158.292 295.467 161.984C300.911 164.19 306.6 166.447 312.411 167.438C325.129 169.607 329.03 152.27 332.031 142.984C335.889 131.045 338.97 105.266 318.948 105.615C310.309 105.765 304.952 115.413 302.88 122.781Z" fill="#FF848F"/>
<path d="M313.952 155.774C303.594 155.439 293.826 149.895 286.972 142.112C283.465 138.13 280.579 133.446 279.539 128.241C278.784 124.464 279.111 120.393 280.669 116.907C274.31 119.378 269.231 125.42 268.364 132.392C267.832 136.665 269.351 141.004 271.789 144.552C277.447 152.787 286.357 158.292 295.466 161.983C300.911 164.189 306.599 166.447 312.41 167.437C321.576 169.001 326.162 160.433 329.132 152.049C324.549 154.615 319.206 155.943 313.952 155.774Z" fill="#FF646C"/>
<path d="M325.696 111.749C323.289 109.871 320.775 109.692 317.939 110.599C316.374 111.099 315.797 113.223 317.067 114.361C318.197 115.374 319.36 116.29 320.51 117.257C320.48 117.232 320.747 117.473 320.819 117.523C320.891 117.629 321.061 117.869 321.16 118.024C321.149 118.049 321.237 118.331 321.26 118.399C321.456 118.971 321.677 119.509 321.941 120.058C323.366 123.02 328.197 121.949 328.806 118.948C329.369 116.183 327.849 113.428 325.696 111.749Z" fill="#FFB3BC"/>
<path d="M329.06 128.445C328.686 127.009 327.18 125.658 325.677 126.583C324.915 127.051 324.669 127.843 324.541 128.666C324.51 128.864 324.504 129.066 324.488 129.266C324.481 129.288 324.472 129.318 324.458 129.37C324.301 129.95 324.387 130.475 324.517 131.041C324.839 132.449 326.547 132.818 327.656 132.211C328.914 131.524 329.41 129.787 329.06 128.445Z" fill="#FFB3BC"/>
<path d="M230.247 76.0779C230.541 75.0321 224.599 72.9567 223.954 72.8456C219.239 72.032 214.515 75.8727 213.924 80.6235C213.673 82.6444 214.391 84.6961 215.544 86.3745C218.22 90.2689 222.434 92.8723 226.742 94.6176C229.316 95.6611 232.007 96.7286 234.754 97.1975C240.769 98.2235 242.614 90.0239 244.033 85.633C245.858 79.9869 247.314 67.7959 237.846 67.96C233.761 68.0306 231.227 72.5936 230.247 76.0779Z" fill="#FF848F"/>
<path d="M235.483 91.6809C230.585 91.5223 225.965 88.9007 222.724 85.2202C221.066 83.3372 219.701 81.1217 219.209 78.6602C218.852 76.8739 219.007 74.9486 219.743 73.3002C216.736 74.4685 214.334 77.3261 213.924 80.6235C213.673 82.6443 214.391 84.6961 215.544 86.3745C218.22 90.2689 222.434 92.8722 226.742 94.6176C229.316 95.6611 232.006 96.7285 234.754 97.1975C239.089 97.937 241.258 93.8848 242.663 89.92C240.495 91.1322 237.969 91.7611 235.483 91.6809Z" fill="#FF646C"/>
<path d="M241.038 70.8608C239.899 69.973 238.71 69.8878 237.369 70.3166C236.629 70.5531 236.356 71.5577 236.956 72.0961C237.491 72.5751 238.041 73.0082 238.584 73.4656C238.57 73.4541 238.696 73.5679 238.731 73.5916C238.765 73.6417 238.845 73.7548 238.892 73.8282C238.887 73.84 238.928 73.9738 238.939 74.0055C239.032 74.2763 239.136 74.5303 239.261 74.7902C239.935 76.191 242.22 75.6848 242.508 74.2651C242.774 72.9573 242.055 71.6548 241.038 70.8608Z" fill="#FFB3BC"/>
<path d="M242.628 78.7569C242.452 78.078 241.74 77.4388 241.028 77.8765C240.668 78.0978 240.552 78.472 240.491 78.8614C240.477 78.9551 240.473 79.0507 240.467 79.145C240.463 79.1554 240.459 79.1693 240.453 79.1943C240.379 79.469 240.42 79.7177 240.481 79.9848C240.633 80.6508 241.441 80.8246 241.965 80.5379C242.56 80.2128 242.794 79.3916 242.628 78.7569Z" fill="#FFB3BC"/>
<path d="M260.568 80.2276C261.001 80.0364 260.05 77.4548 259.909 77.2061C258.873 75.3889 256.269 74.861 254.505 75.9802C253.755 76.4564 253.264 77.2682 253.019 78.1236C252.451 80.1082 252.744 82.2527 253.353 84.1911C253.716 85.3499 254.104 86.554 254.709 87.6117C256.033 89.9268 259.306 88.2732 261.179 87.5327C263.586 86.5808 268.095 83.6884 265.411 80.5379C264.253 79.1788 262.013 79.5909 260.568 80.2276Z" fill="#FF848F"/>
<path d="M256.768 86.3262C255.461 84.6286 255.061 82.3423 255.4 80.226C255.574 79.1431 255.941 78.0679 256.633 77.2185C257.136 76.6018 257.827 76.1202 258.586 75.9111C257.358 75.2206 255.729 75.2034 254.505 75.9802C253.755 76.4565 253.264 77.2683 253.019 78.1236C252.451 80.1082 252.744 82.2528 253.353 84.1912C253.716 85.3499 254.104 86.5541 254.709 87.6117C255.664 89.2799 257.63 88.887 259.355 88.2608C258.344 87.8656 257.431 87.187 256.768 86.3262Z" fill="#FF646C"/>
<path d="M265.32 82.4207C265.303 81.7901 265.001 81.3651 264.484 81.0312C264.199 80.847 263.785 81.0338 263.771 81.3858C263.758 81.699 263.764 82.005 263.761 82.3152C263.761 82.3069 263.758 82.3818 263.76 82.3998C263.753 82.4248 263.737 82.4839 263.725 82.5201C263.719 82.5215 263.686 82.5726 263.678 82.5851C263.613 82.6914 263.556 82.7974 263.504 82.9118C263.22 83.5281 264.024 84.1583 264.582 83.8621C265.096 83.5887 265.335 82.9848 265.32 82.4207Z" fill="#FFB3BC"/>
<path d="M263.104 85.1496C263.283 84.9018 263.301 84.484 262.956 84.365C262.781 84.3053 262.623 84.3699 262.475 84.4572C262.44 84.4785 262.407 84.5039 262.373 84.528C262.368 84.5294 262.362 84.5323 262.352 84.5366C262.239 84.5881 262.166 84.6701 262.094 84.7654C261.912 85.0014 262.078 85.3224 262.32 85.42C262.594 85.5309 262.935 85.3819 263.104 85.1496Z" fill="#FFB3BC"/>
<path d="M184.095 116.862C185.29 115.458 177.594 108.035 176.679 107.405C169.982 102.8 159.975 105.368 155.696 112.276C153.876 115.213 153.53 118.889 154.119 122.296C155.486 130.204 160.141 137.213 165.548 142.965C168.779 146.404 172.172 149.961 176.079 152.637C184.63 158.493 193.286 147.157 198.587 141.392C205.403 133.98 216.289 116.212 201.567 109.739C195.217 106.946 188.076 112.184 184.095 116.862Z" fill="#FF3B4E"/>
<path d="M181.114 144.647C173.67 140.922 168.404 133.597 166.012 125.617C164.789 121.534 164.254 117.148 165.24 113.001C165.954 109.993 167.558 107.133 169.862 105.114C164.396 104.78 158.667 107.481 155.697 112.275C153.877 115.213 153.53 118.889 154.119 122.296C155.487 130.204 160.141 137.212 165.548 142.965C168.78 146.403 172.173 149.961 176.08 152.637C182.242 156.857 188.459 152.147 193.435 147.03C189.232 147.361 184.89 146.536 181.114 144.647Z" fill="#ED2338"/>
<path d="M204.436 116.481C203.309 114.302 201.535 113.327 199.163 113.036C197.854 112.875 196.721 114.23 197.266 115.488C197.751 116.606 198.292 117.664 198.807 118.756C198.793 118.728 198.907 118.994 198.943 119.054C198.959 119.156 199.004 119.388 199.024 119.534C199.008 119.549 198.977 119.784 198.972 119.841C198.923 120.325 198.904 120.79 198.912 121.28C198.959 123.92 202.842 124.762 204.293 122.778C205.629 120.949 205.443 118.429 204.436 116.481Z" fill="#FF646C"/>
<path d="M201.293 129.79C201.502 128.617 200.856 127.125 199.449 127.294C198.737 127.38 198.292 127.875 197.923 128.432C197.834 128.566 197.761 128.712 197.683 128.853C197.671 128.866 197.654 128.886 197.627 128.918C197.318 129.289 197.205 129.701 197.11 130.157C196.873 131.293 197.995 132.135 199.008 132.066C200.155 131.987 201.098 130.886 201.293 129.79Z" fill="#FF646C"/>
<path d="M329.251 133.62C329.669 131.493 317.514 128.318 316.214 128.2C306.702 127.339 297.921 135.739 297.506 145.286C297.329 149.346 299.087 153.314 301.65 156.467C307.598 163.785 316.397 168.287 325.248 171.068C330.537 172.729 336.06 174.422 341.603 174.912C353.733 175.987 356.089 159.379 358.209 150.414C360.935 138.888 361.88 114.401 343.068 116.249C334.951 117.047 330.642 126.531 329.251 133.62Z" fill="#FF3B4E"/>
<path d="M342.169 163.82C332.398 164.292 322.789 159.818 315.75 153.016C312.149 149.536 309.079 145.348 307.706 140.529C306.709 137.033 306.708 133.178 307.91 129.78C302.114 132.588 297.794 138.659 297.507 145.285C297.33 149.346 299.088 153.313 301.651 156.466C307.599 163.784 316.398 168.286 325.249 171.067C330.537 172.729 336.061 174.421 341.603 174.912C350.346 175.687 354.011 167.276 356.171 159.163C352.051 161.925 347.125 163.581 342.169 163.82Z" fill="#ED2338"/>
<path d="M349.881 121.508C347.474 119.924 345.095 119.947 342.496 121.015C341.062 121.604 340.679 123.646 341.96 124.621C343.101 125.489 344.264 126.262 345.419 127.084C345.389 127.063 345.658 127.27 345.73 127.312C345.806 127.406 345.984 127.618 346.089 127.757C346.081 127.781 346.185 128.04 346.211 128.102C346.439 128.625 346.688 129.114 346.978 129.611C348.543 132.29 353.007 130.915 353.354 128.044C353.673 125.4 352.035 122.924 349.881 121.508Z" fill="#FF646C"/>
<path d="M354.312 136.96C353.851 135.638 352.332 134.481 350.987 135.466C350.306 135.964 350.134 136.728 350.076 137.512C350.062 137.7 350.071 137.891 350.072 138.08C350.067 138.101 350.061 138.13 350.052 138.18C349.949 138.738 350.07 139.226 350.234 139.748C350.644 141.049 352.279 141.266 353.278 140.61C354.408 139.869 354.743 138.197 354.312 136.96Z" fill="#FF646C"/>
<path d="M254.342 134.39C255.313 132.622 245.433 126.364 244.314 125.891C236.123 122.433 225.964 127.394 222.899 135.741C221.595 139.291 222.032 143.307 223.413 146.829C226.62 155.003 233.151 161.486 240.212 166.459C244.432 169.431 248.852 172.496 253.627 174.501C264.08 178.89 270.861 164.831 275.274 157.483C280.947 148.035 288.704 126.59 271.502 122.901C264.08 121.309 257.578 128.498 254.342 134.39Z" fill="#FF3B4E"/>
<path d="M257.263 164.826C248.466 162.477 241.209 155.788 236.89 147.764C234.68 143.658 233.141 139.075 233.285 134.414C233.389 131.031 234.478 127.613 236.503 124.941C230.571 125.789 225.026 129.948 222.898 135.741C221.594 139.291 222.032 143.307 223.413 146.829C226.619 155.003 233.15 161.486 240.211 166.459C244.431 169.43 248.851 172.495 253.626 174.501C261.159 177.664 266.785 171.246 270.992 164.662C266.561 165.945 261.725 166.018 257.263 164.826Z" fill="#ED2338"/>
<path d="M276.057 129.493C274.371 127.407 272.255 126.753 269.648 126.964C268.21 127.081 267.294 128.783 268.155 130.011C268.921 131.104 269.734 132.117 270.525 133.174C270.505 133.147 270.685 133.407 270.737 133.464C270.777 133.569 270.876 133.808 270.93 133.961C270.915 133.979 270.934 134.239 270.94 134.301C270.994 134.83 271.077 135.334 271.194 135.856C271.825 138.675 276.171 138.72 277.29 136.274C278.32 134.019 277.566 131.359 276.057 129.493Z" fill="#FF646C"/>
<path d="M275.619 144.451C275.585 143.148 274.565 141.691 273.094 142.184C272.349 142.433 271.981 143.06 271.708 143.74C271.643 143.903 271.597 144.074 271.544 144.243C271.534 144.26 271.52 144.284 271.498 144.326C271.249 144.791 271.218 145.258 271.216 145.768C271.213 147.038 272.601 147.693 273.671 147.394C274.883 147.056 275.652 145.669 275.619 144.451Z" fill="#FF646C"/>
<path d="M184.498 153.392C185.366 150.481 168.844 144.419 167.047 144.08C153.9 141.599 140.529 152.13 138.669 165.385C137.877 171.023 139.796 176.791 142.946 181.531C150.257 192.536 161.922 199.997 173.889 205.065C181.041 208.093 188.515 211.196 196.177 212.626C212.948 215.757 218.461 192.917 222.621 180.703C227.968 164.998 232.573 130.982 206.095 131.028C194.671 131.049 187.389 143.693 184.498 153.392Z" fill="#FF848F"/>
<path d="M198.455 197.238C184.768 196.582 171.97 189.051 163.068 178.62C158.514 173.284 154.796 167.031 153.528 160.127C152.608 155.118 153.124 149.742 155.256 145.167C146.798 148.302 139.96 156.185 138.669 165.385C137.877 171.023 139.796 176.791 142.946 181.533C150.257 192.537 161.922 199.998 173.889 205.066C181.04 208.095 188.515 211.198 196.177 212.627C208.263 214.884 214.502 203.651 218.602 192.628C212.489 195.925 205.398 197.572 198.455 197.238Z" fill="#FF646C"/>
<path d="M214.889 139.278C211.745 136.746 208.425 136.457 204.658 137.597C202.579 138.226 201.771 141.022 203.427 142.554C204.901 143.917 206.419 145.151 207.919 146.453C207.88 146.419 208.228 146.743 208.322 146.811C208.415 146.953 208.636 147.273 208.764 147.48C208.748 147.513 208.858 147.889 208.887 147.978C209.134 148.739 209.416 149.454 209.754 150.186C211.577 154.131 217.985 152.815 218.854 148.86C219.654 145.216 217.701 141.543 214.889 139.278Z" fill="#FFB3BC"/>
<path d="M218.993 161.421C218.529 159.515 216.566 157.698 214.558 158.889C213.541 159.493 213.2 160.534 213.014 161.62C212.969 161.881 212.956 162.148 212.932 162.412C212.922 162.441 212.909 162.481 212.89 162.549C212.672 163.312 212.774 164.009 212.934 164.76C213.331 166.628 215.581 167.15 217.061 166.371C218.736 165.489 219.427 163.203 218.993 161.421Z" fill="#FFB3BC"/>
<path d="M282.943 155.67C284.829 154.317 277.672 142.899 276.743 141.851C269.951 134.183 256.934 134.279 249.605 141.426C246.488 144.465 244.95 148.855 244.637 153.2C243.91 163.287 247.476 173.273 252.344 181.953C255.253 187.141 258.322 192.524 262.289 196.984C270.969 206.745 284.993 195.515 293.226 190.077C303.81 183.085 322.514 164.668 306.474 152.274C299.552 146.927 289.231 151.159 282.943 155.67Z" fill="#FF848F"/>
<path d="M270.869 188.743C262.896 181.924 258.678 171.364 258.174 160.878C257.916 155.514 258.593 149.987 261.056 145.216C262.843 141.754 265.671 138.744 269.102 136.976C262.518 134.905 254.692 136.466 249.606 141.426C246.489 144.465 244.951 148.854 244.638 153.2C243.911 163.287 247.477 173.273 252.345 181.953C255.254 187.14 258.323 192.523 262.29 196.983C268.545 204.019 277.576 200.151 285.215 195.405C279.973 194.531 274.913 192.201 270.869 188.743Z" fill="#FF646C"/>
<path d="M307.934 161.39C307.217 158.383 305.343 156.651 302.531 155.573C300.979 154.978 299.182 156.291 299.467 157.994C299.721 159.51 300.062 160.969 300.36 162.46C300.353 162.421 300.41 162.781 300.436 162.866C300.426 162.995 300.41 163.292 300.39 163.478C300.365 163.49 300.256 163.769 300.232 163.837C300.025 164.412 299.861 164.977 299.724 165.579C298.98 168.821 303.473 171.031 305.849 169.045C308.037 167.217 308.575 164.079 307.934 161.39Z" fill="#FFB3BC"/>
<path d="M300.054 176.71C300.664 175.34 300.328 173.319 298.555 173.099C297.658 172.987 296.964 173.456 296.343 174.026C296.194 174.162 296.061 174.318 295.923 174.467C295.904 174.479 295.877 174.498 295.834 174.53C295.344 174.889 295.08 175.359 294.826 175.888C294.192 177.204 295.309 178.576 296.568 178.798C297.995 179.05 299.483 177.991 300.054 176.71Z" fill="#FFB3BC"/>
<path d="M350.755 164.568C351.402 162.622 340.376 158.183 339.17 157.917C330.348 155.966 321.101 162.794 319.568 171.702C318.917 175.491 320.09 179.425 322.117 182.692C326.822 190.273 334.54 195.554 342.512 199.226C347.276 201.421 352.256 203.672 357.398 204.799C368.653 207.264 372.853 191.962 375.916 183.805C379.854 173.317 383.675 150.452 365.801 149.927C358.09 149.701 352.91 158.082 350.755 164.568Z" fill="#FF848F"/>
<path d="M359.258 194.458C350.033 193.728 341.552 188.376 335.762 181.148C332.8 177.45 330.421 173.151 329.709 168.465C329.193 165.064 329.654 161.446 331.189 158.403C325.414 160.341 320.633 165.519 319.569 171.702C318.917 175.491 320.091 179.425 322.118 182.691C326.822 190.273 334.54 195.554 342.512 199.226C347.276 201.421 352.256 203.672 357.398 204.799C365.509 206.576 369.957 199.124 372.954 191.769C368.758 193.866 363.938 194.829 359.258 194.458Z" fill="#FF646C"/>
<path d="M371.565 155.679C369.496 153.904 367.261 153.64 364.694 154.33C363.278 154.711 362.674 156.581 363.76 157.65C364.726 158.601 365.725 159.466 366.71 160.376C366.685 160.353 366.912 160.579 366.975 160.627C367.034 160.724 367.176 160.945 367.259 161.087C367.247 161.109 367.314 161.365 367.331 161.426C367.482 161.945 367.657 162.433 367.87 162.934C369.017 165.636 373.371 164.882 374.04 162.23C374.657 159.788 373.415 157.267 371.565 155.679Z" fill="#FFB3BC"/>
<path d="M373.871 170.712C373.598 169.416 372.311 168.148 370.931 168.91C370.232 169.296 369.98 169.992 369.831 170.72C369.796 170.895 369.781 171.076 369.759 171.253C369.752 171.273 369.743 171.299 369.728 171.345C369.565 171.855 369.619 172.328 369.711 172.838C369.94 174.107 371.448 174.507 372.464 174.012C373.613 173.453 374.127 171.924 373.871 170.712Z" fill="#FFB3BC"/>
<path d="M243.49 168.649C245.41 167.383 238.776 155.805 237.899 154.732C231.48 146.878 218.598 146.462 211.067 153.244C207.864 156.128 206.17 160.41 205.689 164.697C204.574 174.648 207.71 184.667 212.186 193.447C214.86 198.693 217.686 204.14 221.434 208.708C229.639 218.707 243.954 208.148 252.312 203.093C263.058 196.592 282.285 179.107 266.903 166.214C260.266 160.651 249.888 164.433 243.49 168.649Z" fill="#FF3B4E"/>
<path d="M230.246 200.893C222.625 193.834 218.867 183.221 218.78 172.826C218.735 167.509 219.622 162.067 222.246 157.444C224.15 154.09 227.066 151.223 230.53 149.609C224.097 147.302 216.294 148.537 211.067 153.244C207.864 156.129 206.17 160.411 205.689 164.697C204.574 174.648 207.71 184.668 212.186 193.447C214.86 198.693 217.686 204.14 221.434 208.708C227.347 215.914 236.434 212.444 244.177 208.049C239.026 206.978 234.112 204.474 230.246 200.893Z" fill="#ED2338"/>
<path d="M267.99 175.29C267.399 172.287 265.613 170.5 262.873 169.323C261.361 168.673 259.532 169.901 259.747 171.598C259.938 173.108 260.218 174.564 260.455 176.051C260.449 176.013 260.492 176.371 260.514 176.456C260.499 176.584 260.472 176.877 260.445 177.059C260.42 177.071 260.301 177.342 260.274 177.409C260.047 177.97 259.863 178.522 259.703 179.112C258.84 182.29 263.198 184.654 265.627 182.783C267.864 181.059 268.519 177.976 267.99 175.29Z" fill="#FF646C"/>
<path d="M259.593 190.137C260.252 188.805 259.998 186.792 258.253 186.504C257.369 186.358 256.665 186.796 256.028 187.334C255.875 187.464 255.737 187.613 255.595 187.754C255.575 187.766 255.548 187.783 255.504 187.813C255.006 188.149 254.727 188.603 254.453 189.117C253.774 190.395 254.826 191.795 256.064 192.065C257.464 192.371 258.978 191.383 259.593 190.137Z" fill="#FF646C"/>
<path d="M310.112 168.897C311.152 167.077 300.994 160.399 299.839 159.888C291.389 156.15 280.744 161.125 277.411 169.746C275.993 173.413 276.378 177.593 277.751 181.277C280.939 189.828 287.611 196.681 294.862 201.974C299.196 205.136 303.734 208.4 308.662 210.568C319.447 215.313 326.742 200.823 331.457 193.265C337.519 183.547 345.957 161.399 328.146 157.261C320.461 155.475 313.579 162.831 310.112 168.897Z" fill="#FF3B4E"/>
<path d="M312.61 200.578C303.51 197.981 296.087 190.902 291.739 182.486C289.515 178.181 287.997 173.391 288.228 168.549C288.397 165.037 289.588 161.503 291.74 158.762C285.56 159.539 279.724 163.762 277.411 169.745C275.993 173.412 276.378 177.592 277.751 181.277C280.939 189.827 287.611 196.681 294.862 201.973C299.196 205.136 303.734 208.399 308.661 210.567C316.434 213.987 322.394 207.416 326.882 200.65C322.253 201.904 317.227 201.895 312.61 200.578Z" fill="#ED2338"/>
<path d="M332.764 164.192C331.048 161.994 328.86 161.277 326.148 161.45C324.652 161.546 323.67 163.299 324.542 164.59C325.319 165.739 326.146 166.807 326.951 167.919C326.929 167.89 327.113 168.163 327.165 168.223C327.206 168.333 327.304 168.583 327.357 168.742C327.341 168.762 327.356 169.031 327.362 169.096C327.409 169.647 327.485 170.172 327.598 170.717C328.204 173.657 332.72 173.781 333.925 171.258C335.036 168.935 334.299 166.158 332.764 164.192Z" fill="#FF646C"/>
<path d="M332.046 179.728C332.033 178.374 330.998 176.842 329.461 177.327C328.683 177.573 328.29 178.22 327.994 178.92C327.923 179.089 327.872 179.266 327.814 179.44C327.803 179.458 327.788 179.482 327.765 179.525C327.498 180.004 327.457 180.489 327.447 181.018C327.42 182.337 328.851 183.043 329.969 182.752C331.234 182.422 332.058 180.994 332.046 179.728Z" fill="#FF646C"/>
<path d="M-6.03924 203.52C1.13143 205.366 126.702 246.141 132.25 248.011C137.797 249.881 151.032 244.487 161.727 243.031C172.421 241.574 180.777 241.347 184.778 242.695C190.326 244.565 186.19 250.477 181.024 252.503C175.858 254.529 171.045 258.501 171.045 258.501C171.045 258.501 180.507 261.614 189.616 262.782C198.725 263.95 202.913 261.613 206.169 262.216C209.425 262.819 210.451 266.381 206.918 269.033C203.384 271.686 193.974 272.148 189.434 272.539C184.894 272.93 177.742 272.384 177.742 272.384C177.742 272.384 183.967 276.195 190.46 276.1C196.953 276.006 205.37 274.257 207.356 276.83C209.342 279.402 208.826 282.986 203.077 283.964C196.698 285.049 195.711 285.453 188.727 285.311C189.706 285.622 199.21 286.052 201.821 286.99C204.432 287.927 203.692 292.815 197.862 293.875C197.862 293.875 199.881 298.722 192.094 299.161C184.307 299.599 171.631 298.808 160.518 293.768C149.404 288.728 135.688 283.401 128.856 282.525C122.024 281.648 -2.42616 250.936 -7.96851 249.391L-6.03924 203.52Z" fill="#9B4537"/>
<path d="M374.318 323.548L154.483 326.748C151.003 326.799 148.14 324.015 148.089 320.53L146.265 195.237C146.214 191.752 148.995 188.886 152.475 188.836L372.31 185.635C375.791 185.584 378.654 188.369 378.704 191.853L380.528 317.146C380.579 320.631 377.798 323.497 374.318 323.548Z" fill="#FEA178"/>
<path d="M-2.89296 228.99C5.17327 231.067 122.658 270.893 128.898 272.997C135.139 275.1 146.049 270.362 158.08 268.724C170.11 267.085 179.081 264.989 183.581 266.506C189.821 268.61 185.169 275.261 179.358 277.54C173.547 279.819 168.132 284.287 168.132 284.287C168.132 284.287 178.776 287.789 189.023 289.103C199.27 290.417 203.98 287.788 207.643 288.467C211.306 289.145 212.46 293.151 208.485 296.135C204.51 299.118 193.925 299.638 188.817 300.078C183.71 300.518 175.665 299.904 175.665 299.904C175.665 299.904 182.668 304.191 189.972 304.085C197.276 303.978 206.745 302.012 208.979 304.905C211.213 307.798 210.632 311.83 204.164 312.929C196.99 314.15 195.879 314.605 188.022 314.445C189.123 314.794 199.815 315.279 202.752 316.334C205.69 317.388 204.857 322.886 198.299 324.079C198.299 324.079 200.57 329.532 191.81 330.025C183.05 330.518 168.792 329.629 156.29 323.958C143.788 318.289 128.359 312.296 120.674 311.311C112.989 310.325 1.17083 282.329 -5.06388 280.591L-2.89296 228.99Z" fill="#C9644C"/>
<path d="M146.173 188.927L132.388 228.839C131.551 231.261 133.371 233.781 135.931 233.744L390.942 230.031C393.529 229.994 395.277 227.371 394.318 224.965L378.612 185.544L146.173 188.928L146.173 188.927Z" fill="#FFC29A"/>
<path d="M185.829 269.858C185.037 271.374 184.04 272.902 182.758 274.048C181.333 275.322 179.608 276.196 177.883 276.984C176.073 277.811 174.203 278.546 172.507 279.601C170.749 280.694 169.257 282.07 167.899 283.625C167.793 283.746 167.725 283.925 167.785 284.086C167.811 284.157 167.837 284.291 167.921 284.328C167.95 284.341 167.978 284.353 168.006 284.366C168.152 284.43 168.343 284.465 168.483 284.359C170.18 283.076 171.789 281.65 173.649 280.602C175.569 279.52 177.639 278.75 179.624 277.8C182.635 276.359 186.625 273.806 186.436 270.014C186.42 269.704 185.984 269.561 185.829 269.858Z" fill="#9B4537"/>
<path d="M211.047 292.343C210.946 292.191 210.775 292.161 210.616 292.236C210.075 292.493 209.908 293.07 209.621 293.556C209.308 294.087 208.916 294.558 208.463 294.977C207.459 295.905 206.202 296.493 204.907 296.892C201.82 297.844 198.46 298.154 195.264 298.532C191.997 298.918 188.717 299.17 185.43 299.289C183.789 299.348 182.144 299.329 180.503 299.39C178.812 299.453 177.095 299.301 175.412 299.433C175.076 299.46 174.973 299.973 175.338 300.051C177.014 300.406 178.813 300.404 180.52 300.518C182.32 300.639 184.157 300.579 185.959 300.517C189.584 300.392 193.203 300.088 196.803 299.634C200.073 299.221 203.649 298.959 206.705 297.643C207.926 297.116 209.071 296.375 209.956 295.371C210.576 294.669 211.684 293.306 211.047 292.343Z" fill="#9B4537"/>
<path d="M210.312 307.872C210.228 307.666 210.003 307.602 209.831 307.752C209.373 308.156 209.095 308.739 208.744 309.235C208.314 309.843 207.812 310.365 207.196 310.789C205.932 311.662 204.426 312.082 202.947 312.427C199.519 313.227 196.02 313.789 192.504 313.982C189.237 314.161 186.013 313.993 182.823 313.215C181.301 312.843 179.806 312.383 178.36 311.778C177.639 311.477 176.93 311.156 176.24 310.792C175.625 310.468 175.04 310.058 174.37 309.861C174.233 309.82 174.088 309.995 174.179 310.118C174.846 311.02 176.021 311.609 176.983 312.144C178.127 312.782 179.336 313.3 180.571 313.733C183.026 314.593 185.617 315.042 188.208 315.227C191.266 315.445 194.286 315.337 197.322 314.906C200.1 314.511 203.036 314.087 205.681 313.114C206.928 312.656 208.115 312.014 209.061 311.068C209.835 310.297 210.78 309.02 210.312 307.872Z" fill="#9B4537"/>
<path d="M203.454 320.057C202.486 320.792 201.825 321.806 200.773 322.447C199.628 323.147 198.318 323.499 196.988 323.61C193.879 323.87 190.642 323.201 187.574 322.749C184.634 322.317 181.743 321.818 178.874 321.024C177.402 320.617 175.958 320.122 174.546 319.538C174.403 319.479 172.314 318.395 172.332 318.983C172.348 319.514 172.876 319.671 173.297 319.902C174.004 320.289 174.747 320.618 175.492 320.926C176.84 321.483 178.221 321.967 179.628 322.355C182.723 323.207 185.908 323.765 189.084 324.21C192.19 324.645 195.454 325.309 198.574 324.661C200.553 324.249 203.965 322.74 203.838 320.271C203.83 320.097 203.616 319.934 203.454 320.057Z" fill="#9B4537"/>
<path d="M182.259 267.368C181.225 266.919 176.694 266.536 176.978 268.679C177.051 269.231 177.124 269.783 177.197 270.335C177.294 271.062 177.313 271.937 178.072 272.313C178.669 272.609 179.339 272.445 179.97 272.376C180.505 272.318 181.045 272.274 181.572 272.162C182.578 271.95 183.61 271.317 183.853 270.245C184.131 269.027 183.369 267.85 182.259 267.368Z" fill="#D38171"/>
<path d="M208.886 290.438C208.603 290.103 208.215 289.894 207.81 289.747C206.856 289.398 205.8 289.765 204.988 290.291C204.618 290.531 204.419 290.946 204.485 291.384C204.503 291.509 204.546 291.619 204.601 291.723C204.605 291.752 204.6 291.779 204.606 291.808C204.68 292.194 204.755 292.579 204.829 292.965C204.917 293.418 204.977 293.863 205.307 294.217C205.537 294.462 205.873 294.604 206.209 294.604C206.454 294.604 206.693 294.531 206.927 294.463C207.308 294.352 207.684 294.215 208.033 294.026C208.833 293.594 209.448 292.756 209.441 291.822C209.437 291.294 209.219 290.833 208.886 290.438Z" fill="#D38171"/>
<path d="M207.945 306.336C207.714 305.906 207.323 305.525 206.877 305.327C206.292 305.067 205.655 305.024 205.057 305.275C204.786 305.388 204.54 305.539 204.296 305.69C204.157 305.728 204.021 305.776 203.885 305.854C203.633 305.997 203.477 306.194 203.308 306.421C203.275 306.504 203.242 306.587 203.208 306.669C203.167 306.806 203.163 306.943 203.196 307.08C203.218 307.228 203.281 307.371 203.365 307.5C203.363 307.58 203.367 307.66 203.39 307.737C203.401 307.763 203.412 307.788 203.423 307.814C203.422 307.812 203.419 307.808 203.426 307.828C203.427 307.85 203.437 307.877 203.445 307.901C203.447 307.937 203.451 307.974 203.453 308.011C203.456 308.1 203.457 308.189 203.459 308.279C203.471 308.793 203.579 309.257 203.923 309.652C204.513 310.326 205.612 310.439 206.406 310.112C207.304 309.741 208.082 308.959 208.226 307.962C208.309 307.385 208.222 306.851 207.945 306.336Z" fill="#D38171"/>
<path d="M201.929 317.236C201.547 317.168 201.209 317.185 200.83 317.267C200.607 317.315 200.391 317.397 200.18 317.481C199.937 317.577 199.699 317.717 199.574 317.961C199.548 318.014 199.537 318.069 199.519 318.124C199.316 318.28 199.196 318.519 199.189 318.788C199.184 319.006 199.252 319.19 199.306 319.395C199.333 319.493 199.349 319.594 199.367 319.694C199.38 319.808 199.393 319.92 199.396 320.035C199.416 320.637 199.992 321.071 200.577 320.908C200.983 320.795 201.39 320.681 201.797 320.567C202.012 320.507 202.219 320.45 202.424 320.36C202.735 320.223 203.003 320.013 203.173 319.713C203.727 318.737 202.994 317.425 201.929 317.236Z" fill="#D38171"/>
<path d="M196.965 326.217C196.941 326.133 196.897 326.06 196.834 325.998C196.761 325.89 196.667 325.806 196.55 325.745C196.318 325.626 196.032 325.565 195.779 325.655C195.762 325.66 195.745 325.662 195.728 325.667C195.666 325.666 195.604 325.666 195.541 325.663C195.492 325.66 195.443 325.659 195.393 325.659C195.38 325.657 195.366 325.655 195.352 325.653C195.205 325.609 195.057 325.604 194.911 325.639C194.764 325.648 194.628 325.694 194.502 325.777C194.375 325.848 194.272 325.945 194.197 326.066C194.101 326.174 194.036 326.3 194.004 326.444C193.993 326.543 193.981 326.641 193.969 326.739C193.973 326.939 194.026 327.124 194.128 327.295C194.187 327.369 194.246 327.443 194.304 327.516C194.444 327.651 194.608 327.744 194.796 327.794C194.922 327.819 195.048 327.844 195.174 327.87C195.234 327.882 195.293 327.894 195.352 327.906C195.383 327.913 195.415 327.919 195.447 327.925C195.51 327.938 195.57 327.943 195.638 327.951C195.738 327.977 195.837 327.975 195.936 327.947C195.995 327.949 196.05 327.94 196.103 327.917C196.29 327.862 196.452 327.764 196.588 327.624C196.696 327.512 196.769 327.38 196.823 327.236C196.831 327.225 196.845 327.22 196.853 327.209C196.94 327.111 196.997 326.997 197.027 326.866C197.037 326.778 197.048 326.689 197.059 326.6C197.06 326.463 197.03 326.335 196.965 326.217Z" fill="#D38171"/>
<path d="M171.533 303.142C171.534 303.132 171.539 303.09 171.542 303.058C171.542 303.064 171.54 303.069 171.539 303.075C171.537 303.097 171.536 303.118 171.533 303.142Z" fill="#9B4537"/>
<path d="M171.544 303.054C171.55 303.002 171.547 303.023 171.543 303.058C171.543 303.056 171.543 303.055 171.544 303.054Z" fill="#9B4537"/>
<path d="M171.53 302.751C171.438 302.432 171.118 302.203 170.851 302.041C170.693 301.946 170.538 301.847 170.384 301.744C170.295 301.683 170.207 301.612 170.112 301.561C170.023 301.512 169.926 301.475 169.835 301.43C169.697 301.364 169.561 301.285 169.409 301.263C169.365 301.257 169.321 301.25 169.278 301.243C169.098 301.215 168.955 301.24 168.809 301.324C168.679 301.357 168.568 301.45 168.575 301.6C168.577 301.625 168.57 301.62 168.564 301.642C168.539 301.726 168.531 301.8 168.544 301.888C168.556 301.971 168.589 302.026 168.616 302.103C168.618 302.11 168.564 301.984 168.588 302.042C168.602 302.078 168.619 302.114 168.634 302.149C168.673 302.237 168.703 302.31 168.763 302.386C168.798 302.431 168.834 302.474 168.873 302.516C169.035 302.693 169.195 302.859 169.397 302.993C169.557 303.099 169.718 303.2 169.882 303.298C170.09 303.421 170.302 303.563 170.542 303.604C170.773 303.645 171.006 303.676 171.219 303.547C171.286 303.507 171.354 303.446 171.41 303.388C171.5 303.296 171.524 303.196 171.538 303.075C171.553 302.966 171.562 302.86 171.53 302.751Z" fill="#9B4537"/>
<path d="M170.287 312.961C170.241 312.879 170.173 312.821 170.103 312.767C170.024 312.705 169.945 312.63 169.861 312.582C169.815 312.556 169.759 312.54 169.705 312.52C169.607 312.48 169.511 312.436 169.419 312.385C169.271 312.303 169.126 312.241 168.952 312.238C168.905 312.238 168.858 312.238 168.81 312.236C168.623 312.228 168.449 312.337 168.341 312.48C168.225 312.635 168.192 312.818 168.242 313.006C168.271 313.117 168.305 313.231 168.366 313.33C168.463 313.487 168.624 313.589 168.772 313.693C168.832 313.736 168.895 313.776 168.958 313.813C168.992 313.833 169.027 313.854 169.063 313.873C169.077 313.881 169.092 313.888 169.107 313.895C169.277 313.978 169.321 313.979 169.509 313.998C169.608 314.009 169.698 314.012 169.797 313.998C169.897 313.983 169.971 313.963 170.065 313.906C170.156 313.85 170.254 313.754 170.306 313.656C170.31 313.648 170.313 313.64 170.317 313.633C170.319 313.629 170.32 313.625 170.322 313.621C170.365 313.525 170.377 313.462 170.387 313.362C170.388 313.352 170.388 313.341 170.39 313.33C170.4 313.204 170.349 313.07 170.287 312.961Z" fill="#9B4537"/>
<path d="M168.63 322.014C168.585 322 168.537 321.997 168.49 321.995C168.464 321.989 168.438 321.984 168.411 321.977C168.298 321.945 168.185 321.952 168.071 321.972C168.012 321.978 167.954 321.978 167.895 321.974C167.883 321.972 167.87 321.971 167.859 321.967C167.847 321.964 167.836 321.96 167.825 321.957C167.725 321.934 167.629 321.94 167.531 321.954C167.54 321.953 167.549 321.952 167.557 321.95C167.486 321.96 167.414 321.963 167.342 321.955C167.362 321.958 167.381 321.96 167.401 321.962C167.231 321.935 167.067 321.967 166.943 322.095C166.828 322.213 166.765 322.413 166.824 322.574C166.898 322.77 166.991 322.915 167.127 323.073C167.318 323.296 167.637 323.346 167.915 323.347C168.032 323.348 168.149 323.327 168.263 323.308C168.403 323.284 168.53 323.231 168.642 323.141C168.738 323.065 168.821 322.957 168.877 322.845C168.935 322.729 168.99 322.602 168.988 322.47C168.982 322.252 168.833 322.076 168.63 322.014Z" fill="#9B4537"/>
<path d="M-9.57932 196.209C-2.55489 196.609 118.907 241.018 120.949 243.499C122.99 245.979 123.848 283.203 117.954 285.25C112.061 287.297 101.47 282.933 92.9566 283.559C84.4435 284.185 -3.10982 261.869 -7.66417 258.923C-12.2185 255.978 -9.57932 196.209 -9.57932 196.209Z" fill="#2D100A"/>
<path d="M-6.85325 222.716C0.171182 223.116 121.634 267.525 123.675 270.005C125.716 272.485 126.574 309.71 120.68 311.756C114.787 313.803 104.196 309.44 95.6827 310.066C87.1696 310.692 -0.383751 288.375 -4.9381 285.43C-9.49245 282.485 -6.85325 222.716 -6.85325 222.716Z" fill="#4C1E19"/>
<path d="M103.334 271.137C102.993 269.319 102.521 267.518 102.02 265.737C101.855 265.153 101.291 261.911 100.112 262.557C99.1099 263.106 100 265.123 100.181 265.933C100.526 267.481 100.829 269.04 101.084 270.605C101.589 273.693 102.04 276.771 102.261 279.895C102.693 285.984 102.536 292.178 101.587 298.212C101.333 299.826 101.005 301.43 100.539 302.997C100.31 303.767 100.054 304.531 99.7438 305.272C99.3829 306.135 99.2234 306.771 99.1997 307.704C99.1846 308.288 99.9334 308.747 100.429 308.387C100.998 307.975 101.474 307.597 101.795 306.954C102.157 306.228 102.423 305.425 102.678 304.655C103.158 303.202 103.504 301.708 103.771 300.202C104.328 297.057 104.613 293.849 104.755 290.66C105.045 284.125 104.544 277.566 103.334 271.137Z" fill="#2D100A"/>
<path d="M120.892 304.513C119.909 303.56 118.088 303.753 116.808 303.767C115.438 303.781 114.071 303.881 112.703 303.962C111.347 304.042 109.993 304.086 108.634 304.064C107.223 304.041 105.897 303.752 104.51 303.546C103.671 303.421 103.113 304.511 103.927 304.988C106.303 306.378 109.508 306.339 112.171 306.286C113.588 306.257 115.003 306.195 116.421 306.211C117.126 306.218 117.831 306.245 118.533 306.307C119.33 306.376 119.968 306.483 120.71 306.111C121.301 305.813 121.33 304.939 120.892 304.513Z" fill="#2D100A"/>
<path d="M122.036 298.558C122.035 298.531 122.034 298.503 122.033 298.476C122.018 298.09 121.806 297.6 121.42 297.442C118.769 296.354 115.737 297.509 113.001 297.707C111.563 297.811 110.125 297.874 108.684 297.802C108.395 297.787 105.856 297.455 106.059 298.22C106.332 299.25 108.482 299.339 109.319 299.467C110.735 299.684 112.157 299.812 113.589 299.776C114.981 299.742 116.359 299.542 117.748 299.478C118.422 299.446 119.08 299.465 119.748 299.564C120.443 299.666 121.259 299.888 121.764 299.242C121.909 299.056 121.991 298.813 122.002 298.573C122.014 298.567 122.025 298.562 122.036 298.558Z" fill="#2D100A"/>
<path d="M120.91 291.025C120.751 291.035 120.61 291.101 120.501 291.201C120.384 291.208 120.267 291.21 120.151 291.188C119.855 291.169 119.558 291.131 119.263 291.103C118.572 291.037 117.881 290.975 117.191 290.915C115.809 290.795 114.425 290.668 113.041 290.588C111.659 290.509 110.271 290.482 108.887 290.446C108.192 290.429 107.503 290.431 106.81 290.492C106.355 290.532 105.989 290.583 105.716 290.972C105.665 291.044 105.682 291.145 105.72 291.218C106.041 291.827 106.915 291.839 107.519 291.946C108.389 292.102 109.279 292.169 110.157 292.277C111.919 292.494 113.68 292.704 115.444 292.903C116.285 292.998 117.124 293.097 117.963 293.201C118.805 293.305 119.738 293.552 120.582 293.475C121.346 293.405 122.108 292.838 121.994 291.995C121.92 291.46 121.471 290.987 120.91 291.025Z" fill="#2D100A"/>
<path d="M120.887 284.097C120.764 284.054 120.647 284.035 120.537 284.037C119.445 283.835 118.281 283.892 117.181 283.829C115.891 283.756 114.601 283.654 113.313 283.553C112.055 283.453 110.798 283.327 109.546 283.168C108.367 283.018 107.134 282.719 105.955 282.953C105.544 283.034 105.569 283.581 105.86 283.775C106.917 284.482 108.323 284.627 109.55 284.861C110.771 285.093 111.996 285.3 113.226 285.478C114.454 285.656 115.686 285.786 116.923 285.886C118.231 285.993 119.616 286.201 120.914 285.96C121.937 285.77 121.692 284.376 120.887 284.097Z" fill="#2D100A"/>
<path d="M121.201 278.388C120.821 278.199 120.55 277.934 120.13 277.844C119.982 277.812 119.824 277.849 119.704 277.934C119.588 277.916 119.472 277.898 119.359 277.878C118.715 277.765 118.064 277.681 117.417 277.59C116.18 277.418 114.941 277.259 113.701 277.112C112.457 276.964 111.211 276.818 109.961 276.726C108.705 276.633 107.519 276.518 106.292 276.854C106.095 276.908 106.054 277.204 106.24 277.3C107.366 277.877 108.544 278.03 109.779 278.248C111.014 278.465 112.254 278.657 113.489 278.874C114.726 279.091 115.961 279.321 117.193 279.565C118.374 279.798 119.814 280.319 121.005 280.076C121.774 279.918 121.886 278.728 121.201 278.388Z" fill="#2D100A"/>
<path d="M119.901 273.081C119.708 273.049 119.533 272.998 119.346 272.941C119.294 272.925 119.243 272.921 119.194 272.921C118.151 272.722 117.012 272.704 115.989 272.561C114.637 272.371 113.285 272.169 111.94 271.93C110.644 271.7 109.352 271.438 108.068 271.146C107.105 270.926 105.558 270.294 104.636 270.885C104.536 270.95 104.521 271.062 104.568 271.164C105.037 272.201 106.819 272.482 107.792 272.765C109.056 273.131 110.327 273.468 111.606 273.774C112.884 274.08 114.168 274.358 115.461 274.586C116.778 274.818 118.316 275.249 119.651 275.145C120.757 275.059 121.136 273.284 119.901 273.081Z" fill="#2D100A"/>
<path d="M117.889 268.329C116.476 268.013 115.064 267.69 113.645 267.399C112.269 267.117 110.892 266.834 109.516 266.551C108.781 266.401 108.044 266.287 107.302 266.176C106.651 266.079 106.015 265.979 105.379 266.2C105.176 266.27 105.106 266.519 105.26 266.676C106.02 267.449 107.317 267.696 108.326 267.99C109.504 268.332 110.703 268.613 111.89 268.924C113.078 269.236 114.266 269.544 115.46 269.835L117.249 270.272C117.438 270.318 117.657 270.341 117.835 270.416C118.065 270.513 118.2 270.795 118.052 270.437C118.316 271.074 119.231 271.316 119.61 270.618C120.289 269.365 118.928 268.561 117.889 268.329Z" fill="#2D100A"/>
<path d="M106.866 254.629C107.123 252.713 107.223 250.786 107.165 248.854C107.109 246.988 106.893 245.127 106.534 243.295C106.194 241.559 105.834 239.364 104.787 237.899C104.45 237.426 103.559 237.558 103.609 238.236C103.674 239.127 103.988 239.999 104.209 240.861C104.432 241.727 104.632 242.597 104.79 243.477C105.128 245.362 105.278 247.282 105.267 249.196C105.257 251.048 105.06 252.897 104.706 254.715C104.368 256.442 103.802 258.432 104.34 260.178C104.671 261.255 106.007 261.068 106.371 260.149C106.679 259.373 106.389 258.256 106.459 257.416C106.537 256.482 106.742 255.559 106.866 254.629Z" fill="#4C1E19"/>
<path d="M120.27 245.566C119.927 244.584 118.452 244.386 117.562 244.09C116.575 243.763 115.576 243.473 114.58 243.178C113.582 242.882 112.584 242.593 111.583 242.311C111.097 242.174 110.618 242.036 110.122 241.946C109.865 241.899 109.584 241.822 109.32 241.828C109.065 241.833 108.882 241.945 108.642 242.008C108.455 242.058 108.423 242.286 108.54 242.416C108.716 242.612 108.806 242.8 109.034 242.95C109.236 243.083 109.483 243.162 109.704 243.259C110.191 243.471 110.692 243.634 111.194 243.806C112.147 244.132 113.098 244.464 114.047 244.801C114.996 245.139 115.939 245.493 116.888 245.83C117.362 245.998 117.838 246.161 118.312 246.329C118.874 246.527 119.393 246.747 119.945 246.4C120.208 246.235 120.378 245.874 120.27 245.566Z" fill="#4C1E19"/>
<path d="M120.65 250.5C119.932 249.714 118.735 249.332 117.771 248.943C116.815 248.557 115.843 248.21 114.847 247.944C113.849 247.678 112.836 247.467 111.814 247.315C110.804 247.164 109.675 246.988 108.679 247.285C108.268 247.408 108.145 248.051 108.567 248.251C109.438 248.665 110.444 248.773 111.384 248.97C112.361 249.175 113.327 249.433 114.276 249.743C115.209 250.048 116.132 250.382 117.029 250.781C117.704 251.08 118.388 251.522 119.1 251.796C119.108 252.088 119.419 252.32 119.701 252.227C119.978 252.135 120.241 252.054 120.491 251.899C120.999 251.584 121.036 250.922 120.65 250.5Z" fill="#4C1E19"/>
<path d="M119.172 255.308C118.668 254.991 118.077 254.874 117.507 254.732C116.91 254.583 116.311 254.437 115.711 254.298C114.544 254.028 113.356 253.831 112.176 253.628C110.984 253.423 109.64 253.067 108.438 253.323C107.888 253.441 107.908 254.173 108.309 254.437C109.132 254.979 110.244 255.157 111.185 255.399C112.113 255.639 113.037 255.888 113.959 256.149C114.881 256.409 115.808 256.651 116.731 256.905C117.172 257.026 117.626 257.125 118.061 257.259C118.219 257.307 118.337 257.365 118.485 257.443C118.568 257.473 118.644 257.513 118.716 257.563C118.724 257.567 118.727 257.568 118.734 257.571C118.884 257.854 119.226 257.924 119.512 257.792C119.919 257.605 120.15 257.155 120.142 256.715C120.133 256.1 119.656 255.613 119.172 255.308Z" fill="#4C1E19"/>
<path d="M120.337 261.161C119.505 260.506 118.453 260.233 117.437 259.991C116.391 259.742 115.342 259.507 114.29 259.285C113.27 259.07 112.254 258.866 111.221 258.726C110.709 258.656 110.196 258.585 109.682 258.527C109.235 258.477 108.692 258.404 108.313 258.686C108.147 258.809 108.073 259.016 108.185 259.206C108.609 259.929 109.949 260.085 110.693 260.315C111.685 260.622 112.685 260.894 113.684 261.177C114.683 261.46 115.678 261.755 116.67 262.063C117.636 262.363 118.713 262.77 119.738 262.676C120.412 262.614 120.991 261.677 120.337 261.161Z" fill="#4C1E19"/>
<path d="M379.262 230.202L146.971 243.73L146.823 233.585L379.262 230.202Z" fill="#E88964"/>
<path d="M367.503 297.277C365.009 299.377 363.133 302.277 361.247 304.915C359.313 307.619 357.075 310.243 355.864 313.349C354.728 316.261 358.957 318.151 360.891 316.182C363.188 313.843 364.663 310.598 366.363 307.81C368.046 305.05 369.881 302.278 370.9 299.192C371.595 297.091 368.892 296.107 367.503 297.277Z" fill="#FFC29A"/>
<path d="M372.276 308.688C372.183 308.198 371.566 307.914 371.12 308.053C370.759 308.166 370.386 308.261 370.031 308.393C369.398 308.627 368.954 309.107 368.477 309.564C367.589 310.415 366.929 311.286 366.343 312.37C365.68 313.596 366.092 315.192 367.318 315.887C368.599 316.612 370.066 316.079 370.831 314.91C371.505 313.879 371.927 312.879 372.252 311.692C372.409 311.123 372.571 310.593 372.516 309.999C372.476 309.561 372.359 309.119 372.276 308.688Z" fill="#FFC29A"/>
<path d="M372.903 192.227C371.908 191.434 370.921 190.632 369.683 190.26C368.7 189.965 367.251 190.134 366.928 191.31C366.369 193.345 368.726 194.961 369.924 196.246C371.314 197.738 372.688 199.559 374.943 199.376C375.57 199.325 376.02 198.967 376.218 198.375C377.085 195.772 374.738 193.685 372.903 192.227Z" fill="#FFD6C0"/>
<path d="M376.431 203.575C376.272 202.514 375.38 201.7 374.432 201.27C373.613 200.897 372.676 200.902 371.784 200.864C371.238 200.84 370.874 201.524 371.17 201.972C371.629 202.669 371.939 203.438 372.485 204.068C372.799 204.431 373.16 204.702 373.558 204.971C374.05 205.303 374.493 205.372 375.075 205.412C376.113 205.48 376.557 204.41 376.431 203.575Z" fill="#FFD6C0"/>
<path d="M144.492 224.149C143.987 223.314 143.047 222.466 142.227 221.972C141.423 221.487 140.358 220.769 139.386 221.052C139.05 221.15 138.371 221.427 138.273 221.822C138.065 222.656 138.043 223.239 138.519 224.007C139.024 224.821 139.562 225.588 140.227 226.276C141.228 227.31 143.131 228.763 144.485 227.381C145.286 226.563 145.039 225.055 144.492 224.149Z" fill="#FFD6C0"/>
<path d="M286.89 300.154C299.813 286.832 299.503 265.544 286.198 252.604C272.893 239.665 251.631 239.974 238.708 253.296C225.785 266.617 226.095 287.906 239.4 300.845C252.705 313.785 273.968 313.475 286.89 300.154Z" fill="white"/>
<path d="M276.032 256.176C270.291 255.293 265.572 260.608 263.028 265.375C262.737 265.055 262.439 264.741 262.13 264.442C260.931 263.286 259.497 262.288 258.063 261.447C250.328 256.915 239.425 260.119 236.721 269.07C235.821 272.05 236.373 275.328 237.677 278.154C240.705 284.715 246.382 289.727 252.422 293.471C256.032 295.708 259.811 298.013 263.83 299.43C272.629 302.532 277.523 290.655 280.795 284.405C285.001 276.369 290.342 258.377 276.032 256.176Z" fill="#FF3B4E"/>
</g>
<mask id="mask1_381_2" style="mask-type:luminance" maskUnits="userSpaceOnUse" x="0" y="0" width="525" height="354">
<path d="M519.026 -4.59548e-05L0.41748 7.5498L5.45699 353.72L524.066 346.17L519.026 -4.59548e-05Z" fill="white"/>
</mask>
<g mask="url(#mask1_381_2)">
<path d="M589.518 241.281C581.521 243.957 485.368 263.278 481.361 264.068C477.354 264.858 431.417 245.777 421.556 245.92C411.696 246.064 415.825 253.684 420.244 256.18C424.664 258.676 433.17 265.866 433.17 265.866C433.17 265.866 420.844 272.263 412.428 271.289C404.013 270.314 393.745 267.537 389.013 268.704C384.281 269.87 383.991 274.995 389.141 277.48C394.291 279.965 404.903 281.274 410.026 281.93C415.15 282.587 422.808 281.744 422.808 281.744C422.808 281.744 418.849 285.825 411.18 285.937C403.511 286.049 392.523 284.014 388.898 285.896C385.272 287.777 388.65 293.945 393.778 294.968C398.907 295.991 404.417 298.105 411.705 296.902C418.993 295.699 425.535 293.409 425.535 293.409C425.535 293.409 420.857 298.232 414.654 298.688C408.451 299.144 404.627 300.297 401.163 300.347C396.05 300.422 395.421 307.38 403.461 307.629C411.5 307.877 412.607 308.592 418.064 307.05C423.52 305.508 430.776 302.111 430.776 302.111C430.776 302.111 425.527 308.835 420.308 310.675C415.375 312.413 410.109 312.652 407.558 313.055C405.007 313.458 406.352 319.32 412.036 319.573C417.145 319.8 421.527 319.069 428.078 317.511C434.631 315.952 436.425 313.732 442.623 312.91C448.821 312.089 473.14 301.494 478.613 301.048C484.086 300.603 588.12 295.797 591.772 295.744L589.518 241.281Z" fill="#FEA178"/>
<path d="M434.613 265.085C431.729 261.898 428.284 259.587 424.537 257.542C421.143 255.69 417.284 253.341 416.613 249.18C416.573 248.932 416.319 248.744 416.096 248.678C415.931 248.628 415.791 248.622 415.634 248.706C415.601 248.723 415.568 248.741 415.535 248.759C415.329 248.869 415.155 249.157 415.182 249.395C415.681 253.639 419.007 256.393 422.478 258.414C424.392 259.528 426.365 260.531 428.172 261.82C430.047 263.159 431.723 264.771 433.22 266.52C433.43 266.765 433.897 266.884 434.196 266.764C434.468 266.654 434.634 266.548 434.786 266.295C435.027 265.896 434.908 265.41 434.613 265.085Z" fill="#E8835B"/>
<path d="M432.007 276.733C430.393 277.014 428.886 277.764 427.33 278.281C425.814 278.784 424.289 279.253 422.737 279.639C419.578 280.424 416.352 280.917 413.103 281.105C406.9 281.464 400.44 280.837 394.577 278.694C393.028 278.128 391.527 277.42 390.12 276.558C389.389 276.109 388.665 275.644 387.989 275.117C387.351 274.62 386.806 274.089 386.059 273.759C385.761 273.628 385.307 273.866 385.452 274.242C385.969 275.591 387.275 276.514 388.403 277.349C389.633 278.259 390.996 278.994 392.388 279.619C395.29 280.925 398.372 281.756 401.497 282.324C408.166 283.536 415.05 283.466 421.695 282.128C423.613 281.742 425.517 281.258 427.377 280.653C429.174 280.069 431.195 279.461 432.685 278.28C433.446 277.677 432.988 276.563 432.007 276.733Z" fill="#E8835B"/>
<path d="M434.045 287.77C433.316 287.453 432.784 287.714 432.122 288.067C431.342 288.483 430.603 288.982 429.832 289.416C428.325 290.263 426.774 291.039 425.186 291.722C422.066 293.064 418.808 294.089 415.486 294.792C412.159 295.497 408.756 295.85 405.356 295.911C402.226 295.967 398.996 295.844 395.953 295.045C394.484 294.659 393.072 294.101 391.795 293.27C390.499 292.426 389.456 291.198 388.592 289.932C388.384 289.627 387.972 289.839 388.028 290.18C388.146 290.903 388.244 291.409 388.648 292.033C389.043 292.644 389.522 293.21 390.053 293.707C391.092 294.679 392.336 295.401 393.641 295.951C396.567 297.184 399.729 297.604 402.876 297.794C410.187 298.237 417.593 296.973 424.409 294.306C426.326 293.556 428.205 292.699 430.023 291.732C430.892 291.27 431.749 290.783 432.589 290.27C433.354 289.802 434.341 289.242 434.319 288.232C434.316 288.058 434.216 287.845 434.045 287.77Z" fill="#E8835B"/>
<path d="M434.126 298.499C433.275 298.631 432.559 298.807 431.798 299.221C431.052 299.628 430.328 300.076 429.588 300.492C428.202 301.274 426.801 302.029 425.374 302.736C422.521 304.151 419.564 305.339 416.492 306.184C413.454 307.021 410.308 307.454 407.156 307.306C405.579 307.232 403.999 307.025 402.463 306.658C401.727 306.482 400.966 306.295 400.29 305.947C399.722 305.655 399.249 305.231 398.725 304.874C398.518 304.733 398.235 304.929 398.241 305.161C398.3 307.308 401.676 308.045 403.281 308.453C405.865 309.112 408.58 309.249 411.234 309.056C416.762 308.652 421.96 306.778 426.894 304.333C428.273 303.649 429.631 302.922 430.975 302.172C431.623 301.81 432.283 301.461 432.915 301.071C433.653 300.615 434.141 300.074 434.665 299.394C435.008 298.95 434.672 298.415 434.126 298.499Z" fill="#E8835B"/>
<path d="M487.451 293.603C486.152 293.843 485.138 294.67 484.036 295.365C482.915 296.072 481.766 296.733 480.597 297.357C478.202 298.635 475.73 299.767 473.224 300.809C468.037 302.964 462.741 304.878 457.447 306.751C446.488 310.626 435.371 313.998 424.134 316.964C421.434 317.676 418.735 318.41 415.952 318.709C414.638 318.85 413.286 318.883 411.983 318.636C410.681 318.391 409.53 317.829 408.383 317.188C407.873 316.903 407.412 317.571 407.789 317.983C409.309 319.645 411.676 320.263 413.852 320.457C416.28 320.672 418.691 320.266 421.052 319.729C426.869 318.404 432.63 316.783 438.354 315.109C449.81 311.761 461.199 308.045 472.293 303.633C475.141 302.5 477.97 301.294 480.693 299.884C482.096 299.157 483.474 298.379 484.811 297.539C486.083 296.741 487.522 295.94 488.212 294.566C488.487 294.018 488.016 293.5 487.451 293.603Z" fill="#E8835B"/>
<path d="M466.744 269.642C465.512 269.191 464.229 269.816 463.05 270.197C461.883 270.574 460.689 270.87 459.481 271.084C457.012 271.521 454.462 271.618 451.966 271.397C449.452 271.175 446.982 270.55 444.614 269.685C443.464 269.265 442.348 268.754 441.272 268.17C440.732 267.877 440.196 267.583 439.652 267.298C439.141 267.028 438.568 266.649 437.968 266.727C437.796 266.75 437.597 266.878 437.622 267.084C437.765 268.231 439.224 269.114 440.113 269.688C441.29 270.448 442.527 271.114 443.808 271.681C446.307 272.787 448.965 273.482 451.674 273.82C454.445 274.164 457.209 274.135 459.963 273.674C461.345 273.443 462.711 273.106 464.041 272.66C465.317 272.234 466.684 271.706 467.16 270.351C467.271 270.035 467.018 269.742 466.744 269.642Z" fill="#E8835B"/>
<path d="M453.671 300.408C453.55 299.093 453.365 297.783 453.156 296.48C452.765 294.047 452.174 291.644 451.352 289.319C449.696 284.633 447.306 280.213 444.236 276.304C443.405 275.247 442.546 274.214 441.599 273.259C440.649 272.303 439.72 271.352 438.416 270.922C438.209 270.854 437.977 271.086 438.056 271.294C438.56 272.628 439.553 273.62 440.407 274.739C441.308 275.919 442.194 277.104 443.002 278.352C444.558 280.751 445.892 283.304 446.941 285.966C447.999 288.647 448.794 291.438 449.349 294.266C449.624 295.668 449.831 297.086 449.934 298.512C449.988 299.254 450.019 299.997 450.032 300.741C450.044 301.416 450.143 302.125 450.076 302.796C449.952 304.04 451.643 304.893 452.616 304.206C453.918 303.287 453.802 301.832 453.671 300.408Z" fill="#E8835B"/>
<path d="M592.402 239.31C585.1 231.147 491.311 257.462 488.92 260.704C486.529 263.946 489.787 296.296 492.981 300.42C496.176 304.544 591.901 300.584 596.748 298.589C601.596 296.593 595.235 242.476 592.402 239.31Z" fill="#ABD6F4"/>
<path d="M493.623 299.442C493.284 297.832 492.775 296.25 492.39 294.648C492.005 293.045 491.653 291.432 491.336 289.813C490.697 286.554 490.222 283.273 489.842 279.976C489.464 276.695 489.225 273.399 489.125 270.098C489.075 268.449 489.059 266.799 489.08 265.149C489.09 264.379 489.107 263.61 489.132 262.84C489.158 262.011 489.282 261.157 489.119 260.341C488.967 259.579 487.921 259.739 487.714 260.361C487.456 261.14 487.507 262.049 487.464 262.864C487.417 263.744 487.38 264.623 487.353 265.504C487.302 267.153 487.287 268.804 487.307 270.454C487.346 273.753 487.524 277.05 487.841 280.333C488.157 283.598 488.657 286.853 489.265 290.075C489.887 293.376 490.496 296.855 491.626 300.025C492.078 301.292 493.899 300.754 493.623 299.442Z" fill="#6BA1BF"/>
<path d="M513.129 297.767C512.745 296.265 512.384 294.756 512.048 293.243C511.388 290.27 510.819 287.276 510.345 284.268C509.377 278.133 508.779 271.925 508.565 265.718C508.507 264.002 508.496 262.287 508.468 260.57C508.454 259.74 508.446 258.909 508.446 258.079C508.445 257.182 508.527 256.266 508.325 255.386C508.146 254.602 507.054 254.728 506.841 255.408C506.405 256.799 506.542 258.486 506.491 259.934C506.438 261.484 506.442 263.035 506.466 264.586C506.514 267.74 506.664 270.895 506.915 274.04C507.413 280.263 508.358 286.454 509.671 292.555C510.032 294.234 510.422 295.905 510.842 297.569C511.058 298.428 511.283 299.285 511.516 300.14C511.738 300.961 511.942 301.713 512.724 302.164C513.023 302.337 513.441 302.225 513.607 301.918C514.275 300.681 513.449 299.02 513.129 297.767Z" fill="#6BA1BF"/>
<path d="M501.745 259.088C500.736 258.961 499.702 259.658 498.782 260.033C497.785 260.439 496.771 260.802 495.742 261.121C494.749 261.429 493.742 261.697 492.726 261.921C492.22 262.033 491.709 262.127 491.212 262.274C490.74 262.415 490.477 262.675 490.202 263.07C490.148 263.147 490.17 263.287 490.242 263.348C490.612 263.657 490.95 263.835 491.444 263.821C492.002 263.805 492.559 263.703 493.107 263.602C494.166 263.407 495.216 263.166 496.254 262.88C497.29 262.594 498.314 262.264 499.322 261.89C499.857 261.692 500.388 261.486 500.907 261.248C501.442 261.002 501.933 260.812 502.256 260.297C502.513 259.886 502.269 259.154 501.745 259.088Z" fill="#6BA1BF"/>
<path d="M503.402 265.69C502.78 265.543 502.199 265.72 501.588 265.852C501.002 265.979 500.416 266.11 499.831 266.245C498.74 266.497 497.66 266.794 496.582 267.097C495.503 267.4 494.428 267.716 493.357 268.045C492.819 268.21 492.299 268.417 491.775 268.623C491.279 268.819 490.788 269.005 490.524 269.499C490.435 269.666 490.488 269.886 490.657 269.979C491.476 270.428 492.763 269.961 493.608 269.765C494.74 269.502 495.866 269.217 497 268.963C498.096 268.718 499.196 268.497 500.29 268.251C500.837 268.129 501.385 268.01 501.933 267.894C502.515 267.772 503.154 267.725 503.646 267.365L503.607 267.35C504.213 266.925 504.282 265.898 503.402 265.69Z" fill="#6BA1BF"/>
<path d="M502.914 272.331C502.138 271.763 500.684 272.178 499.803 272.307C498.78 272.459 497.765 272.676 496.758 272.904C495.775 273.128 494.763 273.339 493.806 273.658C493.342 273.812 492.878 274.004 492.428 274.195C492.034 274.362 491.569 274.56 491.355 274.948C491.284 275.075 491.328 275.245 491.457 275.317C491.829 275.524 492.303 275.465 492.715 275.412C493.228 275.346 493.747 275.292 494.257 275.207C495.229 275.045 496.192 274.836 497.167 274.686C498.123 274.538 499.084 274.435 500.042 274.312C500.961 274.193 502.42 274.271 503.088 273.541C503.453 273.14 503.318 272.626 502.914 272.331Z" fill="#6BA1BF"/>
<path d="M503.611 277.953C502.725 277.36 501.272 277.906 500.321 278.108C499.184 278.349 498.049 278.587 496.92 278.857C495.828 279.118 494.737 279.379 493.645 279.64C493.176 279.752 492.508 279.886 492.107 280.163C491.938 280.279 491.59 280.713 491.769 280.946C492.347 281.694 493.638 281.304 494.443 281.177C495.522 281.007 496.601 280.837 497.68 280.667C498.757 280.497 499.828 280.293 500.9 280.096C501.905 279.911 503.265 279.852 503.883 278.931C504.109 278.591 503.912 278.155 503.611 277.953Z" fill="#6BA1BF"/>
<path d="M504.412 283.972C503.381 283.893 502.268 284.141 501.247 284.282C500.259 284.418 499.267 284.552 498.29 284.746C497.328 284.936 496.373 285.166 495.422 285.404C494.468 285.643 493.339 285.843 492.553 286.469C492.304 286.668 492.284 287.127 492.661 287.209C493.639 287.421 494.689 287.148 495.663 287.007C496.631 286.867 497.602 286.757 498.575 286.643C499.551 286.529 500.524 286.395 501.503 286.298C502.404 286.208 503.346 286.198 504.245 286.047C504.572 286.106 504.923 286.002 505.155 285.695C505.699 284.977 505.337 284.043 504.412 283.972Z" fill="#6BA1BF"/>
<path d="M506.512 289.735C505.859 288.957 504.311 289.251 503.435 289.348C502.261 289.478 501.09 289.661 499.923 289.842C498.803 290.016 497.699 290.219 496.595 290.478C496.049 290.606 495.483 290.71 494.955 290.897C494.706 290.985 494.389 291.075 494.164 291.213C493.998 291.314 493.877 291.47 493.702 291.558C493.49 291.665 493.627 291.941 493.817 291.959C494.079 291.985 494.26 292.107 494.54 292.118C494.776 292.128 495.024 292.145 495.261 292.139C495.819 292.126 496.386 292.035 496.943 291.987C498.071 291.892 499.193 291.77 500.319 291.659C501.447 291.547 502.579 291.482 503.708 291.374C504.636 291.285 506.066 291.325 506.612 290.422C506.751 290.19 506.673 289.927 506.512 289.735Z" fill="#6BA1BF"/>
<path d="M503.301 295.669C502.32 295.658 501.336 295.767 500.358 295.839C498.499 295.975 496.602 296.107 494.785 296.541C494.495 296.611 494.491 297.089 494.794 297.141C496.63 297.461 498.522 297.481 500.382 297.502C501.362 297.513 502.35 297.561 503.328 297.49C503.928 297.447 505.399 297.448 505.385 296.523C505.372 295.6 503.907 295.676 503.301 295.669Z" fill="#6BA1BF"/>
</g>
<path d="M65.5819 187.905C65.7534 187.328 62.4818 186.127 62.1253 186.06C59.5211 185.569 56.8735 187.655 56.5051 190.28C56.3484 191.396 56.7281 192.539 57.3525 193.478C58.8007 195.657 61.1108 197.135 63.4811 198.138C64.8973 198.738 66.378 199.353 67.8954 199.636C71.2166 200.256 72.3092 195.733 73.133 193.314C74.1923 190.204 75.1039 183.466 69.8602 183.476C67.5965 183.479 66.155 185.984 65.5819 187.905Z" fill="white"/>
<path d="M488.015 146.68C488.514 146.346 486.759 143.332 486.527 143.053C484.834 141.012 481.466 140.927 479.51 142.714C478.678 143.474 478.243 144.597 478.125 145.719C477.852 148.322 478.691 150.935 479.878 153.222C480.586 154.588 481.335 156.006 482.324 157.194C484.488 159.792 488.21 157.005 490.386 155.667C493.183 153.948 498.176 149.34 494.131 145.999C492.385 144.559 489.679 145.567 488.015 146.68Z" fill="white"/>
<path d="M75.682 55.246C75.8542 54.6694 72.5819 53.4685 72.2254 53.4017C69.6219 52.9105 66.9736 54.9961 66.6051 57.6211C66.4485 58.7376 66.8282 59.8802 67.4519 60.8192C68.9001 62.9988 71.2102 64.4762 73.5805 65.4804C74.9967 66.0803 76.4774 66.6944 77.9948 66.9784C81.316 67.5983 82.4086 63.075 83.2317 60.6559C84.291 57.5458 85.2027 50.8085 79.9589 50.8176C77.6966 50.8208 76.2551 53.325 75.682 55.246Z" fill="white"/>
<path d="M116.749 106.362C117.557 105.839 114.82 100.965 114.457 100.512C111.795 97.1989 106.4 96.9783 103.222 99.7924C101.87 100.989 101.145 102.777 100.928 104.571C100.426 108.736 101.703 112.945 103.546 116.638C104.648 118.846 105.813 121.137 107.366 123.064C110.768 127.282 116.803 122.91 120.322 120.822C124.847 118.137 132.964 110.882 126.566 105.425C123.804 103.072 119.443 104.618 116.749 106.362Z" fill="white"/>
<path d="M422.114 199.776C422.454 198.875 417.36 196.583 416.798 196.436C412.692 195.354 408.222 198.387 407.335 202.542C406.958 204.309 407.436 206.178 408.327 207.75C410.395 211.399 413.92 214.023 417.595 215.898C419.791 217.017 422.088 218.168 424.481 218.793C429.72 220.162 431.979 213.055 433.57 209.282C435.616 204.43 437.837 193.765 429.453 193.183C425.837 192.932 423.247 196.771 422.114 199.776Z" fill="white"/>
<path d="M430.011 56.2336C430.834 55.7342 428.237 50.7833 427.886 50.3203C425.321 46.9319 419.935 46.5567 416.677 49.2785C415.291 50.4358 414.515 52.2018 414.247 53.9896C413.625 58.1376 414.782 62.3816 416.519 66.1263C417.558 68.3645 418.656 70.6884 420.153 72.6596C423.432 76.9738 429.59 72.777 433.168 70.7909C437.768 68.2372 446.089 61.2175 439.85 55.58C437.158 53.1471 432.754 54.5684 430.011 56.2336Z" fill="white"/>
<path d="M495.314 230.286L493.583 235.006C493.38 235.56 492.603 235.573 492.381 235.026L490.493 230.367C490.425 230.199 490.288 230.067 490.117 230.004L485.404 228.271C484.85 228.068 484.837 227.289 485.383 227.067L490.036 225.177C490.205 225.109 490.336 224.972 490.399 224.801L492.129 220.082C492.332 219.527 493.11 219.515 493.332 220.061L495.22 224.72C495.288 224.889 495.424 225.02 495.595 225.083L500.309 226.816C500.862 227.019 500.875 227.798 500.329 228.02L495.677 229.91C495.508 229.979 495.377 230.116 495.314 230.286Z" fill="#FEA25B"/>
<path d="M39.3257 141.054L37.5948 145.774C37.3919 146.327 36.6141 146.341 36.3924 145.794L34.5042 141.136C34.4361 140.967 34.3 140.835 34.1289 140.773L29.4152 139.04C28.8624 138.836 28.8489 138.057 29.3949 137.836L34.0476 135.945C34.216 135.877 34.3475 135.741 34.41 135.569L36.1409 130.85C36.3438 130.296 37.1217 130.283 37.3434 130.83L39.2316 135.488C39.2997 135.657 39.4358 135.789 39.6069 135.851L44.3206 137.584C44.8734 137.787 44.8868 138.566 44.3409 138.788L39.6882 140.679C39.5205 140.748 39.3883 140.884 39.3257 141.054Z" fill="#FEA25B"/>
<path d="M415.567 124.367L413.837 129.087C413.634 129.64 412.856 129.654 412.634 129.107L410.746 124.448C410.678 124.28 410.542 124.148 410.371 124.085L405.657 122.352C405.104 122.149 405.091 121.37 405.637 121.148L410.289 119.258C410.458 119.19 410.589 119.053 410.652 118.882L412.383 114.163C412.586 113.609 413.363 113.596 413.585 114.142L415.473 118.801C415.541 118.97 415.678 119.101 415.849 119.164L420.562 120.897C421.115 121.1 421.129 121.879 420.583 122.101L415.93 123.991C415.761 124.06 415.63 124.197 415.567 124.367Z" fill="#FEA25B"/>
<path d="M401.75 135.408L400.628 138.466C400.497 138.825 399.993 138.833 399.849 138.48L398.625 135.461C398.581 135.351 398.492 135.266 398.382 135.225L395.328 134.102C394.969 133.971 394.961 133.466 395.314 133.322L398.329 132.097C398.439 132.052 398.524 131.964 398.564 131.854L399.686 128.795C399.818 128.437 400.321 128.428 400.465 128.782L401.689 131.801C401.734 131.91 401.822 131.995 401.932 132.036L404.986 133.159C405.345 133.291 405.353 133.795 405 133.939L401.985 135.165C401.876 135.209 401.79 135.297 401.75 135.408Z" fill="#FEA25B"/>
<path d="M123.029 201.854L121.298 206.573C121.095 207.127 120.317 207.14 120.096 206.593L118.207 201.935C118.139 201.766 118.003 201.635 117.832 201.572L113.118 199.839C112.565 199.636 112.552 198.857 113.098 198.635L117.751 196.744C117.919 196.676 118.051 196.54 118.113 196.369L119.844 191.649C120.047 191.095 120.825 191.082 121.047 191.629L122.935 196.287C123.003 196.456 123.139 196.588 123.31 196.65L128.024 198.384C128.577 198.587 128.59 199.366 128.044 199.587L123.391 201.478C123.223 201.546 123.091 201.682 123.029 201.854Z" fill="#FEA25B"/>
<path d="M107.851 188.319L106.729 191.377C106.598 191.737 106.094 191.745 105.95 191.391L104.726 188.372C104.682 188.263 104.593 188.177 104.484 188.137L101.429 187.014C101.07 186.882 101.062 186.377 101.415 186.233L104.43 185.008C104.54 184.964 104.625 184.875 104.665 184.765L105.787 181.707C105.919 181.347 106.422 181.339 106.566 181.693L107.79 184.712C107.835 184.821 107.923 184.907 108.033 184.947L111.088 186.07C111.446 186.202 111.454 186.707 111.101 186.851L108.086 188.076C107.977 188.12 107.892 188.208 107.851 188.319Z" fill="#FEA25B"/>
<path d="M341.459 18.7814L340.337 21.8398C340.206 22.1984 339.702 22.2071 339.558 21.8533L338.334 18.8345C338.29 18.7251 338.201 18.6398 338.091 18.5992L335.037 17.4761C334.678 17.3442 334.67 16.8395 335.023 16.6959L338.038 15.4713C338.148 15.4267 338.233 15.3383 338.273 15.2276L339.395 12.1691C339.527 11.8106 340.03 11.8019 340.174 12.1564L341.398 15.1751C341.443 15.2846 341.531 15.3699 341.641 15.4105L344.695 16.5336C345.054 16.6655 345.062 17.1702 344.709 17.3138L341.694 18.5391C341.585 18.5822 341.499 18.6707 341.459 18.7814Z" fill="#FEA25B"/>
<path d="M127.684 33.0571L126.563 36.1156C126.431 36.4748 125.928 36.4828 125.784 36.129L124.56 33.1103C124.515 33.0008 124.427 32.9155 124.317 32.8749L121.262 31.7518C120.904 31.6199 120.896 31.1159 121.249 30.9716L124.264 29.7463C124.373 29.7018 124.458 29.6133 124.499 29.5033L125.621 26.4449C125.752 26.0863 126.256 26.0776 126.4 26.4314L127.624 29.4502C127.668 29.5596 127.757 29.6449 127.866 29.6855L130.921 30.8086C131.279 30.9405 131.288 31.4445 130.934 31.5888L127.92 32.8141C127.81 32.858 127.724 32.9465 127.684 33.0571Z" fill="#FEA25B"/>
</g>
<defs>
<clipPath id="clip0_381_2">
<rect width="518.664" height="346.207" fill="white" transform="translate(0.41748 7.5498) rotate(-0.834047)"/>
</clipPath>
</defs>
</svg>
