<svg width="500" height="381" viewBox="0 0 500 381" fill="none" xmlns="http://www.w3.org/2000/svg">
<path d="M500 335.52H0V335.77H500V335.52Z" fill="#E0E0E0"/>
<path d="M79.83 351.2H52.46V351.45H79.83V351.2Z" fill="#E0E0E0"/>
<path d="M95.11 351.2H86.42V351.45H95.11V351.2Z" fill="#E0E0E0"/>
<path d="M250 347.75H230.64V348H250V347.75Z" fill="#E0E0E0"/>
<path d="M417.96 347.62H374.77V347.87H417.96V347.62Z" fill="#E0E0E0"/>
<path d="M433.2 347.62H426.87V347.87H433.2V347.62Z" fill="#E0E0E0"/>
<path d="M340.67 341.7H246.99V341.95H340.67V341.7Z" fill="#E0E0E0"/>
<path d="M237 290.92H43.91C42.3973 290.917 40.9475 290.315 39.8788 289.244C38.8102 288.173 38.21 286.723 38.21 285.21V13.78C38.2231 12.276 38.8292 10.838 39.8964 9.77821C40.9637 8.71845 42.4059 8.12257 43.91 8.12H237C238.514 8.12 239.967 8.72158 241.038 9.79242C242.108 10.8632 242.71 12.3156 242.71 13.83V285.21C242.71 286.724 242.108 288.177 241.038 289.248C239.967 290.318 238.514 290.92 237 290.92ZM43.91 8.32C42.4636 8.32264 41.0774 8.89906 40.0556 9.92272C39.0338 10.9464 38.46 12.3336 38.46 13.78V285.21C38.46 286.656 39.0338 288.044 40.0556 289.067C41.0774 290.091 42.4636 290.667 43.91 290.67H237C238.447 290.667 239.834 290.091 240.858 289.068C241.881 288.044 242.457 286.657 242.46 285.21V13.78C242.457 12.3327 241.881 10.9455 240.858 9.92211C239.834 8.89874 238.447 8.32264 237 8.32H43.91Z" fill="#E0E0E0"/>
<path d="M453.31 290.92H260.21C258.696 290.917 257.246 290.315 256.175 289.245C255.105 288.174 254.503 286.724 254.5 285.21V13.78C254.516 12.2751 255.124 10.8371 256.193 9.77759C257.262 8.7181 258.705 8.12254 260.21 8.12H453.31C454.812 8.1252 456.252 8.72224 457.317 9.78172C458.382 10.8412 458.987 12.2777 459 13.78V285.21C459 286.721 458.401 288.17 457.335 289.241C456.268 290.311 454.821 290.915 453.31 290.92ZM260.21 8.32C258.763 8.32264 257.375 8.89874 256.352 9.92211C255.329 10.9455 254.753 12.3327 254.75 13.78V285.21C254.753 286.657 255.329 288.044 256.352 289.068C257.375 290.091 258.763 290.667 260.21 290.67H453.31C454.757 290.667 456.145 290.091 457.168 289.068C458.191 288.044 458.767 286.657 458.77 285.21V13.78C458.767 12.3327 458.191 10.9455 457.168 9.92211C456.145 8.89874 454.757 8.32264 453.31 8.32H260.21Z" fill="#E0E0E0"/>
<path d="M312.22 4.12C312.223 3.02812 312.658 1.98171 313.43 1.20964C314.202 0.437558 315.248 0.00264059 316.34 0H444.67C445.762 0.00264059 446.808 0.437558 447.58 1.20964C448.352 1.98171 448.787 3.02812 448.79 4.12V17.35H312.22V4.12Z" fill="#E0E0E0"/>
<path d="M342.41 8.66005C342.408 9.27755 342.589 9.88175 342.931 10.3961C343.272 10.9105 343.759 11.312 344.329 11.5497C344.899 11.7874 345.527 11.8506 346.132 11.7313C346.738 11.6121 347.295 11.3157 347.733 10.8798C348.17 10.4438 348.468 9.88791 348.589 9.28242C348.71 8.67693 348.649 8.04909 348.413 7.4784C348.178 6.90771 347.778 6.41984 347.264 6.07656C346.751 5.73329 346.147 5.55005 345.53 5.55005C344.704 5.55004 343.912 5.87739 343.327 6.46034C342.742 7.04329 342.413 7.83431 342.41 8.66005Z" fill="white"/>
<path d="M331.37 8.66005C331.368 9.27755 331.549 9.88175 331.891 10.3961C332.233 10.9105 332.719 11.312 333.289 11.5497C333.859 11.7874 334.487 11.8506 335.093 11.7313C335.698 11.6121 336.255 11.3157 336.693 10.8798C337.13 10.4438 337.428 9.88791 337.549 9.28242C337.671 8.67693 337.609 8.04909 337.373 7.4784C337.138 6.90771 336.738 6.41984 336.224 6.07656C335.711 5.73329 335.108 5.55005 334.49 5.55005C333.664 5.55004 332.872 5.87739 332.287 6.46034C331.703 7.04329 331.373 7.83431 331.37 8.66005Z" fill="white"/>
<path d="M320.33 8.66005C320.328 9.27755 320.509 9.88175 320.851 10.3961C321.193 10.9105 321.679 11.312 322.249 11.5497C322.819 11.7874 323.447 11.8506 324.053 11.7313C324.658 11.6121 325.215 11.3157 325.653 10.8798C326.09 10.4438 326.388 9.88791 326.509 9.28242C326.63 8.67693 326.569 8.04909 326.333 7.4784C326.098 6.90771 325.698 6.41984 325.184 6.07656C324.671 5.73329 324.068 5.55005 323.45 5.55005C322.624 5.55004 321.832 5.87739 321.247 6.46034C320.663 7.04329 320.333 7.83431 320.33 8.66005Z" fill="white"/>
<path d="M444.67 106.67H316.34C315.248 106.667 314.202 106.232 313.43 105.46C312.658 104.688 312.223 103.642 312.22 102.55V17.35H448.79V102.55C448.787 103.642 448.352 104.688 447.58 105.46C446.808 106.232 445.762 106.667 444.67 106.67Z" fill="#F0F0F0"/>
<path d="M303 17.88C303.003 16.7881 303.438 15.7417 304.21 14.9696C304.982 14.1976 306.028 13.7627 307.12 13.76H435.48C436.572 13.7627 437.618 14.1976 438.39 14.9696C439.162 15.7417 439.597 16.7881 439.6 17.88V31.12H303V17.88Z" fill="#F0F0F0"/>
<path d="M333.22 22.45C333.218 23.0679 333.4 23.6725 333.742 24.1871C334.084 24.7017 334.571 25.1032 335.141 25.3406C335.712 25.5779 336.34 25.6406 336.946 25.5205C337.552 25.4004 338.109 25.1031 338.546 24.6661C338.983 24.2292 339.28 23.6724 339.4 23.0662C339.521 22.4601 339.458 21.8319 339.221 21.2614C338.983 20.6909 338.582 20.2037 338.067 19.8616C337.553 19.5196 336.948 19.338 336.33 19.34C335.506 19.3426 334.716 19.6711 334.134 20.2538C333.551 20.8365 333.223 21.626 333.22 22.45Z" fill="#E0E0E0"/>
<path d="M322.18 22.45C322.178 23.0675 322.359 23.6717 322.701 24.1861C323.043 24.7005 323.529 25.1019 324.099 25.3396C324.669 25.5773 325.297 25.6405 325.902 25.5212C326.508 25.402 327.065 25.1056 327.503 24.6697C327.94 24.2337 328.238 23.6778 328.359 23.0723C328.48 22.4668 328.419 21.839 328.183 21.2683C327.948 20.6976 327.548 20.2098 327.034 19.8665C326.521 19.5232 325.917 19.34 325.3 19.34C324.474 19.34 323.682 19.6673 323.097 20.2503C322.512 20.8332 322.183 21.6242 322.18 22.45Z" fill="#E0E0E0"/>
<path d="M311.14 22.45C311.138 23.0675 311.319 23.6717 311.661 24.1861C312.003 24.7005 312.489 25.1019 313.059 25.3396C313.629 25.5773 314.257 25.6405 314.863 25.5212C315.468 25.402 316.025 25.1056 316.463 24.6697C316.9 24.2337 317.198 23.6778 317.319 23.0723C317.441 22.4668 317.379 21.839 317.143 21.2683C316.908 20.6976 316.508 20.2098 315.994 19.8665C315.481 19.5232 314.878 19.34 314.26 19.34C313.434 19.34 312.642 19.6673 312.057 20.2503C311.473 20.8332 311.143 21.6242 311.14 22.45Z" fill="#E0E0E0"/>
<path d="M435.48 120.46H307.14C306.048 120.457 305.002 120.022 304.23 119.25C303.458 118.478 303.023 117.432 303.02 116.34V31.12H439.6V116.32C439.601 116.862 439.496 117.4 439.289 117.901C439.083 118.403 438.78 118.859 438.397 119.243C438.015 119.628 437.56 119.933 437.06 120.142C436.559 120.351 436.022 120.459 435.48 120.46Z" fill="#FAFAFA"/>
<path d="M293.83 31.67C293.831 31.1251 293.94 30.5858 294.151 30.0833C294.362 29.5808 294.67 29.1249 295.057 28.7419C295.445 28.3589 295.904 28.0564 296.41 27.8519C296.915 27.6473 297.455 27.5447 298 27.55H426.29C427.382 27.5526 428.428 27.9876 429.2 28.7596C429.972 29.5317 430.407 30.5781 430.41 31.67V44.93H293.83V31.67Z" fill="#FAFAFA"/>
<path d="M324 36.2401C324 36.8563 324.182 37.4587 324.524 37.9713C324.866 38.484 325.353 38.8839 325.921 39.1206C326.49 39.3573 327.117 39.4203 327.721 39.3015C328.326 39.1827 328.882 38.8875 329.319 38.4532C329.756 38.0189 330.055 37.4648 330.178 36.8609C330.3 36.257 330.241 35.6303 330.008 35.0599C329.775 34.4894 329.378 34.0008 328.868 33.6556C328.357 33.3103 327.756 33.124 327.14 33.1201C326.729 33.1174 326.321 33.1962 325.94 33.3518C325.559 33.5074 325.213 33.7368 324.921 34.0268C324.629 34.3168 324.397 34.6616 324.239 35.0414C324.081 35.4213 324 35.8286 324 36.2401Z" fill="#F0F0F0"/>
<path d="M313 36.2401C313 36.858 313.183 37.462 313.527 37.9755C313.871 38.489 314.359 38.8889 314.931 39.1244C315.502 39.36 316.13 39.4206 316.736 39.2986C317.342 39.1765 317.898 38.8774 318.333 38.4391C318.769 38.0007 319.064 37.4429 319.182 36.8364C319.301 36.2299 319.236 35.6019 318.997 35.0322C318.758 34.4624 318.355 33.9765 317.839 33.6361C317.323 33.2957 316.718 33.1161 316.1 33.1201C315.276 33.1253 314.488 33.4564 313.907 34.0409C313.326 34.6255 313 35.416 313 36.2401Z" fill="#F0F0F0"/>
<path d="M305.06 39.36C306.783 39.36 308.18 37.9631 308.18 36.24C308.18 34.5169 306.783 33.12 305.06 33.12C303.337 33.12 301.94 34.5169 301.94 36.24C301.94 37.9631 303.337 39.36 305.06 39.36Z" fill="#F0F0F0"/>
<path d="M426.29 134.25H298C296.908 134.247 295.862 133.812 295.09 133.04C294.318 132.268 293.883 131.222 293.88 130.13V44.9301H430.41V130.12C430.41 131.214 429.976 132.263 429.204 133.037C428.432 133.811 427.384 134.247 426.29 134.25Z" fill="#E0E0E0"/>
<path d="M79.13 81C79.1378 79.9751 79.5477 78.9942 80.2715 78.2686C80.9953 77.5429 81.9751 77.1305 83 77.12H276.43C277.464 77.1226 278.454 77.5344 279.185 78.2652C279.916 78.996 280.327 79.9865 280.33 81.02V93.6H79.13V81Z" fill="#E0E0E0"/>
<path d="M110.73 88.55C110.095 88.55 109.475 88.3617 108.947 88.009C108.419 87.6563 108.007 87.155 107.764 86.5684C107.521 85.9819 107.458 85.3364 107.582 84.7138C107.706 84.0911 108.011 83.5191 108.46 83.0702C108.909 82.6213 109.481 82.3155 110.104 82.1917C110.726 82.0678 111.372 82.1314 111.958 82.3743C112.545 82.6173 113.046 83.0287 113.399 83.5566C113.752 84.0845 113.94 84.7051 113.94 85.34C113.94 86.1913 113.602 87.0078 113 87.6098C112.398 88.2118 111.581 88.55 110.73 88.55ZM110.73 82.64C110.196 82.638 109.673 82.7947 109.227 83.0902C108.782 83.3856 108.434 83.8066 108.228 84.2998C108.023 84.793 107.968 85.3362 108.071 85.8606C108.174 86.385 108.43 86.867 108.807 87.2456C109.184 87.6242 109.666 87.8824 110.19 87.9874C110.714 88.0924 111.257 88.0395 111.751 87.8354C112.245 87.6314 112.667 87.2853 112.964 86.8411C113.261 86.3968 113.42 85.8744 113.42 85.34C113.42 84.6256 113.137 83.9404 112.633 83.4343C112.129 82.9283 111.444 82.6427 110.73 82.64Z" fill="white"/>
<path d="M100.26 88.55C99.6252 88.55 99.0045 88.3617 98.4767 88.009C97.9488 87.6563 97.5374 87.155 97.2944 86.5684C97.0514 85.9819 96.9879 85.3364 97.1117 84.7138C97.2356 84.0911 97.5413 83.5191 97.9902 83.0702C98.4392 82.6213 99.0111 82.3155 99.6338 82.1917C100.256 82.0678 100.902 82.1314 101.488 82.3743C102.075 82.6173 102.576 83.0287 102.929 83.5566C103.282 84.0845 103.47 84.7051 103.47 85.34C103.47 86.1913 103.132 87.0078 102.53 87.6098C101.928 88.2118 101.111 88.55 100.26 88.55ZM100.26 82.64C99.726 82.64 99.204 82.7984 98.76 83.095C98.316 83.3917 97.9699 83.8134 97.7656 84.3068C97.5612 84.8001 97.5077 85.343 97.6119 85.8668C97.7161 86.3905 97.9733 86.8716 98.3509 87.2492C98.7285 87.6268 99.2096 87.8839 99.7333 87.9881C100.257 88.0923 100.8 88.0388 101.293 87.8345C101.787 87.6301 102.208 87.2841 102.505 86.84C102.802 86.396 102.96 85.874 102.96 85.34C102.96 84.6239 102.676 83.9372 102.169 83.4308C101.663 82.9245 100.976 82.64 100.26 82.64Z" fill="white"/>
<path d="M89.79 88.55C89.1551 88.55 88.5345 88.3617 88.0066 88.009C87.4787 87.6563 87.0673 87.155 86.8243 86.5684C86.5813 85.9819 86.5178 85.3364 86.6416 84.7138C86.7655 84.0911 87.0712 83.5191 87.5201 83.0702C87.9691 82.6213 88.541 82.3155 89.1637 82.1917C89.7864 82.0678 90.4318 82.1314 91.0184 82.3743C91.6049 82.6173 92.1063 83.0287 92.459 83.5566C92.8117 84.0845 93 84.7051 93 85.34C93 86.1913 92.6618 87.0078 92.0598 87.6098C91.4578 88.2118 90.6413 88.55 89.79 88.55ZM89.79 82.64C89.2559 82.64 88.7339 82.7984 88.2899 83.095C87.8459 83.3917 87.4998 83.8134 87.2955 84.3068C87.0911 84.8001 87.0377 85.343 87.1418 85.8668C87.246 86.3905 87.5032 86.8716 87.8808 87.2492C88.2584 87.6268 88.7395 87.8839 89.2632 87.9881C89.787 88.0923 90.3298 88.0388 90.8232 87.8345C91.3166 87.6301 91.7382 87.2841 92.0349 86.84C92.3316 86.396 92.49 85.874 92.49 85.34C92.49 84.9854 92.4201 84.6343 92.2844 84.3068C92.1487 83.9792 91.9499 83.6815 91.6991 83.4308C91.4484 83.1801 91.1508 82.9812 90.8232 82.8455C90.4956 82.7098 90.1445 82.64 89.79 82.64Z" fill="white"/>
<path d="M276.43 198.12H83C81.9638 198.117 80.9708 197.705 80.2381 196.972C79.5054 196.239 79.0926 195.246 79.09 194.21V93.58H280.29V194.24C280.282 195.263 279.874 196.243 279.152 196.968C278.43 197.693 277.453 198.107 276.43 198.12Z" fill="#F0F0F0"/>
<path d="M70.41 107.53C70.4127 106.494 70.8255 105.501 71.5582 104.768C72.2909 104.035 73.2838 103.623 74.32 103.62H267.71C268.745 103.623 269.737 104.036 270.468 104.769C271.199 105.502 271.61 106.495 271.61 107.53V120.12H70.41V107.53Z" fill="#FAFAFA"/>
<path d="M102 115.12C101.365 115.12 100.745 114.932 100.217 114.579C99.6888 114.226 99.2773 113.725 99.0344 113.138C98.7914 112.552 98.7279 111.906 98.8517 111.284C98.9756 110.661 99.2813 110.089 99.7302 109.64C100.179 109.191 100.751 108.885 101.374 108.762C101.996 108.638 102.642 108.701 103.228 108.944C103.815 109.187 104.316 109.599 104.669 110.127C105.022 110.654 105.21 111.275 105.21 111.91C105.21 112.761 104.872 113.578 104.27 114.18C103.668 114.782 102.851 115.12 102 115.12ZM102 109.21C101.466 109.21 100.944 109.368 100.5 109.665C100.056 109.962 99.7099 110.383 99.5056 110.877C99.3012 111.37 99.2477 111.913 99.3519 112.437C99.4561 112.96 99.7133 113.442 100.091 113.819C100.468 114.197 100.95 114.454 101.473 114.558C101.997 114.662 102.54 114.609 103.033 114.404C103.527 114.2 103.948 113.854 104.245 113.41C104.542 112.966 104.7 112.444 104.7 111.91C104.712 111.548 104.651 111.187 104.521 110.849C104.391 110.511 104.194 110.203 103.942 109.942C103.69 109.682 103.388 109.475 103.055 109.334C102.721 109.192 102.362 109.12 102 109.12V109.21Z" fill="#E0E0E0"/>
<path d="M91.54 115.12C90.9051 115.12 90.2845 114.932 89.7566 114.579C89.2287 114.226 88.8173 113.725 88.5743 113.138C88.3313 112.552 88.2678 111.906 88.3916 111.284C88.5155 110.661 88.8212 110.089 89.2701 109.64C89.7191 109.191 90.291 108.885 90.9137 108.762C91.5364 108.638 92.1818 108.701 92.7684 108.944C93.3549 109.187 93.8563 109.599 94.209 110.127C94.5617 110.654 94.75 111.275 94.75 111.91C94.75 112.761 94.4118 113.578 93.8098 114.18C93.2078 114.782 92.3913 115.12 91.54 115.12ZM91.54 109.21C91.0059 109.21 90.4839 109.368 90.0399 109.665C89.5959 109.962 89.2498 110.383 89.0455 110.877C88.8411 111.37 88.7877 111.913 88.8918 112.437C88.996 112.96 89.2532 113.442 89.6308 113.819C90.0084 114.197 90.4895 114.454 91.0132 114.558C91.537 114.662 92.0798 114.609 92.5732 114.404C93.0666 114.2 93.4882 113.854 93.7849 113.41C94.0816 112.966 94.24 112.444 94.24 111.91C94.252 111.548 94.1911 111.187 94.0608 110.849C93.9306 110.511 93.7336 110.203 93.4817 109.942C93.2298 109.682 92.928 109.475 92.5944 109.334C92.2608 109.192 91.9022 109.12 91.54 109.12V109.21Z" fill="#E0E0E0"/>
<path d="M81.07 115.12C80.4351 115.12 79.8145 114.932 79.2866 114.579C78.7587 114.226 78.3473 113.725 78.1043 113.138C77.8614 112.552 77.7978 111.906 77.9217 111.284C78.0455 110.661 78.3512 110.089 78.8002 109.64C79.2491 109.191 79.8211 108.885 80.4438 108.762C81.0664 108.638 81.7119 108.701 82.2984 108.944C82.885 109.187 83.3863 109.599 83.739 110.127C84.0917 110.654 84.28 111.275 84.28 111.91C84.28 112.761 83.9418 113.578 83.3398 114.18C82.7378 114.782 81.9213 115.12 81.07 115.12ZM81.07 109.21C80.536 109.21 80.014 109.368 79.57 109.665C79.1259 109.962 78.7799 110.383 78.5755 110.877C78.3712 111.37 78.3177 111.913 78.4219 112.437C78.5261 112.96 78.7832 113.442 79.1608 113.819C79.5384 114.197 80.0195 114.454 80.5432 114.558C81.067 114.662 81.6099 114.609 82.1032 114.404C82.5966 114.2 83.0183 113.854 83.315 113.41C83.6116 112.966 83.77 112.444 83.77 111.91C83.7821 111.548 83.7212 111.187 83.5909 110.849C83.4606 110.511 83.2636 110.203 83.0117 109.942C82.7598 109.682 82.458 109.475 82.1245 109.334C81.7909 109.192 81.4323 109.12 81.07 109.12V109.21Z" fill="#E0E0E0"/>
<path d="M267.71 244.52H74.32C73.2838 244.517 72.2909 244.105 71.5582 243.372C70.8255 242.639 70.4127 241.646 70.41 240.61V120.12H271.61V240.61C271.61 241.645 271.199 242.638 270.468 243.371C269.737 244.104 268.745 244.517 267.71 244.52Z" fill="#F0F0F0"/>
<path d="M136.46 12.96H66.0001C64.9214 12.9573 63.8877 12.5277 63.125 11.765C62.3623 11.0023 61.9327 9.96858 61.9301 8.88996C61.9353 7.81307 62.3661 6.78195 63.1286 6.0214C63.891 5.26086 64.9232 4.83258 66.0001 4.82996H136.48C137.555 4.83521 138.585 5.26465 139.345 6.02491C140.105 6.78517 140.535 7.8148 140.54 8.88996C140.537 9.97031 140.106 11.0055 139.342 11.7685C138.577 12.5315 137.54 12.96 136.46 12.96Z" fill="#E0E0E0"/>
<path d="M165.73 30L66.1999 29.6C65.1318 29.579 64.1145 29.1399 63.3665 28.3771C62.6186 27.6142 62.1997 26.5884 62.2 25.52C62.2052 24.4423 62.6378 23.4107 63.4026 22.6514C64.1675 21.8922 65.2022 21.4673 66.2799 21.47L165.8 21.87C166.877 21.8779 167.907 22.3113 168.666 23.0755C169.424 23.8398 169.85 24.8731 169.85 25.95C169.847 26.487 169.738 27.0182 169.53 27.513C169.321 28.0077 169.016 28.4563 168.633 28.8328C168.25 29.2092 167.796 29.5062 167.298 29.7065C166.8 29.9069 166.267 30.0066 165.73 30Z" fill="#F0F0F0"/>
<path d="M112.75 48.8299H66.0001C64.9214 48.8273 63.8877 48.3977 63.125 47.635C62.3623 46.8723 61.9327 45.8386 61.9301 44.7599C61.9353 43.6831 62.3661 42.6519 63.1286 41.8914C63.891 41.1309 64.9232 40.7026 66.0001 40.7H112.77C113.847 40.7026 114.879 41.1309 115.642 41.8914C116.404 42.6519 116.835 43.6831 116.84 44.7599C116.839 45.2957 116.732 45.826 116.526 46.3205C116.319 46.815 116.018 47.2641 115.638 47.642C115.258 48.02 114.808 48.3194 114.312 48.5232C113.817 48.727 113.286 48.8313 112.75 48.8299Z" fill="#E6E6E6"/>
<path d="M435.84 163.9H414.13C413.31 163.897 412.525 163.571 411.944 162.993C411.364 162.414 411.035 161.63 411.03 160.81C411.035 159.989 411.364 159.204 411.944 158.624C412.524 158.044 413.309 157.715 414.13 157.71H435.84C436.66 157.715 437.444 158.044 438.023 158.624C438.601 159.205 438.927 159.99 438.93 160.81C438.927 161.629 438.601 162.413 438.022 162.992C437.443 163.571 436.659 163.897 435.84 163.9Z" fill="#E0E0E0"/>
<path d="M446.15 170.93H414.12C412.413 170.93 411.03 172.313 411.03 174.02V174.03C411.03 175.736 412.413 177.12 414.12 177.12H446.15C447.857 177.12 449.24 175.736 449.24 174.03V174.02C449.24 172.313 447.857 170.93 446.15 170.93Z" fill="#F0F0F0"/>
<path d="M427.42 191.21H414.13C413.722 191.213 413.317 191.135 412.938 190.981C412.56 190.827 412.216 190.6 411.925 190.313C411.634 190.026 411.403 189.685 411.244 189.309C411.086 188.932 411.003 188.528 411 188.12C411.005 187.299 411.334 186.514 411.914 185.934C412.494 185.354 413.279 185.025 414.1 185.02H427.39C428.211 185.023 428.998 185.35 429.579 185.931C430.16 186.512 430.487 187.299 430.49 188.12C430.487 188.935 430.164 189.717 429.589 190.295C429.015 190.873 428.235 191.202 427.42 191.21Z" fill="#E6E6E6"/>
<path d="M436.56 204.42H414.13C413.31 204.417 412.525 204.091 411.944 203.513C411.364 202.934 411.035 202.15 411.03 201.33C411.035 200.509 411.364 199.724 411.944 199.144C412.524 198.564 413.309 198.235 414.13 198.23H436.56C437.38 198.235 438.164 198.564 438.743 199.144C439.321 199.725 439.647 200.51 439.65 201.33C439.647 202.149 439.321 202.933 438.742 203.512C438.163 204.091 437.379 204.417 436.56 204.42Z" fill="#F0F0F0"/>
<path d="M433 218.52H414.13C413.31 218.517 412.525 218.191 411.944 217.613C411.364 217.034 411.035 216.25 411.03 215.43C411.035 214.609 411.364 213.824 411.944 213.244C412.524 212.663 413.309 212.335 414.13 212.33H433C433.821 212.335 434.606 212.663 435.186 213.244C435.767 213.824 436.095 214.609 436.1 215.43C436.095 216.25 435.766 217.034 435.186 217.613C434.605 218.191 433.82 218.517 433 218.52Z" fill="#E6E6E6"/>
<path d="M361.45 180.21H296.92C296.1 180.207 295.314 179.88 294.734 179.299C294.155 178.717 293.83 177.93 293.83 177.11C293.833 176.291 294.159 175.507 294.738 174.928C295.317 174.349 296.101 174.023 296.92 174.02H361.45C362.269 174.023 363.053 174.349 363.632 174.928C364.211 175.507 364.537 176.291 364.54 177.11C364.54 177.93 364.215 178.717 363.636 179.299C363.056 179.88 362.27 180.207 361.45 180.21Z" fill="#E0E0E0"/>
<path d="M387.57 193.42H296.92C296.101 193.417 295.317 193.091 294.738 192.512C294.159 191.933 293.833 191.149 293.83 190.33C293.83 189.51 294.155 188.723 294.734 188.141C295.314 187.56 296.1 187.233 296.92 187.23H387.57C388.391 187.233 389.178 187.56 389.759 188.141C390.34 188.722 390.667 189.509 390.67 190.33C390.665 191.15 390.336 191.934 389.756 192.513C389.175 193.091 388.39 193.417 387.57 193.42Z" fill="#F0F0F0"/>
<path d="M340.12 207.52H296.92C296.1 207.517 295.314 207.19 294.734 206.608C294.155 206.027 293.83 205.24 293.83 204.42C293.833 203.601 294.159 202.817 294.738 202.238C295.317 201.659 296.101 201.333 296.92 201.33H340.12C340.94 201.333 341.725 201.659 342.306 202.237C342.886 202.816 343.215 203.6 343.22 204.42C343.217 205.241 342.89 206.028 342.309 206.609C341.728 207.19 340.941 207.517 340.12 207.52Z" fill="#E6E6E6"/>
<path d="M363.27 220.73H296.92C296.1 220.727 295.314 220.4 294.734 219.819C294.155 219.237 293.83 218.45 293.83 217.63C293.833 216.811 294.159 216.027 294.738 215.448C295.317 214.869 296.101 214.543 296.92 214.54H363.27C364.09 214.54 364.877 214.865 365.458 215.444C366.04 216.024 366.367 216.81 366.37 217.63C366.37 218.037 366.29 218.44 366.134 218.816C365.978 219.192 365.75 219.534 365.462 219.822C365.174 220.11 364.832 220.338 364.456 220.494C364.08 220.65 363.677 220.73 363.27 220.73Z" fill="#F0F0F0"/>
<path d="M354.13 234.83H296.92C296.1 234.827 295.314 234.5 294.734 233.919C294.155 233.337 293.83 232.55 293.83 231.73C293.833 230.911 294.159 230.127 294.738 229.548C295.317 228.969 296.101 228.643 296.92 228.64H354.13C354.949 228.643 355.733 228.969 356.312 229.548C356.891 230.127 357.217 230.911 357.22 231.73C357.22 232.55 356.895 233.337 356.316 233.919C355.736 234.5 354.95 234.827 354.13 234.83Z" fill="#E6E6E6"/>
<path d="M250 380.68C357.083 380.68 443.89 375.612 443.89 369.36C443.89 363.108 357.083 358.04 250 358.04C142.918 358.04 56.1101 363.108 56.1101 369.36C56.1101 375.612 142.918 380.68 250 380.68Z" fill="#F5F5F5"/>
<path opacity="0.7" d="M350.37 300.9H227.13C223.037 300.924 218.983 300.107 215.219 298.5C211.455 296.892 208.061 294.529 205.248 291.556C202.436 288.583 200.263 285.063 198.867 281.216C197.47 277.369 196.879 273.275 197.13 269.19L207.67 68.0302C208.54 50.5902 223.55 36.3202 241 36.3202H364.24C368.337 36.2892 372.397 37.1011 376.167 38.7055C379.937 40.3098 383.336 42.6724 386.155 45.6463C388.973 48.6202 391.149 52.142 392.549 55.9927C393.948 59.8434 394.541 63.9408 394.29 68.0302L383.74 269.19C382.83 286.63 367.81 300.9 350.37 300.9Z" fill="#407BFF"/>
<path d="M277.59 24.7302H269.92V25.7302H277.59V24.7302Z" fill="#407BFF"/>
<path d="M263.37 24.7302H236.7V25.7302H263.37V24.7302Z" fill="#407BFF"/>
<path d="M194.348 93.3234L193.947 100.903L194.946 100.956L195.347 93.3763L194.348 93.3234Z" fill="#407BFF"/>
<path opacity="0.6" d="M343.28 293.82H220C215.908 293.844 211.855 293.028 208.091 291.421C204.328 289.814 200.935 287.451 198.122 284.479C195.31 281.507 193.137 277.989 191.74 274.143C190.343 270.297 189.751 266.205 190 262.12L200.55 60.9502C201.46 43.5102 216.48 29.2402 233.92 29.2402H357.15C361.247 29.2092 365.307 30.0211 369.077 31.6255C372.847 33.2299 376.246 35.5924 379.065 38.5663C381.883 41.5403 384.059 45.062 385.459 48.9127C386.858 52.7634 387.451 56.8608 387.2 60.9502L376.66 262.12C375.74 279.55 360.72 293.82 343.28 293.82Z" fill="#407BFF"/>
<mask id="mask0_1909_162" style="mask-type:luminance" maskUnits="userSpaceOnUse" x="189" y="29" width="199" height="265">
<path d="M343.28 293.82H220C215.908 293.844 211.855 293.028 208.091 291.421C204.328 289.814 200.935 287.451 198.122 284.479C195.31 281.507 193.137 277.989 191.74 274.143C190.343 270.297 189.751 266.205 190 262.12L200.55 60.9502C201.46 43.5102 216.48 29.2402 233.92 29.2402H357.15C361.247 29.2092 365.307 30.0211 369.077 31.6255C372.847 33.2299 376.246 35.5924 379.065 38.5663C381.883 41.5403 384.059 45.062 385.459 48.9127C386.858 52.7634 387.451 56.8608 387.2 60.9502L376.66 262.12C375.74 279.55 360.72 293.82 343.28 293.82Z" fill="white"/>
</mask>
<g mask="url(#mask0_1909_162)">
<path d="M243.09 265.35C213.79 265.35 186.83 253.94 167.17 233.23C147.51 212.52 137.47 184.87 139.01 155.51C140.083 136.026 146.124 117.14 156.56 100.65C166.778 84.4874 180.729 71.016 197.24 61.3702C197.301 61.3452 197.369 61.3452 197.43 61.3702C197.496 61.3891 197.553 61.4319 197.59 61.4902L207.68 80.7402C208.04 80.5402 208.4 80.3402 208.77 80.1502L209.16 79.9302C209.222 79.9103 209.288 79.9103 209.35 79.9302C209.383 79.9399 209.413 79.9565 209.439 79.979C209.465 80.0014 209.486 80.0291 209.5 80.0602L212.26 85.3102C212.289 85.3675 212.295 85.4338 212.276 85.4952C212.257 85.5566 212.216 85.6085 212.16 85.6402C186.49 99.9902 169.6 126.78 168.1 155.57C166.96 177.15 174.31 197.44 188.79 212.69C195.975 220.242 204.636 226.235 214.235 230.296C223.835 234.358 234.167 236.402 244.59 236.3C244.624 236.299 244.658 236.306 244.689 236.32C244.72 236.334 244.748 236.354 244.77 236.38C244.795 236.403 244.814 236.431 244.826 236.462C244.838 236.493 244.843 236.527 244.84 236.56L243.34 265.16C243.328 265.217 243.296 265.267 243.25 265.302C243.204 265.337 243.148 265.354 243.09 265.35ZM197.26 61.9402C163.63 81.6402 141.5 117.48 139.5 155.53C137.97 184.76 147.93 212.23 167.5 232.88C187.07 253.53 213.75 264.79 242.83 264.88L244.3 236.79C233.854 236.855 223.506 234.78 213.892 230.693C204.278 226.607 195.603 220.596 188.4 213.03C173.83 197.67 166.4 177.25 167.57 155.54C169.08 126.66 185.97 99.7702 211.67 85.3102L209.15 80.5002L208.97 80.6002C208.54 80.8302 208.1 81.0602 207.68 81.3102C207.616 81.3358 207.544 81.3358 207.48 81.3102C207.417 81.2908 207.363 81.2479 207.33 81.1902L197.26 61.9402Z" fill="#407BFF"/>
<path d="M250.21 275.78C250.139 275.78 250.07 275.751 250.02 275.7C249.998 275.674 249.981 275.644 249.971 275.611C249.961 275.579 249.957 275.544 249.96 275.51L251.56 244.92C251.565 244.857 251.594 244.799 251.64 244.756C251.686 244.714 251.747 244.69 251.81 244.69C299.46 244.69 340.26 205.92 342.76 158.26C342.765 158.197 342.794 158.139 342.84 158.096C342.886 158.054 342.947 158.03 343.01 158.03H350.29C350.322 158.029 350.355 158.034 350.385 158.046C350.415 158.057 350.443 158.074 350.466 158.097C350.49 158.119 350.508 158.146 350.521 158.176C350.533 158.206 350.54 158.238 350.54 158.27C350.6 160.75 350.54 163.27 350.45 165.72H372.94C372.974 165.719 373.008 165.726 373.039 165.74C373.07 165.754 373.098 165.774 373.12 165.8C373.166 165.857 373.191 165.927 373.19 166C369.644 194.79 356.167 221.441 335.08 241.36C312.05 263.23 281.12 275.78 250.21 275.78ZM252.05 245.19L250.47 275.28C281.17 275.21 311.87 262.72 334.73 240.99C355.668 221.224 369.077 194.79 372.66 166.22H350.19C350.153 166.22 350.116 166.211 350.083 166.194C350.049 166.176 350.021 166.151 350 166.12C349.975 166.098 349.955 166.07 349.943 166.039C349.931 166.007 349.926 165.974 349.93 165.94C350.06 163.48 350.09 160.94 350.04 158.51H343.24C340.62 206.25 299.78 245.06 252.05 245.19Z" fill="#407BFF"/>
<path d="M350.29 158.53C350.225 158.528 350.162 158.501 350.116 158.454C350.07 158.408 350.043 158.346 350.04 158.28C348.77 107.75 308.04 68.1702 257.27 68.1702C240.552 68.2098 224.104 72.3947 209.4 80.3502C209.372 80.3675 209.34 80.3786 209.307 80.3829C209.274 80.3872 209.24 80.3846 209.208 80.3752C209.176 80.3658 209.146 80.3498 209.121 80.3283C209.095 80.3068 209.075 80.2802 209.06 80.2502C209.031 80.1914 209.025 80.1236 209.043 80.0605C209.062 79.9974 209.103 79.9437 209.16 79.9102C223.938 71.9153 240.468 67.7098 257.27 67.6702C281.631 67.3891 305.114 76.7594 322.59 93.7347C340.065 110.71 350.114 133.911 350.54 158.27C350.541 158.303 350.536 158.336 350.525 158.367C350.514 158.398 350.496 158.426 350.474 158.45C350.452 158.474 350.425 158.494 350.395 158.507C350.365 158.521 350.333 158.529 350.3 158.53H350.29Z" fill="#407BFF"/>
<path d="M384.8 166.22H372.94C372.874 166.22 372.81 166.194 372.763 166.147C372.716 166.1 372.69 166.037 372.69 165.97C372.69 165.904 372.716 165.84 372.763 165.793C372.81 165.747 372.874 165.72 372.94 165.72H384.56C385.786 142.86 380.858 120.089 370.29 99.7802C354.8 70.3102 328.37 48.7802 295.86 39.1402C261.28 28.8802 224.47 33.1402 192.18 51.1402L197.59 61.4402C197.619 61.5002 197.623 61.5689 197.603 61.6321C197.582 61.6954 197.538 61.7484 197.48 61.7802C197.451 61.7957 197.418 61.8051 197.385 61.808C197.352 61.8108 197.319 61.807 197.287 61.7967C197.255 61.7865 197.226 61.77 197.201 61.7483C197.176 61.7266 197.155 61.7 197.14 61.6702L191.63 51.1602C191.614 51.1321 191.605 51.1011 191.601 51.0692C191.598 51.0372 191.601 51.0048 191.61 50.974C191.619 50.9433 191.635 50.9147 191.656 50.89C191.676 50.8652 191.701 50.8449 191.73 50.8302C207.839 41.758 225.621 36.0462 244 34.0402C261.468 32.0931 279.149 33.664 296 38.6602C328.64 48.3402 355.18 69.9602 370.73 99.5502C381.379 120.007 386.325 142.953 385.05 165.98C385.047 166.045 385.02 166.106 384.973 166.151C384.927 166.195 384.865 166.22 384.8 166.22Z" fill="#407BFF"/>
<path d="M207.58 81.3102H207.51C207.446 81.2908 207.393 81.2479 207.36 81.1902L197.14 61.7102C197.109 61.6505 197.104 61.5812 197.125 61.5174C197.145 61.4537 197.19 61.4007 197.25 61.3702C197.31 61.3397 197.379 61.3342 197.443 61.3548C197.507 61.3754 197.559 61.4205 197.59 61.4802L207.68 80.7302C208.04 80.5302 208.4 80.3302 208.77 80.1402L209.16 79.9202C209.189 79.9048 209.222 79.8953 209.255 79.8925C209.288 79.8897 209.321 79.8935 209.353 79.9037C209.385 79.914 209.414 79.9304 209.439 79.9522C209.465 79.9739 209.485 80.0004 209.5 80.0302C209.516 80.0583 209.525 80.0893 209.529 80.1213C209.532 80.1533 209.529 80.1856 209.52 80.2164C209.511 80.2472 209.495 80.2758 209.475 80.3005C209.454 80.3252 209.429 80.3455 209.4 80.3602L209 80.5802C208.57 80.8102 208.13 81.0402 207.71 81.2902C207.669 81.3071 207.624 81.314 207.58 81.3102Z" fill="#407BFF"/>
<g opacity="0.3">
<path d="M243.09 265.35C213.79 265.35 186.83 253.94 167.17 233.23C147.51 212.52 137.47 184.87 139.01 155.51C140.083 136.026 146.124 117.14 156.56 100.65C166.778 84.4874 180.729 71.016 197.24 61.3702C197.301 61.3452 197.369 61.3452 197.43 61.3702C197.496 61.3891 197.553 61.4319 197.59 61.4902L207.68 80.7402C208.04 80.5402 208.4 80.3402 208.77 80.1502L209.16 79.9302C209.222 79.9103 209.288 79.9103 209.35 79.9302C209.383 79.9399 209.413 79.9565 209.439 79.979C209.465 80.0014 209.486 80.0291 209.5 80.0602L212.26 85.3102C212.289 85.3675 212.295 85.4338 212.276 85.4952C212.257 85.5566 212.216 85.6085 212.16 85.6402C186.49 99.9902 169.6 126.78 168.1 155.57C166.96 177.15 174.31 197.44 188.79 212.69C195.975 220.242 204.636 226.235 214.235 230.296C223.835 234.358 234.167 236.402 244.59 236.3C244.624 236.299 244.658 236.306 244.689 236.32C244.72 236.334 244.748 236.354 244.77 236.38C244.795 236.403 244.814 236.431 244.826 236.462C244.838 236.493 244.843 236.527 244.84 236.56L243.34 265.16C243.328 265.217 243.296 265.267 243.25 265.302C243.204 265.337 243.148 265.354 243.09 265.35ZM197.26 61.9402C163.63 81.6402 141.5 117.48 139.5 155.53C137.97 184.76 147.93 212.23 167.5 232.88C187.07 253.53 213.75 264.79 242.83 264.88L244.3 236.79C233.854 236.855 223.506 234.78 213.892 230.693C204.278 226.607 195.603 220.596 188.4 213.03C173.83 197.67 166.4 177.25 167.57 155.54C169.08 126.66 185.97 99.7702 211.67 85.3102L209.15 80.5002L208.97 80.6002C208.54 80.8302 208.1 81.0602 207.68 81.3102C207.616 81.3358 207.544 81.3358 207.48 81.3102C207.417 81.2908 207.363 81.2479 207.33 81.1902L197.26 61.9402Z" fill="white"/>
<path d="M250.21 275.78C250.139 275.78 250.07 275.751 250.02 275.7C249.998 275.674 249.981 275.644 249.971 275.611C249.961 275.579 249.957 275.544 249.96 275.51L251.56 244.92C251.565 244.857 251.594 244.799 251.64 244.756C251.686 244.714 251.747 244.69 251.81 244.69C299.46 244.69 340.26 205.92 342.76 158.26C342.765 158.197 342.794 158.139 342.84 158.096C342.886 158.054 342.947 158.03 343.01 158.03H350.29C350.322 158.029 350.355 158.034 350.385 158.046C350.415 158.057 350.443 158.074 350.466 158.097C350.49 158.119 350.508 158.146 350.521 158.176C350.533 158.206 350.54 158.238 350.54 158.27C350.6 160.75 350.54 163.27 350.45 165.72H372.94C372.974 165.719 373.008 165.726 373.039 165.74C373.07 165.754 373.098 165.774 373.12 165.8C373.166 165.857 373.191 165.927 373.19 166C369.644 194.79 356.167 221.441 335.08 241.36C312.05 263.23 281.12 275.78 250.21 275.78ZM252.05 245.19L250.47 275.28C281.17 275.21 311.87 262.72 334.73 240.99C355.668 221.224 369.077 194.79 372.66 166.22H350.19C350.153 166.22 350.116 166.211 350.083 166.194C350.049 166.176 350.021 166.151 350 166.12C349.975 166.098 349.955 166.07 349.943 166.039C349.931 166.007 349.926 165.974 349.93 165.94C350.06 163.48 350.09 160.94 350.04 158.51H343.24C340.62 206.25 299.78 245.06 252.05 245.19Z" fill="white"/>
<path d="M350.29 158.53C350.225 158.528 350.162 158.501 350.116 158.454C350.07 158.408 350.043 158.346 350.04 158.28C348.77 107.75 308.04 68.1702 257.27 68.1702C240.552 68.2098 224.104 72.3947 209.4 80.3502C209.372 80.3675 209.34 80.3786 209.307 80.3829C209.274 80.3872 209.24 80.3846 209.208 80.3752C209.176 80.3658 209.146 80.3498 209.121 80.3283C209.095 80.3068 209.075 80.2802 209.06 80.2502C209.031 80.1914 209.025 80.1236 209.043 80.0605C209.062 79.9974 209.103 79.9437 209.16 79.9102C223.938 71.9153 240.468 67.7098 257.27 67.6702C281.631 67.3891 305.114 76.7594 322.59 93.7347C340.065 110.71 350.114 133.911 350.54 158.27C350.541 158.303 350.536 158.336 350.525 158.367C350.514 158.398 350.496 158.426 350.474 158.45C350.452 158.474 350.425 158.494 350.395 158.507C350.365 158.521 350.333 158.529 350.3 158.53H350.29Z" fill="white"/>
<path d="M384.8 166.22H372.94C372.874 166.22 372.81 166.194 372.763 166.147C372.716 166.1 372.69 166.037 372.69 165.97C372.69 165.904 372.716 165.84 372.763 165.793C372.81 165.747 372.874 165.72 372.94 165.72H384.56C385.786 142.86 380.858 120.089 370.29 99.7802C354.8 70.3102 328.37 48.7802 295.86 39.1402C261.28 28.8802 224.47 33.1402 192.18 51.1402L197.59 61.4402C197.619 61.5002 197.623 61.5689 197.603 61.6321C197.582 61.6954 197.538 61.7484 197.48 61.7802C197.451 61.7957 197.418 61.8051 197.385 61.808C197.352 61.8108 197.319 61.807 197.287 61.7967C197.255 61.7865 197.226 61.77 197.201 61.7483C197.176 61.7266 197.155 61.7 197.14 61.6702L191.63 51.1602C191.614 51.1321 191.605 51.1011 191.601 51.0692C191.598 51.0372 191.601 51.0048 191.61 50.974C191.619 50.9433 191.635 50.9147 191.656 50.89C191.676 50.8652 191.701 50.8449 191.73 50.8302C207.839 41.758 225.621 36.0462 244 34.0402C261.468 32.0931 279.149 33.664 296 38.6602C328.64 48.3402 355.18 69.9602 370.73 99.5502C381.379 120.007 386.325 142.953 385.05 165.98C385.047 166.045 385.02 166.106 384.973 166.151C384.927 166.195 384.865 166.22 384.8 166.22Z" fill="white"/>
<path d="M207.58 81.3102H207.51C207.446 81.2908 207.393 81.2479 207.36 81.1902L197.14 61.7102C197.109 61.6505 197.104 61.5812 197.125 61.5174C197.145 61.4537 197.19 61.4007 197.25 61.3702C197.31 61.3397 197.379 61.3342 197.443 61.3548C197.507 61.3754 197.559 61.4205 197.59 61.4802L207.68 80.7302C208.04 80.5302 208.4 80.3302 208.77 80.1402L209.16 79.9202C209.189 79.9048 209.222 79.8953 209.255 79.8925C209.288 79.8897 209.321 79.8935 209.353 79.9037C209.385 79.914 209.414 79.9304 209.439 79.9522C209.465 79.9739 209.485 80.0004 209.5 80.0302C209.516 80.0583 209.525 80.0893 209.529 80.1213C209.532 80.1533 209.529 80.1856 209.52 80.2164C209.511 80.2472 209.495 80.2758 209.475 80.3005C209.454 80.3252 209.429 80.3455 209.4 80.3602L209 80.5802C208.57 80.8102 208.13 81.0402 207.71 81.2902C207.669 81.3071 207.624 81.314 207.58 81.3102Z" fill="white"/>
</g>
</g>
<path d="M250.83 223.81L249.83 242.18C210.94 242.18 181.05 210.64 183.09 171.76C184.46 145.7 199.82 122.93 221.51 110.76L229.87 126.67C221.725 131.187 214.852 137.687 209.888 145.567C204.923 153.448 202.028 162.453 201.47 171.75C200 200.5 222.09 223.81 250.83 223.81Z" fill="#407BFF"/>
<path opacity="0.6" d="M250.83 223.81L249.83 242.18C210.94 242.18 181.05 210.64 183.09 171.76C184.46 145.7 199.82 122.93 221.51 110.76L229.87 126.67C221.725 131.187 214.852 137.687 209.888 145.567C204.923 153.448 202.028 162.453 201.47 171.75C200 200.5 222.09 223.81 250.83 223.81Z" fill="black"/>
<path d="M333.74 173.53C332.481 193.783 323.605 212.809 308.895 226.786C294.185 240.763 274.73 248.657 254.44 248.88L255.44 229.22C286.19 229.22 312.44 204.28 314.05 173.53H333.74Z" fill="#407BFF"/>
<path opacity="0.3" d="M333.74 173.53C332.481 193.783 323.605 212.809 308.895 226.786C294.185 240.763 274.73 248.657 254.44 248.88L255.44 229.22C286.19 229.22 312.44 204.28 314.05 173.53H333.74Z" fill="black"/>
<path d="M340.93 178.48H318.69C320.51 143.65 293.77 115.48 258.98 115.48C247.77 115.476 236.751 118.381 227 123.91L216.89 104.64C258.62 81.2603 310.43 95.3603 331.71 135.86C338.553 148.982 341.738 163.704 340.93 178.48Z" fill="#FAFAFA"/>
<path d="M338.5 233.96H318.02L315.81 276.14H336.29L338.5 233.96Z" fill="#FAFAFA"/>
<path d="M367.73 220.02H347.25L344.31 276.14H364.79L367.73 220.02Z" fill="#407BFF"/>
<path opacity="0.6" d="M367.73 220.02H347.25L344.31 276.14H364.79L367.73 220.02Z" fill="black"/>
<path d="M395.49 233.96H375.01L372.8 276.14H393.28L395.49 233.96Z" fill="#407BFF"/>
<path opacity="0.3" d="M395.49 233.96H375.01L372.8 276.14H393.28L395.49 233.96Z" fill="black"/>
<path d="M393.09 279.73H315.62L315.67 278.77H393.14L393.09 279.73Z" fill="#263238"/>
<path opacity="0.8" d="M403.56 101.27H314.26L316.9 50.8202H406.21L403.56 101.27Z" fill="#FAFAFA"/>
<path d="M315.87 70.4803L314.26 101.27H403.56L405.56 63.0403C390.74 63.0403 381.95 79.9103 363.62 79.9103C345.29 79.9103 340.26 70.4803 315.87 70.4803Z" fill="#407BFF"/>
<path opacity="0.1" d="M315.87 70.4803L314.26 101.27H403.56L405.56 63.0403C390.74 63.0403 381.95 79.9103 363.62 79.9103C345.29 79.9103 340.26 70.4803 315.87 70.4803Z" fill="black"/>
<path d="M315.1 85.2002C335.17 85.2002 342.38 74.2002 353.65 74.2002C364.92 74.2002 369.85 85.7702 383.89 85.7702C398.53 85.7702 404.89 76.6702 404.89 76.6702L403.6 101.29H314.3L315.1 85.2002Z" fill="#407BFF"/>
<path opacity="0.5" d="M315.1 85.2002C335.17 85.2002 342.38 74.2002 353.65 74.2002C364.92 74.2002 369.85 85.7702 383.89 85.7702C398.53 85.7702 404.89 76.6702 404.89 76.6702L403.6 101.29H314.3L315.1 85.2002Z" fill="black"/>
<path d="M138.49 123.92C137.17 125.69 135.7 127.66 134.37 129.59C133.04 131.52 131.7 133.49 130.44 135.47C127.919 139.324 125.712 143.373 123.84 147.58L123.51 148.34L123.35 148.72C123.278 148.877 123.241 149.047 123.24 149.22C123.214 150.035 123.305 150.85 123.51 151.64C124.044 153.746 124.77 155.798 125.68 157.77C127.661 162.091 129.857 166.309 132.26 170.41L127.93 173.83C124.277 170.183 121.018 166.161 118.21 161.83C116.699 159.499 115.445 157.011 114.47 154.41C113.892 152.85 113.532 151.218 113.4 149.56C113.326 148.502 113.4 147.438 113.62 146.4C113.68 146.11 113.77 145.8 113.86 145.51L114.02 145.02L114.34 144.02C114.75 142.71 115.25 141.48 115.73 140.23C116.21 138.98 116.73 137.78 117.36 136.61C118.46 134.22 119.73 131.95 121.02 129.71C122.31 127.47 123.71 125.31 125.17 123.2C125.9 122.14 126.65 121.1 127.41 120.06C128.17 119.02 128.93 118.06 129.83 116.94L138.49 123.92Z" fill="#E58A7B"/>
<path d="M130.69 168.84L136.06 169.76L131.29 177.84C131.29 177.84 127.55 176.04 126.87 172.55L130.69 168.84Z" fill="#E58A7B"/>
<path d="M141.86 172.65L137.61 179.15L131.29 177.84L136.06 169.76L141.86 172.65Z" fill="#E58A7B"/>
<path d="M166.18 84.72C166.18 85.31 166.49 85.79 166.88 85.79C167.27 85.79 167.58 85.31 167.58 84.72C167.58 84.13 167.27 83.65 166.88 83.65C166.49 83.65 166.18 84.12 166.18 84.72Z" fill="#263238"/>
<path d="M166.44 85.79C167.148 87.6011 168.1 89.3069 169.27 90.86C168.866 91.1494 168.403 91.3468 167.914 91.4384C167.425 91.5299 166.922 91.5134 166.44 91.39V85.79Z" fill="#DF5753"/>
<path d="M164.08 81.4401C164.024 81.4416 163.969 81.4286 163.92 81.4022C163.871 81.3759 163.83 81.3373 163.8 81.29C163.772 81.254 163.751 81.2125 163.74 81.1681C163.729 81.1238 163.727 81.0776 163.734 81.0324C163.742 80.9873 163.759 80.9442 163.784 80.9059C163.809 80.8676 163.842 80.835 163.88 80.81C164.319 80.4736 164.833 80.2487 165.379 80.1546C165.924 80.0606 166.484 80.1002 167.01 80.27C167.094 80.3055 167.161 80.3724 167.197 80.4564C167.232 80.5405 167.233 80.6351 167.2 80.72C167.186 80.7631 167.163 80.8027 167.132 80.8363C167.102 80.87 167.065 80.8971 167.024 80.9159C166.982 80.9347 166.938 80.9447 166.892 80.9454C166.847 80.9461 166.802 80.9375 166.76 80.9201C166.341 80.7919 165.897 80.7659 165.465 80.8442C165.034 80.9225 164.628 81.1028 164.28 81.37C164.224 81.4161 164.153 81.4409 164.08 81.4401Z" fill="#263238"/>
<path d="M147.05 91.55C148.11 96.93 149.16 106.77 145.4 110.36C145.4 110.36 146.87 115.81 156.86 115.81C167.86 115.81 162.1 110.36 162.1 110.36C156.1 108.93 156.26 104.48 157.31 100.31L147.05 91.55Z" fill="#E58A7B"/>
<path d="M144 112.23C143.21 110.51 142.35 108.53 144.14 107.91C146.14 107.23 156.91 106.54 160.63 107.81C161.121 107.946 161.58 108.178 161.98 108.493C162.381 108.807 162.715 109.198 162.963 109.643C163.211 110.087 163.369 110.577 163.427 111.083C163.485 111.589 163.442 112.101 163.3 112.59L144 112.23Z" fill="#407BFF"/>
<path d="M120.83 363.12C120.184 363.117 119.541 363.046 118.91 362.91C118.878 362.904 118.848 362.889 118.824 362.866C118.801 362.842 118.786 362.812 118.78 362.78C118.773 362.747 118.776 362.712 118.789 362.68C118.801 362.648 118.822 362.62 118.85 362.6C118.94 362.54 120.97 361.16 122.04 361.4C122.155 361.424 122.263 361.473 122.356 361.544C122.45 361.615 122.526 361.706 122.58 361.81C122.666 361.932 122.712 362.076 122.712 362.225C122.712 362.374 122.666 362.519 122.58 362.64C122.335 362.832 122.054 362.973 121.753 363.056C121.453 363.138 121.139 363.16 120.83 363.12ZM119.4 362.66C120.5 362.84 122 362.84 122.31 362.42C122.31 362.42 122.44 362.26 122.31 361.98C122.278 361.919 122.232 361.866 122.177 361.824C122.122 361.783 122.058 361.754 121.99 361.74C121.052 361.789 120.151 362.116 119.4 362.68V362.66Z" fill="#407BFF"/>
<path d="M119 362.94C118.971 362.95 118.939 362.95 118.91 362.94C118.882 362.924 118.86 362.901 118.846 362.872C118.831 362.844 118.826 362.812 118.83 362.78C118.83 362.69 119.01 360.57 119.83 359.87C119.933 359.786 120.051 359.724 120.178 359.686C120.305 359.648 120.438 359.636 120.57 359.65C120.702 359.65 120.83 359.696 120.933 359.78C121.035 359.864 121.105 359.98 121.13 360.11C121.28 360.93 119.81 362.53 119.05 362.95L119 362.94ZM120.48 359.94C120.334 359.943 120.192 359.996 120.08 360.09C119.569 360.754 119.266 361.554 119.21 362.39C119.97 361.82 120.91 360.61 120.82 360.12C120.82 360.12 120.82 359.97 120.56 359.94H120.48Z" fill="#407BFF"/>
<path d="M164.94 363.12C164.185 363.121 163.432 363.05 162.69 362.91C162.654 362.906 162.621 362.89 162.596 362.864C162.57 362.839 162.554 362.806 162.55 362.77C162.544 362.736 162.549 362.7 162.563 362.668C162.577 362.636 162.601 362.609 162.63 362.59C162.74 362.53 165.31 361.07 166.53 361.4C166.645 361.426 166.754 361.476 166.849 361.546C166.944 361.617 167.022 361.707 167.08 361.81C167.16 361.921 167.203 362.054 167.203 362.19C167.203 362.326 167.16 362.459 167.08 362.57C166.79 363.01 165.88 363.12 164.94 363.12ZM163.25 362.66C164.63 362.85 166.48 362.82 166.82 362.36C166.82 362.3 166.9 362.2 166.82 361.98C166.783 361.918 166.734 361.865 166.676 361.824C166.617 361.782 166.55 361.754 166.48 361.74C165.64 361.54 164 362.28 163.25 362.68V362.66Z" fill="#407BFF"/>
<path d="M162.72 362.94C162.687 362.95 162.653 362.95 162.62 362.94C162.595 362.922 162.575 362.898 162.563 362.87C162.551 362.842 162.546 362.811 162.55 362.78C162.615 361.738 163.015 360.746 163.69 359.95C163.824 359.829 163.983 359.74 164.156 359.688C164.329 359.636 164.512 359.623 164.69 359.65C165.17 359.7 165.31 359.94 165.34 360.14C165.47 360.97 163.72 362.56 162.83 362.95L162.72 362.94ZM164.51 359.94C164.288 359.937 164.073 360.02 163.91 360.17C163.347 360.799 162.997 361.59 162.91 362.43C163.81 361.89 165.01 360.64 164.91 360.14C164.91 360.14 164.91 359.98 164.57 359.94H164.51Z" fill="#407BFF"/>
<path d="M154.64 362.76H161.99L162.72 345.75H155.37L154.64 362.76Z" fill="#E58A7B"/>
<path d="M110.53 362.76H117.88L121.57 345.75H114.23L110.53 362.76Z" fill="#E58A7B"/>
<path d="M118.4 361.91H110.15C110.003 361.911 109.86 361.962 109.746 362.055C109.631 362.148 109.552 362.276 109.52 362.42L108.07 368.95C108.037 369.109 108.04 369.274 108.079 369.431C108.119 369.589 108.193 369.736 108.297 369.86C108.4 369.985 108.531 370.085 108.679 370.153C108.827 370.22 108.988 370.253 109.15 370.25C112.03 370.2 113.43 370.03 117.06 370.03C119.29 370.03 123.89 370.27 126.98 370.27C130.07 370.27 130.46 367.27 129.2 366.94C123.54 365.7 121.41 363.99 119.59 362.37C119.266 362.072 118.841 361.907 118.4 361.91Z" fill="#263238"/>
<path d="M161.94 361.91H153.94C153.793 361.911 153.65 361.962 153.536 362.055C153.421 362.147 153.342 362.276 153.31 362.42L151.86 368.95C151.825 369.108 151.827 369.271 151.864 369.428C151.901 369.585 151.974 369.731 152.076 369.856C152.178 369.981 152.307 370.082 152.453 370.15C152.599 370.218 152.759 370.252 152.92 370.25C155.81 370.2 159.99 370.03 163.63 370.03C167.88 370.03 171.56 370.27 176.54 370.27C179.54 370.27 180.4 367.27 179.14 366.94C173.39 365.68 168.7 365.55 163.73 362.49C163.201 362.13 162.58 361.929 161.94 361.91Z" fill="#263238"/>
<path d="M171.65 114.55C175.95 116.67 180.42 118.84 184.83 120.87C189.24 122.9 193.7 124.87 198.13 126.56L199.78 127.15L200.2 127.3H200.3C200.3 127.3 200.3 127.3 200.35 127.35C200.948 127.412 201.553 127.34 202.12 127.14C204.109 126.477 206.01 125.573 207.78 124.45C211.822 121.911 215.706 119.13 219.41 116.12L223.46 119.86C220.374 124.129 216.785 128.011 212.77 131.42C210.567 133.323 208.102 134.899 205.45 136.1C203.712 136.887 201.827 137.296 199.92 137.3C199.316 137.289 198.713 137.225 198.12 137.11L197.64 137L197.31 136.91L196.83 136.78L194.91 136.25C189.96 134.768 185.099 133.005 180.35 130.97C175.63 128.97 171.09 126.83 166.5 124.4L171.65 114.55Z" fill="#E58A7B"/>
<path d="M132.25 112.02C125.36 113.6 117.46 132.37 117.46 132.37L131.29 141.85C134.733 136.917 137.789 131.725 140.43 126.32C144.51 117.73 139.29 110.41 132.25 112.02Z" fill="#263238"/>
<path d="M137.18 123.99L130.64 141.4L131.29 141.85C131.29 141.85 134.12 137.85 137.18 132.52V123.99Z" fill="#407BFF"/>
<path opacity="0.8" d="M137.18 123.99L130.64 141.4L131.29 141.85C131.29 141.85 134.12 137.85 137.18 132.52V123.99Z" fill="black"/>
<path d="M173.4 112.4C173.4 112.4 181.22 121.23 173.84 175.9H134.54C134.27 169.9 138.06 140.44 132.25 112.02C136.593 111.184 140.985 110.629 145.4 110.36C150.962 110.04 156.538 110.04 162.1 110.36C165.914 110.744 169.692 111.426 173.4 112.4Z" fill="#263238"/>
<path d="M176.84 129.22L167.39 127.22C167.53 127.39 173.39 134.74 176.98 139.31C177.05 135.41 177 132.12 176.84 129.22Z" fill="#407BFF"/>
<path opacity="0.8" d="M176.84 129.22L167.39 127.22C167.53 127.39 173.39 134.74 176.98 139.31C177.05 135.41 177 132.12 176.84 129.22Z" fill="black"/>
<path d="M161.08 122.18C163.24 128.86 185.08 136.18 185.08 136.18L191.58 120.77C186.1 117.447 180.28 114.718 174.22 112.63C165.36 109.81 158.7 114.85 161.08 122.18Z" fill="#263238"/>
<path d="M218.79 117.12L220.94 109.67L229.49 113.54C229.49 113.54 227.6 119.32 222.43 120.7L218.79 117.12Z" fill="#E58A7B"/>
<path d="M226.06 103.46L231.87 109.19L229.49 113.5L220.94 109.63L226.06 103.46Z" fill="#E58A7B"/>
<path d="M162.72 345.76L162.34 354.52H154.99L155.37 345.76H162.72Z" fill="#CF6F64"/>
<path d="M114.22 345.76H121.57L119.67 354.52H112.32L114.22 345.76Z" fill="#CF6F64"/>
<path d="M146.42 83.46C146.86 90.74 146.75 95.02 150.42 98.76C155.95 104.38 164.93 101.04 166.67 93.76C168.23 87.22 167.24 76.42 160.11 73.52C158.542 72.8756 156.835 72.643 155.151 72.8444C153.468 73.0458 151.864 73.6745 150.492 74.6706C149.12 75.6668 148.026 76.9974 147.313 78.5358C146.6 80.0742 146.293 81.7693 146.42 83.46Z" fill="#E58A7B"/>
<path d="M160.56 78.62C166.05 80.24 170.65 72.45 169.8 77.96C168.95 83.47 174.94 82.87 174.94 82.87C174.94 82.87 170.24 81.09 175.83 76.45C182.66 70.78 172.96 67.3 168.71 70.38C162.99 74.54 161.87 67.2 154.5 65.23C149.5 63.91 143.35 67.05 143.24 70.66C143.1 75.07 139.31 71.52 139.03 78.08C138.84 82.36 143.94 96.47 149.44 96.95C157.72 97.68 160.5 87.18 160.56 78.62Z" fill="#263238"/>
<path d="M156.24 85.58C156.632 87.3571 157.603 88.9539 159 90.12C160.85 91.62 162.33 90.28 162.29 88.12C162.24 86.17 161.23 83.04 159.15 82.38C157.07 81.72 155.77 83.45 156.24 85.58Z" fill="#E58A7B"/>
<path d="M144.84 74.76C143.943 73.3991 143.399 71.8362 143.258 70.2125C143.116 68.5888 143.382 66.9554 144.03 65.46C144.03 65.46 136.21 71.35 144.84 74.76Z" fill="#263238"/>
<path d="M138.58 74.04C139.355 73.7119 140.201 73.5848 141.038 73.6705C141.875 73.7561 142.677 74.0518 143.37 74.5301C143.37 74.5301 141.15 70 138.58 74.04Z" fill="#263238"/>
<path d="M159.9 175.9C159.9 175.9 151.56 232.04 147 253.12C142 276.12 123.11 352.88 123.11 352.88H109.63C109.63 352.88 122.09 277.96 125 255.12C128.1 230.37 134.59 175.86 134.59 175.86L159.9 175.9Z" fill="#407BFF"/>
<path d="M125.24 347.87C125.3 347.87 123.85 353.04 123.85 353.04H108.71L108.99 348.43L125.24 347.87Z" fill="#407BFF"/>
<path opacity="0.2" d="M125.24 347.87C125.3 347.87 123.85 353.04 123.85 353.04H108.71L108.99 348.43L125.24 347.87Z" fill="black"/>
<path d="M154.63 195.9C144.99 197.79 146.01 233.74 147.17 252.23C150 239.12 154 214.01 156.8 196.12C156.123 195.802 155.357 195.725 154.63 195.9Z" fill="#407BFF"/>
<path opacity="0.2" d="M154.63 195.9C144.99 197.79 146.01 233.74 147.17 252.23C150 239.12 154 214.01 156.8 196.12C156.123 195.802 155.357 195.725 154.63 195.9Z" fill="black"/>
<path d="M173.84 175.9C173.84 175.9 174.84 230.82 174.05 253.23C173.22 276.53 165.05 352.83 165.05 352.83H152.64C152.64 352.83 152.18 277.89 151.64 255.01C151.04 230.06 148.03 175.9 148.03 175.9H173.84Z" fill="#407BFF"/>
<path d="M162.49 343.89C162.457 343.885 162.426 343.868 162.404 343.843C162.382 343.817 162.37 343.784 162.37 343.75C164.57 322.63 169.74 271.54 170.37 253.22C171.04 234.45 170.43 192.53 170.23 180.12C170.23 180.104 170.233 180.089 170.239 180.074C170.245 180.06 170.254 180.046 170.265 180.035C170.276 180.024 170.29 180.015 170.304 180.009C170.319 180.003 170.334 180 170.35 180C170.383 180 170.415 180.012 170.439 180.034C170.463 180.057 170.478 180.087 170.48 180.12C170.68 192.52 171.29 234.45 170.62 253.23C169.97 271.56 164.8 322.66 162.62 343.78C162.619 343.796 162.615 343.811 162.607 343.825C162.6 343.839 162.59 343.852 162.578 343.862C162.566 343.872 162.552 343.88 162.537 343.885C162.522 343.89 162.506 343.891 162.49 343.89Z" fill="#407BFF"/>
<path opacity="0.2" d="M162.49 343.89C162.457 343.885 162.426 343.868 162.404 343.843C162.382 343.817 162.37 343.784 162.37 343.75C164.57 322.63 169.74 271.54 170.37 253.22C171.04 234.45 170.43 192.53 170.23 180.12C170.23 180.104 170.233 180.089 170.239 180.074C170.245 180.06 170.254 180.046 170.265 180.035C170.276 180.024 170.29 180.015 170.304 180.009C170.319 180.003 170.334 180 170.35 180C170.383 180 170.415 180.012 170.439 180.034C170.463 180.057 170.478 180.087 170.48 180.12C170.68 192.52 171.29 234.45 170.62 253.23C169.97 271.56 164.8 322.66 162.62 343.78C162.619 343.796 162.615 343.811 162.607 343.825C162.6 343.839 162.59 343.852 162.578 343.862C162.566 343.872 162.552 343.88 162.537 343.885C162.522 343.89 162.506 343.891 162.49 343.89Z" fill="black"/>
<path d="M167.47 347.87C167.53 347.87 166.77 353.04 166.77 353.04H151.63L151.22 348.43L167.47 347.87Z" fill="#407BFF"/>
<path opacity="0.2" d="M167.47 347.87C167.53 347.87 166.77 353.04 166.77 353.04H151.63L151.22 348.43L167.47 347.87Z" fill="black"/>
</svg>
