<svg width="850" height="487" viewBox="0 0 850 487" fill="none" xmlns="http://www.w3.org/2000/svg">
<path d="M115.639 440.883C115.639 440.883 32.1644 343.318 101.522 237.691C163.061 143.97 234.809 150.377 287.449 188.409C309.87 204.608 374.51 190.406 429.526 95.0417C504.554 -35.0083 764.628 43.8675 717.209 243.953C694.261 340.78 787.047 344.3 739.769 441.088L115.639 440.883Z" fill="#4A75CB" fill-opacity="0.69"/>
<path d="M131.546 441.088C131.546 441.088 160.619 365.118 221.443 406.088C267.487 437.103 325.379 396.968 355.523 351.216C385.666 305.463 567.505 351.805 607.965 407.677C624.961 431.146 666.101 409.675 672.648 440.183L131.546 441.088Z" fill="#A8D29F"/>
<path d="M492.643 280.863C492.696 277.76 494.908 272.465 490.54 267.435C487.445 263.824 484.716 259.765 483.413 257.782C482.94 256.977 477.655 261.709 477.769 261.899C478.638 263.302 482.626 270.446 483.205 274.43C483.838 278.92 490.904 283.834 490.904 283.834C490.904 283.834 492.627 283.951 492.643 280.863Z" fill="#F4A671"/>
<path d="M486.15 261.778L477.767 261.897C477.767 261.897 464.657 239.348 464.256 232.194C463.869 225.362 451.27 195.464 466.019 176.797C466.684 175.95 467.406 175.127 468.191 174.332C468.217 174.301 468.246 174.273 468.276 174.245C468.276 174.245 468.301 174.289 468.348 174.376C468.648 174.921 469.82 177.226 471.192 182.321C473.343 190.285 476.001 205.069 476.629 230.604C476.629 230.604 482.462 252.463 486.15 261.778Z" fill="#F4A671"/>
<path d="M459.991 142.059C459.991 142.059 459.086 144.723 460.422 145.767C461.758 146.812 457.03 151.602 456.117 155.626C455.204 159.65 456.345 161.787 456.345 161.787C456.345 161.787 456.209 159.352 457.03 158.16C457.03 158.16 456.148 160.925 457.608 162.979C459.068 165.032 458.211 166.075 458.211 166.075C458.211 166.075 462.841 166.158 463.967 162.747C463.967 162.747 463.693 164.37 463.358 164.966C463.358 164.966 467.879 163.244 469.057 159.866C470.234 156.488 468.032 152.533 466.659 152.001C465.286 151.468 463.054 147.43 463.465 146.337C463.875 145.244 459.991 142.059 459.991 142.059Z" fill="#2C3A64"/>
<path d="M461.054 428.947L455.628 431.146C455.628 431.146 432.064 395.568 429.163 364.266C428.645 358.678 428.817 353.263 429.938 348.263C429.938 348.263 429.708 346.831 429.305 344.299C429.118 343.118 428.888 341.696 428.627 340.066C427.861 335.288 426.806 328.75 425.602 321.305C422.829 304.174 419.237 282.274 416.446 266.175L417.908 265.663L433.725 260.109L436.993 248.806L448.771 245.432C448.771 245.432 451.402 251.034 453.754 277.5C454.188 280.972 454.582 284.8 454.879 288.951C455.796 301.623 455.862 317.341 453.758 335.311C453.218 339.911 452.536 344.661 451.69 349.54C451.07 353.118 450.977 357.993 451.238 363.59C452.425 389.18 461.054 428.947 461.054 428.947Z" fill="#B64C41"/>
<path d="M454.879 288.952L429.305 344.3C429.118 343.119 428.888 341.697 428.627 340.067C427.861 335.289 426.806 328.751 425.602 321.306C422.829 304.175 419.237 282.275 416.446 266.175L417.908 265.664L433.725 260.11L436.993 248.807L451.062 244.253C451.062 244.253 451.402 251.035 453.754 277.501C454.188 280.973 454.582 284.801 454.879 288.952Z" fill="#963333"/>
<path d="M471.778 125.371L446.237 147.881C446.237 147.881 445.492 142.997 442.864 143.748C438.764 144.916 432.472 132.95 437.313 122.128C437.631 121.42 441.562 110.707 454.141 109.358C470.313 110.707 471.778 125.371 471.778 125.371Z" fill="#2C3A64"/>
<path d="M462.577 185.5C459.463 187.071 455.703 188.142 451.154 188.412C434.101 189.43 430.23 173.157 429.526 162.356C431.984 161.387 434.137 161.478 435.377 161.551C436.586 161.623 437.849 161.758 438.889 161.898C440.975 160.712 444.723 154.95 446.888 145.312L447.624 145.683L459.928 151.98C459.928 151.98 458.621 156.339 457.656 160.509C456.903 163.774 456.363 166.927 456.814 167.809C457.785 168.239 458.365 168.508 458.365 168.508C458.365 168.508 458.365 168.514 458.369 168.523C458.493 168.865 461.168 176.285 462.577 185.5Z" fill="#FFB27D"/>
<path d="M466.844 197.677C466.716 198.047 466.574 198.409 466.421 198.782C462.102 208.908 450.365 242.364 450.365 242.364C451.504 249.907 402.046 249.371 401.907 242.503C400.403 236.649 405.612 227.945 410.209 221.706C411.333 220.184 412.418 218.813 413.36 217.66C413.962 216.921 414.502 216.13 414.973 215.295C416.16 213.205 416.912 210.84 417.153 208.372C417.788 201.823 417.832 195.551 417.817 190.457C417.81 187.981 417.792 185.787 417.817 183.971C418.756 183.211 419.665 182.512 420.512 181.848C421.804 180.823 422.947 179.861 423.787 178.887C424.714 177.826 425.294 176.741 425.36 175.517C425.408 174.591 425.382 173.641 425.294 172.691C425.254 172.242 425.2 171.797 425.138 171.348C424.473 166.634 422.666 162.362 422.666 162.362C427.244 160.347 435.378 161.547 435.378 161.547C435.378 161.547 435.371 162.04 435.367 162.847C435.338 166.082 435.367 174.388 436.32 175.962C437.51 177.917 459.306 186.498 460.459 183.839C461.591 181.228 458.488 168.983 458.371 168.522C458.368 168.51 458.368 168.506 458.368 168.506C458.601 168.605 458.828 168.705 459.05 168.8C460.16 169.293 461.12 169.857 462.044 170.223C467.973 172.58 468.532 174.726 468.532 174.726C464.132 177.83 470.247 187.857 466.844 197.677Z" fill="#F99746"/>
<path d="M459.929 151.982C459.929 151.982 458.62 156.337 457.657 160.512C450.465 158.327 448.28 150.097 447.623 145.686L459.929 151.982Z" fill="#ED985F"/>
<path d="M461.444 156.593C461.444 156.593 444.236 152.258 446.881 140.634C449.526 129.011 449.087 120.623 460.185 122.899C471.283 125.176 472.4 130.184 472.384 134.298C472.368 138.412 465.988 157.421 461.444 156.593Z" fill="#FFB27D"/>
<path d="M473.352 127.699C471.502 123.486 469.324 123.711 467.963 124.458C459.877 116.315 451.947 122.967 451.947 122.967C448.895 130.994 442.279 134.275 442.279 134.275C442.279 134.275 444.923 137.221 452.584 137.156C454.925 137.136 457.277 135.967 459.418 134.355C455.289 138.882 450.447 141.639 450.447 141.639C460.037 139.641 466.468 127.554 467.127 126.27C467.94 127.576 469.494 130.357 469.624 132.705C469.802 135.895 468.794 142.091 470.472 142.325C470.472 142.326 476.126 134.017 473.352 127.699Z" fill="#2C3A64"/>
<path d="M478.032 439.791H450.707C450.707 439.791 449.685 435.047 451.48 431.818C453.067 428.962 452.938 427.224 451.761 424.861C452.999 425.412 454.122 426.025 455.885 425.915C457.246 425.83 458.757 424.783 460.02 423.984C461.196 425.444 466.16 432.031 467.734 433.262C469.52 434.659 477.482 434.161 478.032 439.791Z" fill="#233862"/>
<path d="M429.263 224.281C422.129 223.732 415.338 223.045 410.208 221.705C411.333 220.183 412.417 218.812 413.359 217.66C413.962 216.92 414.502 216.13 414.973 215.295C416.16 213.205 416.911 210.84 417.153 208.372C417.788 201.822 417.831 195.551 417.817 190.456C424.038 182.873 429.263 176.709 429.263 176.709C429.263 176.709 440.858 188.278 442.654 199.803C444.45 211.329 447.841 225.712 429.263 224.281Z" fill="#ED7D2B"/>
<path d="M432.134 161.249C432.134 161.249 440.554 172.11 438.75 188.409H442.239C442.239 188.409 444.213 177.011 435.377 161.55C435.377 161.55 434.224 161.372 433.849 161.338C433.413 161.297 432.134 161.249 432.134 161.249Z" fill="#963333"/>
<path d="M462.494 197.047L459.106 196.137C463.659 183.038 460.169 171.814 459.048 168.802C460.158 169.294 461.155 169.772 462.042 170.225C466.74 186.921 462.494 197.047 462.494 197.047Z" fill="#963333"/>
<path d="M463.968 190.462C463.968 190.462 447.168 185.699 442.428 184.374C437.687 183.049 437.314 186.096 437.314 186.096C437.314 186.096 436.652 196.026 436.581 197.046C435.485 212.634 414.971 215.296 414.971 215.296C414.971 215.296 409.672 222.485 405.127 229.552C397.334 241.669 398.293 262.141 398.293 262.141C398.127 264.618 398.101 267.31 398.268 270.229C398.884 280.987 400.009 326.7 401.184 340.227C401.608 345.13 401.98 348.619 402.132 350.012C402.136 350.019 402.136 350.022 402.136 350.026C402.182 350.451 402.046 350.852 401.847 351.223C400.118 354.419 398.686 357.746 397.511 361.15C385.98 394.599 399.287 435.791 399.287 435.791L402.74 434.276C402.74 434.276 410.312 388.434 416.465 368.182C417.509 364.747 418.51 362.048 419.428 360.435C422.103 355.735 424.585 348.055 426.839 338.921C431.098 321.652 434.526 299.187 436.807 281.847C437.122 281.863 439.622 258.56 447.843 247.839L451.062 244.253L461.265 216.957C461.265 216.957 464.083 198.813 464.935 195.766C465.787 192.72 463.968 190.462 463.968 190.462Z" fill="#B64C41"/>
<path d="M439.011 187.023C439.011 186.146 439.664 185.434 440.471 185.434C441.278 185.434 441.932 186.145 441.932 187.023C441.932 187.902 441.278 188.613 440.471 188.613C439.664 188.613 439.011 187.901 439.011 187.023Z" fill="#ED7D2B"/>
<path d="M439.273 187.023C439.273 186.146 439.927 185.434 440.734 185.434C441.54 185.434 442.194 186.145 442.194 187.023C442.194 187.902 441.541 188.613 440.734 188.613C439.927 188.613 439.273 187.901 439.273 187.023Z" fill="#F99746"/>
<path d="M439.872 186.724C439.907 186.603 440.026 186.535 440.138 186.575C440.25 186.613 440.312 186.743 440.276 186.865C440.24 186.987 440.121 187.054 440.009 187.015C439.897 186.976 439.836 186.845 439.872 186.724Z" fill="#2B478B"/>
<path d="M441.191 187.182C441.227 187.061 441.346 186.994 441.458 187.033C441.57 187.071 441.631 187.201 441.596 187.323C441.56 187.444 441.441 187.512 441.329 187.473C441.217 187.433 441.156 187.304 441.191 187.182Z" fill="#2B478B"/>
<path d="M460.059 192.181C460.059 191.303 460.713 190.591 461.52 190.591C462.326 190.591 462.98 191.303 462.98 192.181C462.98 193.059 462.326 193.77 461.52 193.77C460.713 193.77 460.059 193.059 460.059 192.181Z" fill="#ED7D2B"/>
<path d="M460.321 192.181C460.321 191.303 460.975 190.591 461.782 190.591C462.588 190.591 463.242 191.303 463.242 192.181C463.242 193.059 462.588 193.77 461.782 193.77C460.975 193.77 460.321 193.059 460.321 192.181Z" fill="#F99746"/>
<path d="M460.92 191.88C460.955 191.759 461.075 191.692 461.187 191.731C461.298 191.77 461.36 191.899 461.324 192.021C461.289 192.143 461.169 192.21 461.057 192.171C460.946 192.132 460.884 192.002 460.92 191.88Z" fill="#2B478B"/>
<path d="M462.24 192.34C462.276 192.218 462.395 192.151 462.507 192.19C462.619 192.229 462.68 192.359 462.645 192.48C462.609 192.602 462.49 192.669 462.378 192.63C462.266 192.591 462.205 192.461 462.24 192.34Z" fill="#2B478B"/>
<path d="M436.986 136.495C436.986 136.495 436.081 139.16 437.417 140.203C438.753 141.248 434.025 146.039 433.112 150.063C432.199 154.087 433.34 156.223 433.34 156.223C433.34 156.223 433.204 153.789 434.025 152.596C434.025 152.596 433.143 155.362 434.603 157.415C436.063 159.468 435.206 160.511 435.206 160.511C435.206 160.511 439.836 160.595 440.962 157.183C440.962 157.183 440.688 158.807 440.354 159.403C440.354 159.403 444.874 157.68 446.052 154.302C447.229 150.924 445.027 146.969 443.655 146.436C442.282 145.904 440.049 141.866 440.46 140.773C440.87 139.68 436.986 136.495 436.986 136.495Z" fill="#2C3A64"/>
<path d="M471.192 182.321C467.289 182.945 465.708 185.465 465.708 185.465C465.708 185.465 465.373 180.12 466.019 176.797C466.241 175.637 466.588 174.722 467.107 174.373C467.344 174.214 467.72 174.214 468.191 174.333C468.242 174.345 468.293 174.361 468.348 174.377C468.648 174.921 469.819 177.226 471.192 182.321Z" fill="#F99746"/>
<path d="M525.828 281.479C518.878 281.874 514.128 270.134 511.2 269.979C510.72 269.956 509.807 270.101 508.635 270.288C511.517 275.436 513.72 281.488 514.941 288.14C519.108 310.787 510.327 331.799 495.33 335.065C480.745 338.242 465.649 323.46 461.004 301.806C460.874 301.201 460.754 300.589 460.639 299.971C459.424 293.366 459.312 286.902 460.134 280.975C460.134 280.958 460.137 280.939 460.14 280.922C459.511 281.103 459.025 281.261 458.738 281.409C456.088 282.781 455.858 295.603 449.301 298.152C442.747 300.698 438.329 287.024 446.135 276.373C450.893 269.877 459.327 266.742 465.183 265.285C466.401 263.124 467.8 261.183 469.359 259.505C469.417 259.443 469.474 259.377 469.534 259.314C465.232 256.782 461.959 252.262 460.923 246.631C460.572 244.726 460.506 242.828 460.687 240.993C460.672 240.99 460.66 240.983 460.645 240.98C457.684 240.006 455.303 237.335 454.653 233.806C453.716 228.707 456.753 223.744 461.439 222.724C464.83 221.984 468.157 223.514 470.091 226.349C471.393 225.651 472.798 225.122 474.291 224.797C475.614 224.51 476.932 224.395 478.222 224.444C479.04 221.079 481.546 218.343 484.89 217.612C489.577 216.593 494.134 219.898 495.073 225C495.687 228.346 494.59 231.635 492.442 233.786C493.324 235.474 493.98 237.342 494.348 239.348C495.327 244.664 494.113 249.901 491.387 253.953C493.835 254.871 496.21 256.246 498.461 258.012C504.335 256.789 513.938 255.795 521.051 260.051C532.022 266.611 532.778 281.081 525.828 281.479Z" fill="#2B478B"/>
<path d="M461.004 301.807C460.874 301.202 460.754 300.59 460.638 299.972C459.424 293.366 459.312 286.903 460.134 280.976C460.995 279.883 462.14 279.071 463.439 279.742C466.31 281.222 465.857 296.189 470.238 299.643C473.487 302.202 465.365 302.231 461.004 301.807Z" fill="#233862"/>
<path d="M477.669 257.128C476.022 257.792 472.508 258.98 469.359 259.506C469.417 259.443 469.474 259.378 469.535 259.315C465.232 256.783 461.959 252.263 460.923 246.632C460.573 244.727 460.506 242.829 460.688 240.994C460.673 240.99 460.66 240.984 460.645 240.981C460.817 240.905 461.038 241.02 461.325 241.461C462.419 243.148 468.326 256.799 477.669 255.237C477.669 255.237 480.11 256.141 477.669 257.128Z" fill="#233862"/>
<path d="M482.099 225.632C482.099 225.632 484.289 221.192 487.537 222.343C490.785 223.494 491.239 228.593 489.124 229.991C489.124 229.991 485.975 226.819 482.099 225.632Z" fill="#233862"/>
<path d="M466.839 228.228C466.839 228.228 462.156 225.879 460.04 228.593C457.925 231.306 462.156 234.768 462.156 234.768C462.156 234.768 464.196 230.166 466.839 228.228Z" fill="#233862"/>
<path d="M468.75 253.162L467.241 259.244C467.241 259.244 461.942 257.142 459.209 256.015C458.389 255.672 457.926 255.445 457.926 255.445C455.744 254.516 453.147 253.324 450.314 252.04L450.274 252.032C445.442 249.719 440.049 247.024 435.573 244.327C432.431 242.393 429.748 240.458 427.995 238.704C427.815 238.533 427.675 238.369 427.502 238.153C423.395 233.485 419.604 221.386 417.197 208.74C416.861 206.994 416.565 205.255 416.262 203.561C415.22 197.27 414.567 191.146 414.429 185.942C414.32 182.832 414.368 180.025 414.66 177.766C414.751 176.967 414.834 176.212 414.991 175.515C417.189 162.777 423.299 162.162 423.299 162.162C423.427 162.141 423.555 162.121 423.725 162.109C424.764 162.132 425.69 163.086 426.54 164.752C427.615 166.825 428.58 170.058 429.484 173.914C430.845 180.041 432.051 187.863 433.102 195.609C433.69 199.857 434.238 204.098 434.837 208.031C435.152 210.409 435.489 212.655 435.814 214.718C436.453 218.658 437.088 221.871 437.785 223.962C438.226 225.32 439.801 227.401 441.944 229.82C445.664 234.049 451.248 239.371 456.148 243.786C458.177 245.639 460.107 247.335 461.709 248.74C464.293 251.02 468.75 253.162 468.75 253.162Z" fill="#FFB27D"/>
<path d="M430.175 173.994C422.397 170.014 414.979 175.498 414.979 175.498C417.23 162.569 423.642 161.999 423.642 161.999C426.281 161.409 428.387 166.461 430.175 173.994Z" fill="#F99746"/>
<path d="M465.166 251.806C465.166 251.806 468.385 253.201 470.217 253.555C472.048 253.909 474.873 252.92 477.194 254.569C479.515 256.216 481.167 257.313 481.167 257.313C481.167 257.313 481.733 258.247 480.498 258.627C479.794 258.843 476.235 256.391 476.084 257.045C475.932 257.699 478.348 259.162 479.751 259.245C481.155 259.327 483.714 260.666 483.714 261.655C483.714 262.643 479.567 264.983 477.145 264.817C474.723 264.653 469.746 260.006 468.488 259.676C467.229 259.346 461.932 257.045 461.932 257.045L465.166 251.806Z" fill="#FFB27D"/>
<path d="M419.362 439.793H392.038C392.038 439.793 391.383 435.26 392.81 431.821C394.177 428.52 396.574 426.887 396.061 422.894C397.797 424.84 400.184 426.714 404.135 426.135C404.619 426.99 407.448 432 409.064 433.264C410.85 434.661 418.812 434.164 419.362 439.793Z" fill="#233862"/>
<path d="M701.951 412.53C701.951 412.53 707.244 417.87 706.211 421.665C705.179 425.459 700.402 427.989 699.757 432.627C699.111 437.264 696.529 439.794 694.205 439.794C691.881 439.794 683.127 439.794 683.127 439.794C683.127 439.794 681.416 436.531 685.547 435.547C689.679 434.563 691.236 429.113 690.978 424.054C690.719 418.995 691.365 412.249 691.365 412.249L700.144 410.001L701.951 412.53Z" fill="#2C3A64"/>
<path d="M635.983 439.274C635.578 439.495 634.395 439.663 632.722 439.792H605.929C606.054 438.857 606.754 436.171 610.68 435.477C615.306 434.662 623.325 431.733 625.114 425.292C625.17 425.082 625.222 424.87 625.267 424.656C626.687 417.77 637.014 426.765 637.014 426.765C637.014 426.765 637.045 427.04 637.09 427.508C637.33 430.033 637.943 438.205 635.983 439.274Z" fill="#2C3A64"/>
<path d="M611.908 255.087C611.908 255.087 613.476 276.391 615.32 301.999C617.826 336.786 620.839 379.515 621.137 387.61C621.652 401.666 623.72 424.15 623.72 424.15C623.72 424.15 628.624 429.492 638.437 427.241C638.437 427.241 647.183 395.144 649.68 361.184C649.719 360.627 649.758 360.067 649.797 359.506C652.12 324.935 655.734 252.137 655.734 252.137L611.908 255.087Z" fill="#35488B"/>
<path d="M611.908 255.087C611.908 255.087 613.476 276.391 615.32 301.999L649.68 361.184C649.719 360.627 649.758 360.067 649.797 359.506C652.12 324.935 655.734 252.137 655.734 252.137L611.908 255.087Z" fill="#2C3A64"/>
<path d="M619.07 257.617C619.07 257.617 647.343 334.77 665.933 371.028C684.523 407.286 690.332 417.405 690.332 417.405C690.332 417.405 700.983 412.767 701.951 409.605C701.951 409.605 694.842 339.607 682.393 322.544C675.358 312.902 667.095 283.967 666.707 273.849C666.32 263.731 664.19 243.704 664.19 243.704L619.07 257.617Z" fill="#35488B"/>
<path d="M563.587 246.939C563.587 246.939 553.61 252.152 552.267 253.491C550.924 254.828 547.61 261.397 547.864 261.892C548.119 262.387 548.615 262.54 549.52 261.859C550.424 261.179 552.961 258.334 553.055 258.862C553.148 259.39 546.282 268.186 547.496 270.047C548.71 271.908 555.594 271.358 559.524 268.315C563.455 265.272 567.379 254.086 567.97 253.475C572.982 248.295 563.587 246.939 563.587 246.939Z" fill="#FFB27D"/>
<path d="M563.137 252.525C560.368 249.901 560.295 249.237 560.295 249.237C560.295 249.237 577.986 215.935 579.52 212.733C581.053 209.53 590.535 159.515 590.535 159.515L623.313 149.17C623.313 149.17 600.224 214.161 596.192 222.193C589.529 235.466 567.777 255 567.777 255C567.777 255 565.313 254.585 563.137 252.525Z" fill="#ED7D2B"/>
<path d="M606.616 136.156C606.616 136.156 595.08 158.25 583.805 161.134C583.805 161.134 584.275 153.713 587.02 148.636C585.895 147.192 584.908 145.866 584.054 144.679C581.215 140.72 579.866 138.296 579.866 138.296L583.692 127.098L586.289 119.499C587.536 121.965 588.912 124.066 590.346 125.863C597.736 135.112 606.616 136.156 606.616 136.156Z" fill="#FFB27D"/>
<path d="M590.347 125.863C590.347 125.863 591.723 136.935 584.054 144.679C581.216 140.719 579.866 138.296 579.866 138.296L583.693 127.097C587.796 125.736 590.347 125.863 590.347 125.863Z" fill="#ED975D"/>
<path d="M576.826 139.929C576.826 139.929 594.061 132.614 589.712 121C585.362 109.386 584.657 100.62 573.469 104.799C562.28 108.978 561.815 114.353 562.401 118.614C562.987 122.875 572.23 141.532 576.826 139.929Z" fill="#FFB27D"/>
<path d="M665.86 249.535C658.91 260.415 606.922 274.954 607.544 267.425C607.778 264.539 608.096 259.461 607.537 252.57C607.406 250.955 607.219 249.242 606.985 247.439C605.66 237.535 602.526 224.815 595.527 210.081C595.003 208.976 594.457 207.864 593.891 206.737C591.006 201.034 588.556 195.009 586.686 189.11C583.083 177.78 581.626 166.938 583.448 159.853C583.455 159.815 583.462 159.785 583.476 159.755C594.34 154.285 598.55 133.074 598.55 133.074C598.55 133.074 635.622 140.317 656.391 194.107C656.391 194.107 658.385 200.013 660.663 208.03C663.431 217.752 666.62 230.571 667.172 239.715C667.44 244.058 667.109 247.574 665.86 249.535Z" fill="#F99746"/>
<path d="M592.186 99.4256C592.306 99.166 592.657 98.8884 593.513 98.6033C593.513 98.6033 592.711 98.3099 591.778 98.5332C591.295 97.248 590.118 95.0592 587.912 95.042C587.912 95.042 589.177 95.4004 589.644 96.7797C586.62 94.6937 581.016 94.0879 567.027 99.1604C548.59 105.846 557.801 117.497 560.595 118.431C563.39 119.365 568.534 113.37 573.161 112.552C577.788 111.733 580.291 118.75 582.055 119.331C583.819 119.913 582.816 118.317 584.663 116.718C586.51 115.119 587.571 118.881 587.531 121.522C587.491 124.164 591.092 126.668 591.092 126.668C591.092 126.668 591.092 126.668 593.205 122.45C595.317 118.232 594.742 102.92 592.724 100.164C592.545 99.9206 592.368 99.6732 592.186 99.4256Z" fill="#2B478B"/>
<path d="M667.171 239.716C622.438 225.027 615.322 166.969 615.322 166.969C615.322 166.969 640.791 188.157 660.662 208.031C663.43 217.753 666.619 230.572 667.171 239.716Z" fill="#ED7D2B"/>
<path d="M679.436 241.621C679.436 241.621 678.427 250.834 678.671 252.337C678.915 253.84 680.526 258.312 680.927 258.337C681.328 258.361 682.544 258.415 682.511 257.494C682.479 256.572 681.929 255.712 682.283 255.864C682.637 256.016 682.739 259.494 684.352 259.404C685.965 259.313 690.714 257.365 690.521 253.326C690.328 249.287 685.269 241.89 685.149 241.219C684.127 235.533 679.436 241.621 679.436 241.621Z" fill="#FFB27D"/>
<path d="M682.115 243.176C678.566 244.946 677.249 243.14 677.249 243.14C677.249 243.14 656.576 205.562 654.399 202.54C652.222 199.518 614.06 181.691 614.06 181.691C614.06 181.691 598.529 175.229 597.915 164.973C597.382 156.061 602.03 150.586 607.119 147.284C613.185 143.349 620.859 143.928 626.436 148.642C638.954 159.225 663.77 180.513 667.764 186.286C676.653 199.134 686.505 239.407 686.505 239.407C686.505 239.407 684.903 241.785 682.115 243.176Z" fill="#F99746"/>
<path d="M593.254 268.658L583.95 278.777L583.821 278.689L569.857 269.153C569.857 269.153 577.083 271.693 578.061 271.397C578.982 271.117 589.076 267.341 591.456 267.655C591.601 267.675 591.718 267.71 591.802 267.761C593.254 268.658 593.254 268.658 593.254 268.658Z" fill="#4A75CB"/>
<path d="M583.53 281.524C583.156 281.436 582.049 281.15 580.541 280.73C576.205 279.522 568.56 277.204 565.542 275.303C562.834 273.597 548.528 264.542 538.672 258.182C542.604 255.893 546.483 255.571 549.734 256.016C561.241 263.369 576.275 273.021 578.115 274.429C581.141 276.747 585.266 279.55 585.266 279.55C585.266 279.55 585.25 279.677 585.206 279.868C585.066 280.49 584.638 281.784 583.53 281.524Z" fill="#E58638"/>
<path d="M583.53 281.525C583.156 281.437 582.049 281.151 580.541 280.73C576.205 279.522 568.56 277.204 565.542 275.303C562.834 273.598 548.528 264.543 538.672 258.182C533.722 254.989 529.895 252.474 529.223 251.912C527.212 250.229 523.341 246.022 524.293 245.228C525.245 244.434 527.102 245.233 527.8 245.116C527.81 245.114 527.819 245.113 527.83 245.11C527.993 245.083 528.263 245.037 528.635 245.012C529.965 244.926 532.601 245.126 536.354 247.485C536.354 247.485 542.31 251.272 549.734 256.016C561.241 263.369 576.275 273.022 578.114 274.43C581.141 276.747 585.265 279.55 585.265 279.55C585.265 279.55 585.25 279.677 585.206 279.868C585.067 280.491 584.638 281.784 583.53 281.525Z" fill="#739AF0"/>
<path d="M583.53 281.525C583.156 281.437 582.049 281.151 580.541 280.731C580.737 278.859 579.535 277.368 579.535 277.368L585.207 279.869C585.066 280.49 584.638 281.785 583.53 281.525Z" fill="#4A75CB"/>
<g opacity="0.5">
<path d="M571.239 273.569C571.151 273.512 571.121 273.387 571.173 273.291L571.274 273.106C571.326 273.009 571.441 272.977 571.53 273.034C571.618 273.091 571.648 273.216 571.596 273.313L571.495 273.498C571.443 273.594 571.327 273.626 571.239 273.569Z" fill="#4A75CB"/>
<path d="M570.411 273.035C570.322 272.979 570.292 272.853 570.345 272.757L570.445 272.572C570.498 272.476 570.613 272.444 570.701 272.501C570.789 272.558 570.819 272.683 570.767 272.779L570.666 272.964C570.614 273.06 570.499 273.092 570.411 273.035Z" fill="#4A75CB"/>
<path d="M569.581 272.502C569.493 272.446 569.463 272.321 569.516 272.224L569.616 272.039C569.668 271.943 569.783 271.911 569.872 271.968C569.961 272.024 569.99 272.15 569.938 272.246L569.837 272.431C569.785 272.527 569.67 272.559 569.581 272.502Z" fill="#4A75CB"/>
<path d="M568.752 271.969C568.664 271.912 568.634 271.787 568.687 271.69L568.787 271.505C568.839 271.409 568.954 271.376 569.043 271.433C569.131 271.49 569.161 271.615 569.108 271.712L569.008 271.897C568.956 271.993 568.841 272.026 568.752 271.969Z" fill="#4A75CB"/>
<path d="M567.924 271.436C567.835 271.379 567.805 271.254 567.858 271.158L567.958 270.972C568.011 270.877 568.126 270.844 568.214 270.901C568.303 270.958 568.332 271.084 568.28 271.18L568.179 271.365C568.127 271.461 568.012 271.493 567.924 271.436Z" fill="#4A75CB"/>
<path d="M567.095 270.902C567.006 270.845 566.976 270.72 567.029 270.624L567.129 270.439C567.182 270.342 567.297 270.31 567.385 270.367C567.473 270.424 567.503 270.549 567.451 270.646L567.35 270.831C567.298 270.927 567.183 270.959 567.095 270.902Z" fill="#4A75CB"/>
<path d="M566.266 270.369C566.178 270.312 566.148 270.187 566.2 270.09L566.301 269.905C566.353 269.809 566.468 269.777 566.557 269.834C566.645 269.891 566.674 270.016 566.622 270.112L566.522 270.297C566.469 270.394 566.354 270.426 566.266 270.369Z" fill="#4A75CB"/>
<path d="M565.437 269.836C565.348 269.779 565.319 269.654 565.371 269.557L565.471 269.372C565.524 269.276 565.639 269.244 565.727 269.301C565.816 269.357 565.845 269.483 565.793 269.579L565.692 269.764C565.64 269.86 565.525 269.892 565.437 269.836Z" fill="#4A75CB"/>
<path d="M564.608 269.302C564.52 269.246 564.49 269.12 564.542 269.024L564.643 268.839C564.695 268.743 564.81 268.71 564.899 268.768C564.987 268.825 565.017 268.95 564.964 269.046L564.864 269.231C564.811 269.327 564.696 269.359 564.608 269.302Z" fill="#4A75CB"/>
<path d="M554.841 263.017C554.753 262.961 554.723 262.835 554.775 262.739L554.876 262.554C554.928 262.457 555.043 262.425 555.132 262.482C555.22 262.539 555.25 262.664 555.197 262.761L555.097 262.946C555.045 263.042 554.93 263.074 554.841 263.017Z" fill="#4A75CB"/>
<path d="M554.012 262.484C553.924 262.428 553.894 262.302 553.946 262.206L554.047 262.021C554.099 261.924 554.214 261.892 554.303 261.949C554.391 262.006 554.421 262.131 554.368 262.228L554.268 262.413C554.216 262.509 554.101 262.541 554.012 262.484Z" fill="#4A75CB"/>
<path d="M553.183 261.951C553.095 261.894 553.065 261.769 553.118 261.673L553.218 261.487C553.27 261.391 553.386 261.359 553.474 261.416C553.562 261.473 553.592 261.598 553.54 261.694L553.439 261.879C553.387 261.976 553.272 262.008 553.183 261.951Z" fill="#4A75CB"/>
<path d="M552.355 261.418C552.266 261.361 552.237 261.236 552.289 261.14L552.39 260.954C552.442 260.858 552.557 260.826 552.645 260.883C552.734 260.939 552.763 261.065 552.711 261.161L552.61 261.346C552.558 261.442 552.443 261.474 552.355 261.418Z" fill="#4A75CB"/>
<path d="M551.526 260.885C551.437 260.828 551.408 260.703 551.46 260.606L551.561 260.421C551.613 260.325 551.728 260.292 551.816 260.349C551.905 260.406 551.934 260.531 551.882 260.628L551.781 260.813C551.729 260.909 551.614 260.941 551.526 260.885Z" fill="#4A75CB"/>
<path d="M550.697 260.35C550.609 260.293 550.579 260.168 550.631 260.072L550.732 259.887C550.784 259.791 550.899 259.758 550.987 259.815C551.076 259.872 551.106 259.997 551.053 260.094L550.953 260.279C550.9 260.375 550.785 260.407 550.697 260.35Z" fill="#4A75CB"/>
<path d="M549.868 259.817C549.78 259.76 549.75 259.635 549.802 259.539L549.903 259.353C549.955 259.258 550.07 259.225 550.159 259.282C550.247 259.339 550.277 259.464 550.224 259.56L550.124 259.745C550.071 259.842 549.956 259.874 549.868 259.817Z" fill="#4A75CB"/>
<path d="M549.039 259.284C548.951 259.227 548.921 259.102 548.974 259.005L549.074 258.82C549.126 258.724 549.242 258.692 549.33 258.749C549.418 258.806 549.448 258.931 549.396 259.027L549.295 259.212C549.243 259.308 549.127 259.341 549.039 259.284Z" fill="#4A75CB"/>
<path d="M548.21 258.751C548.122 258.694 548.092 258.568 548.144 258.472L548.245 258.287C548.297 258.191 548.412 258.159 548.501 258.216C548.589 258.272 548.619 258.398 548.566 258.494L548.466 258.68C548.413 258.775 548.299 258.808 548.21 258.751Z" fill="#4A75CB"/>
<path d="M545.002 256.687C544.914 256.631 544.885 256.505 544.937 256.409L545.038 256.224C545.09 256.128 545.205 256.095 545.293 256.152C545.382 256.209 545.411 256.334 545.359 256.43L545.258 256.616C545.206 256.712 545.091 256.744 545.002 256.687Z" fill="#4A75CB"/>
<path d="M546.623 257.73C546.535 257.673 546.505 257.548 546.558 257.451L546.658 257.267C546.71 257.17 546.825 257.138 546.914 257.195C547.002 257.252 547.032 257.377 546.979 257.473L546.879 257.659C546.827 257.755 546.712 257.787 546.623 257.73Z" fill="#4A75CB"/>
<path d="M544.174 256.153C544.085 256.096 544.056 255.971 544.108 255.875L544.209 255.689C544.261 255.593 544.376 255.561 544.464 255.618C544.553 255.675 544.582 255.8 544.53 255.897L544.429 256.082C544.377 256.178 544.262 256.21 544.174 256.153Z" fill="#4A75CB"/>
<path d="M543.345 255.62C543.257 255.563 543.227 255.438 543.28 255.342L543.38 255.156C543.432 255.06 543.547 255.028 543.636 255.085C543.724 255.142 543.754 255.267 543.701 255.363L543.601 255.548C543.549 255.645 543.433 255.677 543.345 255.62Z" fill="#4A75CB"/>
<path d="M542.516 255.086C542.428 255.03 542.398 254.905 542.451 254.808L542.551 254.623C542.603 254.527 542.718 254.495 542.807 254.552C542.895 254.608 542.925 254.734 542.872 254.83L542.772 255.015C542.72 255.112 542.605 255.143 542.516 255.086Z" fill="#4A75CB"/>
<path d="M541.687 254.554C541.599 254.497 541.569 254.372 541.622 254.276L541.722 254.091C541.774 253.995 541.889 253.962 541.978 254.019C542.066 254.076 542.096 254.201 542.044 254.298L541.943 254.483C541.891 254.579 541.775 254.611 541.687 254.554Z" fill="#4A75CB"/>
<path d="M540.858 254.02C540.77 253.963 540.74 253.838 540.792 253.742L540.893 253.557C540.945 253.46 541.06 253.428 541.149 253.485C541.237 253.542 541.267 253.667 541.215 253.763L541.114 253.949C541.062 254.045 540.947 254.077 540.858 254.02Z" fill="#4A75CB"/>
<path d="M540.03 253.487C539.941 253.43 539.911 253.305 539.964 253.209L540.064 253.023C540.116 252.927 540.232 252.895 540.32 252.952C540.409 253.009 540.438 253.134 540.386 253.231L540.286 253.416C540.233 253.512 540.118 253.544 540.03 253.487Z" fill="#4A75CB"/>
<path d="M539.2 252.954C539.112 252.897 539.082 252.772 539.135 252.676L539.235 252.49C539.288 252.394 539.403 252.362 539.491 252.419C539.579 252.476 539.609 252.601 539.557 252.697L539.456 252.882C539.404 252.979 539.289 253.011 539.2 252.954Z" fill="#4A75CB"/>
<path d="M538.371 252.42C538.283 252.364 538.253 252.238 538.306 252.142L538.406 251.957C538.458 251.861 538.574 251.829 538.662 251.886C538.75 251.942 538.78 252.068 538.728 252.164L538.627 252.349C538.575 252.445 538.46 252.477 538.371 252.42Z" fill="#4A75CB"/>
<path d="M537.559 251.897C537.471 251.841 537.441 251.715 537.494 251.619L537.594 251.433C537.646 251.338 537.761 251.305 537.85 251.362C537.938 251.419 537.968 251.544 537.916 251.641L537.815 251.826C537.763 251.922 537.647 251.954 537.559 251.897Z" fill="#4A75CB"/>
<path d="M536.731 251.364C536.642 251.307 536.613 251.182 536.665 251.086L536.766 250.9C536.818 250.804 536.933 250.772 537.021 250.829C537.11 250.886 537.139 251.011 537.087 251.107L536.987 251.292C536.934 251.389 536.819 251.421 536.731 251.364Z" fill="#4A75CB"/>
<path d="M535.902 250.831C535.813 250.774 535.784 250.649 535.836 250.552L535.936 250.367C535.989 250.271 536.104 250.239 536.192 250.296C536.28 250.352 536.31 250.478 536.258 250.574L536.157 250.759C536.105 250.856 535.99 250.888 535.902 250.831Z" fill="#4A75CB"/>
<path d="M529.53 246.18C529.452 246.286 529.322 246.322 529.209 246.279C529.181 246.267 529.154 246.251 529.129 246.23L527.83 245.11C527.993 245.082 528.263 245.036 528.635 245.012L529.483 245.743C529.607 245.849 529.628 246.045 529.53 246.18Z" fill="#4A75CB"/>
<path d="M550.392 261.219L550.14 261.057C549.973 260.95 549.917 260.714 550.016 260.533L550.636 259.39C550.735 259.209 550.951 259.148 551.118 259.255L551.37 259.417C551.536 259.524 551.592 259.76 551.493 259.941L550.873 261.085C550.774 261.265 550.558 261.326 550.392 261.219Z" fill="#4A75CB"/>
<path d="M552.039 262.279L551.787 262.117C551.62 262.01 551.565 261.774 551.663 261.592L552.284 260.449C552.382 260.268 552.598 260.207 552.765 260.315L553.017 260.477C553.183 260.584 553.239 260.82 553.14 261.001L552.52 262.144C552.421 262.325 552.205 262.386 552.039 262.279Z" fill="#4A75CB"/>
<path d="M562.172 267.734C562.083 267.677 562.053 267.552 562.106 267.456L562.207 267.271C562.259 267.174 562.374 267.142 562.462 267.199C562.55 267.256 562.58 267.381 562.528 267.478L562.427 267.663C562.375 267.759 562.26 267.791 562.172 267.734Z" fill="#4A75CB"/>
<path d="M561.343 267.201C561.254 267.144 561.224 267.019 561.277 266.923L561.378 266.737C561.43 266.641 561.544 266.609 561.633 266.666C561.722 266.723 561.751 266.848 561.699 266.944L561.598 267.129C561.546 267.226 561.431 267.258 561.343 267.201Z" fill="#4A75CB"/>
<path d="M560.514 266.668C560.426 266.611 560.396 266.486 560.448 266.389L560.549 266.204C560.601 266.108 560.716 266.076 560.804 266.133C560.893 266.189 560.923 266.315 560.87 266.411L560.77 266.596C560.717 266.692 560.602 266.725 560.514 266.668Z" fill="#4A75CB"/>
<path d="M559.685 266.134C559.596 266.078 559.567 265.952 559.619 265.856L559.72 265.671C559.772 265.575 559.887 265.543 559.975 265.6C560.064 265.656 560.093 265.782 560.041 265.878L559.941 266.063C559.888 266.159 559.773 266.191 559.685 266.134Z" fill="#4A75CB"/>
<path d="M558.856 265.601C558.768 265.545 558.738 265.42 558.791 265.323L558.891 265.138C558.943 265.042 559.058 265.009 559.147 265.066C559.235 265.123 559.265 265.248 559.212 265.345L559.112 265.53C559.059 265.626 558.944 265.658 558.856 265.601Z" fill="#4A75CB"/>
<path d="M558.027 265.068C557.939 265.011 557.909 264.886 557.961 264.79L558.062 264.605C558.114 264.508 558.229 264.476 558.318 264.533C558.406 264.59 558.436 264.715 558.383 264.812L558.283 264.997C558.23 265.093 558.115 265.125 558.027 265.068Z" fill="#4A75CB"/>
<path d="M557.199 264.534C557.11 264.477 557.08 264.352 557.133 264.255L557.233 264.07C557.285 263.974 557.4 263.942 557.489 263.999C557.577 264.056 557.607 264.181 557.555 264.277L557.454 264.463C557.402 264.559 557.287 264.591 557.199 264.534Z" fill="#4A75CB"/>
<path d="M556.369 264.001C556.281 263.944 556.251 263.819 556.304 263.722L556.404 263.537C556.456 263.441 556.572 263.409 556.66 263.466C556.748 263.523 556.778 263.648 556.726 263.744L556.625 263.929C556.573 264.026 556.458 264.058 556.369 264.001Z" fill="#4A75CB"/>
<path d="M555.541 263.468C555.452 263.411 555.423 263.286 555.475 263.189L555.576 263.004C555.628 262.908 555.743 262.875 555.831 262.933C555.919 262.989 555.949 263.114 555.897 263.211L555.796 263.396C555.744 263.492 555.629 263.525 555.541 263.468Z" fill="#4A75CB"/>
</g>
<path d="M550.439 265.996C550.996 266.105 551.416 265.454 551.135 264.919C550.854 264.385 550.423 263.766 549.812 263.383C548.557 262.594 548.186 265.094 548.594 265.376C548.835 265.542 549.697 265.851 550.439 265.996Z" fill="#2B478B"/>
<path d="M550.315 263.021L548.773 265.861C548.773 265.861 547.239 265.522 545.143 264.247C543.859 263.466 543.086 262.743 542.68 262.301C542.422 262.02 542.311 261.851 542.311 261.851L543.928 258.874C544.083 258.855 544.276 258.884 544.498 258.952C546.333 259.519 550.102 262.755 550.102 262.755L550.315 263.021Z" fill="#2B478B"/>
<path d="M544.498 258.952L542.68 262.301C542.422 262.02 542.311 261.851 542.311 261.851L543.928 258.874C544.083 258.854 544.276 258.884 544.498 258.952Z" fill="#4A75CB"/>
<path d="M579.602 276.868C579.677 276.837 585.006 278.148 587.902 280.456L584.239 280.395L579.534 277.368C579.534 277.368 579.224 277.02 579.602 276.868Z" fill="#2B478B"/>
<path d="M568.727 265.317C568.727 265.317 565.431 267.786 564.858 268.121C564.284 268.456 563.365 268.364 563.365 268.364L563.36 268.363L557.69 267.322C557.69 267.322 551.645 263.48 550.344 262.608L550.344 262.608C550.226 262.528 550.147 262.473 550.115 262.449C549.734 262.148 549.607 261.881 549.737 261.798C549.867 261.715 559.808 266.02 560.905 266.504C560.916 266.509 560.926 266.513 560.936 266.518C562.007 266.983 562.222 266.741 562.222 266.741L567.704 265.103C567.782 265.06 567.887 265.053 567.998 265.065C568.33 265.103 568.727 265.317 568.727 265.317Z" fill="#4A75CB"/>
<path d="M567.999 265.065C566.499 265.566 562.356 266.944 561.995 266.994C561.606 267.048 552.567 263.481 550.345 262.608L550.344 262.608C550.227 262.528 550.148 262.473 550.116 262.449C549.735 262.148 549.608 261.881 549.738 261.798C549.868 261.715 559.809 266.02 560.906 266.504C562.003 266.988 562.223 266.741 562.223 266.741L567.704 265.103C567.783 265.059 567.887 265.052 567.999 265.065Z" fill="#4A75CB"/>
<path d="M568.727 265.317C568.727 265.317 565.43 267.786 564.857 268.121C564.284 268.456 563.365 268.364 563.365 268.364L563.359 268.363C562.287 267.744 561.46 267.03 560.937 266.518C562.007 266.984 562.222 266.741 562.222 266.741L567.704 265.103C567.782 265.06 567.887 265.053 567.998 265.065C568.33 265.103 568.727 265.317 568.727 265.317Z" fill="#4A75CB"/>
<path d="M584.077 278.838L569.857 269.153C569.857 269.153 577.199 271.761 578.188 271.471C579.12 271.197 589.327 267.488 591.741 267.822C588.999 269.028 582.567 272.014 582.122 273.67C581.698 275.247 583.262 277.701 584.077 278.838Z" fill="#739AF0"/>
<path d="M242.591 90.4856C242.562 89.6304 241.954 80.4133 229.057 79.9316C229.057 79.9316 235.4 80.7545 236.495 83.7899C236.495 83.7899 232.177 80.0397 228.661 81.246C225.144 82.4522 223.078 89.1591 223.058 91.3652C223.037 93.5712 224.991 100.682 227.223 101.287C228.068 101.516 229.042 101.455 229.926 101.291C229.332 102.3 228.75 103.414 228.194 104.657C223.048 116.157 228.355 127.395 232.711 126.154C235.506 125.357 236.296 130.547 236.296 130.547L263.442 106.624C263.442 106.623 253.471 84.1647 242.591 90.4856Z" fill="#2C3A64"/>
<path d="M252.042 429.268L246.276 431.605C246.276 431.605 221.232 393.793 218.148 360.525C217.598 354.586 217.781 348.83 218.972 343.516C218.972 343.516 218.728 341.995 218.299 339.304C218.101 338.048 217.857 336.537 217.579 334.805C216.765 329.726 215.644 322.778 214.364 314.865C211.417 296.658 207.599 273.383 204.633 256.272L206.187 255.729L222.997 249.825L226.471 237.814L238.988 234.227C238.988 234.227 241.785 240.181 244.284 268.31C244.746 271.999 245.165 276.068 245.48 280.48C246.455 293.947 246.525 310.653 244.289 329.752C243.715 334.641 242.99 339.689 242.091 344.875C241.432 348.677 241.333 353.858 241.611 359.808C242.872 387.003 252.042 429.268 252.042 429.268Z" fill="#2B478B"/>
<path d="M245.48 280.48L218.299 339.304C218.101 338.048 217.857 336.537 217.579 334.805C216.765 329.726 215.644 322.778 214.364 314.865C211.417 296.658 207.599 273.383 204.633 256.272L206.187 255.729L222.997 249.825L226.471 237.814L238.988 234.227C238.988 234.227 241.785 240.181 244.284 268.31C244.746 271.999 245.165 276.068 245.48 280.48Z" fill="#233862"/>
<path d="M233.523 241.775L232.893 235.901C222.351 238.949 194.185 227.384 194.185 227.384C194.185 227.384 183.973 237.156 185.314 260.581C185.968 272.014 187.164 320.599 188.412 334.975C188.863 340.186 189.258 343.894 189.42 345.375C189.423 345.382 189.423 345.386 189.423 345.39C189.473 345.841 189.328 346.268 189.117 346.663C187.279 350.059 185.757 353.595 184.508 357.213C172.253 392.762 186.396 436.542 186.396 436.542L190.066 434.932C190.066 434.932 198.113 386.211 204.653 364.686C205.763 361.036 206.827 358.167 207.802 356.452C210.645 351.457 213.284 343.295 215.679 333.587C220.205 315.233 223.848 291.357 226.273 272.928C226.608 272.946 233.523 241.775 233.523 241.775Z" fill="#2B478B"/>
<path d="M316.573 234.271C314.305 236.456 308.282 228.951 307.453 227.954C307.41 227.859 307.366 227.811 307.366 227.811L309.199 222.253C309.199 222.253 317.097 221.921 318.406 223.346C319.715 224.771 319.061 231.944 316.573 234.271Z" fill="#ED985F"/>
<path d="M309.199 222.253L308.414 228.001C308.414 228.001 308.065 228.001 307.454 227.953C305.534 227.811 300.865 227.526 295.585 226.908C287.643 226.053 278.218 224.533 274.465 222.015C268.749 218.216 259.367 206.578 253.258 194.94C253.084 194.655 252.953 194.37 252.822 194.085C249.636 187.909 247.411 181.781 247.237 176.889C247.106 173.897 247.411 171.331 247.978 169.099C248.72 166.154 249.942 163.827 251.207 162.069C251.382 161.784 251.556 161.499 251.818 161.261C253.913 158.554 255.964 157.414 255.964 157.414C257.011 156.939 258.145 157.509 259.323 158.886V158.934C260.283 160.027 261.33 161.689 262.334 163.779C262.378 163.827 262.421 163.874 262.421 163.922C262.64 164.349 262.858 164.824 263.12 165.347C263.207 165.441 263.25 165.584 263.294 165.679C263.774 166.772 264.254 167.912 264.734 169.099C270.101 181.829 275.818 201.115 280.574 206.863C282.625 209.333 292.006 214.178 299.468 217.788C304.836 220.354 309.199 222.253 309.199 222.253Z" fill="#ED985F"/>
<path d="M253.662 170.528C250.352 172.199 246.356 173.337 241.521 173.624C223.397 174.705 219.283 157.41 218.534 145.931C221.147 144.901 223.435 144.998 224.753 145.075C226.038 145.152 227.38 145.295 228.486 145.444C230.703 144.183 234.686 138.059 236.988 127.815L237.769 128.21L250.846 134.903C250.846 134.903 249.458 139.535 248.431 143.968C247.631 147.437 247.057 150.789 247.537 151.726C248.568 152.182 249.185 152.469 249.185 152.469C249.185 152.469 249.185 152.475 249.189 152.485C249.321 152.848 252.165 160.735 253.662 170.528Z" fill="#FFB27D"/>
<path d="M258.195 183.473C258.058 183.867 257.908 184.252 257.743 184.646C253.154 195.408 244.656 239.986 244.656 239.986C245.866 248 189.325 238.412 189.179 231.115C187.187 223.377 196.245 210.945 201.353 204.708C201.993 203.925 202.567 203.084 203.066 202.197C204.327 199.974 205.128 197.462 205.382 194.839C206.385 184.494 206.003 174.799 206.088 168.904C206.088 168.904 206.088 168.904 206.088 168.903C207.086 168.099 208.051 167.356 208.95 166.649C210.325 165.557 211.539 164.538 212.434 163.502C213.418 162.375 214.034 161.222 214.105 159.92C214.157 158.936 214.129 157.926 214.034 156.917C213.992 156.441 213.936 155.964 213.87 155.487C213.163 150.481 211.243 145.94 211.243 145.94C216.106 143.798 224.753 145.074 224.753 145.074C224.753 145.074 224.744 145.597 224.739 146.453C224.711 149.892 224.739 158.721 225.751 160.391C227.018 162.472 250.183 171.589 251.407 168.765C252.612 165.987 249.312 152.976 249.19 152.485C249.185 152.474 249.185 152.469 249.185 152.469C256.943 155.785 259.716 158.567 259.716 158.567C255.041 161.868 261.81 173.034 258.195 183.473Z" fill="#F99746"/>
<path d="M250.847 134.905C250.847 134.905 249.456 139.534 248.432 143.97C240.788 141.649 238.467 132.902 237.768 128.213L250.847 134.905Z" fill="#ED985F"/>
<path d="M252.457 139.806C252.457 139.806 234.169 135.199 236.98 122.845C239.791 110.491 239.324 101.577 251.119 103.996C262.914 106.415 264.102 111.739 264.084 116.111C264.067 120.482 257.287 140.686 252.457 139.806Z" fill="#FFB27D"/>
<path d="M265.113 109.098C263.147 104.62 260.833 104.859 259.385 105.653C250.792 96.998 242.364 104.068 242.364 104.068C239.12 112.6 232.089 116.086 232.089 116.086C232.089 116.086 234.898 119.218 243.041 119.149C245.528 119.127 248.029 117.884 250.305 116.171C245.916 120.984 240.769 123.913 240.769 123.913C250.962 121.79 257.798 108.944 258.498 107.579C259.361 108.968 261.013 111.923 261.152 114.418C261.34 117.808 260.269 124.393 262.053 124.643C262.053 124.643 268.061 115.813 265.113 109.098Z" fill="#2C3A64"/>
<path d="M259.717 158.565C259.717 158.565 264.121 166.927 264.78 169.079C264.78 169.079 259.07 168.84 256.764 173.621C256.764 173.621 256.211 159.692 259.717 158.565Z" fill="#F99746"/>
<path d="M229.432 225.007C218.28 224.879 208.837 212.273 203.066 202.198C204.327 199.974 205.128 197.463 205.382 194.839C206.385 184.495 206.003 174.8 206.088 168.905C206.088 168.904 206.088 168.904 206.088 168.904C207.086 168.1 208.051 167.356 208.95 166.649C210.324 165.558 211.539 164.538 212.434 163.503C221.566 180.306 244.553 225.181 229.432 225.007Z" fill="#ED7D2B"/>
<path d="M207.732 439.806H178.691C178.691 439.806 177.995 434.987 179.512 431.332C180.966 427.824 183.242 426.23 182.697 421.986C184.543 424.055 187.55 426.371 191.749 425.756C192.263 426.664 195.069 431.522 196.788 432.866C198.685 434.351 207.148 433.822 207.732 439.806Z" fill="#233862"/>
<path d="M270.087 439.806H241.046C241.046 439.806 239.961 434.764 241.868 431.332C243.555 428.296 242.908 426.567 241.658 424.056C242.974 424.642 244.676 425.175 246.55 425.058C247.996 424.967 249.527 424.253 250.868 423.404C252.118 424.956 257.47 431.559 259.143 432.867C261.04 434.351 269.503 433.822 270.087 439.806Z" fill="#233862"/>
<path d="M295.21 206.502L266.952 246.516L269.25 248.266L297.853 208.253L295.21 206.502Z" fill="#233862"/>
<path d="M297.853 208.253H326.53L296.511 248.267H269.25L297.853 208.253Z" fill="#2B478B"/>
<path d="M295.209 206.502H323.696L325.304 208.253H297.853L295.209 206.502Z" fill="#CCDFED"/>
<path d="M295.967 207.004H324.213L324.673 206.502H295.209L295.967 207.004Z" fill="#2B478B"/>
<path d="M291.955 232.535C291.875 230.943 289.946 231.016 288.481 231.008C286.078 230.996 282.287 230.817 280.094 229.902C280.094 229.902 287.097 229.793 285.609 227.384C285.338 226.945 281.857 227.277 277.97 227.277C276.376 227.277 272.437 229.655 272.64 229.765C269.825 229.36 267.264 228.766 266.436 228.572C264.516 227.432 262.204 226.054 259.76 224.533C253.869 220.924 247.106 216.506 242.48 212.848C239.819 210.758 237.811 208.906 237.113 207.576C236.022 205.533 234.8 202.303 233.448 198.313C232.75 196.223 232.008 193.943 231.266 191.521C229.957 187.53 228.648 183.208 227.295 178.886C224.852 171 222.233 163.067 219.746 156.94C218.132 153.092 216.561 149.91 215.077 147.962C213.899 146.395 212.764 145.587 211.673 145.777C211.499 145.824 211.368 145.872 211.237 145.92C211.237 145.92 204.954 147.82 204.866 161.595C204.823 162.356 204.866 163.162 204.91 164.017C204.997 166.44 205.434 169.385 206.088 172.615C207.135 178.03 208.881 184.3 211.062 190.666C211.673 192.376 212.284 194.134 212.939 195.891C217.651 208.621 223.717 220.497 228.822 224.533C229.04 224.724 229.215 224.866 229.433 225.009C231.571 226.482 234.713 227.954 238.334 229.332C243.483 231.232 249.592 232.942 255.047 234.367H255.091C258.276 235.127 261.199 235.84 263.643 236.362C263.643 236.362 264.044 236.471 264.758 236.626C264.861 236.647 264.969 236.671 265.083 236.694C267.396 237.312 272.152 238.642 276.647 240.542C282.93 243.249 287.552 239.883 289.65 237.502C290.98 235.992 292.028 233.989 291.955 232.535Z" fill="#FFB27D"/>
<path d="M219.731 156.959C211.331 154.438 204.851 161.578 204.851 161.578C204.956 147.825 211.245 145.943 211.245 145.943C213.775 144.802 216.707 149.572 219.731 156.959Z" fill="#F99746"/>
<path d="M419.561 325.281C416.131 321.923 418.953 313.994 417.646 312.429C417.43 312.173 416.94 311.776 416.31 311.266C415.447 315.151 413.877 319.113 411.588 322.856C403.799 335.605 390.64 340.987 382.199 334.873C373.989 328.928 373.266 314.296 380.403 301.77C380.603 301.419 380.809 301.07 381.022 300.722C383.293 297.004 386.021 293.915 388.957 291.553C388.964 291.545 388.974 291.537 388.983 291.531C388.61 291.296 388.314 291.121 388.116 291.045C386.282 290.337 380.658 296.236 376.485 294.089C372.315 291.942 376.125 283.274 384.369 282.257C389.397 281.635 394.702 284.464 398.076 286.766C399.577 286.373 401.069 286.175 402.522 286.183C402.575 286.183 402.631 286.181 402.686 286.183C401.757 282.801 402.166 279.012 404.103 275.842C404.758 274.77 405.543 273.845 406.418 273.077C406.412 273.067 406.409 273.058 406.403 273.049C405.433 271.082 405.465 268.615 406.679 266.628C408.433 263.759 411.993 262.978 414.63 264.889C416.539 266.27 417.442 268.684 417.13 271C418.041 271.337 418.928 271.805 419.768 272.413C420.512 272.954 421.18 273.571 421.764 274.252C423.595 273.091 425.948 273.084 427.832 274.447C430.469 276.358 431.185 280.232 429.43 283.104C428.279 284.986 426.349 285.97 424.416 285.884C424.104 287.126 423.607 288.337 422.917 289.466C421.09 292.459 418.267 294.297 415.245 294.808C415.998 296.486 416.521 298.342 416.817 300.319C420.099 302.74 425.032 307.17 426.538 312.793C428.863 321.464 422.993 328.638 419.561 325.281Z" fill="#EFCDAF"/>
<path d="M380.403 301.769C380.602 301.419 380.809 301.07 381.021 300.722C383.293 297.004 386.021 293.915 388.957 291.553C389.831 291.48 390.718 291.682 391.039 292.66C391.749 294.818 385.097 301.608 385.667 305.462C386.09 308.319 382.266 304.192 380.403 301.769Z" fill="#E2B99A"/>
<path d="M407.443 289.304C406.385 288.776 404.225 287.542 402.522 286.183C402.575 286.183 402.631 286.182 402.686 286.183C401.757 282.801 402.166 279.013 404.102 275.842C404.757 274.77 405.543 273.845 406.417 273.077C406.412 273.068 406.409 273.058 406.403 273.049C406.517 273.101 406.57 273.267 406.516 273.621C406.303 274.97 403.201 284.386 408.257 288.416C408.257 288.416 409.013 290.086 407.443 289.304Z" fill="#E2B99A"/>
<path d="M423.072 276.786C423.072 276.786 426.01 275.819 427.039 278.016C428.067 280.212 426.087 282.835 424.492 282.413C424.492 282.413 424.38 279.319 423.072 276.786Z" fill="#FFF3E9"/>
<path d="M414.795 270.224C414.795 270.224 413.609 266.734 411.449 266.929C409.289 267.124 409.784 270.905 409.784 270.905C409.784 270.905 412.721 269.785 414.795 270.224Z" fill="#FFF3E9"/>
<path d="M348.241 304.76C348.241 304.76 340.879 294.427 340.829 285.994C340.779 277.56 341.005 274.761 342.298 275.141C343.591 275.521 349.407 280.223 351.498 284.907C353.588 289.59 357.261 301.843 357.337 303.51C357.414 305.176 348.241 304.76 348.241 304.76Z" fill="#AFCDFB"/>
<path d="M348.644 301.461C348.644 301.461 343.94 294.323 343.761 288.621C343.584 282.918 343.673 281.031 344.474 281.315C345.276 281.598 348.931 284.898 350.298 288.107C351.664 291.316 354.135 299.676 354.211 300.804C354.286 301.932 348.644 301.461 348.644 301.461Z" fill="#E57970"/>
<path d="M360.121 300.447C360.121 300.447 356.591 286.452 357.985 282.642C359.379 278.831 366.61 281.376 367.43 284.062C368.25 286.749 367.745 298.091 367.745 298.091L360.121 300.447Z" fill="#AFCDFB"/>
<path d="M361.059 284.356C361.059 284.356 360.549 295.448 362.331 299.764L365.757 298.706C365.757 298.706 366.288 286.321 365.831 285.485C365.374 284.647 361.059 284.356 361.059 284.356Z" fill="#E57970"/>
<path d="M357.785 283.436C357.785 283.436 369.657 291.99 370.615 291.087C371.574 290.184 367.962 281.501 366.563 280.724C365.163 279.947 357.7 278.343 357.785 283.436Z" fill="#AFCDFB"/>
<path d="M335.95 439.763H497.793V294.491H335.95V439.763Z" fill="#D3671E"/>
<path d="M578.713 294.492H416.871V439.765H578.713V294.492Z" fill="#F1A34F"/>
<path opacity="0.4" d="M578.713 294.492V394.136L416.871 439.765V294.492H578.713Z" fill="#D86713"/>
<path d="M416.872 294.491L448.895 332.714H608.597L578.714 294.491H416.872Z" fill="#F1A34F"/>
<path d="M336.044 402.921H361.69L359.431 395.065L361.69 389.452H336.044V402.921Z" fill="#F1A34F"/>
<path opacity="0.4" d="M578.749 427.836H553.104L555.362 419.98L553.104 414.367H578.749V427.836Z" fill="#D86713"/>
<path d="M416.871 310.914L382.757 348.051H336.044V294.491H416.871V310.914Z" fill="#C95C12"/>
<path d="M335.95 294.492L299.563 332.715H380.536L416.871 294.492H335.95Z" fill="#F1A34F"/>
<path d="M428.186 379.561V350.942H436.275C438.044 350.942 439.667 351.273 441.141 351.935C442.615 352.597 443.879 353.527 444.933 354.726C445.986 355.925 446.807 357.363 447.397 359.04C447.987 360.718 448.282 362.578 448.282 364.623V365.92C448.282 367.964 447.99 369.822 447.406 371.493C446.822 373.164 445.998 374.598 444.933 375.797C443.867 376.996 442.595 377.923 441.114 378.578C439.633 379.234 438.002 379.561 436.22 379.561H428.186ZM433.602 355.719V374.824H436.221C438.363 374.824 439.994 374.054 441.114 372.514C442.233 370.975 442.793 368.777 442.793 365.92V364.584C442.793 361.675 442.239 359.47 441.132 357.969C440.024 356.469 438.405 355.719 436.275 355.719L433.602 355.719Z" fill="#F1A34F"/>
<path d="M473.814 365.9C473.814 368.089 473.543 370.051 473.001 371.787C472.459 373.524 471.698 374.994 470.717 376.2C469.736 377.406 468.559 378.332 467.187 378.981C465.815 379.63 464.304 379.954 462.655 379.954C461.006 379.954 459.495 379.63 458.123 378.981C456.751 378.332 455.568 377.405 454.575 376.2C453.581 374.994 452.808 373.523 452.254 371.787C451.701 370.051 451.424 368.089 451.424 365.9V364.642C451.424 362.467 451.698 360.508 452.245 358.765C452.793 357.023 453.56 355.542 454.548 354.323C455.534 353.104 456.714 352.171 458.087 351.522C459.459 350.873 460.969 350.549 462.619 350.549C464.268 350.549 465.779 350.873 467.151 351.522C468.523 352.171 469.702 353.104 470.69 354.323C471.677 355.542 472.444 357.023 472.992 358.765C473.539 360.508 473.814 362.467 473.814 364.642V365.9ZM468.325 364.603C468.325 361.603 467.831 359.322 466.844 357.763C465.857 356.204 464.449 355.424 462.619 355.424C460.789 355.424 459.381 356.204 458.394 357.763C457.407 359.322 456.913 361.603 456.913 364.603V365.9C456.913 367.394 457.042 368.715 457.301 369.861C457.56 371.008 457.933 371.971 458.421 372.75C458.908 373.53 459.507 374.12 460.217 374.519C460.928 374.92 461.74 375.119 462.655 375.119C464.485 375.119 465.887 374.333 466.862 372.761C467.837 371.188 468.325 368.902 468.325 365.901L468.325 364.603Z" fill="#F1A34F"/>
<path d="M499.129 379.561H493.712L483.167 360.731V379.561H477.75V350.942H483.167L493.73 369.812V350.942H499.129L499.129 379.561Z" fill="#F1A34F"/>
<path d="M519.027 373.664H509.529L507.724 379.561H501.964L511.75 350.942H516.77L526.611 379.561H520.85L519.027 373.664ZM510.992 368.888H517.564L514.26 358.176L510.992 368.888Z" fill="#F1A34F"/>
<path d="M546.689 355.719H538.636V379.561H533.219V355.719H525.274V350.942H546.689L546.689 355.719Z" fill="#F1A34F"/>
<path d="M565.594 367.159H555.194V374.824H567.4V379.561H549.777V350.942H567.364V355.719H555.194V362.539H565.594V367.159Z" fill="#F1A34F"/>
<path d="M295.99 401.495L293.042 402.118C289.546 402.858 286.13 400.347 285.452 396.541L281.117 372.25C280.499 368.779 282.355 365.388 285.332 364.252C285.307 364.17 285.284 364.085 285.268 363.995L285.013 362.567C284.836 361.576 285.436 360.608 286.348 360.416L287.66 360.138C288.572 359.946 289.461 360.598 289.638 361.589L289.89 363.019C289.904 363.084 289.911 363.152 289.916 363.219C289.916 363.232 289.918 363.242 289.918 363.254C293.148 362.979 296.148 365.397 296.78 368.936L301.113 393.229C301.793 397.033 299.487 400.755 295.99 401.495Z" fill="#CADDFF"/>
<path d="M297.023 370.353L281.36 373.663L284.337 390.358L300 387.047L297.023 370.353Z" fill="#2B478B"/>
<path d="M289.916 363.219L285.333 364.252C285.307 364.17 285.284 364.085 285.268 363.995L285.013 362.567C284.837 361.576 285.436 360.608 286.348 360.416L287.66 360.138C288.572 359.946 289.461 360.598 289.638 361.589L289.891 363.019C289.904 363.084 289.911 363.152 289.916 363.219Z" fill="#4A75CB"/>
<path d="M375.402 357.089C375.402 357.089 373.462 360.063 371.683 360.104C369.904 360.145 367.197 358.726 367.197 358.726C367.197 358.726 365.564 354.763 366.672 353.212C366.672 353.212 367.783 352.682 368.945 353.619C369.144 353.781 369.347 353.984 369.546 354.246C369.828 354.615 370.144 354.825 370.48 354.935C371.749 355.355 373.256 354.366 373.82 355.321C374.149 355.876 374.507 356.292 374.801 356.586C375.149 356.923 375.402 357.089 375.402 357.089Z" fill="#F9DDBF"/>
<path d="M350.104 378.54C350.104 378.54 356.963 360.449 369.309 360.104C369.309 360.104 380.704 361.483 381.338 378.54H350.104Z" fill="#F9DDBF"/>
<path d="M365.926 360.657C365.926 360.657 370.875 361.854 372.402 361.151C372.402 361.151 372.632 358.898 370.548 359.214C369.122 359.43 368.193 358.684 367.646 358.381C366.873 357.953 365.721 359.714 365.926 360.657Z" fill="#F1A34F"/>
<path d="M370.233 357.262C369.917 357.52 368.944 353.619 368.944 353.619C369.144 353.781 369.346 353.984 369.546 354.246C369.828 354.615 370.144 354.825 370.48 354.936C370.483 355.049 370.54 357.01 370.233 357.262Z" fill="#E5C1A1"/>
<path d="M374.801 356.586C374.731 356.631 372.442 358.123 372.133 358.123C371.816 358.123 373.82 355.321 373.82 355.321C374.148 355.876 374.506 356.293 374.801 356.586Z" fill="#E5C1A1"/>
<path d="M356.805 373.485C356.679 373.367 361.659 365.502 363.031 365.445C364.402 365.388 367.484 367.168 369.716 367.397C371.947 367.627 374.11 366.938 374.532 368.374C374.954 369.81 376.115 374.9 375.402 375.715C374.69 376.529 359.544 376.033 356.805 373.485Z" fill="#E5C1A1"/>
<path d="M299.004 385.716C298.816 386.12 298.543 386.446 298.219 386.682C298.036 386.813 297.841 386.916 297.634 386.99C297.06 387.194 296.416 387.16 295.838 386.841L265.084 369.834C263.929 369.195 263.465 367.645 264.052 366.387C264.345 365.759 264.847 365.318 265.421 365.114C265.996 364.91 266.64 364.944 267.218 365.263L297.971 382.27C299.126 382.909 299.591 384.459 299.004 385.716Z" fill="#E57970"/>
<path d="M275.282 375.474L273.344 368.651L268.391 365.912L271.376 373.314L275.282 375.474Z" fill="#B64C41"/>
<path d="M282.793 379.627L278.887 377.467L275.902 370.065L280.854 372.804L282.793 379.627Z" fill="#B64C41"/>
<path d="M290.297 383.777L286.39 381.616L283.404 374.215L288.359 376.955L290.297 383.777Z" fill="#B64C41"/>
<path d="M298.219 386.682C298.036 386.813 297.841 386.916 297.634 386.989C297.06 387.194 296.416 387.16 295.838 386.841L294.034 385.843L291.048 378.441L296.001 381.18L298.219 386.682Z" fill="#B64C41"/>
<path d="M264.051 366.387C264.051 366.387 263.431 362.748 260.714 361.667C260.714 361.667 261.034 362.087 259.727 362.54C258.421 362.993 258.8 363.974 258.335 364.418C258.335 364.418 260.22 367.144 264.051 366.387Z" fill="#B64C41"/>
<path d="M263.525 366.867L263.452 366.827C263.245 366.712 263.161 366.432 263.266 366.206L263.649 365.386C263.755 365.159 264.012 365.068 264.22 365.183L264.292 365.223C264.501 365.338 264.584 365.617 264.479 365.844L264.096 366.664C263.99 366.891 263.733 366.982 263.525 366.867Z" fill="#4A75CB"/>
<path d="M298.876 385.646C298.876 385.646 301.942 384.045 304.346 385.795C304.346 385.795 303.846 385.762 304.281 387.178C304.715 388.594 303.763 388.839 303.708 389.51C303.708 389.51 300.574 389.46 298.876 385.646Z" fill="#B64C41"/>
<path d="M298.83 386.392L298.903 386.432C299.111 386.547 299.368 386.456 299.474 386.229L299.856 385.408C299.962 385.182 299.878 384.902 299.67 384.787L299.598 384.747C299.389 384.632 299.132 384.723 299.026 384.95L298.644 385.77C298.538 385.997 298.622 386.277 298.83 386.392Z" fill="#4A75CB"/>
<path d="M338.813 385.98C338.453 386.207 338.061 386.318 337.671 386.324C337.452 386.326 337.237 386.296 337.027 386.235C336.443 386.066 335.92 385.655 335.595 385.045L318.32 352.543C317.671 351.322 318.058 349.747 319.179 349.041C319.74 348.687 320.381 348.615 320.965 348.785C321.549 348.955 322.072 349.365 322.396 349.976L339.672 382.478C340.321 383.698 339.934 385.274 338.813 385.98Z" fill="#F1A34F"/>
<path d="M324.049 363.321L325.838 356.45L323.056 351.216L321.855 359.193L324.049 363.321Z" fill="#F9DDBF"/>
<path d="M328.268 371.258L326.074 367.13L327.275 359.153L330.057 364.388L328.268 371.258Z" fill="#F9DDBF"/>
<path d="M332.483 379.19L330.288 375.06L331.489 367.083L334.272 372.319L332.483 379.19Z" fill="#F9DDBF"/>
<path d="M337.671 386.324C337.452 386.326 337.237 386.296 337.027 386.235C336.443 386.065 335.92 385.655 335.595 385.045L334.582 383.138L335.783 375.161L338.564 380.395L337.671 386.324Z" fill="#F9DDBF"/>
<path d="M319.179 349.04C319.179 349.04 320.48 345.62 318.744 343.103C318.744 343.103 318.801 343.644 317.479 343.249C316.156 342.854 315.984 343.902 315.371 343.998C315.371 343.998 315.588 347.402 319.179 349.04Z" fill="#F1A34F"/>
<path d="M318.497 349.131L318.457 349.054C318.34 348.835 318.41 348.551 318.611 348.423L319.343 347.962C319.545 347.835 319.806 347.911 319.923 348.131L319.964 348.207C320.081 348.427 320.011 348.711 319.809 348.839L319.077 349.299C318.875 349.427 318.614 349.351 318.497 349.131Z" fill="#D3671E"/>
<path d="M338.741 385.845C338.741 385.845 342.113 386.321 343.253 389.215C343.253 389.215 342.85 388.891 342.505 390.336C342.161 391.78 341.24 391.421 340.858 391.951C340.858 391.951 338.256 390.051 338.741 385.845Z" fill="#F1A34F"/>
<path d="M338.329 386.443L338.37 386.52C338.487 386.74 338.748 386.816 338.95 386.688L339.681 386.227C339.883 386.1 339.953 385.815 339.836 385.596L339.795 385.519C339.679 385.299 339.418 385.224 339.215 385.351L338.484 385.812C338.282 385.939 338.212 386.223 338.329 386.443Z" fill="#D3671E"/>
<path d="M282.907 395.097C282.539 394.886 282.245 394.584 282.033 394.227C281.915 394.026 281.824 393.812 281.76 393.586C281.582 392.958 281.623 392.257 281.925 391.634L298.042 358.434C298.647 357.186 300.078 356.706 301.224 357.365C301.797 357.694 302.193 358.248 302.371 358.876C302.549 359.505 302.508 360.206 302.206 360.829L286.089 394.029C285.484 395.276 284.053 395.756 282.907 395.097Z" fill="#4A75CB"/>
<path d="M292.698 369.444L298.995 367.443L301.591 362.097L294.744 365.227L292.698 369.444Z" fill="#699FF0"/>
<path d="M288.762 377.552L290.808 373.335L297.655 370.205L295.059 375.551L288.762 377.552Z" fill="#699FF0"/>
<path d="M284.829 385.653L286.877 381.434L293.723 378.304L291.127 383.652L284.829 385.653Z" fill="#699FF0"/>
<path d="M282.033 394.227C281.915 394.026 281.824 393.813 281.76 393.586C281.582 392.958 281.623 392.257 281.925 391.634L282.871 389.686L289.717 386.556L287.122 391.902L282.033 394.227Z" fill="#699FF0"/>
<path d="M301.224 357.365C301.224 357.365 304.577 356.748 305.613 353.809C305.613 353.809 305.223 354.149 304.828 352.72C304.433 351.291 303.525 351.688 303.125 351.175C303.125 351.175 300.591 353.183 301.224 357.365Z" fill="#699FF0"/>
<path d="M300.792 356.784L300.83 356.706C300.939 356.481 301.197 356.394 301.403 356.513L302.15 356.943C302.357 357.062 302.437 357.343 302.327 357.568L302.289 357.646C302.18 357.871 301.922 357.957 301.716 357.838L300.968 357.409C300.762 357.29 300.682 357.009 300.792 356.784Z" fill="#4A75CB"/>
<path d="M282.975 394.959C282.975 394.959 284.395 398.322 282.749 400.911C282.749 400.911 282.787 400.367 281.48 400.817C280.173 401.267 279.963 400.227 279.348 400.156C279.348 400.156 279.443 396.746 282.975 394.959Z" fill="#4A75CB"/>
<path d="M282.29 394.898L282.252 394.976C282.143 395.201 282.223 395.482 282.429 395.601L283.176 396.031C283.382 396.15 283.641 396.063 283.75 395.838L283.788 395.76C283.897 395.535 283.817 395.254 283.611 395.135L282.864 394.706C282.657 394.587 282.399 394.673 282.29 394.898Z" fill="#4A75CB"/>
<path d="M315.106 364.92C315.106 364.92 316.515 367.079 317.806 367.109C319.097 367.139 321.061 366.108 321.061 366.108C321.061 366.108 322.247 363.232 321.442 362.107C321.442 362.107 320.636 361.722 319.793 362.402C319.648 362.519 319.502 362.667 319.356 362.857C319.152 363.124 318.922 363.277 318.679 363.357C317.758 363.662 316.664 362.944 316.255 363.637C316.016 364.04 315.757 364.342 315.543 364.555C315.29 364.8 315.106 364.92 315.106 364.92Z" fill="#B64C41"/>
<path d="M333.466 380.488C333.466 380.488 328.489 367.358 319.529 367.108C319.529 367.108 311.259 368.109 310.799 380.488H333.466Z" fill="#B64C41"/>
<path d="M321.984 367.509C321.984 367.509 318.392 368.379 317.284 367.868C317.284 367.868 317.117 366.233 318.629 366.463C319.664 366.62 320.339 366.078 320.735 365.858C321.296 365.548 322.133 366.826 321.984 367.509Z" fill="#963333"/>
<path d="M318.858 365.046C319.088 365.233 319.793 362.402 319.793 362.402C319.648 362.52 319.502 362.668 319.356 362.858C319.152 363.125 318.922 363.278 318.679 363.358C318.676 363.44 318.635 364.863 318.858 365.046Z" fill="#963333"/>
<path d="M315.543 364.555C315.594 364.587 317.255 365.67 317.48 365.67C317.71 365.67 316.256 363.637 316.256 363.637C316.017 364.04 315.757 364.342 315.543 364.555Z" fill="#963333"/>
<path d="M328.603 376.82C328.696 376.735 325.081 371.027 324.085 370.985C323.09 370.944 320.853 372.236 319.234 372.402C317.614 372.569 316.045 372.069 315.739 373.111C315.432 374.153 314.59 377.847 315.106 378.439C315.623 379.029 326.616 378.669 328.603 376.82Z" fill="#963333"/>
<path d="M350.794 365.622L350.795 365.622C349.312 365.642 348.57 363.205 348.57 363.205L334.135 367.962C334.782 369.684 333.736 371.011 333.736 371.011C333.736 371.011 331.239 372.827 332.015 375.618L335.209 387.106C335.775 389.141 337.768 390.303 339.638 389.686L354.865 384.668C356.734 384.053 357.801 381.883 357.235 379.848L354.04 368.36C353.594 366.753 352.257 365.695 350.794 365.622Z" fill="#CADDFF"/>
<path d="M332.692 367.453L333.559 370.571C333.872 371.698 337.826 371.392 342.389 369.888C346.953 368.384 350.398 366.252 350.085 365.125L349.218 362.007L332.692 367.453Z" fill="#963333"/>
<path d="M349.217 362.007C349.531 363.134 346.086 365.267 341.522 366.771C336.958 368.274 333.005 368.58 332.692 367.453C332.378 366.326 335.823 364.193 340.387 362.689C344.951 361.186 348.904 360.88 349.217 362.007Z" fill="#B64C41"/>
<path d="M312.065 371.862L312.065 371.862C311.03 371.316 311.291 369.344 311.291 369.344L299.752 367.195C299.653 368.636 298.504 369.162 298.504 369.162C298.504 369.162 296.191 369.479 295.841 371.71L294.398 380.893C294.142 382.52 295.156 384.079 296.651 384.357L308.821 386.623C310.316 386.902 311.748 385.798 312.004 384.171L313.447 374.989C313.649 373.704 313.058 372.465 312.065 371.862Z" fill="#B7D2F9"/>
<path d="M298.913 366.296L298.521 368.788C298.38 369.689 301.222 370.97 304.87 371.649C308.517 372.329 311.59 372.149 311.731 371.248L312.123 368.756L298.913 366.296Z" fill="#C95C12"/>
<path d="M312.123 368.756C311.981 369.657 308.909 369.837 305.262 369.158C301.614 368.479 298.772 367.197 298.913 366.297C299.055 365.396 302.127 365.216 305.775 365.895C309.422 366.574 312.264 367.855 312.123 368.756Z" fill="#F1A34F"/>
<path d="M275.292 439.765H346.788V375.589H275.292V439.765Z" fill="#D3671E"/>
<path d="M311.04 439.765H382.536V375.589H311.04V439.765Z" fill="#F1A34F"/>
<path opacity="0.4" d="M311.04 375.589H382.72V419.556L311.04 439.764V375.589Z" fill="#D86713"/>
<path d="M311.04 375.589L325.187 392.474H395.737L382.536 375.589H311.04Z" fill="#F1A34F"/>
<path d="M275.334 423.489H286.663L285.665 420.019L286.663 417.539H275.334V423.489Z" fill="#F1A34F"/>
<path d="M311.04 382.844L295.97 399.249H275.334V375.589H311.04V382.844Z" fill="#C95C12"/>
<path d="M275.292 375.589L259.218 392.474H294.988L311.04 375.589H275.292Z" fill="#F1A34F"/>
<path d="M316.038 413.169V400.526H319.612C320.394 400.526 321.11 400.672 321.761 400.965C322.413 401.257 322.971 401.668 323.437 402.198C323.902 402.727 324.265 403.363 324.526 404.104C324.786 404.845 324.916 405.667 324.916 406.57V407.143C324.916 408.046 324.787 408.867 324.53 409.605C324.272 410.343 323.907 410.977 323.437 411.506C322.966 412.036 322.404 412.446 321.75 412.735C321.096 413.024 320.375 413.169 319.588 413.169H316.038V413.169ZM318.431 402.636V411.076H319.588C320.534 411.076 321.255 410.736 321.749 410.056C322.244 409.376 322.491 408.404 322.491 407.142V406.552C322.491 405.267 322.247 404.293 321.758 403.63C321.268 402.968 320.553 402.636 319.612 402.636L318.431 402.636Z" fill="#F1A34F"/>
<path d="M336.195 407.134C336.195 408.101 336.075 408.968 335.836 409.735C335.597 410.502 335.26 411.151 334.827 411.684C334.393 412.217 333.874 412.626 333.267 412.913C332.661 413.2 331.994 413.342 331.265 413.342C330.537 413.342 329.869 413.2 329.263 412.913C328.657 412.626 328.134 412.217 327.696 411.684C327.257 411.151 326.915 410.502 326.671 409.735C326.426 408.968 326.304 408.101 326.304 407.134V406.578C326.304 405.617 326.425 404.752 326.667 403.982C326.909 403.212 327.248 402.558 327.684 402.02C328.12 401.482 328.641 401.069 329.247 400.783C329.853 400.496 330.52 400.353 331.249 400.353C331.978 400.353 332.645 400.496 333.251 400.783C333.858 401.069 334.379 401.482 334.815 402.02C335.251 402.558 335.59 403.212 335.832 403.982C336.074 404.752 336.195 405.617 336.195 406.578V407.134ZM333.77 406.561C333.77 405.235 333.552 404.228 333.116 403.539C332.68 402.85 332.058 402.506 331.25 402.506C330.441 402.506 329.819 402.85 329.383 403.539C328.947 404.228 328.729 405.235 328.729 406.561V407.134C328.729 407.794 328.786 408.377 328.901 408.884C329.015 409.391 329.18 409.816 329.395 410.16C329.611 410.505 329.875 410.765 330.189 410.942C330.503 411.118 330.861 411.207 331.266 411.207C332.074 411.207 332.693 410.859 333.124 410.165C333.555 409.47 333.77 408.46 333.77 407.134L333.77 406.561Z" fill="#F1A34F"/>
<path d="M347.378 413.169H344.985L340.327 404.85V413.169H337.934V400.526H340.327L344.993 408.862V400.526H347.378V413.169Z" fill="#F1A34F"/>
<path d="M356.168 410.564H351.973L351.175 413.169H348.63L352.954 400.526H355.171L359.519 413.169H356.974L356.168 410.564ZM352.619 408.454H355.522L354.063 403.721L352.619 408.454Z" fill="#F1A34F"/>
<path d="M368.389 402.636H364.831V413.169H362.439V402.636H358.929V400.526H368.389L368.389 402.636Z" fill="#F1A34F"/>
<path d="M376.74 407.69H372.145V411.076H377.538V413.169H369.752V400.526H377.521V402.636H372.145V405.649H376.74V407.69Z" fill="#F1A34F"/>
<path d="M173.692 427.06C173.692 427.06 159.363 347.568 134.948 350.832C110.533 354.096 173.692 427.06 173.692 427.06Z" fill="#A8D29F"/>
<path d="M163.061 423.373C163.061 423.373 140.493 394.066 120.433 402.78C100.373 411.495 148.851 409.321 163.061 423.373Z" fill="#A8D29F"/>
<path d="M583.721 393.493C583.721 393.493 592.687 339.417 600.415 348.763C608.142 358.11 583.721 393.493 583.721 393.493Z" fill="#A8D29F"/>
<path d="M587.006 398.145C587.006 398.145 602.419 371.508 607.857 380.231C613.294 388.955 587.006 398.145 587.006 398.145Z" fill="#A8D29F"/>
<path d="M773.842 441.865H58.0958C57.6487 441.865 57.2832 441.467 57.2832 440.981V440.679C57.2832 440.192 57.649 439.794 58.0958 439.794H773.842C774.289 439.794 774.655 440.192 774.655 440.679V440.981C774.655 441.467 774.289 441.865 773.842 441.865Z" fill="#2E3552"/>
</svg>
