<svg width="523" height="422" viewBox="0 0 523 422" fill="none" xmlns="http://www.w3.org/2000/svg">
<path d="M32.3445 420.993C32.3445 420.993 -31.8299 320.714 21.4916 212.148C68.8019 115.82 123.961 122.405 164.43 161.495C181.667 178.144 231.361 163.547 273.658 65.5305C331.338 -68.1376 531.28 12.9326 494.825 218.584C477.183 318.105 548.516 321.723 512.169 421.204L32.3445 420.993Z" fill="#375A88" fill-opacity="0.34"/>
<path opacity="0.3" d="M254.3 408.708C326.561 408.708 385.14 387.192 385.14 360.65C385.14 334.108 326.561 312.592 254.3 312.592C182.04 312.592 123.46 334.108 123.46 360.65C123.46 387.192 182.04 408.708 254.3 408.708Z" fill="#01265A"/>
<path d="M384.983 230.352L288.437 282.929L120.694 230.352C120.694 230.352 121.811 360.838 124.421 365.06C127.031 369.281 277.626 418.405 287.691 416.487C297.757 414.568 378.646 363.525 382.374 359.687C386.101 355.848 384.983 230.352 384.983 230.352Z" fill="#FFD141"/>
<path d="M384.983 230.351C384.983 230.351 253.769 179.41 246.686 179.934C239.604 180.459 122.559 226.897 120.693 230.351L288.436 282.928L384.983 230.351Z" fill="#FFD141"/>
<path d="M384.983 230.351C384.983 230.351 253.769 179.41 246.686 179.934C239.604 180.459 122.559 226.897 120.693 230.351L288.436 282.928L384.983 230.351Z" fill="#C6916A"/>
<path d="M246.687 179.933C246.687 179.933 285.828 127.88 293.282 125.577C300.736 123.275 439.861 157.048 443.174 161.269C446.487 165.491 384.982 230.35 384.982 230.35C384.982 230.35 308.939 203.971 246.687 179.933Z" fill="#E5B288"/>
<path d="M246.687 179.934C246.687 179.934 213.698 141.194 182.198 129.031C179.216 127.88 57.323 177.873 57.6957 179.934C58.0684 181.994 111.748 216.919 120.693 230.351C120.693 230.351 234.385 185.549 246.687 179.934Z" fill="#E5B288"/>
<path d="M364.092 194.903C355.109 196.241 330.51 197.786 322.108 195.984C316.241 194.726 298.814 186.461 288.327 181.765C289.996 175.201 297.459 169.549 295.409 167.612C292.62 164.974 279.871 150.611 274.016 150.099C273.18 150.026 271.969 149.814 270.524 149.512C258.595 164.1 246.688 179.932 246.688 179.932C290.428 196.823 340.977 214.868 367.173 224.106C366.023 212.223 365.204 203.738 365.204 203.738C365.036 200.939 368.483 194.248 364.092 194.903Z" fill="#E5B288"/>
<path d="M238.624 144.533C238.624 144.533 262.309 151.645 268.161 152.155C274.017 152.668 286.766 167.03 289.555 169.668C292.346 172.304 277.512 181.811 283.64 191.142C289.764 200.473 303.234 192.227 303.437 195.013C303.64 197.799 304.522 214.97 305.62 219.041C306.713 223.109 292.091 249.554 289.568 255.45C289.568 255.45 274.305 253.621 261.569 243.871C261.569 243.871 220.974 267.534 218.148 268.672C215.323 269.81 204.208 249.998 196.003 232.765C187.799 215.533 180.037 199.23 181.628 197.269C183.222 195.311 228.525 174.47 228.525 174.47C228.525 174.47 229.017 152.848 238.624 144.533Z" fill="#84E2D5"/>
<path d="M302.952 227.957C304.794 223.694 305.958 220.298 305.62 219.042C305.411 218.267 305.209 217.019 305.02 215.486C304.086 214.45 303.168 213.398 302.236 212.398C297.032 206.759 291.636 201.051 287.069 194.764C286.903 194.54 286.743 194.312 286.579 194.087C285.493 193.391 284.493 192.442 283.64 191.142C282.814 189.883 282.378 188.624 282.219 187.378C278.863 181.607 276.134 175.384 273.86 169.007C271.87 163.594 270.341 158.223 269.849 152.599C269.243 152.359 268.675 152.202 268.161 152.156C266.718 152.032 264.182 151.503 261.182 150.775C266.477 180.022 280.556 209.159 302.952 227.957Z" fill="#24A08B"/>
<path d="M282.396 235.219C286.23 238.89 290.38 242.143 294.634 245.207C296.029 242.451 297.548 239.438 299 236.463C296.524 234.397 294.064 232.322 291.666 230.218C280.928 220.561 272.355 208.837 265.37 196.15C260.378 187.321 256.213 177.913 253.571 168.062C251.752 161.413 250.858 154.691 250.372 147.925C247.673 147.174 245.139 146.447 243.115 145.857C241.785 150.999 240.915 156.157 241.164 161.515C241.599 170.698 244.375 179.836 248.041 188.199C255.934 206.098 268.204 222.279 282.396 235.219Z" fill="#24A08B"/>
<path d="M245.678 248.723C236.474 236.994 229.05 224.044 222.324 210.578C217.872 201.612 213.657 192.473 209.929 183.131C205.233 185.338 200.269 187.694 195.829 189.842C198.789 197.263 201.996 204.593 205.432 211.807C213.411 228.781 222.809 244.904 233.43 260.155C238.208 257.415 243.43 254.399 248.065 251.716C247.258 250.729 246.46 249.733 245.678 248.723Z" fill="#24A08B"/>
<path d="M228.655 172.15C228.547 173.599 228.526 174.472 228.526 174.472C228.526 174.472 225.563 175.836 221.127 177.894C224.988 189.757 229.591 201.39 235.27 212.637C241.295 224.66 248.255 236.207 256.482 246.834C259.591 245.025 261.569 243.874 261.569 243.874C264.893 246.417 268.385 248.419 271.74 249.992C261.843 238.748 253.454 226.069 246.147 212.661C239.147 199.861 232.334 186.519 228.655 172.15Z" fill="#24A08B"/>
<path d="M296.633 222.759C290.754 226.112 284.833 229.39 279.071 232.954C276.124 234.774 273.223 236.655 270.359 238.611C267.541 240.536 264.626 242.077 261.596 243.606C261.232 243.79 261.509 244.369 261.873 244.187C264.718 242.75 267.479 241.322 270.135 239.533C273.008 237.594 275.892 235.697 278.829 233.857C284.743 230.151 290.856 226.793 296.911 223.341C297.263 223.139 296.988 222.556 296.633 222.759Z" fill="#24A08B"/>
<path opacity="0.4" d="M196.004 232.767C204.209 250 215.323 269.812 218.149 268.674C220.975 267.538 261.57 243.873 261.57 243.873C274.306 253.623 289.569 255.451 289.569 255.451C292.092 249.556 306.716 223.111 305.621 219.043C304.523 214.972 303.643 197.801 303.438 195.015C303.235 192.229 289.764 200.475 283.641 191.144C281.107 187.287 282.16 183.4 284.064 179.981C278.314 177.377 273.986 175.485 273.468 175.671C269.327 177.153 270.442 180.935 269.293 183.476C269.293 183.476 266.201 189.688 261.695 198.739C257.068 192.689 252.884 187.808 251.037 187.452C246.477 186.571 229.099 178.946 226.248 177.771C223.4 176.597 224.822 194.785 212.573 196.545C206.272 197.45 202.686 192.537 200.146 187.769C190.661 192.305 182.297 196.451 181.629 197.272C180.038 199.232 187.8 215.534 196.004 232.767Z" fill="#1B899A"/>
<path d="M358.24 196.96C362.631 196.305 359.184 202.997 359.351 205.797C359.351 205.797 365.715 271.741 367.885 293.459C367.885 293.459 369.941 301.826 367.806 303.198C365.671 304.572 301.492 303.433 300.313 302.39C299.133 301.348 301.01 291.145 301.01 291.145L301.956 266.459L294.068 289.794C294.068 289.794 292.192 299.994 290.722 300.52C289.258 301.048 229.121 277.94 227.618 275.857C226.117 273.779 231.006 266.764 231.006 266.764C240.737 247.366 270.083 188.388 270.083 188.388C271.234 185.848 270.117 182.066 274.259 180.583C275.725 180.059 307.855 196.24 316.256 198.041C324.656 199.843 349.256 198.298 358.24 196.96Z" fill="#1F9999"/>
<path d="M305.941 248.008C311.802 246.685 315.056 242.939 316.477 237.43C317.611 233.036 318.574 228.606 319.727 224.22C320.881 219.834 322.401 215.563 323.532 211.168C323.532 211.168 323.532 211.16 323.532 211.155C327.015 211.723 330.496 212.275 334.022 212.404C337.212 212.519 340.396 212.334 343.571 212.12C347.093 221.161 352.576 229.377 360.928 235.086C361.393 235.402 361.96 234.781 361.492 234.461C353.318 228.873 347.951 220.891 344.474 212.057C344.981 212.023 345.491 211.987 345.999 211.95C349.981 211.678 353.932 211.451 357.866 210.794C358.414 210.703 358.335 209.864 357.783 209.959C353.309 210.704 348.688 211.127 344.072 211.356C343.937 211.296 343.781 211.307 343.652 211.375C341.206 211.49 338.762 211.562 336.347 211.591C332.138 211.644 327.998 211.043 323.842 210.364C320.886 209.879 316.965 209.884 314.283 208.467C314.281 208.464 314.279 208.466 314.275 208.463C314.984 205.539 315.808 202.632 317.019 199.932C317.242 199.442 316.448 199.059 316.226 199.551C314.325 203.779 313.402 208.513 312.333 212.995C310.612 220.216 309.111 227.489 307.64 234.766C306.258 241.633 304.933 248.511 303.623 255.395C302.983 258.784 302.485 262.24 301.662 265.59C301.533 266.112 302.401 266.278 302.528 265.76C303.321 262.519 303.803 259.176 304.429 255.902C304.93 253.27 305.438 250.639 305.941 248.008ZM312.927 214.334C313.313 212.679 313.682 210.984 314.081 209.291C316.438 210.464 319.431 210.493 321.987 210.903C322.214 210.94 322.44 210.976 322.668 211.012C320.731 218.516 318.394 225.869 316.579 233.41C315.79 236.697 315.148 240.12 313.109 242.913C311.449 245.184 308.868 246.413 306.117 247.095C306.843 243.343 307.578 239.592 308.327 235.844C309.768 228.656 311.26 221.473 312.927 214.334Z" fill="#2ECEB7"/>
<path d="M258.162 213.148C270.405 214.381 280.099 206.582 286.992 197.981C288.207 198.578 289.433 199.164 290.689 199.699C297.865 202.748 305.476 204.634 312.653 207.668C313.174 207.888 313.55 207.141 313.028 206.919C305.854 203.888 298.263 201.94 291.064 198.951C283.752 195.913 277.254 191.438 270.325 187.7C269.825 187.431 269.453 188.18 269.951 188.448C275.432 191.405 280.647 194.766 286.193 197.579C279.518 205.86 270.147 213.52 258.314 212.328C257.754 212.272 257.598 213.092 258.162 213.148Z" fill="#2ECEB7"/>
<path d="M293.873 288.03C272.785 281.857 250.437 277.969 231.984 265.453C231.518 265.135 230.949 265.759 231.416 266.074C250.019 278.694 272.465 282.629 293.727 288.85C294.271 289.012 294.418 288.19 293.873 288.03Z" fill="#2ECEB7"/>
<path d="M366.284 291.274C361.123 292.026 355.71 291.865 350.486 292.087C344.757 292.329 339.027 292.595 333.293 292.807C322.759 293.196 312.063 293.958 301.716 291.024C301.168 290.867 301.022 291.69 301.564 291.843C311.442 294.648 321.825 294.198 331.898 293.712C337.544 293.445 343.194 293.242 348.841 292.997C354.635 292.745 360.648 292.944 366.366 292.115C366.918 292.031 366.839 291.193 366.284 291.274Z" fill="#2ECEB7"/>
<path d="M324.056 205.903C323.77 207.462 322.092 208.447 320.313 208.097C318.531 207.75 317.322 206.205 317.607 204.646C317.896 203.087 319.572 202.102 321.355 202.448C323.131 202.796 324.345 204.345 324.056 205.903Z" fill="#2ECEB7"/>
<path opacity="0.4" d="M284.806 231.63C281.472 227.554 270.519 211.245 263.091 202.43C253.785 221.121 237.721 253.372 231.004 266.764C231.004 266.764 226.115 273.779 227.615 275.856C228.402 276.947 245.265 283.803 261.364 290.012C260.528 273.856 259.447 255.143 259.447 255.143C275.405 246.68 284.806 231.63 284.806 231.63Z" fill="#1B899A"/>
<path opacity="0.4" d="M290.72 300.521C292.19 299.994 294.066 289.794 294.066 289.794L301.065 269.088C288.698 275.926 276.602 283.241 265.008 291.41C278.254 296.474 290.08 300.75 290.72 300.521Z" fill="#1B899A"/>
<path opacity="0.4" d="M362.454 237.889C342.209 247.99 321.7 257.719 301.87 268.642L301.007 291.146C301.007 291.146 299.132 301.347 300.311 302.391C301.49 303.434 365.668 304.571 367.804 303.198C369.94 301.826 367.883 293.46 367.883 293.46C366.731 281.915 364.393 257.877 362.454 237.889Z" fill="#1B899A"/>
<path d="M144.978 225.324C144.978 225.324 163.782 204.099 167.201 198.231C170.621 192.365 191.136 186.186 195.125 184.583C199.115 182.979 201.11 203.218 213.362 201.459C225.612 199.7 224.189 181.512 227.038 182.685C229.888 183.859 247.266 191.485 251.827 192.366C256.387 193.248 275.192 221.702 279.75 227.276C279.75 227.276 270.348 242.326 254.39 250.789C254.39 250.789 257.524 305.015 257.239 308.535C256.954 312.057 231.879 313.816 210.796 313.816C189.711 313.816 169.766 313.816 168.625 311.176C167.486 308.535 169.481 250.79 169.481 250.79C169.481 250.79 148.396 239.509 144.978 225.324Z" fill="white"/>
<path d="M171.442 206.98C170.431 221.442 168.92 235.958 168.913 250.471C168.913 250.944 169.624 250.944 169.624 250.471C169.632 235.959 171.144 221.442 172.154 206.98C172.187 206.507 171.476 206.511 171.442 206.98Z" fill="#72CACE"/>
<path d="M251.019 203.613C251.402 211.428 251.689 219.251 252.333 227.051C252.661 231.04 253.074 235.007 253.576 238.976C254.071 242.88 254.143 246.698 254.143 250.626C254.143 251.097 254.855 251.097 254.855 250.626C254.855 246.935 254.819 243.338 254.375 239.671C253.894 235.698 253.456 231.741 253.103 227.754C252.392 219.725 252.124 211.663 251.73 203.613C251.707 203.143 250.996 203.141 251.019 203.613Z" fill="#72CACE"/>
<path d="M223.202 226.428C223.364 230.357 223.061 234.377 223.489 238.282C223.634 239.597 223.859 240.902 224.093 242.2C224.173 242.639 224.167 243.642 224.497 243.989C225.651 245.204 226.843 246.382 228.055 247.532C229.07 248.499 230.115 249.432 231.202 250.311C231.689 250.706 232.713 251.754 233.374 251.754C234.022 251.754 234.995 250.748 235.476 250.368C236.487 249.572 237.442 248.702 238.386 247.823C239.714 246.59 241.002 245.307 242.252 243.989C242.531 243.697 242.525 242.911 242.594 242.546C242.833 241.277 243.05 240 243.209 238.718C243.705 234.671 243.379 230.503 243.547 226.428C243.566 225.956 242.855 225.957 242.835 226.428C242.684 230.093 242.905 233.803 242.632 237.456C242.481 239.519 242.074 241.582 241.662 243.606C241.706 243.394 241.167 244.08 240.985 244.264C240.264 245.003 239.531 245.727 238.792 246.443C237.127 248.056 235.403 249.718 233.434 250.935C232.724 251.377 228.848 247.295 228.251 246.727C227.145 245.675 226.064 244.594 225.011 243.488C225.199 243.686 225.028 243.344 224.998 243.179C224.92 242.789 224.848 242.398 224.775 242.007C224.52 240.632 224.304 239.25 224.15 237.861C223.74 234.105 224.066 230.208 223.911 226.428C223.895 225.957 223.185 225.956 223.202 226.428Z" fill="#72CACE"/>
<path d="M211.956 209.736C220.882 209.89 228.172 202.233 230.848 193.963C231.773 190.991 232.157 188.017 232.423 184.971C229.865 183.885 227.855 183.019 227.038 182.683C224.189 181.51 225.611 199.698 213.362 201.457C201.11 203.218 199.115 182.977 195.125 184.581C194.361 184.888 192.986 185.363 191.246 185.971C194.908 195.879 199.935 209.59 211.956 209.736Z" fill="#72CACE"/>
<path d="M178.937 227.117C176.636 227.117 174.771 229.038 174.771 231.407C174.771 233.775 176.636 235.695 178.937 235.695C181.236 235.695 183.101 233.775 183.101 231.407C183.101 229.038 181.236 227.117 178.937 227.117Z" fill="#72CACE"/>
<path d="M189.873 255.053C187.573 255.053 185.708 256.973 185.708 259.34C185.708 261.708 187.573 263.628 189.873 263.628C192.174 263.628 194.038 261.708 194.038 259.34C194.038 256.973 192.174 255.053 189.873 255.053Z" fill="#72CACE"/>
<path d="M174.698 277.73C174.698 275.361 172.833 273.441 170.532 273.441C169.907 273.441 169.317 273.587 168.783 273.841C168.716 276.356 168.651 278.94 168.591 281.52C169.172 281.836 169.833 282.016 170.532 282.016C172.833 282.016 174.698 280.098 174.698 277.73Z" fill="#72CACE"/>
<path d="M199.389 287.377C197.088 287.377 195.224 289.296 195.224 291.664C195.224 294.031 197.09 295.953 199.389 295.953C201.689 295.953 203.556 294.031 203.556 291.664C203.556 289.296 201.689 287.377 199.389 287.377Z" fill="#72CACE"/>
<path d="M173.434 307.131C171.133 307.131 169.268 309.053 169.268 311.418C169.268 311.536 169.277 311.654 169.286 311.768C170.519 312.438 173.32 312.889 177.223 313.194C177.463 312.652 177.598 312.054 177.598 311.418C177.599 309.053 175.734 307.131 173.434 307.131Z" fill="#72CACE"/>
<path d="M221.586 266.857C219.286 266.857 217.42 268.777 217.42 271.146C217.42 273.514 219.285 275.434 221.586 275.434C223.888 275.434 225.752 273.514 225.752 271.146C225.752 268.776 223.887 266.857 221.586 266.857Z" fill="#72CACE"/>
<path d="M234.654 290.746C232.354 290.746 230.488 292.666 230.488 295.033C230.488 297.404 232.354 299.322 234.654 299.322C236.953 299.322 238.819 297.402 238.819 295.033C238.819 292.667 236.953 290.746 234.654 290.746Z" fill="#72CACE"/>
<path d="M255.922 308.358C255.922 308.831 256 309.282 256.136 309.706C256.815 309.34 257.207 308.947 257.239 308.531C257.273 308.112 257.257 306.956 257.205 305.266C256.417 306.046 255.922 307.14 255.922 308.358Z" fill="#72CACE"/>
<path d="M215.317 311.418C213.68 311.418 212.265 312.395 211.587 313.811C214.029 313.806 216.515 313.779 219.009 313.728C218.313 312.357 216.922 311.418 215.317 311.418Z" fill="#72CACE"/>
<path d="M255.77 275.516C255.027 274.801 254.032 274.363 252.937 274.363C250.635 274.363 248.771 276.283 248.771 278.652C248.771 281.019 250.635 282.939 252.937 282.939C254.195 282.939 255.322 282.36 256.086 281.45C255.985 279.468 255.876 277.478 255.77 275.516Z" fill="#72CACE"/>
<path d="M160.938 209.738C158.637 209.738 156.772 211.658 156.772 214.027C156.772 216.394 158.637 218.314 160.938 218.314C163.238 218.314 165.104 216.394 165.104 214.027C165.102 211.658 163.238 209.738 160.938 209.738Z" fill="#72CACE"/>
<path d="M188.901 202.693C188.901 200.323 187.036 198.404 184.735 198.404C182.436 198.404 180.571 200.324 180.571 202.693C180.571 205.061 182.436 206.982 184.735 206.982C187.037 206.98 188.901 205.061 188.901 202.693Z" fill="#72CACE"/>
<path d="M212.365 219.689C214.664 219.689 216.529 217.769 216.529 215.4C216.529 213.031 214.664 211.111 212.365 211.111C210.064 211.111 208.2 213.031 208.2 215.4C208.199 217.769 210.064 219.689 212.365 219.689Z" fill="#72CACE"/>
<path d="M249.4 191.894C249.4 191.823 249.393 191.754 249.39 191.684C247.443 191.048 244.879 190.077 242.169 189C241.489 189.764 241.07 190.777 241.07 191.896C241.07 194.264 242.935 196.184 245.237 196.184C247.535 196.184 249.4 194.263 249.4 191.894Z" fill="#72CACE"/>
<path d="M207.67 237.99C205.368 237.99 203.505 239.91 203.505 242.279C203.505 244.648 205.37 246.568 207.67 246.568C209.97 246.568 211.834 244.648 211.834 242.279C211.834 239.909 209.97 237.99 207.67 237.99Z" fill="#72CACE"/>
<path d="M241.07 214.025C238.768 214.025 236.906 215.945 236.906 218.313C236.906 220.682 238.768 222.602 241.07 222.602C243.371 222.602 245.237 220.682 245.237 218.313C245.236 215.945 243.371 214.025 241.07 214.025Z" fill="#72CACE"/>
<path d="M254.498 247.486C254.498 245.117 252.633 243.197 250.332 243.197C248.032 243.197 246.167 245.117 246.167 247.486C246.167 249.853 248.031 251.773 250.332 251.773C252.633 251.773 254.498 249.853 254.498 247.486Z" fill="#72CACE"/>
<path d="M271.491 215.932C270.204 216.66 269.332 218.068 269.332 219.689C269.332 222.057 271.194 223.977 273.495 223.977C274.619 223.977 275.638 223.517 276.386 222.771C274.972 220.81 273.297 218.457 271.491 215.932Z" fill="#72CACE"/>
<path opacity="0.2" d="M190.741 226.913C187.189 227.141 183.414 228.055 179.861 227.598C176.53 227.37 173.866 225.54 170.979 223.94C163.85 220.095 157.11 218.664 149.868 219.731C147.016 223.021 144.978 225.323 144.978 225.323C148.396 239.508 169.482 250.785 169.482 250.785C169.482 250.785 167.489 308.532 168.626 311.172C169.767 313.812 189.712 313.812 210.797 313.812C231.881 313.812 256.957 312.052 257.241 308.531C257.453 305.915 255.775 275.29 254.901 259.735C250.113 257.039 245.34 254.318 240.699 251.37C225.378 241.77 209.836 225.998 190.741 226.913Z" fill="#84E2D5"/>
<path d="M288.437 282.928C285.798 283.136 234.024 266.464 188.852 251.715L120.694 230.352C120.694 230.352 121.811 360.838 124.421 365.06C127.032 369.281 277.626 418.405 287.692 416.487C297.757 414.568 378.646 363.525 382.374 359.687C385.081 356.9 385.233 289.986 385.114 253.531L288.437 282.928Z" fill="#FCC692"/>
<path d="M253.917 387.293L139.966 356.125C137.415 355.428 135.351 351.729 135.351 347.898V320.034C135.351 316.203 137.414 313.42 139.966 313.855L253.917 333.302C258.138 334.022 261.643 338.73 261.643 343.752V380.276C261.643 385.297 258.138 388.448 253.917 387.293Z" fill="white"/>
<path d="M141.554 345.171C141.471 345.026 141.43 344.864 141.43 344.685V327.236C141.43 327.04 141.469 326.887 141.545 326.777C141.622 326.668 141.727 326.626 141.857 326.652L146.26 327.536C149.878 328.262 151.749 331.129 151.823 336.129C151.848 337.197 151.861 337.914 151.861 338.28C151.861 338.628 151.848 339.33 151.823 340.387C151.773 342.942 151.303 344.718 150.414 345.72C149.529 346.72 148.171 346.989 146.352 346.542L141.857 345.435C141.739 345.403 141.638 345.317 141.554 345.171ZM146.26 343.373C147.272 343.615 148.007 343.454 148.46 342.89C148.916 342.325 149.155 341.261 149.18 339.701C149.204 338.615 149.216 337.934 149.216 337.662C149.216 337.37 149.204 336.694 149.18 335.633C149.155 334.135 148.902 332.985 148.422 332.183C147.944 331.385 147.191 330.877 146.168 330.664L143.956 330.202V342.822L146.26 343.373Z" fill="#ED7474"/>
<path d="M155.431 347.141C154.467 345.636 153.962 343.627 153.912 341.113C153.898 340.575 153.894 339.791 153.894 338.761C153.894 337.712 153.9 336.922 153.912 336.39C153.962 333.952 154.479 332.183 155.468 331.077C156.461 329.966 157.812 329.578 159.527 329.922C161.242 330.266 162.619 331.207 163.652 332.754C164.69 334.306 165.238 336.347 165.29 338.872C165.317 339.975 165.331 340.79 165.331 341.321C165.331 341.831 165.317 342.631 165.29 343.721C165.238 346.279 164.703 348.089 163.691 349.145C162.684 350.197 161.293 350.503 159.526 350.066C157.761 349.63 156.398 348.653 155.431 347.141ZM161.595 346.19C162.105 345.561 162.381 344.47 162.42 342.922C162.445 341.8 162.459 341.042 162.459 340.65C162.459 340.217 162.445 339.455 162.42 338.36C162.379 336.811 162.098 335.601 161.574 334.732C161.053 333.863 160.368 333.343 159.527 333.169C158.674 332.992 157.992 333.225 157.478 333.871C156.965 334.513 156.697 335.591 156.672 337.106C156.66 337.64 156.652 338.389 156.652 339.353C156.652 340.298 156.658 341.049 156.672 341.609C156.697 343.134 156.963 344.332 157.468 345.203C157.975 346.075 158.661 346.616 159.526 346.823C160.396 347.029 161.086 346.818 161.595 346.19Z" fill="#ED7474"/>
<path d="M168.081 351.695C167.987 351.538 167.939 351.365 167.939 351.176V332.605C167.939 332.396 167.983 332.234 168.07 332.119C168.157 332.003 168.276 331.96 168.423 331.99L170.006 332.308C170.265 332.36 170.462 332.562 170.598 332.915L176.519 347.023V334.343C176.519 334.13 176.564 333.965 176.655 333.847C176.747 333.729 176.869 333.685 177.023 333.716L178.838 334.081C178.993 334.113 179.121 334.207 179.219 334.364C179.318 334.52 179.368 334.705 179.368 334.92V353.943C179.368 354.158 179.318 354.322 179.219 354.435C179.121 354.548 179 354.585 178.859 354.55L177.19 354.139C176.91 354.07 176.699 353.853 176.559 353.49L170.658 339.585V351.842C170.658 352.032 170.614 352.184 170.525 352.297C170.436 352.409 170.317 352.446 170.168 352.41L168.422 351.98C168.289 351.946 168.175 351.852 168.081 351.695Z" fill="#ED7474"/>
<path d="M181.44 355.008C181.355 354.869 181.312 354.711 181.312 354.536L181.355 354.281L186.558 336.375C186.704 335.909 186.968 335.713 187.35 335.79L189.783 336.279C190.169 336.356 190.436 336.66 190.586 337.19L196.005 357.861L196.05 358.146C196.05 358.328 196 358.467 195.901 358.565C195.803 358.661 195.692 358.695 195.571 358.665L193.55 358.167C193.234 358.089 193.016 357.844 192.895 357.434L191.861 353.54L185.312 351.986L184.311 355.329C184.195 355.675 183.986 355.811 183.681 355.736L181.761 355.263C181.634 355.233 181.526 355.148 181.44 355.008ZM186.077 348.722L191.077 349.871L188.563 340.095L186.077 348.722Z" fill="#ED7474"/>
<path d="M200.199 359.593C200.091 359.424 200.036 359.237 200.036 359.032V342.165L195.775 341.274C195.623 341.243 195.494 341.144 195.388 340.981C195.282 340.819 195.229 340.625 195.229 340.403V338.132C195.229 337.909 195.277 337.738 195.377 337.616C195.476 337.495 195.609 337.45 195.775 337.484L207.736 339.886C207.913 339.921 208.056 340.024 208.17 340.192C208.282 340.36 208.338 340.558 208.338 340.787V343.122C208.338 343.35 208.282 343.527 208.17 343.647C208.056 343.769 207.913 343.813 207.736 343.775L203.36 342.861V359.846C203.36 360.052 203.309 360.214 203.206 360.333C203.104 360.452 202.966 360.488 202.795 360.447L200.594 359.905C200.439 359.865 200.308 359.762 200.199 359.593Z" fill="#ED7474"/>
<path d="M210.951 362.237C210.837 362.063 210.781 361.872 210.781 361.663V341.249C210.781 341.019 210.837 340.848 210.951 340.735C211.064 340.623 211.203 340.582 211.365 340.614L213.715 341.087C213.896 341.123 214.039 341.221 214.147 341.379C214.254 341.539 214.307 341.733 214.307 341.964V362.527C214.307 362.737 214.254 362.902 214.147 363.023C214.039 363.144 213.897 363.181 213.715 363.137L211.365 362.558C211.203 362.518 211.065 362.411 210.951 362.237Z" fill="#ED7474"/>
<path d="M219.62 362.71C218.346 360.939 217.678 358.608 217.612 355.713C217.595 355.095 217.587 354.194 217.587 353.01C217.587 351.802 217.595 350.894 217.612 350.284C217.679 347.482 218.363 345.466 219.671 344.228C220.986 342.984 222.776 342.587 225.05 343.042C227.328 343.498 229.161 344.634 230.536 346.454C231.92 348.283 232.649 350.661 232.72 353.578C232.755 354.853 232.773 355.795 232.773 356.406C232.773 356.995 232.755 357.918 232.72 359.176C232.649 362.126 231.938 364.193 230.59 365.369C229.247 366.539 227.398 366.831 225.05 366.251C222.707 365.674 220.902 364.491 219.62 362.71ZM227.798 361.874C228.475 361.17 228.842 359.923 228.894 358.139C228.928 356.846 228.946 355.972 228.946 355.519C228.946 355.02 228.928 354.14 228.894 352.876C228.842 351.089 228.468 349.682 227.77 348.66C227.077 347.639 226.168 347.014 225.049 346.781C223.917 346.545 223.012 346.791 222.333 347.515C221.653 348.235 221.297 349.467 221.263 351.209C221.246 351.824 221.238 352.685 221.238 353.795C221.238 354.882 221.246 355.747 221.263 356.392C221.297 358.149 221.648 359.537 222.319 360.56C222.99 361.585 223.9 362.237 225.049 362.513C226.204 362.79 227.121 362.577 227.798 361.874Z" fill="#ED7474"/>
<path d="M236.441 368.506C236.316 368.321 236.253 368.118 236.253 367.899V346.439C236.253 346.197 236.312 346.012 236.429 345.881C236.545 345.751 236.704 345.704 236.9 345.744L239.017 346.17C239.363 346.239 239.627 346.481 239.809 346.893L247.746 363.463V348.767C247.746 348.52 247.807 348.33 247.93 348.197C248.053 348.064 248.218 348.018 248.425 348.059L250.867 348.55C251.076 348.592 251.247 348.706 251.381 348.892C251.515 349.078 251.582 349.295 251.582 349.544V371.617C251.582 371.867 251.515 372.055 251.381 372.18C251.248 372.305 251.086 372.344 250.896 372.298L248.651 371.745C248.275 371.652 247.991 371.391 247.804 370.962L239.892 354.612V368.789C239.892 369.01 239.833 369.184 239.714 369.31C239.597 369.436 239.436 369.473 239.238 369.424L236.901 368.848C236.72 368.804 236.566 368.691 236.441 368.506Z" fill="#ED7474"/>
<path d="M288.437 282.927L287.692 416.485C297.757 414.566 378.646 363.523 382.374 359.685C386.101 355.846 384.985 230.35 384.985 230.35L288.437 282.927Z" fill="#E5B288"/>
<path d="M364.109 328.596C364.109 345.464 352.309 364.387 337.711 370.88C323.066 377.394 311.159 368.934 311.159 351.966C311.159 334.998 323.066 316.028 337.711 309.614C352.309 303.22 364.109 311.727 364.109 328.596Z" fill="white"/>
<path d="M319.748 354.099V342.252L355.604 326.449V338.249L319.748 354.099Z" fill="#E6605D"/>
<path d="M332.598 321.749L342.817 317.262V358.725L332.598 363.258V321.749Z" fill="#E6605D"/>
<path d="M384.983 230.352L288.437 282.929L120.694 230.352C120.694 230.352 121.065 273.661 121.878 311.184C154.563 326.369 243.421 366.89 252.918 363.14C264.58 358.534 288.437 302.503 288.437 302.503C288.437 302.503 336.151 353.162 341.743 353.546C345.397 353.797 368.647 344.922 384.323 338.741C385.622 302.084 384.983 230.352 384.983 230.352Z" fill="#E5B288"/>
<path d="M288.437 282.927C288.437 282.927 338.014 348.553 342.114 348.938C346.214 349.322 404.76 318.812 443.133 271.414C444.998 269.112 384.983 230.35 384.983 230.35C384.983 230.35 316.021 262.587 288.437 282.927Z" fill="#FCC692"/>
<path d="M120.694 230.352C120.694 230.352 63.2886 275.252 64.4067 277.172C65.5249 279.092 241.095 350.481 246.688 348.942C252.28 347.404 288.437 282.928 288.437 282.928C288.437 282.928 171.764 238.027 120.694 230.352Z" fill="#FCC692"/>
<path opacity="0.5" d="M219.571 258.105C211.138 255.237 202.403 252.339 193.659 249.541C187.416 256.783 181.946 265.018 176.974 273.087C168.633 286.417 161.899 300.609 155.634 315.059C164.496 318.6 173.357 322.116 181.884 325.467C188.963 310.869 195.626 296.01 202.287 281.317C203.986 277.501 211.913 264.416 219.571 258.105Z" fill="#E5B288"/>
<path d="M173.803 325.822C174.486 323.323 178.397 323.939 177.712 326.471C175.737 333.698 174.155 340.973 170.126 347.34C168.734 349.541 165.685 346.931 167.065 344.748C170.685 339.035 172.036 332.294 173.803 325.822Z" fill="#27AD97"/>
<path d="M166.875 325.788C167.758 323.321 171.355 325.027 170.474 327.481C168.408 333.247 166.586 339.159 162.583 343.869C160.908 345.84 157.842 343.257 159.527 341.272C163.295 336.848 164.933 331.205 166.875 325.788Z" fill="#27AD97"/>
<path d="M157.869 324.286C158.313 321.697 162.22 322.346 161.775 324.935C160.736 331.013 158.578 337.319 154.525 341.976C152.825 343.925 149.757 341.346 151.462 339.38C155.072 335.252 156.948 329.683 157.869 324.286Z" fill="#27AD97"/>
<path d="M153.45 321.328C151.916 326.872 148.986 331.935 147.929 337.617C147.448 340.195 143.538 339.553 144.023 336.968C145.085 331.245 148.001 326.244 149.543 320.679C150.231 318.181 154.146 318.803 153.45 321.328Z" fill="#27AD97"/>
<path d="M145.988 322.028C143.814 326.827 141.353 331.488 139.671 336.514C138.845 338.996 135.249 337.285 136.074 334.821C137.752 329.795 140.212 325.134 142.391 320.335C143.47 317.955 147.072 319.643 145.988 322.028Z" fill="#27AD97"/>
<path d="M139.27 316.743C137.281 322.27 134.318 327.391 133.255 333.237C132.781 335.815 128.874 335.178 129.349 332.588C130.479 326.36 133.556 320.93 135.671 315.05C136.56 312.586 140.156 314.289 139.27 316.743Z" fill="#27AD97"/>
<path d="M131.124 317.551C128.496 321.737 125.676 325.994 124.972 331.03C124.607 333.629 120.698 332.98 121.065 330.382C121.875 324.602 125.051 319.754 128.061 314.956C129.447 312.757 132.496 315.365 131.124 317.551Z" fill="#27AD97"/>
<path d="M123.203 314.355C120.651 319.068 118.334 323.919 116.912 329.132C116.225 331.63 112.314 331.013 113.003 328.483C114.529 322.894 116.862 317.719 119.601 312.662C120.84 310.383 124.45 312.052 123.203 314.355Z" fill="#27AD97"/>
<path d="M117.267 309.203C114.652 313.778 111.751 318.386 110.76 323.668C110.278 326.245 106.368 325.601 106.854 323.019C107.919 317.332 110.852 312.431 113.67 307.51C114.951 305.269 118.569 306.935 117.267 309.203Z" fill="#27AD97"/>
<path d="M107.713 305.961C109.032 303.759 112.651 305.424 111.31 307.658C108.624 312.141 106.294 316.708 105.37 321.942C104.909 324.525 101.003 323.881 101.461 321.292C102.448 315.693 104.83 310.769 107.713 305.961Z" fill="#27AD97"/>
<path d="M221.12 258.636C221.12 258.636 210.682 240.927 199.207 238.463C187.734 235.997 171.902 237.255 169.523 233.531C167.139 229.8 147.996 215.694 134.823 227.707C121.647 239.724 102.157 305.597 105.063 309.405C107.968 313.212 124.249 322.859 141.46 326.552C158.669 330.248 180.601 341.657 182.113 328.589C183.622 315.521 208.855 256.441 208.855 256.441C208.855 256.441 217.692 258.106 221.12 258.636Z" fill="#80E1D3"/>
<path opacity="0.4" d="M150.144 252.232C142.391 250.11 145.678 242.887 146.353 236.89C146.794 231.882 145.08 227.51 142.421 223.56C154.376 220.483 167.573 230.473 169.522 233.531C170.823 235.572 176.206 236.111 182.648 236.595C179.436 238.15 176.323 239.985 173.239 242.465C167.099 247.276 158.73 254.209 150.144 252.232Z" fill="#27AD97"/>
<path opacity="0.4" d="M184.551 290.698C187.076 279.74 189.426 268.193 194.011 257.855C196.607 251.628 200.905 244.842 208.394 246.922C210.828 247.59 213.128 248.9 215.322 250.512C218.87 254.832 221.121 258.635 221.121 258.635C217.694 258.106 208.856 256.441 208.856 256.441C208.856 256.441 183.624 315.52 182.115 328.588C181.659 332.516 179.338 334.208 175.875 334.583C176.451 330.476 176.989 326.345 177.711 322.305C179.625 311.8 182.374 301.156 184.551 290.698Z" fill="#27AD97"/>
<path d="M276.452 22.2559C259.743 22.2559 250.5 34.7006 250.5 34.7006C250.5 34.7006 241.257 22.2559 224.548 22.2559C207.84 22.2559 187.219 40.5567 198.596 70.57C209.972 100.583 250.5 117.421 250.5 117.421C250.5 117.421 291.028 100.583 302.405 70.57C313.782 40.5567 293.162 22.2559 276.452 22.2559Z" fill="#ED7474"/>
<path opacity="0.3" d="M274.336 86.5374C257.85 98.1683 240.525 102.249 225.603 102.954C238.422 112.392 250.5 117.421 250.5 117.421C250.5 117.421 291.028 100.583 302.405 70.5703C311.794 45.8025 299.391 29.0227 285.38 23.9102C285.38 23.9102 315.945 57.1876 274.336 86.5374Z" fill="#E6605D"/>
<path d="M203.836 74.2416C203.836 74.2416 192.288 51.2269 206.148 36.9576C220.007 22.6884 237.738 32.9912 237.738 32.9912C237.738 32.9912 200.37 34.9751 203.836 74.2416Z" fill="#EFBAA5"/>
<path d="M164.552 72.0957C156.593 72.0957 152.192 78.0234 152.192 78.0234C152.192 78.0234 147.79 72.0957 139.831 72.0957C131.873 72.0957 122.052 80.8123 127.471 95.1066C132.89 109.401 152.192 117.42 152.192 117.42C152.192 117.42 171.494 109.401 176.912 95.1066C182.33 80.8123 172.509 72.0957 164.552 72.0957Z" fill="#ED7474"/>
<path opacity="0.3" d="M163.543 102.712C155.691 108.251 147.44 110.194 140.333 110.53C146.438 115.026 152.19 117.42 152.19 117.42C152.19 117.42 171.493 109.401 176.911 95.1062C181.382 83.3098 175.475 75.3181 168.803 72.8828C168.803 72.8828 183.36 88.7334 163.543 102.712Z" fill="#E6605D"/>
<path d="M129.967 96.8563C129.967 96.8563 124.466 85.8951 131.068 79.0997C137.668 72.3043 146.114 77.2111 146.114 77.2111C146.114 77.2111 128.315 78.1541 129.967 96.8563Z" fill="#EFBAA5"/>
<path d="M357.357 105.45C349.398 105.45 344.996 111.377 344.996 111.377C344.996 111.377 340.594 105.45 332.636 105.449C324.678 105.449 314.858 114.166 320.276 128.46C325.695 142.754 344.996 150.774 344.996 150.774C344.996 150.774 364.299 142.754 369.717 128.46C375.134 114.166 365.314 105.45 357.357 105.45Z" fill="#ED7474"/>
<path opacity="0.3" d="M356.349 136.065C348.497 141.604 340.246 143.548 333.139 143.884C339.244 148.38 344.996 150.773 344.996 150.773C344.996 150.773 364.299 142.754 369.717 128.46C374.188 116.663 368.281 108.672 361.609 106.236C361.609 106.236 376.165 122.087 356.349 136.065Z" fill="#E6605D"/>
<path d="M322.771 130.209C322.771 130.209 317.271 119.248 323.873 112.452C330.473 105.656 338.918 110.562 338.918 110.562C338.918 110.562 321.12 111.508 322.771 130.209Z" fill="#EFBAA5"/>
</svg>
