<svg width="495" height="420" viewBox="0 0 495 420" fill="none" xmlns="http://www.w3.org/2000/svg">
<path d="M50.9842 328.356C-16.3421 216.084 -43.6733 79.7995 146.169 33.925C336.011 -11.9496 294.644 103.185 363.76 124.182C432.876 145.179 528.861 199.947 483.07 286.558C437.28 373.169 404.682 413.221 322.355 417.843C240.026 422.464 105.865 419.874 50.9842 328.356Z" fill="#4A75CB" fill-opacity="0.43"/>
<path d="M179.582 260.581L168.316 409.453L44.7031 376.09L56.1862 242.113L179.582 260.581Z" fill="#FFAC42"/>
<path d="M168.316 409.454L179.582 261.086L390.409 248.545V379.911L168.316 409.454Z" fill="#FFDC70"/>
<path d="M363.579 310.587L186.767 337.766L195.128 379.622L371.94 352.443L363.579 310.587Z" fill="white"/>
<path d="M221.043 347.99C218.478 346.893 215.363 347.085 212.723 347.853C211.245 348.282 209.859 348.956 208.641 349.814C208.614 349.645 208.581 349.478 208.554 349.31C208.312 347.805 206.428 346.621 204.724 346.952C202.923 347.303 201.779 348.7 202.037 350.311C203.04 356.578 204.35 362.803 205.964 368.972C206.351 370.449 207.985 371.681 209.794 371.329C211.47 371.002 212.896 369.555 212.481 367.97C211.282 363.39 210.253 358.779 209.392 354.142C210.644 352.639 212.402 351.502 214.477 350.998C216.796 350.436 219.555 350.559 221.047 352.422C222.5 354.235 222.222 356.566 221.306 358.514C220.192 360.886 218.101 362.812 216.121 364.651C215.387 365.334 215.141 366.332 215.889 367.105C216.522 367.761 217.946 367.997 218.686 367.309C222.608 363.665 227.078 359.157 225.861 353.719C225.313 351.278 223.618 349.093 221.043 347.99Z" fill="#FF664F"/>
<path d="M245.307 351.41C243.611 348.112 239.336 344.858 235.03 345.407C234.723 345.4 234.407 345.427 234.096 345.514C227.431 347.379 223.802 353.934 225.965 359.685C227.02 362.486 229.316 364.866 232.311 366.208C234.962 367.394 238.593 367.544 240.874 365.832C242.572 365.05 243.78 363.641 244.636 362.159C246.545 358.857 247.07 354.837 245.307 351.41ZM241.588 359.584C241.289 360.305 240.87 361.055 240.331 361.671C239.757 361.711 238.677 362.751 238.528 362.899C237.875 363.092 237.132 363.078 236.292 362.752C233.399 361.628 232.638 358.208 232.526 355.725C232.399 352.895 234.073 350.485 237.112 349.472C237.332 349.398 237.517 349.279 237.674 349.137C239.23 349.764 240.64 351.139 241.313 352.194C242.821 354.558 242.62 357.1 241.588 359.584Z" fill="#FF664F"/>
<path d="M340.625 333.217C338.928 329.918 334.654 326.665 330.348 327.213C330.04 327.207 329.724 327.233 329.413 327.32C322.748 329.186 319.119 335.741 321.282 341.492C322.337 344.292 324.634 346.673 327.629 348.014C330.279 349.201 333.911 349.351 336.192 347.639C337.889 346.857 339.098 345.447 339.953 343.966C341.861 340.663 342.386 336.645 340.625 333.217ZM336.905 341.392C336.606 342.113 336.186 342.862 335.647 343.479C335.073 343.519 333.993 344.559 333.844 344.707C333.191 344.899 332.448 344.886 331.608 344.56C328.715 343.435 327.954 340.015 327.843 337.532C327.715 334.703 329.389 332.293 332.428 331.28C332.649 331.206 332.833 331.086 332.99 330.944C334.546 331.571 335.956 332.946 336.628 334.001C338.137 336.365 337.936 338.907 336.905 341.392Z" fill="#FF664F"/>
<path d="M258.941 338.678C259.571 342.309 260.19 345.942 260.796 349.576C261.084 351.302 261.369 353.029 261.652 354.756C257.618 350.31 253.705 345.782 249.923 341.169C248.88 339.896 246.547 339.873 245.26 340.829C245.049 340.985 244.879 341.158 244.729 341.338C244.186 341.669 243.838 342.227 244 342.976C245.463 349.71 247.07 356.419 248.823 363.1C249.393 365.275 253.307 364.687 252.733 362.498C251.715 358.619 250.761 354.729 249.842 350.832C253.131 354.671 256.501 358.456 259.967 362.174C261.098 363.386 263.283 363.514 264.63 362.514C264.697 362.464 264.747 362.404 264.807 362.352C267.316 361.651 266.341 358.958 266.058 357.21C265.722 355.132 265.382 353.054 265.039 350.977C264.326 346.675 263.597 342.375 262.851 338.077C262.467 335.861 258.557 336.463 258.941 338.678Z" fill="#FF664F"/>
<path d="M354.258 320.487C354.888 324.118 355.506 327.751 356.112 331.385C356.4 333.111 356.685 334.838 356.968 336.565C352.935 332.119 349.022 327.591 345.239 322.978C344.196 321.705 341.863 321.682 340.576 322.638C340.366 322.794 340.195 322.967 340.045 323.147C339.501 323.478 339.153 324.036 339.316 324.785C340.778 331.519 342.385 338.228 344.138 344.909C344.709 347.084 348.622 346.497 348.048 344.307C347.031 340.428 346.077 336.538 345.158 332.641C348.446 336.48 351.816 340.265 355.283 343.983C356.414 345.195 358.599 345.323 359.946 344.323C360.012 344.273 360.063 344.213 360.123 344.161C362.631 343.461 361.657 340.767 361.374 339.019C361.037 336.941 360.698 334.863 360.354 332.786C359.642 328.484 358.912 324.184 358.167 319.886C357.783 317.669 353.874 318.272 354.258 320.487Z" fill="#FF664F"/>
<path d="M288.334 346.998C287.306 345.621 286.271 344.249 285.226 342.883C282.815 339.729 280.357 336.603 277.855 333.505C276.984 332.426 275.178 332.258 273.865 332.8C273.091 332.556 269.749 334.148 269.552 335.066C269.217 335.315 268.97 335.675 268.904 336.163C267.889 343.679 267.396 351.239 267.425 358.807C267.428 359.746 268.071 360.612 269.212 360.707C270.198 360.789 271.381 360.084 271.378 359.139C271.367 356.431 271.439 353.724 271.566 351.019C273.925 350.474 276.255 349.825 278.533 349.058C279.637 350.436 280.763 351.801 281.933 353.137C283.164 354.541 284.363 356.001 286.531 356.211C289.35 356.485 291.557 354.025 291.166 351.689C290.873 349.925 289.414 348.447 288.334 346.998ZM274.431 346.674C274.244 346.73 274.057 346.785 273.871 346.838C273.782 346.863 273.694 346.889 273.605 346.914C273.582 346.921 273.565 346.925 273.534 346.933C273.158 347.034 272.781 347.135 272.404 347.232C272.197 347.284 271.989 347.327 271.783 347.378C271.938 345.145 272.121 342.913 272.364 340.685C273.599 342.522 274.897 344.326 276.236 346.105C275.637 346.3 275.037 346.495 274.431 346.674Z" fill="#FF664F"/>
<path d="M302.525 332.57C297.259 332.584 292.009 332.985 286.82 333.77C285.763 333.93 284.884 334.591 284.95 335.607C285.005 336.464 285.98 337.408 287.043 337.247C288.574 337.015 290.112 336.827 291.652 336.663C291.655 336.753 291.642 336.839 291.657 336.931C292.496 341.903 293.334 346.876 294.172 351.848C294.424 353.346 295.771 354.75 297.662 354.581C299.313 354.433 301.049 353.127 300.778 351.52C299.94 346.547 299.102 341.575 298.263 336.602C298.238 336.455 298.195 336.311 298.15 336.168C299.681 336.098 301.214 336.051 302.748 336.047C303.821 336.044 304.676 335.113 304.618 334.211C304.555 333.227 303.601 332.567 302.525 332.57Z" fill="#FF664F"/>
<path d="M319.248 343.24C318.564 343.37 317.879 343.5 317.195 343.629C316.173 339.022 315.15 334.414 314.129 329.807C314.998 329.699 315.868 329.6 316.741 329.518C317.776 329.423 318.575 328.378 318.353 327.503C318.107 326.529 317.163 325.986 316.055 326.088C312.018 326.462 308.024 327.117 304.105 328.048C303.105 328.285 302.246 329.086 302.493 330.063C302.709 330.916 303.718 331.732 304.791 331.477C305.73 331.254 306.676 331.049 307.623 330.858C308.651 335.493 309.68 340.128 310.708 344.763C310.716 344.795 310.732 344.824 310.74 344.856C309.757 345.042 308.776 345.229 307.793 345.416C306.781 345.608 305.942 346.487 306.181 347.432C306.407 348.323 307.392 349.053 308.479 348.846C312.297 348.121 316.115 347.395 319.935 346.67C320.948 346.478 321.786 345.599 321.547 344.655C321.321 343.762 320.335 343.034 319.248 343.24Z" fill="#FF664F"/>
<path d="M129.252 142.533L126.08 167.372L166.342 179.214C166.342 179.214 134.321 221.202 102.821 209.718C71.3197 198.235 63.5469 166.654 63.5469 166.654L87.0631 162.706L98.0582 113.559L129.252 142.533Z" fill="#FFCDA8"/>
<path d="M92.8691 133.232C92.8691 133.232 107.477 155.545 125.844 158.327L128.426 148.279L92.8691 133.232Z" fill="black"/>
<path d="M125.844 158.559C125.829 158.559 125.814 158.558 125.798 158.556C107.519 155.788 92.7846 133.571 92.6383 133.347C92.5793 133.258 92.5946 133.146 92.6743 133.071C92.754 132.996 92.8806 132.974 92.9854 133.021L128.542 148.066C128.655 148.113 128.714 148.222 128.686 148.328L126.104 158.376C126.076 158.485 125.965 158.559 125.844 158.559ZM93.5574 133.782C96.1585 137.49 109.505 155.448 125.639 158.056L128.119 148.407L93.5574 133.782Z" fill="black"/>
<path d="M83.2222 51.9938C83.2222 51.9938 36.2433 46.7408 37.4801 89.2028C38.4963 124.087 75.8718 139.173 90.9329 148.009C97.3141 143.15 91.304 106.568 86.2786 96.7356C81.2509 86.9029 83.2222 51.9938 83.2222 51.9938Z" fill="#1B6CFF"/>
<path d="M160.135 100.485C160.343 108.193 150.366 114.29 145.279 114.396C140.191 114.501 141.919 108.576 141.712 100.868C141.503 93.1604 145.459 86.8254 150.547 86.7201C155.634 86.6138 159.927 92.7773 160.135 100.485Z" fill="#FFCDA8"/>
<path d="M145.146 114.632C144.087 114.632 143.279 114.374 142.681 113.847C141.169 112.513 141.265 109.586 141.387 105.879C141.437 104.367 141.493 102.654 141.445 100.874C141.234 93.0491 145.314 86.5945 150.54 86.4863C155.775 86.358 160.189 92.6556 160.402 100.48C160.614 108.33 150.452 114.523 145.286 114.631C145.238 114.631 145.191 114.632 145.146 114.632ZM150.676 86.9517C150.635 86.9517 150.595 86.9517 150.553 86.9526C145.622 87.0551 141.775 93.2952 141.979 100.861C142.027 102.653 141.97 104.373 141.92 105.89C141.802 109.486 141.708 112.325 143.059 113.516C143.574 113.971 144.294 114.178 145.273 114.161C150.262 114.058 160.074 108.074 159.869 100.49C159.666 92.9869 155.555 86.9517 150.676 86.9517Z" fill="black"/>
<path d="M147.162 100.374C147.162 100.374 146.899 90.2588 155.063 93.7508L147.162 100.374Z" fill="black"/>
<path d="M147.162 100.607C147.018 100.607 146.899 100.507 146.896 100.378C146.891 100.161 146.792 95.0202 149.822 93.3167C151.209 92.5373 153.012 92.612 155.181 93.5398C155.313 93.5963 155.367 93.7361 155.303 93.852C155.239 93.9688 155.076 94.0167 154.947 93.9592C152.956 93.109 151.33 93.0237 150.111 93.7093C147.331 95.271 147.428 100.316 147.429 100.368C147.432 100.497 147.315 100.603 147.168 100.606C147.166 100.607 147.164 100.607 147.162 100.607Z" fill="black"/>
<path d="M145.623 71.0999C155.116 89.9429 159.935 139.7 137.188 148.519C110.231 158.97 72.7447 121.878 63.2516 103.035C53.7585 84.192 64.5014 61.7689 87.2481 52.9493C109.994 44.1305 136.128 52.257 145.623 71.0999Z" fill="#FFCDA8"/>
<path d="M127.206 150.539C117.209 150.539 105.594 145.904 93.4985 136.94C78.7442 126.006 67.3495 111.748 63.0074 103.13C58.3858 93.9566 58.352 83.6623 62.9135 74.1427C67.4718 64.6279 76.0764 57.0252 87.1392 52.7365C98.202 48.4459 110.402 47.9844 121.493 51.4314C132.589 54.8813 141.245 61.8329 145.866 71.0049C150.941 81.078 154.188 98.5823 153.762 113.574C153.453 124.44 150.903 143.457 137.296 148.732C134.177 149.942 130.795 150.539 127.206 150.539ZM106.3 49.6121C99.8928 49.6121 93.4505 50.8004 87.3553 53.1636C76.417 57.4044 67.9117 64.919 63.4058 74.3246C58.9021 83.7246 58.9337 93.8876 63.4953 102.941C67.8145 111.513 79.1535 125.697 93.8435 136.584C110.116 148.644 125.474 152.806 137.082 148.305C150.42 143.134 152.924 124.318 153.231 113.563C153.656 98.6331 150.427 81.2111 145.381 71.1945C140.819 62.1403 132.273 55.2787 121.318 51.8728C116.462 50.3628 111.392 49.6121 106.3 49.6121Z" fill="black"/>
<path d="M135.04 120.224C134.957 120.224 134.875 120.188 134.826 120.123C134.749 120.019 134.782 119.88 134.9 119.813L139.982 116.909L125.802 94.7571C125.733 94.6499 125.777 94.5129 125.899 94.4526C126.02 94.3923 126.177 94.4296 126.246 94.5378L140.544 116.872C140.611 116.974 140.574 117.105 140.462 117.169L135.18 120.188C135.136 120.213 135.088 120.224 135.04 120.224Z" fill="black"/>
<path d="M134.174 86.1675C133.715 86.1675 133.291 85.9051 133.153 85.4991C132.985 85.0041 133.306 84.4832 133.87 84.3367L142.19 82.1603C142.753 82.0128 143.348 82.2943 143.515 82.7894C143.683 83.2844 143.362 83.8053 142.798 83.9518L134.478 86.1282C134.378 86.155 134.274 86.1675 134.174 86.1675Z" fill="black"/>
<path d="M101.835 93.9761C101.376 93.9761 100.952 93.7137 100.814 93.3087C100.646 92.8137 100.967 92.2928 101.53 92.1453L109.85 89.9689C110.415 89.8214 111.008 90.1029 111.176 90.597C111.344 91.092 111.023 91.6129 110.46 91.7604L102.14 93.9368C102.039 93.9627 101.935 93.9761 101.835 93.9761Z" fill="black"/>
<path d="M139.854 127.758C132.648 138.574 121.951 130.021 121.951 130.021L139.854 127.758Z" fill="white"/>
<path d="M130.716 133.465C125.924 133.465 121.953 130.339 121.771 130.193C121.694 130.132 121.665 130.038 121.695 129.952C121.726 129.866 121.81 129.803 121.913 129.789L139.815 127.526C139.912 127.513 140.016 127.552 140.074 127.626C140.131 127.701 140.134 127.797 140.083 127.874C137.931 131.103 135.252 132.953 132.12 133.372C131.647 133.436 131.178 133.465 130.716 133.465ZM122.583 130.176C123.886 131.077 127.831 133.478 132.043 132.91C134.871 132.531 137.322 130.898 139.335 128.058L122.583 130.176Z" fill="black"/>
<path d="M114.034 103.307C114.367 104.064 113.937 104.914 113.073 105.206C112.21 105.498 111.24 105.121 110.908 104.364C110.575 103.606 111.005 102.756 111.868 102.464C112.732 102.172 113.701 102.55 114.034 103.307Z" fill="black"/>
<path d="M142.173 96.668C142.506 97.4254 142.076 98.2757 141.213 98.5677C140.349 98.8597 139.38 98.4825 139.047 97.7251C138.714 96.9677 139.144 96.1174 140.008 95.8254C140.871 95.5333 141.84 95.9106 142.173 96.668Z" fill="black"/>
<path d="M68.0333 130.071C73.7748 135.909 85.8352 134.558 89.6884 131.642C93.5415 128.727 87.728 125.349 81.9864 119.511C76.2449 113.674 68.4666 111.305 64.6134 114.22C60.7603 117.136 62.2917 124.233 68.0333 130.071Z" fill="#FFCDA8"/>
<path d="M77.5677 122.352C77.5677 122.352 70.0252 114.697 66.6436 122.092L77.5677 122.352Z" fill="black"/>
<path d="M77.568 122.585C77.4937 122.585 77.4195 122.557 77.366 122.504C77.3278 122.465 73.5424 118.676 70.2852 119.145C68.8574 119.354 67.7157 120.375 66.8905 122.177C66.8348 122.297 66.6787 122.352 66.5445 122.307C66.408 122.259 66.3414 122.123 66.396 122.004C67.2944 120.039 68.5736 118.923 70.1979 118.684C73.7497 118.156 77.6062 122.033 77.7688 122.198C77.8649 122.296 77.8529 122.443 77.7415 122.528C77.6913 122.566 77.6291 122.585 77.568 122.585Z" fill="black"/>
<path d="M129.744 51.3407C137.184 40.9319 134.662 27.7898 124.112 21.9871C113.562 16.1843 98.9784 19.9183 91.5385 30.3271C84.0986 40.7358 86.6199 53.8779 97.17 59.6806C107.72 65.4834 122.304 61.7495 129.744 51.3407Z" fill="#1B6CFF"/>
<path d="M61.0642 70.6688C68.5041 60.26 65.9827 47.118 55.4326 41.3152C44.8825 35.5125 30.2987 39.2464 22.8588 49.6552C15.4189 60.064 17.9403 73.206 28.4904 79.0088C39.0405 84.8115 53.6243 81.0776 61.0642 70.6688Z" fill="#1B6CFF"/>
<path d="M79.9742 38.3873C93.0226 33.753 107.695 34.1934 130.11 44.84C151.93 53.969 153.095 72.9852 151.896 79.0559C140.839 76.6458 136.546 74.2166 117.543 78.038C98.5403 81.8595 87.6336 92.5281 84.0337 95.6017C81.5439 97.7274 80.3465 100.394 82.8232 111.432C83.6484 115.108 88.8005 126.403 86.7527 126.45C84.705 126.498 67.2905 114.384 60.7424 104.566C54.1942 94.7476 26.7724 57.2858 79.9742 38.3873Z" fill="#1B6CFF"/>
<path d="M131.455 45.8499C131.407 45.8499 131.358 45.8374 131.315 45.8125C119.009 38.7059 102.531 37.8288 89.3389 43.5796C89.2134 43.6342 89.0605 43.5901 88.9961 43.4791C88.9339 43.368 88.9852 43.234 89.1119 43.1794C102.466 37.3615 119.142 38.2472 131.596 45.4391C131.714 45.5071 131.746 45.6459 131.669 45.7493C131.619 45.8145 131.538 45.8499 131.455 45.8499Z" fill="black"/>
<path d="M43.7494 81.5288C43.649 81.5288 43.5529 81.4751 43.5126 81.389C43.4602 81.2741 43.5235 81.1438 43.6534 81.0979C49.8762 78.8975 55.1178 74.8625 58.4132 69.736C61.7086 64.6095 62.9311 58.5867 61.857 52.7775C61.8341 52.6559 61.928 52.54 62.0677 52.5208C62.2052 52.4998 62.3373 52.5831 62.3602 52.7056C63.4539 58.6154 62.2096 64.7426 58.8586 69.9562C55.5075 75.1709 50.1753 79.2748 43.8455 81.5134C43.8138 81.523 43.7822 81.5288 43.7494 81.5288Z" fill="black"/>
<path d="M140.84 75.9112C140.723 75.9112 140.616 75.8394 140.591 75.735C139.014 69.4058 136.911 64.7475 133.558 60.1581C129.609 54.751 123.91 50.9641 117.924 49.7691C117.787 49.7413 117.7 49.6216 117.732 49.501C117.764 49.3813 117.897 49.3028 118.038 49.3325C124.153 50.5533 129.967 54.4121 133.988 59.9168C137.374 64.5531 139.499 69.2555 141.089 75.6392C141.12 75.7599 141.032 75.8796 140.895 75.9054C140.876 75.9102 140.858 75.9112 140.84 75.9112Z" fill="black"/>
<path d="M121.524 76.9184C121.414 76.9184 121.312 76.8552 121.28 76.7575C119.551 71.608 116.04 66.8473 111.394 63.3514C111.287 63.2709 111.275 63.1302 111.366 63.0354C111.457 62.9415 111.617 62.9301 111.726 63.0114C116.446 66.5629 120.012 71.3993 121.769 76.6302C121.809 76.7489 121.732 76.8724 121.596 76.9079C121.572 76.9155 121.548 76.9184 121.524 76.9184Z" fill="black"/>
<path d="M96.6098 84.6249C96.482 84.6249 96.3718 84.5407 96.3576 84.4258C95.4549 77.4417 91.9783 70.741 86.5676 65.5579C86.4726 65.467 86.4802 65.3253 86.5839 65.242C86.6876 65.1596 86.8492 65.1644 86.9441 65.2563C92.427 70.5083 95.9505 77.299 96.8641 84.376C96.8805 84.4986 96.7789 84.6096 96.6403 84.623C96.6305 84.624 96.6196 84.6249 96.6098 84.6249Z" fill="black"/>
<path d="M73.0109 54.1951C72.9345 54.1951 72.8581 54.1645 72.8068 54.1061C72.7216 54.0074 72.7435 53.8676 72.8559 53.792C78.6869 49.9227 86.6432 48.6224 93.6738 50.3804C96.013 46.4603 100.074 43.3781 104.845 41.9054C104.979 41.8642 105.123 41.9255 105.17 42.0423C105.217 42.1591 105.147 42.2865 105.014 42.3277C100.298 43.7831 96.2946 46.8529 94.0297 50.749C93.974 50.8457 93.8474 50.8907 93.7306 50.862C86.8036 49.0667 78.9227 50.3267 73.1626 54.1501C73.119 54.1798 73.0655 54.1951 73.0109 54.1951Z" fill="black"/>
<path d="M67.4932 113.262C67.4561 113.262 67.4201 113.255 67.3851 113.241C62.3193 111.175 57.63 106.972 55.1479 102.272C52.7552 97.7417 52.2476 92.3825 53.7551 87.5671C53.7922 87.4484 53.9297 87.3776 54.0683 87.4111C54.2037 87.4436 54.2834 87.5671 54.2462 87.6859C52.7705 92.4007 53.2682 97.6479 55.6096 102.084C58.0022 106.615 62.4841 110.674 67.3513 112.733C70.2057 106.174 75.3763 100.374 81.9452 96.3658C79.8997 91.018 76.827 85.767 73.0524 81.171C72.9695 81.0704 72.9957 80.9306 73.1103 80.8588C73.2249 80.787 73.3843 80.8081 73.4661 80.9095C77.3084 85.588 80.4291 90.9386 82.491 96.3839C82.527 96.4787 82.4866 96.5822 82.3939 96.6387C75.7584 100.646 70.5517 106.497 67.7323 113.117C67.7072 113.176 67.6558 113.223 67.5904 113.247C67.5587 113.256 67.526 113.262 67.4932 113.262Z" fill="black"/>
<path d="M46.5007 60.073C46.4527 60.073 46.4036 60.0605 46.3599 60.0356C46.2431 59.9676 46.2104 59.8288 46.289 59.7254C48.6893 56.5531 50.7687 53.6595 51.9137 50.359C53.2083 46.6256 52.9201 42.9104 51.1223 40.1653C51.0525 40.058 51.094 39.922 51.2162 39.8598C51.3385 39.7985 51.4935 39.8349 51.5644 39.9421C53.432 42.7936 53.7366 46.6371 52.4016 50.4882C51.2369 53.8462 49.1368 56.7705 46.7136 59.9724C46.6645 60.0375 46.5826 60.073 46.5007 60.073Z" fill="black"/>
<path d="M30.2359 79.4875C30.1311 79.4875 30.034 79.431 29.9958 79.34C29.9478 79.2232 30.0165 79.0958 30.1486 79.0537C38.2358 76.4866 45.2435 71.5726 49.8815 65.2186C49.9579 65.1132 50.1162 65.0845 50.2341 65.1506C50.3531 65.2176 50.388 65.3555 50.3116 65.4599C45.6136 71.8963 38.5142 76.8734 30.3222 79.4741C30.2949 79.4827 30.2654 79.4875 30.2359 79.4875Z" fill="black"/>
<path d="M90.9055 30.7829C90.828 30.7829 90.7516 30.7513 90.7014 30.6929C90.6173 30.5942 90.6391 30.4535 90.7527 30.3797C99.5658 24.5839 111.862 23.1716 122.079 26.7814C122.21 26.8274 122.273 26.9585 122.22 27.0725C122.168 27.1874 122.019 27.241 121.888 27.196C111.834 23.6455 99.7328 25.0339 91.0583 30.7379C91.0124 30.7675 90.959 30.7829 90.9055 30.7829Z" fill="black"/>
<path d="M133.521 41.2301C133.446 41.2301 133.371 41.2004 133.32 41.1439C129.008 36.2797 122.248 33.1687 115.236 32.8202C115.095 32.8135 114.987 32.7072 114.996 32.5837C115.004 32.4611 115.132 32.375 115.265 32.373C122.422 32.7283 129.322 35.9044 133.724 40.8681C133.811 40.9658 133.791 41.1065 133.68 41.1822C133.632 41.2147 133.577 41.2301 133.521 41.2301Z" fill="black"/>
<path d="M58.4671 109.329C58.4671 109.329 58.4649 109.329 58.4627 109.328C54.2111 109.269 49.9181 107.034 47.258 103.495C45.0269 100.524 43.8535 96.7451 43.7705 92.2601C43.7684 92.1366 43.8808 92.0351 44.0216 92.0332H44.026C44.1646 92.0332 44.2781 92.1318 44.2803 92.2534C44.3622 96.6523 45.5072 100.351 47.6848 103.25C50.2521 106.667 54.3858 108.825 58.4714 108.882C58.6123 108.884 58.7247 108.985 58.7214 109.109C58.7203 109.231 58.6068 109.329 58.4671 109.329Z" fill="black"/>
<path d="M57.8376 118.787C57.8245 118.787 57.8114 118.786 57.7972 118.784C53.9288 118.255 50.3594 116.211 48.2495 113.317C48.1731 113.213 48.208 113.075 48.327 113.008C48.4438 112.942 48.6032 112.971 48.6796 113.076C50.712 115.864 54.1504 117.833 57.8769 118.343C58.0155 118.362 58.1116 118.477 58.0898 118.599C58.069 118.708 57.961 118.787 57.8376 118.787Z" fill="black"/>
<path d="M149.889 74.9045C149.889 74.9045 156.785 89.0173 152.796 99.8669C152.796 99.8669 150.558 84.8837 147.964 79.0572C145.369 73.2308 149.889 74.9045 149.889 74.9045Z" fill="#1B6CFF"/>
<path d="M79.0193 161.408C79.0193 161.408 100.928 173.945 114.6 174.882C140.431 173.123 136.723 169.796 136.723 169.796C136.723 169.796 168.738 175.531 175.61 183.532C186.016 195.646 178.935 282.184 178.935 282.184C178.935 282.184 70.3611 286.933 55.1254 286.933C55.1254 286.933 60.6388 254.567 57.8324 250.347C55.0261 246.126 13.7439 241.385 14.1445 237.516C14.4294 234.765 19.2267 196.688 41.9636 172.404C56.1853 164.549 64.3315 161.963 79.0193 161.408Z" fill="#FF664F"/>
<path d="M56.1862 242.337C56.1611 242.337 56.1349 242.334 56.1087 242.327C55.9744 242.289 55.9002 242.164 55.9428 242.046L64.6751 217.867C65.3464 216.009 66.3998 214.117 67.8941 212.087C70.5858 208.432 75.5414 194.375 72.5233 184.892C70.1121 177.319 64.4393 173.931 60.1059 172.422C53.5217 170.13 45.6321 170.729 42.0976 172.599C41.9787 172.66 41.8204 172.628 41.7473 172.522C41.6752 172.417 41.7134 172.279 41.8346 172.215C44.9739 170.553 52.7773 169.39 60.2937 172.007C64.7352 173.552 70.5465 177.022 73.0145 184.772C76.073 194.381 71.0508 208.625 68.3231 212.33C66.8527 214.326 65.8191 216.181 65.1619 218.001L56.4296 242.18C56.3947 242.276 56.2943 242.337 56.1862 242.337Z" fill="black"/>
<path d="M162.176 239.841C162.14 239.841 162.104 239.834 162.069 239.821C161.941 239.769 161.885 239.637 161.943 239.524C164.519 234.624 172.238 218.701 171.325 217.539C169.643 215.398 168.069 212.029 166.403 208.462C164.306 203.972 162.138 199.329 159.625 196.937C159.554 196.869 159.537 196.769 159.583 196.686C161.33 193.587 162.41 190.128 162.708 186.682C162.719 186.558 162.854 186.463 162.982 186.476C163.123 186.485 163.228 186.593 163.217 186.716C162.919 190.168 161.848 193.634 160.117 196.748C162.64 199.229 164.792 203.835 166.874 208.294C168.53 211.838 170.094 215.186 171.744 217.287C173.081 218.988 162.514 239.507 162.406 239.713C162.365 239.793 162.272 239.841 162.176 239.841Z" fill="black"/>
<path d="M102.364 183.561L109.824 189.595C114.251 193.175 121.198 192.753 125.021 188.674L128.449 185.016L114.022 174.764L102.364 183.561Z" fill="white"/>
<path d="M116.434 196.415C104.624 196.415 97.572 186.914 97.5021 186.818C97.4257 186.714 97.4618 186.576 97.5797 186.509C97.6975 186.443 97.8558 186.473 97.9322 186.577C98.001 186.671 104.908 195.967 116.435 195.967C127.908 195.967 130.629 186.678 130.656 186.584C130.689 186.465 130.825 186.392 130.964 186.42C131.101 186.45 131.185 186.57 131.151 186.691C131.123 186.788 128.302 196.415 116.434 196.415Z" fill="black"/>
<path d="M132.067 161.642L126.762 159.51L124.831 167.145L132.067 161.642Z" fill="#2C4A62"/>
<path d="M142.736 165.552L132.009 161.448C131.819 161.375 131.593 161.404 131.433 161.525L114.021 174.765C113.897 174.859 113.828 174.998 113.833 175.143C113.839 175.287 113.918 175.422 114.051 175.509L132.657 187.794C132.753 187.858 132.868 187.891 132.986 187.891C133.036 187.891 133.086 187.885 133.135 187.873C133.299 187.833 133.432 187.727 133.494 187.587L143.027 166.165C143.134 165.926 143.005 165.656 142.736 165.552Z" fill="white"/>
<path d="M132.986 188.13C132.808 188.13 132.638 188.08 132.494 187.986L113.887 175.7C113.689 175.568 113.57 175.368 113.562 175.15C113.553 174.934 113.656 174.727 113.844 174.583L131.256 161.343C131.494 161.163 131.833 161.118 132.119 161.227L142.847 165.332C143.252 165.487 143.442 165.89 143.281 166.251L133.749 187.672C133.656 187.881 133.454 188.042 133.21 188.102C133.136 188.121 133.06 188.13 132.986 188.13ZM131.792 161.646C131.726 161.646 131.662 161.666 131.611 161.706L114.199 174.945C114.137 174.993 114.103 175.062 114.107 175.134C114.11 175.207 114.149 175.274 114.215 175.317L132.821 187.603C132.89 187.648 132.976 187.665 133.06 187.643C133.141 187.623 133.209 187.569 133.239 187.499L142.772 166.079C142.825 165.959 142.762 165.824 142.627 165.772L131.899 161.667C131.866 161.653 131.829 161.646 131.792 161.646Z" fill="black"/>
<path d="M114.945 174.514L88.6378 155.741C88.4795 155.627 88.2612 155.601 88.0757 155.673L77.348 159.779C77.2039 159.834 77.0936 159.941 77.0467 160.072C76.9987 160.203 77.0172 160.346 77.098 160.464L95.5254 187.418C95.6051 187.535 95.7372 187.616 95.8889 187.641C95.9238 187.647 95.9588 187.65 95.9937 187.65C96.1105 187.65 96.2262 187.617 96.3223 187.553L114.929 175.267C115.063 175.179 115.143 175.042 115.146 174.894C115.15 174.747 115.076 174.606 114.945 174.514Z" fill="white"/>
<path d="M95.994 187.888C95.9416 187.888 95.8881 187.884 95.8368 187.874C95.6097 187.835 95.4111 187.713 95.2921 187.539L76.8647 160.585C76.7435 160.408 76.7151 160.193 76.7872 159.997C76.8581 159.801 77.0229 159.64 77.2391 159.558L87.9667 155.452C88.2495 155.342 88.5726 155.383 88.8116 155.554L115.118 174.327L115.117 174.326C115.314 174.466 115.425 174.674 115.419 174.897C115.415 175.116 115.292 175.325 115.093 175.457L96.4862 187.744C96.3465 187.836 96.1719 187.888 95.994 187.888ZM88.2942 155.87C88.2571 155.87 88.2211 155.876 88.1862 155.89L77.4585 159.996C77.3864 160.024 77.3308 160.078 77.3078 160.143C77.2838 160.209 77.2926 160.281 77.3329 160.339L95.7604 187.294C95.7997 187.352 95.8663 187.393 95.9427 187.406C96.0464 187.408 96.1118 187.394 96.1588 187.362L114.765 175.076C114.832 175.032 114.872 174.962 114.874 174.889C114.875 174.816 114.839 174.746 114.774 174.7L114.773 174.699L88.4656 155.926C88.4176 155.888 88.3553 155.87 88.2942 155.87Z" fill="black"/>
<path d="M18.9816 240.309C18.9816 240.309 28.1909 242.219 48.4631 246.778C48.4631 246.778 44.1493 267.814 43.7487 273.089C43.3481 278.365 52.8696 342.023 52.8696 342.023C52.8696 342.023 60.0869 340.265 65.299 347.65C70.5111 355.035 83.8673 364.057 85.0701 368.278C86.273 372.498 80.6603 372.146 77.4523 370.739C74.2453 369.333 68.9077 365.587 68.9077 365.587C68.9077 365.587 77.6553 383.782 79.6604 385.54C81.6656 387.299 88.0806 387.65 89.2824 389.76C90.4853 391.871 89.2824 394.684 89.2824 394.684C89.2824 394.684 74.0466 392.925 72.4432 391.87C70.8397 390.815 53.1982 385.891 50.3918 380.967C47.5855 376.042 40.0407 353.98 40.0407 353.98C40.0407 353.98 8.86844 284.494 10.4719 275.274C12.0754 266.056 18.9816 240.309 18.9816 240.309Z" fill="#FFCDA8"/>
<path d="M73.3338 392.219C73.2508 392.219 73.1689 392.183 73.1198 392.118C68.4928 385.908 67.1523 383.193 65.1526 375.984C65.1199 375.863 65.2029 375.743 65.3404 375.714C65.479 375.683 65.6155 375.758 65.6482 375.878C67.6315 383.025 68.9599 385.715 73.5477 391.873C73.6241 391.976 73.5914 392.115 73.4735 392.182C73.4309 392.207 73.3818 392.219 73.3338 392.219Z" fill="black"/>
<path d="M61.6294 387.733C61.5399 387.733 61.4526 387.692 61.4067 387.618C58.3864 382.856 57.4444 379.904 57.2043 374.456C57.1988 374.333 57.308 374.229 57.4488 374.225C57.6136 374.23 57.7086 374.317 57.7141 374.44C57.9509 379.805 58.8798 382.712 61.8532 387.402C61.9219 387.509 61.8772 387.646 61.7549 387.705C61.7135 387.725 61.6709 387.733 61.6294 387.733Z" fill="black"/>
<path d="M70.7108 367.744C70.6159 367.744 70.5253 367.697 70.4816 367.617L66.873 361.022C66.8118 360.91 66.8653 360.776 66.9919 360.722C67.1186 360.671 67.2714 360.717 67.3314 360.827L70.94 367.422C71.0012 367.534 70.9477 367.668 70.8211 367.722C70.7861 367.737 70.749 367.744 70.7108 367.744Z" fill="black"/>
<path d="M51.8729 383.039C51.7518 383.039 51.6437 382.962 51.623 382.854L49.6757 373.015C49.6516 372.893 49.7444 372.777 49.883 372.756C50.0195 372.739 50.1538 372.817 50.1778 372.938L52.1251 382.778C52.1491 382.899 52.0563 383.015 51.9177 383.037C51.9024 383.038 51.8882 383.039 51.8729 383.039Z" fill="black"/>
<path d="M56.1855 242.11L273.636 236.99L390.408 248.541L179.581 261.082L56.1855 242.11Z" fill="#FDE4BB"/>
<path d="M179.582 261.084L206.882 307.508L390.409 286.934L179.582 261.084Z" fill="black"/>
<path d="M206.882 307.741C206.783 307.741 206.69 307.692 206.645 307.615L179.345 261.19C179.299 261.113 179.307 261.019 179.365 260.947C179.423 260.876 179.52 260.844 179.619 260.85L390.446 286.701C390.578 286.718 390.677 286.816 390.676 286.933C390.674 287.051 390.575 287.15 390.443 287.164L206.915 307.738C206.903 307.74 206.892 307.741 206.882 307.741ZM180.055 261.376L207.033 307.255L388.4 286.923L180.055 261.376Z" fill="black"/>
<path d="M446.595 288.089L233.796 307.509L179.582 261.085L390.409 248.543L446.595 288.089Z" fill="#FF664F"/>
<path d="M179.582 261.086L158.863 305.457L72.7695 283.272L179.582 261.086Z" fill="black"/>
<path d="M158.863 305.69C158.838 305.69 158.812 305.687 158.787 305.681L72.6941 283.494C72.5783 283.464 72.4998 283.37 72.503 283.263C72.5063 283.158 72.5904 283.067 72.7082 283.043L179.52 260.857C179.616 260.834 179.719 260.866 179.784 260.933C179.85 260.999 179.866 261.092 179.828 261.173L159.108 305.546C159.067 305.635 158.967 305.69 158.863 305.69ZM73.8085 283.294L158.707 305.173L179.139 261.417L73.8085 283.294Z" fill="black"/>
<path d="M0 281.66L125.368 307.51L179.582 261.086L56.1861 242.113L0 281.66Z" fill="#FFDC70"/>
<path d="M345.09 209.803C347.461 209.364 349.995 208.974 352.252 209.75C356.358 211.161 357.649 215.551 359.672 218.988C363.179 224.949 369.965 228.896 374.215 234.473C375.463 236.111 376.516 238.106 375.904 240.003C375.082 242.55 371.758 243.687 368.825 244.311C350.596 248.186 330.79 246.046 314.178 238.406C310.454 236.693 306.743 234.588 304.655 231.387C303.105 229.011 302.719 225.935 303.997 223.401C305.142 221.132 306.977 220.558 309.433 219.653C316.793 216.938 324.305 214.576 331.984 212.652C336.312 211.569 340.685 210.617 345.09 209.803Z" fill="#FFDC6E"/>
<path d="M240.486 220.017C250.322 219.841 260.091 221.499 269.595 223.729C273.66 224.683 277.977 225.909 280.507 228.859C283.441 232.281 283.043 237.333 280.365 240.914C277.687 244.495 273.132 246.733 268.416 247.836C263.699 248.938 258.763 249.028 253.883 249.141C246.581 249.31 239.205 249.539 232.039 248.3C224.872 247.061 217.816 244.191 213.264 239.179C210.929 236.608 209.074 232.835 209.998 229.493C210.715 226.899 213.174 226.464 215.65 225.403C223.539 222.023 231.676 220.174 240.486 220.017Z" fill="#176CFF"/>
<path d="M355.666 236.566C366.436 237.374 377.207 238.182 387.978 238.989C389.956 239.137 391.986 239.298 393.765 240.069C397.251 241.58 398.957 245 400.777 248.015C403.318 252.225 406.58 256.098 410.42 259.464C412.147 260.978 414.017 262.421 415.238 264.276C416.459 266.131 416.919 268.545 415.683 270.393C414.153 272.679 410.521 273.295 407.64 272.493C404.758 271.693 402.455 269.82 400.255 268.002C403.385 276.347 405.335 284.524 406.86 293.207C407.386 296.203 407.661 299.662 405.285 301.862C402.57 304.377 397.47 303.756 394.697 301.292C391.925 298.827 391.07 295.142 391.08 291.68C390.502 294.032 390.747 297.173 390.918 299.574C391.09 301.974 390.413 304.748 388.011 305.91C386.663 306.562 385.045 306.565 383.504 306.55C382.505 306.541 381.441 306.516 380.609 306.03C379.599 305.441 379.189 304.335 378.891 303.303C377.713 299.23 377.223 295.005 377.439 290.807C377.291 294.324 376.283 298.183 376.135 301.7C376.087 302.845 375.992 304.094 375.111 304.938C374.226 305.784 372.806 305.975 371.502 306.071C370.012 306.182 368.443 306.225 367.096 305.655C364.971 304.756 363.963 302.571 363.688 300.515C363.412 298.459 363.676 296.355 363.203 294.328C363.09 296.556 362.68 298.487 361.695 300.543C360.711 302.599 358.673 304.415 356.147 304.665C354.46 304.831 352.728 304.269 351.457 303.281C350.185 302.293 349.357 300.91 348.98 299.457C348.586 297.935 348.67 296.321 349.221 294.839C352.076 287.158 348.886 278.867 348.945 270.788C348.964 268.189 348.951 265.469 347.569 263.17C345.008 258.908 338.757 257.547 335.031 254.007C338.026 245.698 346.136 239.027 355.666 236.566Z" fill="#1B6CFF"/>
<path d="M359.84 296.26C359.834 296.26 359.829 296.26 359.823 296.26L349.599 296.126C348.995 296.117 348.515 295.683 348.524 295.154C348.533 294.625 348.998 294.228 349.631 294.211L359.856 294.345C360.46 294.354 360.94 294.788 360.931 295.317C360.921 295.842 360.436 296.26 359.84 296.26Z" fill="white"/>
<path d="M373.676 296.939C373.659 296.939 373.644 296.939 373.628 296.938L365.207 296.619C364.604 296.596 364.138 296.15 364.163 295.622C364.189 295.093 364.701 294.681 365.3 294.706L373.722 295.025C374.324 295.047 374.79 295.494 374.765 296.023C374.739 296.537 374.257 296.939 373.676 296.939Z" fill="white"/>
<path d="M381.89 297.597C381.298 297.597 380.812 297.183 380.798 296.661C380.784 296.132 381.262 295.694 381.865 295.682L389.683 295.525C389.692 295.525 389.701 295.525 389.708 295.525C390.3 295.525 390.786 295.94 390.8 296.462C390.814 296.99 390.336 297.429 389.732 297.44L381.914 297.597C381.906 297.597 381.897 297.597 381.89 297.597Z" fill="white"/>
<path d="M396.544 296.733C396.101 296.733 395.683 296.495 395.521 296.108C395.311 295.613 395.599 295.061 396.166 294.878C398.88 293.997 401.707 293.357 404.569 292.975C405.164 292.891 405.722 293.254 405.813 293.777C405.903 294.3 405.494 294.788 404.898 294.868C402.183 295.231 399.499 295.839 396.922 296.675C396.798 296.714 396.67 296.733 396.544 296.733Z" fill="white"/>
<path d="M361.657 289.415C361.586 289.415 361.513 289.409 361.44 289.396C357.97 288.78 354.421 288.574 350.893 288.784C350.304 288.809 349.772 288.421 349.73 287.893C349.69 287.365 350.145 286.909 350.746 286.873C354.467 286.656 358.214 286.87 361.873 287.518C362.464 287.623 362.847 288.129 362.727 288.647C362.621 289.102 362.166 289.415 361.657 289.415Z" fill="white"/>
<path d="M366.052 289.62C365.458 289.62 364.972 289.202 364.96 288.68C364.949 288.152 365.429 287.715 366.031 287.704L376.856 287.527C377.454 287.544 377.956 287.939 377.968 288.467C377.979 288.995 377.5 289.432 376.897 289.442L366.072 289.62C366.066 289.62 366.058 289.62 366.052 289.62Z" fill="white"/>
<path d="M380.685 290.182C380.108 290.182 379.626 289.786 379.595 289.276C379.565 288.747 380.027 288.297 380.628 288.268L388.247 287.918C388.874 287.885 389.362 288.296 389.395 288.824C389.426 289.352 388.963 289.802 388.362 289.831L380.743 290.181C380.724 290.182 380.704 290.182 380.685 290.182Z" fill="white"/>
<path d="M395.12 290.185C394.608 290.185 394.151 289.868 394.05 289.411C393.936 288.892 394.321 288.389 394.913 288.288L403.537 286.814C403.789 286.574 404.176 286.452 404.564 286.525L405.099 286.623C405.608 286.716 405.971 287.111 405.968 287.567C405.965 288.022 405.595 288.413 405.085 288.5L395.329 290.167C395.26 290.18 395.189 290.185 395.12 290.185Z" fill="white"/>
<path d="M402.943 281.899C402.859 281.899 402.774 281.89 402.689 281.873C385.767 278.322 367.75 277.775 350.592 280.287C349.998 280.377 349.435 280.022 349.335 279.501C349.236 278.979 349.638 278.486 350.232 278.399C367.681 275.844 385.994 276.403 403.195 280.011C403.782 280.135 404.143 280.651 404.003 281.165C403.884 281.603 403.437 281.899 402.943 281.899Z" fill="white"/>
<path d="M349.657 269.334C349.234 269.334 348.832 269.117 348.654 268.756C348.415 268.271 348.671 267.708 349.223 267.497C364.801 261.586 383.451 261.503 399.102 267.272C399.658 267.477 399.918 268.038 399.685 268.526C399.45 269.014 398.808 269.244 398.255 269.038C383.139 263.467 365.132 263.549 350.087 269.256C349.948 269.308 349.8 269.334 349.657 269.334Z" fill="white"/>
<path d="M345.743 258.904C345.303 258.904 344.888 258.669 344.721 258.287C344.508 257.792 344.791 257.239 345.355 257.052C360.847 251.903 378.08 251.48 393.878 255.863C394.452 256.022 394.771 256.56 394.588 257.065C394.407 257.569 393.797 257.852 393.218 257.688C377.886 253.435 361.164 253.844 346.128 258.843C346.002 258.885 345.872 258.904 345.743 258.904Z" fill="white"/>
<path d="M336.413 255.469C336.05 255.469 335.695 255.311 335.487 255.022C335.166 254.574 335.32 253.983 335.83 253.7C352.011 244.766 372.089 241.316 390.917 244.231C391.51 244.323 391.907 244.819 391.802 245.339C391.697 245.86 391.129 246.209 390.538 246.116C372.233 243.284 352.72 246.637 336.994 255.322C336.812 255.421 336.61 255.469 336.413 255.469Z" fill="white"/>
<path d="M344.588 243.182C344.113 243.182 343.678 242.91 343.539 242.49C343.372 241.982 343.705 241.452 344.285 241.304C352.657 239.179 361.312 237.879 370.009 237.439C370.602 237.414 371.127 237.811 371.162 238.339C371.197 238.867 370.737 239.319 370.136 239.35C361.601 239.783 353.107 241.059 344.893 243.144C344.791 243.17 344.689 243.182 344.588 243.182Z" fill="white"/>
<path d="M393.882 253.227C393.664 253.227 393.445 253.169 393.254 253.052C392.762 252.747 392.643 252.151 392.991 251.717C394.551 249.776 396.819 248.284 399.38 247.518C399.95 247.343 400.571 247.615 400.766 248.115C400.961 248.615 400.656 249.16 400.086 249.331C397.958 249.967 396.072 251.206 394.777 252.821C394.563 253.085 394.225 253.227 393.882 253.227Z" fill="white"/>
<path d="M399.712 263.076C399.396 263.076 399.084 262.957 398.869 262.728C398.485 262.32 398.551 261.716 399.017 261.38L405.929 256.381C406.394 256.044 407.084 256.103 407.465 256.511C407.848 256.919 407.782 257.523 407.316 257.859L400.405 262.858C400.202 263.004 399.956 263.076 399.712 263.076Z" fill="white"/>
<path d="M406.943 268.368C406.658 268.368 406.374 268.271 406.16 268.078C405.74 267.698 405.75 267.093 406.182 266.724C408.253 264.96 410.543 263.384 412.99 262.039C413.5 261.758 414.175 261.894 414.494 262.343C414.814 262.791 414.659 263.382 414.148 263.662C411.832 264.934 409.664 266.427 407.705 268.096C407.492 268.278 407.217 268.368 406.943 268.368Z" fill="white"/>
<path d="M400.459 268.68C400.331 268.68 400.216 268.6 400.192 268.486C399.454 265.142 397.842 261.928 395.529 259.195C395.178 258.779 394.81 258.374 394.442 257.969C393.671 257.118 392.871 256.237 392.236 255.273C391.087 253.523 390.506 251.558 389.943 249.656C389.906 249.528 389.993 249.397 390.14 249.364C390.283 249.334 390.434 249.408 390.472 249.536C391.026 251.406 391.597 253.341 392.71 255.033C393.325 255.968 394.11 256.834 394.869 257.671C395.24 258.081 395.613 258.49 395.967 258.909C398.328 261.702 399.974 264.982 400.726 268.396C400.755 268.526 400.658 268.651 400.511 268.676C400.493 268.679 400.475 268.68 400.459 268.68Z" fill="black"/>
<path d="M390.901 295.437C390.755 295.437 390.634 295.336 390.628 295.207C390.508 292.254 389.976 289.315 389.048 286.47C389.006 286.344 389.09 286.212 389.235 286.174C389.377 286.135 389.531 286.211 389.573 286.339C390.514 289.22 391.052 292.197 391.175 295.189C391.181 295.322 391.063 295.433 390.912 295.437C390.908 295.437 390.904 295.437 390.901 295.437Z" fill="black"/>
<path d="M377.239 294.029C377.236 294.029 377.232 294.029 377.228 294.029C377.077 294.024 376.961 293.913 376.966 293.78L377.367 284.46C377.372 284.331 377.493 284.23 377.639 284.23C377.643 284.23 377.646 284.23 377.65 284.23C377.801 284.235 377.918 284.346 377.912 284.479L377.512 293.799C377.506 293.927 377.385 294.029 377.239 294.029Z" fill="black"/>
<path d="M363.246 295.436C363.113 295.436 362.997 295.351 362.977 295.232C362.411 291.938 362.832 288.551 364.194 285.439C364.247 285.314 364.408 285.253 364.546 285.302C364.687 285.35 364.757 285.488 364.703 285.611C363.376 288.646 362.966 291.948 363.516 295.161C363.538 295.293 363.436 295.414 363.287 295.433C363.272 295.435 363.259 295.436 363.246 295.436Z" fill="black"/>
<path d="M273.413 226.847C277.325 221.534 283.981 217.844 291.131 217.024C304.287 215.515 316.868 223.227 330.127 222.767C334.566 222.614 338.999 221.541 343.395 222.096C351.2 223.083 357.344 229.477 358.176 236.355C359.007 243.234 355.079 250.173 348.993 254.572C342.906 258.971 334.925 261.016 327.044 261.268C319.163 261.52 311.33 260.091 303.755 258.169C295.214 256.001 286.884 253.193 278.889 249.781C276.357 248.7 272.706 247.611 270.984 245.503C269.367 243.521 269.376 240.357 269.465 238.045C269.618 234.097 270.965 230.172 273.413 226.847Z" fill="#2A2E34"/>
<path d="M341.738 250.083C339.635 250.083 337.62 249.379 336.316 248.155C334.877 246.804 334.166 244.772 334.319 242.436C334.58 238.413 337.333 234.531 341.331 232.548C343.959 231.244 346.823 230.9 349.194 231.611C351.896 232.419 353.584 234.019 354.071 236.239C354.92 240.102 351.987 245.101 348.78 247.515C346.876 248.95 344.77 249.822 342.689 250.034C342.372 250.068 342.054 250.083 341.738 250.083ZM346.618 231.967C345.034 231.967 343.341 232.378 341.734 233.174C337.973 235.041 335.382 238.694 335.136 242.479C335.056 243.717 335.179 246.038 336.915 247.666C338.239 248.91 340.417 249.541 342.594 249.323C344.512 249.127 346.467 248.313 348.247 246.972C351.293 244.677 354.037 239.873 353.267 236.376C352.833 234.396 351.373 233.022 348.93 232.291C348.205 232.074 347.425 231.967 346.618 231.967Z" fill="white"/>
<path d="M315.082 251.743C314.818 251.743 314.585 251.573 314.544 251.337C312.722 240.941 318.93 229.736 329.636 224.089C329.894 223.956 330.229 224.025 330.384 224.252C330.539 224.478 330.456 224.773 330.198 224.909C319.86 230.361 313.866 241.17 315.622 251.19C315.668 251.452 315.463 251.696 315.166 251.736C315.138 251.741 315.109 251.743 315.082 251.743Z" fill="#1B6CFF"/>
<path d="M300.313 250.123C300.062 250.123 299.835 249.97 299.782 249.745C297.192 239.215 302.893 227.644 313.64 221.605C313.89 221.463 314.229 221.526 314.393 221.75C314.556 221.972 314.481 222.269 314.228 222.411C303.855 228.238 298.354 239.394 300.847 249.542C300.911 249.8 300.724 250.055 300.429 250.111C300.391 250.119 300.351 250.123 300.313 250.123Z" fill="#1B6CFF"/>
<path d="M289.274 246.746C289.062 246.746 288.859 246.637 288.771 246.454C286.401 241.548 286.198 235.861 288.213 230.849C290.227 225.841 294.502 221.391 299.943 218.638C300.204 218.507 300.538 218.584 300.69 218.814C300.841 219.043 300.751 219.336 300.489 219.469C295.269 222.109 291.171 226.373 289.242 231.168C287.314 235.957 287.51 241.393 289.775 246.08C289.892 246.324 289.763 246.605 289.485 246.707C289.418 246.733 289.346 246.746 289.274 246.746Z" fill="#1B6CFF"/>
<path d="M177.898 213.376C192.391 212.72 207.098 216.62 218.749 224.208C225.329 228.493 231.037 234.05 234.039 240.739C237.04 247.428 237.074 255.327 233.024 261.576C231.338 261.297 222.789 260.621 211.662 262.206C200.16 263.846 174.724 265.835 163.581 262.85C152.436 259.864 148.502 265.167 142.109 256.622C136.769 249.485 133.225 238.649 136.534 230.23C137.828 226.938 142.229 224.968 145.412 223.058C149.889 220.371 154.762 218.193 159.867 216.582C165.658 214.753 171.75 213.654 177.898 213.376Z" fill="#FFDC6E"/>
<path d="M162.159 215.439C170.072 216.804 177.34 220.856 182.108 226.56C171.246 227.875 160.374 231.15 150.691 235.662C148.705 231.531 145.635 227.747 141.728 224.858C147.893 221.009 155.295 218.233 162.159 215.439Z" fill="#FFA943"/>
<path d="M205.479 220.986C212.33 224.994 218.642 231.695 221.315 238.526C212.451 238.334 203.988 240.156 195.71 242.947C192.549 236.499 187.866 230.771 181.657 226.344L205.479 220.986Z" fill="#FFA943"/>
<path d="M204.322 262.849C203.453 254.171 201.004 250.242 195.937 242.75C186.092 244.9 176.188 246.991 166.343 249.14C169.863 256.149 171.901 257.471 171.8 265.128C183.41 265.8 193.367 266.291 204.322 262.849Z" fill="#FFA943"/>
<path d="M123.52 221.963C123.522 222.211 123.572 222.446 123.714 222.635C123.712 222.392 123.633 222.17 123.52 221.963Z" fill="#C3ABB7"/>
<path d="M86.2122 230.74C86.127 230.326 86.0321 229.909 85.9131 229.5C85.8443 229.951 85.9218 230.397 86.2122 230.74Z" fill="#C3ABB7"/>
<path d="M158.814 250.466C161.638 251.976 166.834 250.784 167.938 248.051C169.34 247.032 169.617 245.021 168.533 243.739C167.449 242.457 164.771 241.373 163.252 242.253C164.115 242.076 164.765 241.305 164.704 240.529C164.644 239.754 163.026 238.084 162.144 238.012C163.217 236.936 163.009 235.168 161.95 234.082C160.892 232.994 159.193 232.519 157.563 232.506C155.934 232.492 153.716 231.94 152.147 232.328C152.79 230.935 152.394 229.22 151.184 228.156C149.975 227.091 147.847 226.056 146.257 226.616C147.057 225.787 147.134 224.483 146.435 223.586C145.736 222.689 144.87 221.367 143.697 221.718C144.717 221.363 144.555 219.898 143.632 219.379C142.707 218.86 141.496 219.031 140.448 219.318C137.483 220.129 135.274 221.299 133.336 223.427C134.224 222.1 133.274 220.13 131.571 219.763C129.869 219.396 127.306 220.216 127.392 221.753C127.731 220.714 126.555 219.543 125.338 219.705C124.375 219.835 123.509 221.023 123.518 221.962C123.632 222.169 123.71 222.391 123.712 222.634C123.57 222.446 123.521 222.21 123.518 221.962C123.061 221.129 121.824 220.618 120.716 220.731C119.333 220.873 118.211 221.18 117.126 221.946C117.919 221.297 117.609 220.016 116.7 219.497C115.791 218.978 114.553 219.111 113.608 219.577C112.663 220.043 111.903 220.428 111.208 221.158C109.682 220.334 107.702 220.194 106.044 220.792C104.387 221.392 102.642 221.831 102.221 223.36C102.6 222.374 101.699 221.251 100.546 221.004C99.3938 220.758 98.1593 221.233 97.3341 221.981C96.5089 222.728 95.7448 223.421 95.3442 224.4C95.044 223.377 93.5803 222.855 92.4342 223.18C91.288 223.507 90.4967 224.469 90.167 225.485C89.8374 226.501 90.1998 227.288 90.2587 228.343C89.6071 227.441 88.0571 227.164 87.0539 227.77C86.4525 228.133 86.0137 228.821 85.9111 229.498C86.0301 229.907 86.125 230.323 86.2102 230.738C85.9198 230.396 85.8423 229.95 85.9111 229.498C85.7495 228.946 85.5378 228.41 85.1896 227.932C84.5827 227.099 83.478 226.466 82.3668 226.629C80.6739 226.878 79.9502 228.715 80.0899 230.216C80.2296 231.717 80.9609 233.483 80.6095 234.957C79.8814 233.532 77.6656 232.875 76.1014 233.621C74.7632 234.26 73.8561 236.157 74.225 237.513C74.3331 237.726 74.4324 237.94 74.5154 238.149C74.3757 237.96 74.2873 237.742 74.225 237.513C73.7808 236.64 73.1149 235.823 72.0812 235.82C71.0912 235.818 70.3119 236.659 70.1623 237.518C70.0128 238.377 69.7846 239.698 70.099 240.522C69.4943 239.229 67.0241 239.411 66.2917 240.651C65.711 241.634 66.0559 242.834 66.8342 243.731L152.62 256.546C155.631 255.569 158.738 253.067 158.814 250.466Z" fill="#633F37"/>
<path d="M74.2266 237.514C74.2888 237.743 74.3772 237.96 74.5169 238.149C74.4329 237.942 74.3346 237.726 74.2266 237.514Z" fill="#C3ABB7"/>
<path d="M90.7333 239.964C90.6099 239.964 90.4986 239.887 90.4724 239.777C90.2694 238.902 89.3503 238.201 88.3341 238.146C87.3135 238.1 86.3081 238.69 85.9861 239.537C85.9403 239.659 85.7897 239.727 85.6489 239.684C85.5091 239.643 85.4338 239.511 85.4808 239.388C85.877 238.346 87.1213 237.598 88.3668 237.68C89.6155 237.746 90.7453 238.609 90.9941 239.683C91.0236 239.81 90.9297 239.933 90.7867 239.959C90.7682 239.962 90.7507 239.964 90.7333 239.964Z" fill="black"/>
<path d="M102.365 236.261C102.363 236.261 102.36 236.261 102.356 236.261C102.209 236.257 102.093 236.149 102.099 236.02C102.135 235.07 103.116 234.236 104.2 234.236C105.284 234.236 106.266 235.069 106.301 236.019C106.306 236.148 106.19 236.256 106.044 236.261C105.908 236.281 105.774 236.163 105.769 236.035C105.742 235.338 104.995 234.704 104.2 234.704C103.405 234.704 102.658 235.338 102.631 236.035C102.627 236.161 102.508 236.261 102.365 236.261Z" fill="black"/>
<path d="M121.568 234.639C121.466 234.639 121.369 234.588 121.325 234.501C120.965 233.803 120.185 233.254 119.236 233.031C118.29 232.809 117.299 232.94 116.591 233.387C116.469 233.463 116.305 233.439 116.218 233.333C116.132 233.229 116.159 233.081 116.279 233.007C117.129 232.471 118.257 232.314 119.375 232.58C120.493 232.842 121.38 233.473 121.81 234.309C121.87 234.427 121.811 234.566 121.677 234.618C121.642 234.634 121.604 234.639 121.568 234.639Z" fill="black"/>
<path d="M133.876 232.33C133.832 232.33 133.787 232.321 133.747 232.302C133.618 232.24 133.571 232.097 133.642 231.984C134.169 231.148 133.861 229.976 132.971 229.425C132.081 228.877 130.719 229.017 129.998 229.734C129.9 229.831 129.732 229.837 129.623 229.755C129.512 229.669 129.502 229.521 129.599 229.424C130.49 228.537 132.174 228.362 133.277 229.043C134.38 229.724 134.761 231.174 134.109 232.21C134.06 232.286 133.969 232.33 133.876 232.33Z" fill="black"/>
<path d="M138.914 240.47C138.85 240.47 138.787 240.451 138.735 240.409C138.626 240.322 138.617 240.175 138.716 240.078C139.144 239.663 139.032 239.066 138.807 238.682C138.583 238.299 138.092 237.876 137.46 237.934C137.319 237.949 137.182 237.858 137.166 237.728C137.149 237.6 137.255 237.484 137.4 237.47C138.137 237.387 138.882 237.788 139.281 238.469C139.68 239.149 139.613 239.904 139.111 240.392C139.06 240.444 138.988 240.47 138.914 240.47Z" fill="black"/>
<path d="M147.967 243.392C147.915 243.392 147.862 243.379 147.817 243.351C147.695 243.279 147.664 243.133 147.747 243.026C148.041 242.647 148.045 242.111 147.755 241.626C147.466 241.142 146.962 240.839 146.439 240.836C146.292 240.835 146.173 240.73 146.174 240.601C146.175 240.473 146.294 240.369 146.44 240.369C147.161 240.373 147.846 240.772 148.227 241.41C148.608 242.048 148.593 242.769 148.187 243.291C148.135 243.357 148.051 243.392 147.967 243.392Z" fill="black"/>
<path d="M114.561 247.862C114.543 247.862 114.523 247.86 114.504 247.856C114.36 247.829 114.269 247.705 114.299 247.578C114.48 246.84 113.974 246.02 113.171 245.751C112.365 245.483 111.366 245.795 110.938 246.452C110.866 246.564 110.705 246.603 110.575 246.539C110.447 246.476 110.402 246.333 110.476 246.22C111.027 245.372 112.322 244.968 113.361 245.317C114.4 245.664 115.055 246.724 114.82 247.679C114.794 247.787 114.683 247.862 114.561 247.862Z" fill="black"/>
<path d="M150.391 237.331C150.351 237.331 150.309 237.323 150.271 237.307C150.14 237.249 150.087 237.107 150.154 236.992C150.473 236.442 150.375 235.727 149.898 235.126C149.421 234.526 148.694 234.196 147.991 234.267C147.857 234.281 147.713 234.192 147.695 234.063C147.679 233.934 147.783 233.818 147.93 233.803C148.826 233.715 149.746 234.116 150.335 234.858C150.924 235.599 151.037 236.498 150.63 237.203C150.582 237.285 150.488 237.331 150.391 237.331Z" fill="black"/>
<path d="M157.508 250.662C151.49 247.7 144.683 245.98 137.791 245.678C133.035 245.47 127.96 246.029 124.222 248.617C120.683 251.066 118.872 254.96 117.75 258.79C113.293 274.002 117.558 290.324 125.434 304.428C127.724 308.53 130.639 312.766 135.421 314.57C133.693 319.83 132.726 325.404 132.432 330.872C132.341 332.584 132.345 334.393 133.308 335.884C134.751 338.121 137.877 338.993 140.743 339.522C147.485 340.767 154.427 341.169 161.296 340.712C163.7 340.552 166.194 340.256 168.203 339.089C171.781 337.01 172.816 332.8 172.754 329.036C172.692 325.272 171.857 321.432 172.945 317.791C175.76 308.37 184.829 300.847 187.501 291.395C190.174 281.942 191.073 272.173 191.491 262.44C191.63 259.225 191.656 255.801 189.737 253.059C187.728 250.188 183.872 248.615 180.052 248.268C176.233 247.922 172.398 248.639 168.672 249.452C164.945 250.264 161.347 250.593 157.508 250.662Z" fill="#1B6CFF"/>
<path d="M152.563 304.283C152.447 304.283 152.339 304.218 152.303 304.116C146.592 288.16 146.645 270.602 152.449 254.673C152.495 254.547 152.649 254.481 152.792 254.518C152.935 254.558 153.015 254.693 152.969 254.819C147.197 270.654 147.146 288.111 152.823 303.971C152.868 304.097 152.788 304.231 152.644 304.271C152.616 304.279 152.59 304.283 152.563 304.283Z" fill="black"/>
<path d="M165.689 306.376C165.656 306.376 165.622 306.37 165.59 306.358C165.449 306.311 165.38 306.172 165.435 306.049C172.594 289.986 175.249 272.433 173.114 255.288C173.097 255.155 173.205 255.038 173.355 255.024C173.501 254.995 173.64 255.104 173.656 255.236C175.801 272.458 173.134 290.088 165.943 306.223C165.901 306.318 165.798 306.376 165.689 306.376Z" fill="black"/>
<path d="M137.387 306.838C137.285 306.838 137.187 306.787 137.14 306.701C128.101 289.959 127.094 270.384 134.379 252.996C134.433 252.872 134.588 252.809 134.73 252.854C134.871 252.899 134.944 253.037 134.891 253.161C127.657 270.429 128.655 289.869 137.632 306.495C137.697 306.615 137.639 306.759 137.502 306.814C137.466 306.831 137.426 306.838 137.387 306.838Z" fill="black"/>
<path d="M141.475 339.046C141.471 339.046 141.467 339.046 141.462 339.046C141.312 339.039 141.195 338.927 141.203 338.795C141.566 331.935 142.292 325.009 143.358 318.213C143.379 318.082 143.524 318 143.666 318.008C143.816 318.028 143.919 318.148 143.899 318.278C142.834 325.061 142.111 331.971 141.747 338.817C141.742 338.945 141.621 339.046 141.475 339.046Z" fill="black"/>
<path d="M152.329 340.102C152.326 340.102 152.324 340.102 152.324 340.102C152.174 340.1 152.054 339.991 152.056 339.859L152.417 319.636C152.419 319.503 152.547 319.412 152.694 319.4C152.845 319.402 152.965 319.511 152.963 319.644L152.601 339.866C152.599 339.998 152.478 340.102 152.329 340.102Z" fill="black"/>
<path d="M164.69 339.224C164.539 339.224 164.418 339.117 164.417 338.985L164.354 319.289C164.354 319.156 164.476 319.049 164.627 319.049C164.778 319.049 164.9 319.155 164.9 319.287L164.901 319.396L164.962 338.983C164.964 339.116 164.841 339.224 164.69 339.224Z" fill="black"/>
<path d="M158.541 319.878C151.257 319.878 143.992 318.415 137.436 315.567C137.301 315.51 137.246 315.365 137.313 315.247C137.379 315.129 137.545 315.078 137.678 315.139C146.878 319.133 157.49 320.372 167.561 318.631C167.704 318.609 167.853 318.689 167.881 318.818C167.911 318.948 167.815 319.074 167.666 319.1C164.655 319.621 161.596 319.878 158.541 319.878Z" fill="black"/>
<path d="M211.662 262.207C210.224 258.929 211.092 255.136 213.103 252.099C215.114 249.063 218.149 246.661 221.251 244.44C227.168 240.205 233.514 236.432 240.19 233.182C242.725 231.947 245.428 230.759 248.328 230.718C255.27 230.619 260.378 236.903 267.244 237.808C277.77 239.197 289.274 236.987 298.622 241.455C302.877 243.488 306.163 246.908 308.162 250.779C310.162 254.65 310.93 258.953 310.859 263.204C310.769 268.64 309.101 274.394 304.51 278.047C299.625 281.933 292.564 282.661 286 283.206C279.261 283.765 272.482 284.324 265.736 283.846C261.255 283.528 256.746 282.729 252.781 280.871C246.871 278.102 242.664 273.248 238.65 268.542C235.805 265.207 230.619 263.266 226.006 262.282C221.392 261.299 216.309 261.352 211.662 262.207Z" fill="#2C4A62"/>
<path d="M304.301 255.251C303.69 253.541 302.18 252.279 300.385 251.424C294.508 260.583 285.604 268.228 275.039 273.187C275.642 274.442 275.989 275.819 276.591 277.075C287.867 272.035 297.798 264.772 304.301 255.251Z" fill="#FFA943"/>
<path d="M307.258 256.588C301.149 265.453 292.063 273.11 281.857 278.319C282.802 279.774 283.614 281.293 284.317 282.85C284.879 282.804 285.441 282.758 286.002 282.711C292.567 282.166 299.628 281.438 304.512 277.552C309.105 273.899 310.771 268.146 310.862 262.708C310.886 261.239 310.803 259.766 310.611 258.305C309.532 257.678 308.416 257.097 307.258 256.588Z" fill="#FFA943"/>
<path d="M284.315 283.33C284.094 283.33 283.891 283.211 283.808 283.027C283.087 281.432 282.272 279.928 281.381 278.557C281.233 278.329 281.322 278.039 281.582 277.905C291.876 272.652 300.829 264.993 306.79 256.341C306.938 256.128 307.249 256.052 307.502 256.16C308.617 256.652 309.765 257.24 310.911 257.909C311.045 257.986 311.132 258.112 311.152 258.252C311.346 259.721 311.431 261.224 311.406 262.716C311.297 269.25 308.979 274.645 304.878 277.907C299.66 282.058 291.796 282.712 286.052 283.189L284.367 283.328C284.35 283.329 284.333 283.33 284.315 283.33ZM282.594 278.495C283.345 279.694 284.041 280.985 284.67 282.342L285.95 282.236C293.196 281.635 299.567 280.84 304.144 277.2C308.019 274.117 310.211 268.968 310.315 262.704C310.339 261.327 310.263 259.942 310.095 258.583C309.21 258.074 308.325 257.617 307.458 257.217C301.497 265.718 292.698 273.248 282.594 278.495Z" fill="#FFA943"/>
<path d="M249.157 273.462C249.113 273.462 249.069 273.452 249.029 273.434L245.624 271.846C245.491 271.785 245.441 271.64 245.511 271.523C245.582 271.405 245.75 271.364 245.88 271.424L249.284 273.012C249.418 273.073 249.468 273.218 249.398 273.335C249.349 273.416 249.254 273.462 249.157 273.462Z" fill="black"/>
<path d="M256.396 275.358H256.393C255.048 275.344 253.711 274.954 252.627 274.257C252.506 274.179 252.479 274.03 252.568 273.923C252.658 273.815 252.83 273.792 252.949 273.871C253.943 274.509 255.167 274.868 256.4 274.879C256.55 274.881 256.672 274.988 256.669 275.121C256.667 275.253 256.546 275.358 256.396 275.358Z" fill="black"/>
<path d="M264.616 276.412C264.607 276.412 264.598 276.412 264.591 276.411L260.38 276.06C260.229 276.046 260.12 275.93 260.133 275.798C260.148 275.665 260.282 275.566 260.43 275.582L264.64 275.933C264.791 275.947 264.9 276.063 264.887 276.195C264.875 276.32 264.756 276.412 264.616 276.412Z" fill="black"/>
<path d="M270.831 276.952C270.266 276.952 269.703 276.886 269.155 276.754C269.01 276.719 268.924 276.587 268.964 276.459C269.004 276.333 269.151 276.258 269.3 276.292C270.301 276.533 271.36 276.533 272.363 276.292C272.514 276.257 272.66 276.333 272.699 276.459C272.738 276.587 272.653 276.719 272.508 276.754C271.959 276.885 271.395 276.952 270.831 276.952Z" fill="black"/>
<path d="M305.11 253.377C305.079 253.377 305.045 253.372 305.013 253.361C304.872 253.314 304.801 253.176 304.855 253.053C305.226 252.196 305.359 251.263 305.24 250.351C305.223 250.22 305.33 250.102 305.48 250.087C305.641 250.074 305.765 250.167 305.781 250.298C305.91 251.284 305.766 252.296 305.363 253.224C305.323 253.318 305.22 253.377 305.11 253.377Z" fill="black"/>
<path d="M304.348 247.393C304.207 247.393 304.088 247.298 304.076 247.173C303.959 245.952 303.23 244.772 302.123 244.019C302.004 243.939 301.982 243.789 302.075 243.683C302.166 243.579 302.337 243.558 302.458 243.641C303.683 244.473 304.492 245.779 304.62 247.133C304.633 247.265 304.52 247.38 304.371 247.392C304.363 247.393 304.355 247.393 304.348 247.393Z" fill="black"/>
<path d="M233.553 135.037C233.411 135.037 233.293 134.94 233.287 134.815C231.097 94.2836 210.315 55.2821 176.272 27.8109C176.163 27.7238 176.156 27.5754 176.256 27.4806C176.355 27.3839 176.524 27.3791 176.632 27.4662C210.779 55.0207 231.622 94.139 233.819 134.792C233.826 134.921 233.712 135.031 233.566 135.036C233.562 135.037 233.557 135.037 233.553 135.037Z" fill="black"/>
<path d="M163.523 15.7131C162.096 12.7563 162.125 9.28337 163.602 6.34476C164.525 4.51016 166.343 2.73205 168.628 2.79046C170.239 2.83164 171.669 3.81405 172.5 5.0253C173.332 6.23656 173.665 7.6556 173.935 9.04878C175.014 14.6215 175.312 20.3101 174.819 25.9451C167.508 26.1433 159.483 23.9372 155.134 18.7791C154.44 17.9556 153.806 17.0574 153.596 16.0511C153.386 15.0438 153.678 13.9043 154.577 13.2523C155.596 12.514 157.138 12.5782 158.318 13.0991C159.497 13.62 162.653 14.8408 163.523 15.7131Z" fill="#FF664F"/>
<path d="M226.808 206.309C226.672 206.309 226.556 206.219 226.543 206.099C223.596 179.972 208.593 155.483 185.379 138.912C185.266 138.83 185.248 138.683 185.341 138.582C185.434 138.482 185.602 138.467 185.716 138.549C209.039 155.199 224.114 179.803 227.074 206.053C227.089 206.181 226.981 206.295 226.835 206.308C226.825 206.308 226.816 206.309 226.808 206.309Z" fill="black"/>
<path d="M175.909 130.035C174.899 127.939 174.919 125.477 175.966 123.393C176.62 122.093 177.909 120.833 179.528 120.874C180.669 120.904 181.684 121.6 182.273 122.459C182.862 123.318 183.098 124.323 183.29 125.311C184.055 129.261 184.266 133.294 183.917 137.289C178.734 137.429 173.045 135.866 169.963 132.209C169.47 131.626 169.021 130.989 168.872 130.275C168.724 129.562 168.93 128.753 169.567 128.291C170.289 127.767 171.383 127.813 172.219 128.183C173.056 128.551 175.293 129.416 175.909 130.035Z" fill="#FF664F"/>
<path d="M248.983 199.513C248.972 199.513 248.962 199.512 248.95 199.511C248.803 199.495 248.7 199.377 248.719 199.249C254.588 159.22 272.941 120.29 301.794 86.6657C330.648 53.0416 368.219 26.8009 410.447 10.7807C410.582 10.7299 410.739 10.7845 410.796 10.9023C410.855 11.021 410.793 11.158 410.657 11.2097C324.569 43.8695 261.212 117.704 249.247 199.309C249.231 199.427 249.115 199.513 248.983 199.513Z" fill="black"/>
<path d="M424.385 6.15317C426.98 6.19721 429.534 7.21792 431.275 8.90506C432.362 9.95833 433.149 11.5047 432.445 12.7859C431.95 13.6888 430.811 14.2164 429.677 14.339C428.543 14.4615 427.4 14.2403 426.293 13.9904C421.869 12.9937 417.585 11.5181 413.569 9.6098C415.535 5.40152 419.482 1.48145 424.546 0.502871C425.354 0.346796 426.2 0.246256 427.004 0.417651C427.807 0.590004 428.565 1.08408 428.787 1.78403C429.038 2.57589 428.544 3.43287 427.818 3.95184C427.092 4.47273 425.28 5.91092 424.385 6.15317Z" fill="#FF664F"/>
<path d="M293.312 194.756C293.263 194.756 293.214 194.744 293.17 194.719C293.046 194.65 293.009 194.507 293.086 194.397C309.776 171.111 334.996 152.651 364.099 142.418C393.2 132.185 425.973 130.253 456.377 136.98C456.52 137.012 456.606 137.139 456.57 137.264C456.535 137.388 456.385 137.463 456.247 137.433C425.954 130.73 393.299 132.655 364.298 142.852C335.298 153.048 310.169 171.442 293.539 194.646C293.488 194.717 293.402 194.756 293.312 194.756Z" fill="black"/>
<path d="M472.606 141.277C475.139 142.891 476.864 145.446 477.262 148.171C477.51 149.871 477.072 151.878 475.369 152.72C474.168 153.313 472.626 153.147 471.408 152.582C470.19 152.017 469.232 151.106 468.333 150.19C464.738 146.526 461.658 142.474 459.184 138.155C464.439 135.179 471.427 133.688 477.209 135.783C478.132 136.117 479.049 136.53 479.709 137.186C480.369 137.843 480.73 138.79 480.399 139.616C480.024 140.552 478.862 141.101 477.735 141.177C476.607 141.252 473.683 141.579 472.606 141.277Z" fill="#FF664F"/>
<path d="M231.292 16.1572C222.166 19.7277 220.904 21.4513 220.992 30.2164C216.922 22.2115 214.957 21.1037 204.965 21.1803C214.09 17.6097 215.353 15.8862 215.266 7.12109C219.335 15.1259 221.3 16.2338 231.292 16.1572Z" fill="#FFDC83"/>
<path d="M382.214 198.742C375.397 196.792 373.78 197.177 369.019 201.88C371.243 195.901 370.804 194.481 365.442 190.306C372.259 192.256 373.877 191.871 378.637 187.168C376.413 193.148 376.852 194.567 382.214 198.742Z" fill="#FFDC83"/>
<path d="M393.376 87.4412C384.292 84.7966 382.129 85.3012 375.738 91.5509C378.752 83.5815 378.177 81.6847 371.053 76.0784C380.138 78.7231 382.3 78.2185 388.691 71.9688C385.676 79.9372 386.25 81.835 393.376 87.4412Z" fill="white"/>
<path d="M375.737 91.7864C375.692 91.7864 375.646 91.7759 375.604 91.7548C375.494 91.6993 375.444 91.5844 375.485 91.48C378.455 83.6284 377.895 81.7785 370.875 76.2546C370.781 76.1808 370.759 76.0592 370.822 75.9635C370.885 75.8677 371.015 75.8218 371.137 75.8591C380.084 78.4626 382.195 77.9743 388.492 71.8146C388.576 71.7313 388.715 71.7121 388.824 71.7686C388.934 71.8241 388.984 71.939 388.943 72.0444C385.973 79.896 386.533 81.7459 393.554 87.2698C393.647 87.3435 393.669 87.4651 393.606 87.5609C393.542 87.6557 393.409 87.7007 393.292 87.6653C384.341 85.0589 382.232 85.552 375.936 91.7098C375.884 91.7596 375.812 91.7864 375.737 91.7864ZM372.147 76.6356C378.157 81.5046 378.836 83.7481 376.373 90.5924C381.923 85.3203 384.481 84.7257 392.281 86.8849C386.271 82.0159 385.592 79.7734 388.055 72.9291C382.506 78.2012 379.953 78.7996 372.147 76.6356Z" fill="black"/>
<path d="M211.305 195.415C205.376 199.978 204.884 201.537 207.285 208.127C202.084 202.926 200.307 202.494 192.794 204.601C198.723 200.038 199.215 198.479 196.814 191.889C202.015 197.09 203.792 197.523 211.305 195.415Z" fill="white"/>
<path d="M207.284 208.361C207.21 208.361 207.136 208.333 207.083 208.281C201.977 203.174 200.25 202.754 192.873 204.823C192.756 204.857 192.623 204.812 192.56 204.715C192.498 204.619 192.521 204.497 192.616 204.424C198.437 199.944 198.916 198.43 196.558 191.959C196.52 191.854 196.572 191.739 196.681 191.685C196.791 191.63 196.929 191.651 197.013 191.733C202.12 196.84 203.847 197.259 211.222 195.192C211.341 195.16 211.473 195.203 211.536 195.299C211.598 195.395 211.575 195.517 211.48 195.59C205.659 200.07 205.179 201.584 207.537 208.055C207.575 208.161 207.524 208.275 207.415 208.33C207.375 208.35 207.329 208.361 207.284 208.361ZM199.072 203.191C201.845 203.191 203.762 204.367 206.667 207.168C204.793 201.682 205.384 199.811 210.213 195.957C203.959 197.602 201.827 197.082 197.433 192.847C199.308 198.334 198.716 200.203 193.887 204.058C196.005 203.499 197.651 203.191 199.072 203.191Z" fill="black"/>
<path d="M282.24 146.963C293.17 132.471 307.79 119.704 325.868 112.601C329.794 111.058 334.892 109.949 337.999 112.56C340.086 114.313 340.4 117.237 339.5 119.646C338.601 122.055 336.7 124.062 334.798 125.971C318.926 141.894 300.153 155.358 284.276 171.275C280.308 175.253 276.518 179.374 273.059 183.703C271.791 185.291 266.489 195.095 264.676 195.232C259.833 195.6 262.356 183.228 263.138 180.556C266.549 168.899 274.728 156.923 282.24 146.963Z" fill="#FFDC70"/>
<path d="M410.356 41.3275C425.885 38.4071 442.426 38.2903 457.324 43.1209C460.559 44.1704 464.188 46.0442 464.299 49.069C464.373 51.0999 462.681 52.9297 460.626 53.8661C458.569 54.8026 456.197 55.0171 453.888 55.1741C434.612 56.4811 415.247 54.9529 395.971 56.2542C391.154 56.5798 386.348 57.0738 381.598 57.8513C379.856 58.1367 370.548 61.1423 369.422 60.3284C366.412 58.1549 375.772 52.3111 377.929 51.165C387.337 46.1677 399.682 43.3344 410.356 41.3275Z" fill="#FFA943"/>
<path d="M369.947 175.587C371.798 174.706 373.637 173.687 374.86 172.182C376.081 170.678 376.562 168.582 375.546 166.962C373.95 164.415 369.864 164.305 366.588 164.747C356.109 166.161 344.997 169.924 336.775 175.923C332.816 178.812 326.376 186.635 328.87 191.729C331.315 196.725 338.09 188.078 342.199 186.041C350.992 181.685 361.072 179.809 369.947 175.587Z" fill="#FFDC70"/>
<path d="M256.835 51.717C258.725 49.2562 260.862 46.8088 263.843 45.406C266.823 44.0033 270.852 43.9171 273.327 45.9394C276.949 48.899 275.444 54.1108 273.667 58.164C269.511 67.6453 265.314 77.1122 261.077 86.5667C257.314 94.9641 254.489 107.014 248.515 114.315C241.265 123.176 241.032 106.693 240.815 102.184C240.415 93.8151 241.438 85.3928 243.819 77.2817C246.485 68.2026 250.858 59.4978 256.835 51.717Z" fill="#1B6CFF"/>
<path d="M216.42 130.217C214.807 128.544 212.729 126.792 210.239 126.981C207.051 127.222 205.344 130.522 205.393 133.328C205.493 139.094 209.945 144.004 214.176 148.418C216.709 151.059 233.069 169.625 233.312 157.657C233.49 148.987 222.378 136.398 216.42 130.217Z" fill="#FF664F"/>
<path d="M328.371 18.1817C337.974 11.3029 350.041 7.10995 362.41 6.35352C362.914 7.42498 363.418 8.49739 363.921 9.56885C364.665 11.1497 346.678 22.8726 344.662 24.2485C337.67 29.0227 330.36 33.7356 322.655 37.5963C317.636 40.1107 310.202 42.4892 312.69 35.2973C314.909 28.881 322.641 22.2856 328.371 18.1817Z" fill="#FFDC70"/>
<path d="M437.479 196.428C446.746 197.552 455.988 200.698 462.418 206.658C464.407 208.501 466.106 211.463 464.242 213.404C462.919 214.781 460.541 214.779 458.496 214.617C451.921 214.097 445.394 213.102 439.001 211.659C433.904 210.508 423.135 208.973 419.357 205.528C408.518 195.644 432.39 195.81 437.479 196.428Z" fill="#1B6CFF"/>
<path d="M189.963 97.4238C182.905 92.0378 177.127 84.9723 175.457 76.8976C174.94 74.4004 175.364 71.1055 178.134 70.375C180.1 69.856 182.091 70.9993 183.702 72.1148C188.884 75.7035 193.728 79.6667 198.181 83.942C201.732 87.3507 209.793 93.8006 210.81 98.4962C213.723 111.969 193.839 100.382 189.963 97.4238Z" fill="#FFDC70"/>
</svg>
