<svg width="112" height="41" viewBox="0 0 112 41" fill="none" xmlns="http://www.w3.org/2000/svg">
<path d="M107.123 13.437C107.46 13.43 107.46 13.43 107.805 13.4229C109.279 13.4333 110.176 13.6694 111.324 14.7988C111.866 15.759 111.934 16.5198 111.942 17.6458C111.946 17.9731 111.949 18.3004 111.953 18.6376C111.953 18.9897 111.954 19.3418 111.955 19.7046C111.956 20.068 111.958 20.4315 111.96 20.8059C111.963 21.5746 111.964 22.3434 111.964 23.1121C111.965 24.2871 111.975 25.4617 111.985 26.6366C111.987 27.3837 111.988 28.1308 111.988 28.8779C111.992 29.2288 111.996 29.5797 112 29.9412C111.99 31.8379 111.954 33.0471 110.784 34.4693C109.123 35.6581 107.308 35.5852 105.385 35.3772C104.381 34.9697 103.611 34.5162 102.956 33.5614C102.514 32.4986 102.347 31.6575 102.342 30.4886C102.339 30.1856 102.336 29.8825 102.334 29.5703C102.334 29.2463 102.334 28.9222 102.334 28.5883C102.333 28.2521 102.332 27.916 102.331 27.5697C102.329 26.8598 102.329 26.1498 102.33 25.4399C102.331 24.3553 102.325 23.271 102.318 22.1865C102.318 21.4959 102.317 20.8054 102.318 20.1148C102.315 19.7913 102.313 19.4679 102.31 19.1346C102.322 17.0616 102.519 15.6836 103.792 14.0896C104.907 13.3758 105.86 13.4109 107.123 13.437ZM105.925 17.5224C105.911 19.4077 105.902 21.2929 105.895 23.1781C105.893 23.8198 105.889 24.4615 105.884 25.1032C105.878 26.0241 105.875 26.945 105.872 27.866C105.869 28.1541 105.867 28.4422 105.864 28.7391C105.864 29.0056 105.864 29.2722 105.864 29.5468C105.863 29.782 105.861 30.0172 105.86 30.2595C105.88 30.9107 105.88 30.9107 106.465 31.4431C107.286 31.5187 107.286 31.5187 108.085 31.4431C108.501 30.9766 108.391 30.5429 108.394 29.8934C108.395 29.6288 108.397 29.3642 108.399 29.0915C108.399 28.8037 108.4 28.5159 108.4 28.2194C108.401 27.9257 108.402 27.6321 108.403 27.3295C108.404 26.707 108.405 26.0844 108.405 25.4619C108.405 24.5068 108.41 23.5518 108.415 22.5967C108.416 21.9932 108.416 21.3897 108.417 20.7863C108.419 20.4991 108.421 20.2119 108.423 19.916C108.422 19.6505 108.421 19.3849 108.42 19.1113C108.42 18.877 108.421 18.6427 108.421 18.4013C108.399 17.7521 108.399 17.7521 107.815 17.2198C107.063 17.1567 106.603 17.1422 105.925 17.5224Z" fill="url(#paint0_linear_800_232)"/>
<path d="M92.0527 11.0005C93.0326 11.0005 94.0125 11.0005 95.0221 11.0005C95.0221 11.3999 95.0221 11.7994 95.0221 12.211C93.8987 12.2357 92.8768 12.2057 91.7827 11.9084C91.8718 11.6088 91.9609 11.3092 92.0527 11.0005Z" fill="#0098BA"/>
<path d="M81.8491 13.4613C82.2069 13.4674 82.2069 13.4674 82.572 13.4737C83.1578 13.4843 83.7436 13.5006 84.3293 13.518C84.8363 15.1284 84.9233 15.4846 84.3293 17.1495C83.1712 17.3492 82.0131 17.5489 80.8199 17.7547C80.8199 22.1488 80.8199 26.5429 80.8199 31.0701C81.8889 31.17 82.9579 31.2698 84.0593 31.3727C84.7051 32.0966 84.6926 32.3264 84.7173 33.3209C84.7078 34.0561 84.7078 34.0561 84.5992 34.7016C83.9244 35.3257 83.9244 35.3257 83.2495 35.6094C83.3887 35.7155 83.5279 35.8217 83.6713 35.931C84.0593 36.5173 84.0593 36.5173 84.0425 37.5765C83.7894 38.6357 83.7894 38.6357 83.3507 39.2409C82.4428 39.6695 81.7658 39.4652 80.8199 39.2409C80.8199 38.7416 80.8199 38.2423 80.8199 37.7278C81.1763 37.7278 81.5326 37.7278 81.8997 37.7278C81.8997 37.4282 81.8997 37.1286 81.8997 36.8199C81.5434 36.6202 81.1871 36.4205 80.8199 36.2147C80.8199 35.9151 80.8199 35.6155 80.8199 35.3068C80.536 35.2819 80.252 35.2569 79.9595 35.2312C78.8319 34.9825 78.3739 34.7085 77.5806 33.7937C77.1153 32.7189 76.9719 31.8543 76.9665 30.6653C76.9639 30.3502 76.9614 30.035 76.9587 29.7103C76.959 29.373 76.9592 29.0357 76.9595 28.6881C76.9583 28.3386 76.9572 27.989 76.956 27.6289C76.9544 26.8905 76.9543 26.152 76.9554 25.4136C76.9563 24.2852 76.95 23.157 76.9431 22.0287C76.9425 21.3105 76.9423 20.5924 76.9426 19.8743C76.9401 19.5375 76.9376 19.2008 76.9351 18.8539C76.9441 17.1575 76.9712 15.8774 77.8505 14.4259C79.0328 13.2353 80.349 13.4124 81.8491 13.4613Z" fill="url(#paint1_linear_800_232)"/>
<path d="M65.88 13.547C66.6685 13.4553 67.3871 13.4204 68.1745 13.4335C68.4924 13.4282 68.4924 13.4282 68.8167 13.4229C69.4315 13.4264 69.4315 13.4264 70.4691 13.547C71.0865 14.5851 71.1665 15.2527 71.3285 16.481C71.3555 16.6808 71.3825 16.8807 71.4104 17.0866C71.4977 17.7348 71.5823 18.3834 71.667 19.032C71.7857 19.9179 71.9057 20.8037 72.0255 21.6894C72.0545 21.9053 72.0836 22.1213 72.1135 22.3438C72.3257 23.9177 72.5585 25.4858 72.8143 27.0515C73.0585 28.5753 73.2944 30.0987 73.506 31.6287C73.552 31.9579 73.5979 32.2871 73.6452 32.6264C73.7079 33.5117 73.6518 34.1811 73.4385 35.0332C73.1686 35.3358 73.1686 35.3358 72.2575 35.3925C71.2789 35.3358 71.2789 35.3358 70.4691 34.7305C70.2224 33.864 70.2224 33.864 70.0304 32.8202C69.9657 32.4781 69.901 32.136 69.8343 31.7835C69.7477 31.2949 69.7477 31.2949 69.6593 30.7964C69.6071 30.505 69.5549 30.2136 69.5011 29.9134C69.4642 29.7055 69.4273 29.4976 69.3893 29.2833C69.0448 29.5585 68.7021 29.8365 68.3601 30.1155C68.1691 30.27 67.978 30.4245 67.7812 30.5837C66.8545 31.4497 66.3651 32.2297 66.133 33.5579C65.88 34.7305 65.88 34.7305 65.3401 35.3358C64.8339 35.4055 64.8339 35.4055 64.2603 35.3925C64.071 35.3906 63.8817 35.3886 63.6866 35.3866C63.1805 35.3358 63.1805 35.3358 62.6406 35.0332C62.5644 32.6814 62.8568 30.4845 63.2121 28.1698C63.3001 27.5843 63.3001 27.5843 63.3898 26.9871C63.5133 26.1663 63.6383 25.3459 63.7643 24.5256C63.9255 23.475 64.0832 22.4237 64.2398 21.3722C64.3903 20.3656 64.5437 19.3596 64.6968 18.3535C64.7812 17.7875 64.7812 17.7875 64.8673 17.2101C64.9483 16.6872 64.9483 16.6872 65.031 16.1537C65.0777 15.8467 65.1245 15.5398 65.1727 15.2235C65.3401 14.4548 65.3401 14.4548 65.88 13.547ZM68.0396 19.902C67.8963 20.7842 67.7561 21.6668 67.6178 22.55C67.5769 22.7997 67.536 23.0493 67.4939 23.3065C67.4565 23.5484 67.419 23.7903 67.3805 24.0395C67.3452 24.2613 67.3098 24.4832 67.2734 24.7118C67.2263 25.3984 67.3191 25.9054 67.4997 26.5597C68.1752 26.061 68.4736 25.8298 68.8494 25.0466C68.9418 23.2669 68.8606 21.464 68.0396 19.902Z" fill="url(#paint2_linear_800_232)"/>
<path d="M91.255 13.547C92.0435 13.4553 92.7621 13.4204 93.5495 13.4335C93.8674 13.4282 93.8674 13.4282 94.1917 13.4229C94.8065 13.4264 94.8065 13.4264 95.8441 13.547C96.4615 14.5851 96.5415 15.2527 96.7035 16.481C96.7305 16.6808 96.7575 16.8807 96.7854 17.0866C96.8727 17.7348 96.9573 18.3834 97.042 19.032C97.1607 19.9179 97.2807 20.8037 97.4005 21.6894C97.4295 21.9053 97.4586 22.1213 97.4885 22.3438C97.7007 23.9177 97.9335 25.4858 98.1893 27.0515C98.4335 28.5753 98.6694 30.0987 98.881 31.6287C98.927 31.9579 98.9729 32.2871 99.0202 32.6264C99.0829 33.5117 99.0268 34.1811 98.8135 35.0332C98.5436 35.3358 98.5436 35.3358 97.6325 35.3925C96.6539 35.3358 96.6539 35.3358 95.8441 34.7305C95.5974 33.864 95.5974 33.864 95.4054 32.8202C95.3407 32.4781 95.276 32.136 95.2093 31.7835C95.1227 31.2949 95.1227 31.2949 95.0343 30.7964C94.9821 30.505 94.9299 30.2136 94.8761 29.9134C94.8392 29.7055 94.8023 29.4976 94.7643 29.2833C94.4198 29.5585 94.0771 29.8365 93.7351 30.1155C93.5441 30.27 93.353 30.4245 93.1562 30.5837C92.2295 31.4497 91.7401 32.2297 91.508 33.5579C91.255 34.7305 91.255 34.7305 90.7151 35.3358C90.2089 35.4055 90.2089 35.4055 89.6353 35.3925C89.446 35.3906 89.2567 35.3886 89.0616 35.3866C88.5555 35.3358 88.5555 35.3358 88.0156 35.0332C87.9394 32.6814 88.2318 30.4845 88.5871 28.1698C88.6751 27.5843 88.6751 27.5843 88.7648 26.9871C88.8883 26.1663 89.0133 25.3459 89.1393 24.5256C89.3005 23.475 89.4582 22.4237 89.6148 21.3722C89.7653 20.3656 89.9187 19.3596 90.0718 18.3535C90.1562 17.7875 90.1562 17.7875 90.2423 17.2101C90.3233 16.6872 90.3233 16.6872 90.406 16.1537C90.4527 15.8467 90.4995 15.5398 90.5477 15.2235C90.7151 14.4548 90.7151 14.4548 91.255 13.547ZM93.4146 19.902C93.2713 20.7842 93.1311 21.6668 92.9928 22.55C92.9519 22.7997 92.911 23.0493 92.8689 23.3065C92.8315 23.5484 92.794 23.7903 92.7555 24.0395C92.7202 24.2613 92.6848 24.4832 92.6484 24.7118C92.6013 25.3984 92.6941 25.9054 92.8747 26.5597C93.5502 26.061 93.8486 25.8298 94.2244 25.0466C94.3168 23.2669 94.2356 21.464 93.4146 19.902Z" fill="url(#paint3_linear_800_232)"/>
<path d="M54.5082 13.4505C54.7368 13.4417 54.9655 13.4329 55.201 13.4239C56.6993 13.4069 57.5933 13.596 58.7599 14.7555C59.3017 15.7161 59.3702 16.4763 59.3782 17.6025C59.3817 17.9298 59.3851 18.257 59.3887 18.5942C59.3893 18.9464 59.3899 19.2985 59.3905 19.6613C59.3923 20.0247 59.3941 20.3881 59.3959 20.7626C59.3987 21.5313 59.3999 22.3 59.3998 23.0688C59.401 24.2437 59.4108 25.4183 59.4211 26.5932C59.4226 27.3403 59.4237 28.0874 59.4242 28.8345C59.4281 29.1854 59.432 29.5363 59.436 29.8979C59.4264 31.797 59.3781 32.9923 58.22 34.426C56.7638 35.5822 54.796 35.5421 53.091 35.3338C52.1108 35.0723 51.3945 34.6084 50.6193 33.8762C49.8265 32.3419 49.9622 30.7977 49.9686 29.0556C49.967 28.6792 49.9653 28.3028 49.9636 27.9149C49.9612 26.9161 49.9642 25.9174 49.9687 24.9186C49.9697 24.308 49.9659 23.6976 49.9604 23.087C49.9504 21.9115 49.9497 20.7364 49.9518 19.5608C49.9482 19.1976 49.9446 18.8344 49.9409 18.4602C49.9689 15.6486 49.9689 15.6486 50.7733 14.5308C51.9915 13.3384 52.9501 13.47 54.5082 13.4505ZM53.9008 17.1765C53.3481 18.1059 53.2931 18.2966 53.2911 19.3446C53.2894 19.597 53.2877 19.8495 53.2859 20.1095C53.287 20.381 53.2881 20.6524 53.2892 20.9321C53.2887 21.2115 53.2882 21.4909 53.2877 21.7787C53.2873 22.3691 53.2883 22.9595 53.2905 23.55C53.2934 24.4559 53.2906 25.3616 53.2871 26.2676C53.2875 26.8407 53.2882 27.4138 53.2892 27.987C53.2881 28.259 53.287 28.5311 53.2859 28.8113C53.2876 29.0628 53.2893 29.3143 53.2911 29.5734C53.2915 29.7952 53.2919 30.0169 53.2924 30.2453C53.3203 30.8704 53.3203 30.8704 53.9008 31.3997C54.722 31.4754 54.722 31.4754 55.5205 31.3997C55.9414 30.9279 55.8248 30.4732 55.8254 29.8175C55.8262 29.5458 55.8271 29.2742 55.828 28.9943C55.8274 28.6989 55.8269 28.4036 55.8263 28.0993C55.8266 27.7981 55.8268 27.497 55.8271 27.1868C55.8273 26.5487 55.8268 25.9107 55.8257 25.2727C55.8242 24.2923 55.8256 23.312 55.8274 22.3317C55.8272 21.7135 55.8268 21.0952 55.8263 20.477C55.8269 20.1816 55.8274 19.8862 55.828 19.5819C55.8271 19.3103 55.8263 19.0386 55.8254 18.7588C55.8252 18.5184 55.825 18.2781 55.8247 18.0305C55.8441 17.4731 55.8441 17.4731 55.5205 17.1765C54.722 17.0756 54.722 17.0756 53.9008 17.1765Z" fill="url(#paint4_linear_800_232)"/>
<path d="M40.7759 13.5274C41.0701 13.5186 41.3643 13.5098 41.6675 13.5008C43.3136 13.4862 44.478 13.4769 45.7193 14.8324C46.5257 16.1856 46.685 17.4537 46.681 19.0502C46.6815 19.264 46.6821 19.4778 46.6826 19.698C46.6467 21.0133 46.4929 21.8536 45.7193 22.8519C45.4521 23.1016 45.1848 23.3513 44.9095 23.6085C45.1966 24.276 45.4704 24.8501 45.8712 25.4431C46.719 26.7242 46.588 28.1011 46.5967 29.6231C46.6022 29.8661 46.6078 30.1092 46.6135 30.3596C46.622 31.7972 46.5448 32.7271 45.7193 33.8976C44.1358 35.5363 42.7651 35.4658 40.7084 35.4675C40.3589 35.4731 40.3589 35.4731 40.0024 35.4787C39.7785 35.4793 39.5546 35.4799 39.3239 35.4805C39.1201 35.4817 38.9163 35.483 38.7064 35.4843C38.1608 35.4108 38.1608 35.4108 37.3509 34.8055C37.2517 33.942 37.2517 33.942 37.2547 32.8248C37.2541 32.6215 37.2536 32.4183 37.253 32.2088C37.2522 31.5356 37.2572 30.8626 37.2623 30.1893C37.2632 29.7228 37.2637 29.2562 37.2639 28.7896C37.2651 27.8115 37.269 26.8333 37.275 25.8552C37.2826 24.5987 37.2856 23.3422 37.2868 22.0857C37.2879 21.1223 37.2905 20.1589 37.2938 19.1955C37.2953 18.7321 37.2966 18.2686 37.2976 17.8051C37.2995 17.1588 37.3031 16.5125 37.3074 15.8661C37.3093 15.4977 37.3111 15.1292 37.313 14.7496C37.3992 12.8745 39.4617 13.5402 40.7759 13.5274ZM40.8602 17.2534C40.8602 19.1509 40.8602 21.0483 40.8602 23.0032C41.965 21.9743 41.965 21.9743 43.0198 20.8849C43.0394 20.2737 43.0425 19.6618 43.0367 19.0502C43.0343 18.7159 43.0318 18.3816 43.0293 18.0372C43.0262 17.7785 43.0231 17.5199 43.0198 17.2534C42.3072 17.2534 41.5945 17.2534 40.8602 17.2534ZM40.8602 27.8452C40.8602 29.0436 40.8602 30.242 40.8602 31.4767C41.4838 31.4767 42.1074 31.4767 42.7499 31.4767C43.0711 30.7565 43.0559 30.2919 43.0536 29.4907C43.0543 29.2469 43.055 29.0031 43.0557 28.7519C43.0793 28.148 43.0793 28.148 42.7499 27.8452C42.1201 27.8328 41.49 27.8324 40.8602 27.8452Z" fill="url(#paint5_linear_800_232)"/>
<path d="M21.6947 15.8428C22.705 16.2203 22.8397 16.7102 23.3028 17.7396C23.3957 17.9563 23.4886 18.1729 23.5843 18.3961C23.68 18.6175 23.7757 18.8388 23.8743 19.0669C25.3838 22.6252 26.1867 26.1344 25.0353 30.0282C23.4061 34.3595 19.0103 38.1457 15.2159 40.0526C14.4071 38.3525 14.4629 36.5176 14.8521 34.6834C15.475 32.5676 16.4744 30.936 17.6454 29.1582C20.257 24.9259 21.3669 20.9291 21.6947 15.8428Z" fill="url(#paint6_linear_800_232)"/>
<path d="M9.37492 0.106445C12.5551 0.612992 15.4277 3.8354 17.2878 6.59391C19.6341 10.3956 20.3321 14.2811 19.633 18.869C18.8075 22.1991 17.2357 25.1067 15.4686 27.9062C13.4708 31.0825 12.2205 33.8577 12.7208 37.8834C12.8434 38.5115 12.9954 39.1322 13.1542 39.75C12.976 39.8498 12.7979 39.9497 12.6143 40.0526C11.8816 39.7761 11.183 39.4796 10.4716 39.1447C10.2642 39.0474 10.0568 38.95 9.84305 38.8496C6.3788 37.1789 2.56846 34.5151 0.73656 30.6713C-0.334582 27.4883 -0.198033 24.7124 0.890515 21.5725C2.12302 18.7374 3.96525 16.0812 6.00056 13.9136C8.12183 11.4167 10.219 7.66214 10.1742 4.11146C10.0802 2.65172 9.90335 1.45389 9.37492 0.106445Z" fill="url(#paint7_linear_800_232)"/>
<defs>
<linearGradient id="paint0_linear_800_232" x1="107.155" y1="13.4229" x2="107.155" y2="35.4985" gradientUnits="userSpaceOnUse">
<stop stop-color="#0098BA"/>
<stop offset="1" stop-color="#004554"/>
</linearGradient>
<linearGradient id="paint1_linear_800_232" x1="80.8389" y1="13.4229" x2="80.8389" y2="39.4915" gradientUnits="userSpaceOnUse">
<stop stop-color="#0098BA"/>
<stop offset="1" stop-color="#004554"/>
</linearGradient>
<linearGradient id="paint2_linear_800_232" x1="68.1489" y1="13.4229" x2="68.1489" y2="35.3992" gradientUnits="userSpaceOnUse">
<stop stop-color="#0098BA"/>
<stop offset="1" stop-color="#004554"/>
</linearGradient>
<linearGradient id="paint3_linear_800_232" x1="93.5239" y1="13.4229" x2="93.5239" y2="35.3992" gradientUnits="userSpaceOnUse">
<stop stop-color="#0098BA"/>
<stop offset="1" stop-color="#004554"/>
</linearGradient>
<linearGradient id="paint4_linear_800_232" x1="54.6885" y1="13.4229" x2="54.6885" y2="35.4484" gradientUnits="userSpaceOnUse">
<stop stop-color="#0098BA"/>
<stop offset="1" stop-color="#004554"/>
</linearGradient>
<linearGradient id="paint5_linear_800_232" x1="41.9678" y1="13.4229" x2="41.9678" y2="35.4843" gradientUnits="userSpaceOnUse">
<stop stop-color="#0098BA"/>
<stop offset="1" stop-color="#004554"/>
</linearGradient>
<linearGradient id="paint6_linear_800_232" x1="20.0793" y1="15.8428" x2="20.0793" y2="40.0526" gradientUnits="userSpaceOnUse">
<stop stop-color="#0098BA"/>
<stop offset="1" stop-color="#004554"/>
</linearGradient>
<linearGradient id="paint7_linear_800_232" x1="9.94578" y1="0.106445" x2="9.94578" y2="40.0526" gradientUnits="userSpaceOnUse">
<stop stop-color="#0098BA"/>
<stop offset="1" stop-color="#004554"/>
</linearGradient>
</defs>
</svg>
