<svg width="697" height="746" viewBox="0 0 697 746" fill="none" xmlns="http://www.w3.org/2000/svg">
<g opacity="0.5">
<path d="M98.8212 662.707C98.8212 662.707 25.3737 543.396 86.4 414.225C140.547 299.615 203.676 307.449 249.993 353.958C269.72 373.768 326.596 356.4 375.004 239.78C441.02 80.7431 669.853 177.2 628.129 421.883C607.938 540.292 689.579 544.596 647.98 662.958L98.8212 662.707Z" fill="#375A88" fill-opacity="0.34"/>
<path opacity="0.3" d="M352.849 648.092C435.552 648.092 502.596 622.492 502.596 590.913C502.596 559.333 435.552 533.733 352.849 533.733C270.147 533.733 203.103 559.333 203.103 590.913C203.103 622.492 270.147 648.092 352.849 648.092Z" fill="#01265A"/>
<path d="M502.416 435.881L391.919 498.437L199.938 435.881C199.938 435.881 201.216 591.132 204.203 596.156C207.19 601.178 379.546 659.626 391.066 657.343C402.586 655.06 495.163 594.33 499.43 589.763C503.696 585.196 502.416 435.881 502.416 435.881Z" fill="#FFD141"/>
<path d="M502.416 435.881C502.416 435.881 352.242 375.272 344.136 375.895C336.029 376.521 202.072 431.772 199.936 435.881L391.918 498.438L502.416 435.881Z" fill="#FFD141"/>
<path d="M502.416 435.881C502.416 435.881 352.242 375.272 344.136 375.895C336.029 376.521 202.072 431.772 199.936 435.881L391.918 498.438L502.416 435.881Z" fill="#C6916A"/>
<path d="M344.136 375.896C344.136 375.896 388.933 313.963 397.465 311.224C405.996 308.484 565.224 348.667 569.016 353.689C572.807 358.712 502.415 435.882 502.415 435.882C502.415 435.882 415.383 404.496 344.136 375.896Z" fill="#E5B288"/>
<path d="M344.135 375.896C344.135 375.896 306.38 329.804 270.329 315.333C266.915 313.963 127.409 373.445 127.835 375.896C128.262 378.347 189.698 419.901 199.936 435.882C199.936 435.882 330.056 382.577 344.135 375.896Z" fill="#E5B288"/>
<path d="M478.506 393.707C468.225 395.299 440.07 397.137 430.455 394.993C423.74 393.497 403.794 383.663 391.792 378.075C393.703 370.266 402.244 363.542 399.898 361.237C396.706 358.098 382.115 341.01 375.414 340.399C374.456 340.313 373.071 340.061 371.417 339.701C357.764 357.058 344.137 375.896 344.137 375.896C394.197 395.991 452.05 417.461 482.031 428.453C480.715 414.315 479.779 404.22 479.779 404.22C479.586 400.89 483.531 392.928 478.506 393.707Z" fill="#E5B288"/>
<path d="M334.907 333.776C334.907 333.776 362.015 342.238 368.713 342.845C375.415 343.455 390.006 360.543 393.199 363.682C396.392 366.818 379.415 378.129 386.428 389.231C393.437 400.333 408.853 390.522 409.086 393.837C409.319 397.152 410.328 417.582 411.584 422.425C412.836 427.265 396.101 458.73 393.213 465.744C393.213 465.744 375.744 463.568 361.169 451.968C361.169 451.968 314.707 480.122 311.473 481.475C308.24 482.83 295.518 459.258 286.128 438.754C276.738 418.252 267.854 398.854 269.676 396.521C271.5 394.192 323.349 369.395 323.349 369.395C323.349 369.395 323.913 343.67 334.907 333.776Z" fill="#84E2D5"/>
<path d="M408.531 433.033C410.639 427.961 411.971 423.921 411.584 422.426C411.345 421.504 411.114 420.02 410.898 418.195C409.829 416.962 408.778 415.711 407.711 414.521C401.755 407.812 395.579 401.02 390.353 393.541C390.162 393.274 389.98 393.002 389.791 392.735C388.549 391.907 387.405 390.778 386.428 389.231C385.483 387.733 384.983 386.235 384.802 384.753C380.96 377.887 377.838 370.482 375.235 362.895C372.957 356.454 371.208 350.064 370.645 343.373C369.951 343.088 369.301 342.901 368.713 342.846C367.061 342.698 364.159 342.068 360.725 341.203C366.785 376.001 382.898 410.668 408.531 433.033Z" fill="#24A08B"/>
<path d="M385.005 441.673C389.393 446.042 394.142 449.912 399.012 453.557C400.608 450.277 402.346 446.694 404.008 443.153C401.174 440.696 398.359 438.226 395.614 435.723C383.325 424.233 373.513 410.284 365.518 395.19C359.805 384.685 355.038 373.492 352.014 361.77C349.933 353.86 348.91 345.861 348.354 337.812C345.265 336.918 342.364 336.053 340.048 335.352C338.526 341.469 337.529 347.605 337.815 353.981C338.313 364.907 341.49 375.779 345.685 385.729C354.719 407.026 368.762 426.277 385.005 441.673Z" fill="#24A08B"/>
<path d="M342.981 457.741C332.446 443.786 323.95 428.378 316.252 412.357C311.157 401.689 306.333 390.816 302.066 379.7C296.692 382.326 291.01 385.13 285.929 387.685C289.316 396.515 292.987 405.236 296.919 413.819C306.051 434.015 316.807 453.198 328.963 471.343C334.432 468.083 340.408 464.495 345.713 461.302C344.789 460.128 343.876 458.943 342.981 457.741Z" fill="#24A08B"/>
<path d="M323.499 366.635C323.375 368.358 323.351 369.396 323.351 369.396C323.351 369.396 319.959 371.02 314.882 373.468C319.301 387.582 324.569 401.424 331.069 414.805C337.964 429.111 345.931 442.849 355.346 455.492C358.905 453.341 361.169 451.971 361.169 451.971C364.973 454.997 368.97 457.378 372.809 459.251C361.482 445.872 351.88 430.786 343.518 414.834C335.507 399.605 327.709 383.73 323.499 366.635Z" fill="#24A08B"/>
<path d="M401.299 426.849C394.57 430.839 387.794 434.739 381.199 438.979C377.826 441.144 374.506 443.382 371.228 445.71C368.003 448 364.666 449.833 361.199 451.652C360.782 451.872 361.099 452.561 361.516 452.344C364.772 450.635 367.932 448.935 370.971 446.806C374.26 444.5 377.561 442.242 380.922 440.053C387.691 435.645 394.687 431.649 401.617 427.541C402.02 427.301 401.705 426.607 401.299 426.849Z" fill="#24A08B"/>
<path opacity="0.4" d="M286.13 438.757C295.52 459.261 308.24 482.833 311.474 481.479C314.708 480.127 361.17 451.971 361.17 451.971C375.746 463.572 393.214 465.747 393.214 465.747C396.102 458.733 412.839 427.268 411.586 422.428C410.33 417.585 409.322 397.155 409.088 393.84C408.855 390.525 393.437 400.336 386.429 389.234C383.53 384.645 384.734 380.021 386.915 375.953C380.333 372.855 375.379 370.604 374.787 370.825C370.047 372.588 371.324 377.088 370.008 380.111C370.008 380.111 366.47 387.502 361.312 398.271C356.017 391.072 351.228 385.266 349.115 384.842C343.896 383.793 324.006 374.722 320.744 373.324C317.484 371.927 319.112 393.567 305.092 395.66C297.881 396.738 293.777 390.892 290.869 385.219C280.014 390.616 270.442 395.548 269.678 396.526C267.856 398.858 276.74 418.254 286.13 438.757Z" fill="#1B899A"/>
<path d="M471.807 396.153C476.833 395.374 472.888 403.335 473.079 406.667C473.079 406.667 480.362 485.127 482.846 510.967C482.846 510.967 485.199 520.921 482.756 522.553C480.312 524.189 406.859 522.834 405.51 521.593C404.159 520.353 406.307 508.214 406.307 508.214L407.39 478.842L398.363 506.605C398.363 506.605 396.216 518.741 394.534 519.368C392.858 519.996 324.031 492.502 322.31 490.023C320.593 487.551 326.189 479.205 326.189 479.205C337.325 456.125 370.912 385.953 370.912 385.953C372.23 382.932 370.951 378.432 375.691 376.667C377.369 376.044 414.142 395.296 423.757 397.439C433.37 399.583 461.525 397.745 471.807 396.153Z" fill="#1F9999"/>
<path d="M411.952 456.888C418.66 455.314 422.383 450.857 424.01 444.303C425.308 439.075 426.41 433.804 427.729 428.585C429.05 423.367 430.79 418.285 432.084 413.056C432.084 413.056 432.084 413.047 432.084 413.041C436.071 413.717 440.055 414.373 444.09 414.527C447.741 414.663 451.385 414.443 455.019 414.188C459.049 424.946 465.325 434.721 474.884 441.513C475.416 441.889 476.064 441.15 475.529 440.77C466.174 434.121 460.032 424.625 456.052 414.114C456.632 414.073 457.216 414.03 457.798 413.987C462.354 413.663 466.877 413.393 471.379 412.611C472.007 412.502 471.916 411.504 471.284 411.618C466.164 412.504 460.875 413.007 455.592 413.28C455.437 413.208 455.259 413.221 455.111 413.302C452.312 413.439 449.514 413.524 446.751 413.559C441.934 413.623 437.196 412.907 432.439 412.099C429.056 411.522 424.569 411.528 421.499 409.842C421.496 409.839 421.494 409.841 421.489 409.838C422.301 406.358 423.244 402.9 424.63 399.688C424.885 399.104 423.976 398.649 423.723 399.234C421.547 404.265 420.49 409.897 419.267 415.23C417.298 423.821 415.579 432.474 413.896 441.132C412.314 449.302 410.797 457.486 409.299 465.677C408.566 469.709 407.995 473.821 407.055 477.807C406.907 478.428 407.899 478.625 408.046 478.009C408.953 474.153 409.504 470.176 410.22 466.28C410.795 463.148 411.376 460.018 411.952 456.888ZM419.946 416.823C420.388 414.854 420.81 412.837 421.268 410.822C423.965 412.219 427.39 412.253 430.316 412.741C430.575 412.784 430.835 412.828 431.095 412.871C428.879 421.799 426.204 430.547 424.127 439.519C423.224 443.43 422.489 447.503 420.155 450.826C418.255 453.528 415.301 454.99 412.152 455.802C412.983 451.338 413.825 446.875 414.682 442.415C416.332 433.863 418.039 425.317 419.946 416.823Z" fill="#2ECEB7"/>
<path d="M357.268 415.413C371.281 416.88 382.375 407.601 390.264 397.367C391.655 398.078 393.058 398.774 394.495 399.411C402.708 403.038 411.419 405.282 419.633 408.893C420.23 409.154 420.66 408.265 420.062 408.001C411.852 404.395 403.164 402.078 394.924 398.521C386.556 394.907 379.119 389.582 371.189 385.134C370.617 384.815 370.19 385.706 370.761 386.025C377.034 389.543 383.003 393.542 389.35 396.888C381.71 406.742 370.985 415.855 357.442 414.437C356.801 414.37 356.623 415.346 357.268 415.413Z" fill="#2ECEB7"/>
<path d="M398.14 504.507C374.004 497.162 348.427 492.536 327.308 477.645C326.774 477.266 326.123 478.009 326.657 478.383C347.949 493.399 373.638 498.081 397.973 505.483C398.594 505.675 398.763 504.696 398.14 504.507Z" fill="#2ECEB7"/>
<path d="M481.013 508.366C475.107 509.26 468.912 509.069 462.933 509.333C456.376 509.621 449.818 509.937 443.255 510.189C431.2 510.652 418.958 511.559 407.116 508.067C406.489 507.881 406.321 508.86 406.942 509.042C418.247 512.379 430.131 511.844 441.659 511.266C448.12 510.948 454.587 510.707 461.05 510.416C467.681 510.116 474.563 510.352 481.108 509.365C481.739 509.266 481.649 508.269 481.013 508.366Z" fill="#2ECEB7"/>
<path d="M432.685 406.793C432.358 408.648 430.437 409.821 428.401 409.404C426.362 408.991 424.978 407.153 425.304 405.299C425.634 403.442 427.552 402.271 429.593 402.683C431.626 403.096 433.016 404.94 432.685 406.793Z" fill="#2ECEB7"/>
<path opacity="0.4" d="M387.763 437.404C383.946 432.553 371.412 413.15 362.91 402.661C352.26 424.899 333.874 463.272 326.186 479.205C326.186 479.205 320.591 487.551 322.308 490.024C323.209 491.322 342.508 499.478 360.933 506.865C359.977 487.644 358.739 465.379 358.739 465.379C377.003 455.309 387.763 437.404 387.763 437.404Z" fill="#1B899A"/>
<path opacity="0.4" d="M394.531 519.369C396.214 518.743 398.361 506.607 398.361 506.607L406.372 481.971C392.217 490.107 378.373 498.809 365.104 508.53C380.264 514.555 393.799 519.642 394.531 519.369Z" fill="#1B899A"/>
<path opacity="0.4" d="M476.631 444.851C453.46 456.869 429.987 468.445 407.292 481.44L406.305 508.216C406.305 508.216 404.158 520.353 405.507 521.595C406.857 522.836 480.31 524.189 482.753 522.555C485.198 520.923 482.844 510.969 482.844 510.969C481.525 497.233 478.85 468.633 476.631 444.851Z" fill="#1B899A"/>
<path d="M227.729 429.899C227.729 429.899 249.251 404.646 253.164 397.665C257.079 390.685 280.558 383.334 285.123 381.426C289.69 379.517 291.973 403.598 305.996 401.505C320.015 399.412 318.387 377.772 321.647 379.168C324.909 380.565 344.799 389.638 350.018 390.687C355.237 391.735 376.759 425.59 381.977 432.222C381.977 432.222 371.215 450.128 352.953 460.197C352.953 460.197 356.539 524.716 356.213 528.904C355.887 533.093 327.189 535.187 303.058 535.187C278.927 535.187 256.1 535.187 254.794 532.046C253.491 528.904 255.774 460.199 255.774 460.199C255.774 460.199 231.642 446.777 227.729 429.899Z" fill="white"/>
<path d="M258.018 408.075C256.861 425.283 255.131 442.553 255.123 459.821C255.123 460.383 255.937 460.383 255.937 459.821C255.947 442.554 257.677 425.283 258.832 408.075C258.87 407.513 258.057 407.517 258.018 408.075Z" fill="#72CACE"/>
<path d="M349.094 404.068C349.532 413.366 349.861 422.673 350.598 431.954C350.973 436.7 351.446 441.42 352.02 446.143C352.587 450.787 352.67 455.33 352.67 460.003C352.67 460.564 353.484 460.564 353.484 460.003C353.484 455.612 353.443 451.332 352.934 446.969C352.384 442.243 351.883 437.534 351.479 432.791C350.665 423.237 350.358 413.645 349.908 404.068C349.882 403.509 349.067 403.506 349.094 404.068Z" fill="#72CACE"/>
<path d="M317.258 431.214C317.443 435.889 317.096 440.672 317.585 445.318C317.751 446.882 318.009 448.435 318.277 449.979C318.369 450.501 318.362 451.695 318.739 452.108C320.06 453.554 321.424 454.955 322.811 456.323C323.973 457.473 325.169 458.583 326.413 459.629C326.971 460.099 328.142 461.347 328.899 461.347C329.641 461.347 330.754 460.15 331.305 459.698C332.462 458.751 333.555 457.715 334.635 456.669C336.155 455.203 337.63 453.676 339.06 452.108C339.379 451.761 339.372 450.825 339.452 450.391C339.725 448.881 339.973 447.362 340.156 445.836C340.723 441.021 340.349 436.062 340.542 431.214C340.564 430.652 339.75 430.653 339.728 431.214C339.555 435.574 339.807 439.989 339.495 444.335C339.322 446.789 338.856 449.244 338.385 451.652C338.435 451.4 337.818 452.216 337.61 452.435C336.785 453.314 335.946 454.176 335.099 455.028C333.194 456.947 331.221 458.924 328.967 460.372C328.155 460.898 323.719 456.041 323.036 455.365C321.77 454.113 320.532 452.827 319.328 451.511C319.542 451.747 319.347 451.34 319.312 451.144C319.223 450.68 319.141 450.215 319.057 449.749C318.766 448.114 318.518 446.47 318.342 444.817C317.872 440.348 318.246 435.711 318.069 431.214C318.051 430.653 317.238 430.652 317.258 431.214Z" fill="#72CACE"/>
<path d="M304.387 411.353C314.602 411.537 322.945 402.427 326.008 392.587C327.068 389.051 327.507 385.512 327.811 381.888C324.883 380.596 322.583 379.566 321.648 379.166C318.387 377.77 320.015 399.41 305.996 401.503C291.974 403.598 289.69 379.515 285.123 381.424C284.249 381.789 282.676 382.355 280.684 383.078C284.875 394.867 290.628 411.18 304.387 411.353Z" fill="#72CACE"/>
<path d="M266.596 432.033C263.962 432.033 261.828 434.319 261.828 437.137C261.828 439.954 263.962 442.239 266.596 442.239C269.227 442.239 271.362 439.954 271.362 437.137C271.362 434.319 269.227 432.033 266.596 432.033Z" fill="#72CACE"/>
<path d="M279.112 465.271C276.48 465.271 274.346 467.555 274.346 470.372C274.346 473.189 276.48 475.473 279.112 475.473C281.746 475.473 283.88 473.189 283.88 470.372C283.88 467.555 281.746 465.271 279.112 465.271Z" fill="#72CACE"/>
<path d="M261.744 492.252C261.744 489.434 259.61 487.149 256.977 487.149C256.262 487.149 255.586 487.322 254.975 487.625C254.898 490.617 254.823 493.692 254.755 496.761C255.42 497.137 256.177 497.352 256.977 497.352C259.61 497.352 261.744 495.069 261.744 492.252Z" fill="#72CACE"/>
<path d="M290.004 503.73C287.371 503.73 285.236 506.013 285.236 508.832C285.236 511.647 287.372 513.934 290.004 513.934C292.636 513.934 294.773 511.647 294.773 508.832C294.773 506.013 292.636 503.73 290.004 503.73Z" fill="#72CACE"/>
<path d="M260.298 527.233C257.664 527.233 255.53 529.521 255.53 532.335C255.53 532.475 255.54 532.615 255.551 532.751C256.962 533.548 260.168 534.085 264.634 534.447C264.909 533.803 265.064 533.091 265.064 532.335C265.065 529.521 262.931 527.233 260.298 527.233Z" fill="#72CACE"/>
<path d="M315.408 479.316C312.776 479.316 310.641 481.601 310.641 484.419C310.641 487.236 312.775 489.52 315.408 489.52C318.043 489.52 320.176 487.236 320.176 484.419C320.176 481.599 318.041 479.316 315.408 479.316Z" fill="#72CACE"/>
<path d="M330.364 507.739C327.732 507.739 325.597 510.023 325.597 512.84C325.597 515.66 327.732 517.943 330.364 517.943C332.996 517.943 335.132 515.659 335.132 512.84C335.132 510.025 332.996 507.739 330.364 507.739Z" fill="#72CACE"/>
<path d="M354.706 528.694C354.706 529.256 354.795 529.794 354.95 530.298C355.728 529.862 356.177 529.395 356.213 528.9C356.252 528.401 356.234 527.026 356.174 525.015C355.272 525.943 354.706 527.245 354.706 528.694Z" fill="#72CACE"/>
<path d="M308.233 532.335C306.359 532.335 304.739 533.497 303.964 535.182C306.759 535.176 309.604 535.144 312.458 535.083C311.662 533.452 310.07 532.335 308.233 532.335Z" fill="#72CACE"/>
<path d="M354.532 489.617C353.681 488.767 352.543 488.246 351.289 488.246C348.655 488.246 346.521 490.53 346.521 493.349C346.521 496.166 348.655 498.45 351.289 498.45C352.729 498.45 354.019 497.761 354.893 496.677C354.777 494.32 354.653 491.952 354.532 489.617Z" fill="#72CACE"/>
<path d="M245.996 411.355C243.363 411.355 241.229 413.64 241.229 416.458C241.229 419.275 243.363 421.559 245.996 421.559C248.628 421.559 250.764 419.275 250.764 416.458C250.763 413.64 248.628 411.355 245.996 411.355Z" fill="#72CACE"/>
<path d="M278 402.974C278 400.154 275.866 397.871 273.232 397.871C270.601 397.871 268.466 400.155 268.466 402.974C268.466 405.791 270.601 408.076 273.232 408.076C275.867 408.075 278 405.791 278 402.974Z" fill="#72CACE"/>
<path d="M304.854 423.197C307.486 423.197 309.62 420.912 309.62 418.094C309.62 415.275 307.486 412.991 304.854 412.991C302.221 412.991 300.088 415.275 300.088 418.094C300.086 420.912 302.221 423.197 304.854 423.197Z" fill="#72CACE"/>
<path d="M347.241 390.126C347.241 390.041 347.233 389.959 347.23 389.876C345.001 389.119 342.067 387.964 338.965 386.683C338.187 387.591 337.708 388.797 337.708 390.128C337.708 392.946 339.842 395.23 342.476 395.23C345.107 395.23 347.241 392.945 347.241 390.126Z" fill="#72CACE"/>
<path d="M299.481 444.971C296.847 444.971 294.714 447.255 294.714 450.073C294.714 452.892 296.848 455.176 299.481 455.176C302.113 455.176 304.246 452.892 304.246 450.073C304.246 447.253 302.113 444.971 299.481 444.971Z" fill="#72CACE"/>
<path d="M337.708 416.458C335.073 416.458 332.942 418.742 332.942 421.559C332.942 424.378 335.073 426.662 337.708 426.662C340.341 426.662 342.477 424.378 342.477 421.559C342.475 418.742 340.341 416.458 337.708 416.458Z" fill="#72CACE"/>
<path d="M353.075 456.268C353.075 453.449 350.941 451.165 348.308 451.165C345.676 451.165 343.54 453.449 343.54 456.268C343.54 459.085 345.674 461.369 348.308 461.369C350.941 461.369 353.075 459.085 353.075 456.268Z" fill="#72CACE"/>
<path d="M372.524 418.727C371.051 419.593 370.053 421.269 370.053 423.197C370.053 426.015 372.184 428.299 374.817 428.299C376.104 428.299 377.271 427.752 378.127 426.864C376.508 424.53 374.592 421.731 372.524 418.727Z" fill="#72CACE"/>
<path opacity="0.2" d="M280.106 431.79C276.04 432.062 271.72 433.15 267.654 432.605C263.841 432.333 260.792 430.157 257.489 428.253C249.33 423.678 241.615 421.976 233.326 423.246C230.063 427.159 227.729 429.898 227.729 429.898C231.642 446.776 255.775 460.194 255.775 460.194C255.775 460.194 253.493 528.9 254.795 532.041C256.102 535.182 278.928 535.181 303.06 535.181C327.19 535.181 355.89 533.088 356.214 528.899C356.457 525.786 354.537 489.349 353.537 470.842C348.057 467.634 342.594 464.397 337.283 460.889C319.747 449.468 301.96 430.701 280.106 431.79Z" fill="#84E2D5"/>
<path d="M391.919 498.437C388.898 498.685 329.644 478.848 277.944 461.3L199.938 435.882C199.938 435.882 201.216 591.133 204.203 596.157C207.19 601.179 379.546 659.627 391.066 657.344C402.586 655.061 495.163 594.331 499.43 589.764C502.528 586.449 502.702 506.834 502.565 463.46L391.919 498.437Z" fill="#FCC692"/>
<path d="M352.41 622.611L221.993 585.527C219.074 584.698 216.711 580.296 216.711 575.738V542.586C216.711 538.028 219.073 534.717 221.993 535.235L352.41 558.373C357.242 559.229 361.253 564.83 361.253 570.806V614.262C361.253 620.236 357.242 623.985 352.41 622.611Z" fill="white"/>
<path d="M223.811 572.493C223.716 572.32 223.669 572.128 223.669 571.914V551.154C223.669 550.92 223.714 550.738 223.801 550.608C223.889 550.479 224.009 550.428 224.158 550.459L229.198 551.511C233.338 552.375 235.479 555.786 235.564 561.734C235.593 563.005 235.607 563.859 235.607 564.294C235.607 564.708 235.593 565.543 235.564 566.801C235.507 569.84 234.969 571.954 233.951 573.147C232.939 574.336 231.385 574.656 229.302 574.124L224.158 572.806C224.023 572.769 223.907 572.666 223.811 572.493ZM229.198 570.353C230.356 570.641 231.197 570.451 231.715 569.779C232.236 569.106 232.511 567.841 232.539 565.985C232.567 564.693 232.581 563.883 232.581 563.559C232.581 563.211 232.567 562.407 232.539 561.145C232.511 559.362 232.221 557.994 231.672 557.04C231.124 556.09 230.263 555.486 229.092 555.232L226.56 554.683V569.699L229.198 570.353Z" fill="#ED7474"/>
<path d="M239.693 574.837C238.59 573.047 238.012 570.656 237.955 567.665C237.939 567.025 237.934 566.092 237.934 564.867C237.934 563.619 237.941 562.679 237.955 562.046C238.012 559.146 238.604 557.04 239.736 555.724C240.872 554.402 242.418 553.941 244.381 554.35C246.344 554.759 247.92 555.88 249.102 557.719C250.29 559.566 250.917 561.995 250.977 564.999C251.008 566.312 251.023 567.281 251.023 567.913C251.023 568.52 251.008 569.472 250.977 570.768C250.917 573.812 250.305 575.965 249.147 577.221C247.994 578.473 246.402 578.837 244.379 578.318C242.36 577.799 240.8 576.636 239.693 574.837ZM246.748 573.706C247.332 572.957 247.647 571.659 247.692 569.818C247.721 568.482 247.736 567.581 247.736 567.114C247.736 566.6 247.721 565.692 247.692 564.39C247.646 562.547 247.324 561.108 246.724 560.074C246.128 559.04 245.344 558.42 244.381 558.213C243.405 558.003 242.624 558.28 242.036 559.049C241.449 559.812 241.143 561.096 241.113 562.898C241.099 563.534 241.091 564.424 241.091 565.572C241.091 566.695 241.098 567.589 241.113 568.256C241.143 570.07 241.446 571.495 242.025 572.532C242.605 573.569 243.39 574.213 244.379 574.459C245.376 574.704 246.165 574.453 246.748 573.706Z" fill="#ED7474"/>
<path d="M254.171 580.254C254.064 580.068 254.009 579.862 254.009 579.636V557.541C254.009 557.292 254.059 557.1 254.158 556.962C254.259 556.825 254.394 556.773 254.563 556.809L256.375 557.188C256.67 557.249 256.896 557.489 257.052 557.91L263.829 574.695V559.609C263.829 559.356 263.88 559.159 263.985 559.018C264.089 558.878 264.229 558.826 264.406 558.863L266.483 559.297C266.66 559.335 266.806 559.447 266.919 559.633C267.032 559.82 267.089 560.039 267.089 560.296V582.929C267.089 583.184 267.032 583.38 266.919 583.514C266.806 583.648 266.668 583.693 266.506 583.651L264.597 583.162C264.276 583.08 264.035 582.822 263.875 582.389L257.121 565.846V580.429C257.121 580.655 257.071 580.836 256.969 580.97C256.867 581.103 256.73 581.148 256.56 581.105L254.561 580.593C254.409 580.553 254.278 580.441 254.171 580.254Z" fill="#ED7474"/>
<path d="M269.46 584.198C269.363 584.032 269.314 583.844 269.314 583.636L269.363 583.333L275.318 562.028C275.485 561.473 275.788 561.241 276.224 561.332L279.009 561.914C279.451 562.006 279.756 562.367 279.928 562.998L286.13 587.592L286.181 587.931C286.181 588.147 286.124 588.313 286.011 588.429C285.898 588.544 285.772 588.585 285.634 588.549L283.321 587.956C282.958 587.864 282.709 587.572 282.571 587.084L281.387 582.451L273.892 580.602L272.746 584.58C272.614 584.992 272.374 585.153 272.025 585.063L269.828 584.501C269.682 584.465 269.559 584.364 269.46 584.198ZM274.767 576.719L280.49 578.085L277.612 566.454L274.767 576.719Z" fill="#ED7474"/>
<path d="M290.931 589.652C290.807 589.451 290.744 589.229 290.744 588.985V568.917L285.868 567.857C285.693 567.82 285.546 567.702 285.424 567.508C285.303 567.316 285.242 567.084 285.242 566.82V564.118C285.242 563.853 285.297 563.65 285.412 563.505C285.525 563.36 285.677 563.307 285.868 563.347L299.557 566.206C299.759 566.247 299.923 566.37 300.053 566.57C300.181 566.77 300.245 567.005 300.245 567.277V570.055C300.245 570.327 300.181 570.537 300.053 570.68C299.923 570.825 299.759 570.877 299.557 570.832L294.548 569.745V589.954C294.548 590.198 294.489 590.391 294.372 590.533C294.255 590.674 294.098 590.718 293.901 590.668L291.382 590.024C291.205 589.976 291.055 589.854 290.931 589.652Z" fill="#ED7474"/>
<path d="M303.236 592.798C303.106 592.591 303.042 592.364 303.042 592.115V567.826C303.042 567.553 303.106 567.349 303.236 567.215C303.365 567.082 303.524 567.033 303.71 567.071L306.4 567.634C306.606 567.677 306.771 567.794 306.894 567.982C307.016 568.171 307.078 568.402 307.078 568.677V593.143C307.078 593.393 307.016 593.589 306.894 593.733C306.771 593.877 306.608 593.921 306.4 593.869L303.71 593.18C303.524 593.132 303.367 593.005 303.236 592.798Z" fill="#ED7474"/>
<path d="M313.158 593.36C311.7 591.253 310.935 588.479 310.859 585.036C310.84 584.3 310.832 583.228 310.832 581.819C310.832 580.382 310.84 579.302 310.859 578.575C310.936 575.242 311.72 572.843 313.217 571.371C314.721 569.891 316.77 569.418 319.373 569.959C321.979 570.502 324.077 571.854 325.651 574.019C327.235 576.196 328.07 579.025 328.151 582.495C328.191 584.012 328.212 585.133 328.212 585.859C328.212 586.561 328.191 587.659 328.151 589.155C328.07 592.666 327.256 595.125 325.712 596.524C324.176 597.916 322.06 598.264 319.373 597.573C316.691 596.887 314.625 595.48 313.158 593.36ZM322.517 592.366C323.293 591.528 323.712 590.044 323.772 587.921C323.811 586.383 323.832 585.343 323.832 584.805C323.832 584.211 323.811 583.163 323.772 581.659C323.712 579.533 323.284 577.859 322.485 576.643C321.692 575.429 320.652 574.686 319.371 574.408C318.076 574.128 317.04 574.42 316.263 575.281C315.485 576.138 315.078 577.604 315.039 579.677C315.019 580.408 315.009 581.433 315.009 582.753C315.009 584.047 315.019 585.076 315.039 585.843C315.078 587.933 315.479 589.585 316.247 590.802C317.015 592.021 318.057 592.797 319.371 593.125C320.693 593.455 321.742 593.202 322.517 592.366Z" fill="#ED7474"/>
<path d="M332.41 600.256C332.266 600.037 332.195 599.795 332.195 599.534V574.001C332.195 573.713 332.262 573.493 332.396 573.337C332.528 573.182 332.711 573.127 332.935 573.175L335.358 573.681C335.754 573.763 336.056 574.051 336.264 574.542L345.349 594.257V576.771C345.349 576.477 345.418 576.251 345.559 576.093C345.7 575.935 345.888 575.88 346.125 575.929L348.92 576.512C349.16 576.563 349.355 576.699 349.508 576.92C349.662 577.141 349.738 577.399 349.738 577.696V603.958C349.738 604.255 349.662 604.479 349.508 604.628C349.356 604.777 349.171 604.823 348.953 604.768L346.384 604.11C345.954 604 345.629 603.689 345.414 603.179L336.359 583.725V600.593C336.359 600.856 336.292 601.063 336.155 601.213C336.021 601.363 335.837 601.407 335.61 601.348L332.936 600.663C332.729 600.611 332.553 600.477 332.41 600.256Z" fill="#ED7474"/>
<path d="M391.919 498.436L391.066 657.342C402.586 655.059 495.163 594.329 499.43 589.762C503.696 585.195 502.417 435.88 502.417 435.88L391.919 498.436Z" fill="#E5B288"/>
<path d="M478.526 552.772C478.526 572.842 465.021 595.357 448.313 603.082C431.552 610.832 417.924 600.767 417.924 580.578C417.924 560.39 431.552 537.819 448.313 530.187C465.021 522.58 478.526 532.701 478.526 552.772Z" fill="white"/>
<path d="M427.755 583.116V569.021L468.791 550.219V564.258L427.755 583.116Z" fill="#E6605D"/>
<path d="M442.461 544.625L454.157 539.287V588.62L442.461 594.014V544.625Z" fill="#E6605D"/>
<path d="M502.416 435.882L391.919 498.438L199.938 435.882C199.938 435.882 200.361 487.411 201.292 532.056C238.7 550.123 340.398 598.334 351.267 593.873C364.615 588.393 391.919 521.727 391.919 521.727C391.919 521.727 446.528 582.001 452.928 582.457C457.11 582.756 483.72 572.197 501.66 564.843C503.146 521.229 502.416 435.882 502.416 435.882Z" fill="#E5B288"/>
<path d="M391.919 498.436C391.919 498.436 448.66 576.517 453.353 576.975C458.045 577.432 525.05 541.132 568.968 484.738C571.102 481.999 502.416 435.88 502.416 435.88C502.416 435.88 423.489 474.236 391.919 498.436Z" fill="#FCC692"/>
<path d="M199.937 435.881C199.937 435.881 134.237 489.303 135.517 491.588C136.796 493.872 337.736 578.81 344.137 576.979C350.537 575.149 391.919 498.436 391.919 498.436C391.919 498.436 258.386 445.013 199.937 435.881Z" fill="#FCC692"/>
<path opacity="0.5" d="M313.102 468.903C303.45 465.491 293.453 462.043 283.445 458.714C276.301 467.33 270.04 477.128 264.35 486.729C254.804 502.589 247.097 519.474 239.926 536.666C250.069 540.88 260.21 545.063 269.969 549.05C278.071 531.682 285.696 514.003 293.32 496.521C295.265 491.981 304.337 476.412 313.102 468.903Z" fill="#E5B288"/>
<path d="M260.72 549.474C261.502 546.501 265.978 547.233 265.193 550.246C262.934 558.844 261.123 567.501 256.511 575.075C254.918 577.694 251.429 574.589 253.008 571.991C257.151 565.194 258.697 557.174 260.72 549.474Z" fill="#27AD97"/>
<path d="M252.791 549.434C253.801 546.499 257.918 548.529 256.91 551.448C254.546 558.309 252.46 565.343 247.878 570.947C245.961 573.293 242.453 570.219 244.381 567.857C248.694 562.594 250.569 555.88 252.791 549.434Z" fill="#27AD97"/>
<path d="M242.484 547.646C242.992 544.567 247.463 545.338 246.954 548.419C245.765 555.651 243.295 563.153 238.657 568.694C236.711 571.012 233.2 567.945 235.151 565.605C239.283 560.694 241.43 554.068 242.484 547.646Z" fill="#27AD97"/>
<path d="M237.426 544.127C235.67 550.723 232.317 556.747 231.107 563.507C230.556 566.574 226.082 565.81 226.636 562.735C227.852 555.926 231.189 549.976 232.954 543.354C233.742 540.382 238.222 541.122 237.426 544.127Z" fill="#27AD97"/>
<path d="M228.885 544.96C226.397 550.67 223.581 556.216 221.656 562.195C220.711 565.148 216.594 563.113 217.539 560.181C219.459 554.201 222.275 548.656 224.769 542.946C226.004 540.114 230.126 542.122 228.885 544.96Z" fill="#27AD97"/>
<path d="M221.197 538.674C218.921 545.249 215.529 551.342 214.312 558.298C213.77 561.365 209.298 560.608 209.842 557.525C211.135 550.116 214.657 543.655 217.078 536.659C218.096 533.728 222.211 535.754 221.197 538.674Z" fill="#27AD97"/>
<path d="M211.874 539.635C208.866 544.615 205.638 549.68 204.833 555.672C204.414 558.765 199.941 557.992 200.361 554.901C201.288 548.024 204.923 542.256 208.368 536.548C209.954 533.931 213.443 537.034 211.874 539.635Z" fill="#27AD97"/>
<path d="M202.807 535.83C199.887 541.439 197.235 547.21 195.607 553.412C194.821 556.384 190.345 555.65 191.134 552.64C192.881 545.991 195.55 539.833 198.685 533.816C200.103 531.105 204.235 533.091 202.807 535.83Z" fill="#27AD97"/>
<path d="M196.014 529.701C193.021 535.143 189.701 540.627 188.568 546.911C188.016 549.977 183.541 549.21 184.097 546.138C185.315 539.372 188.672 533.541 191.898 527.686C193.364 525.02 197.505 527.002 196.014 529.701Z" fill="#27AD97"/>
<path d="M185.08 525.844C186.59 523.224 190.731 525.205 189.196 527.863C186.123 533.197 183.456 538.63 182.398 544.858C181.871 547.931 177.4 547.165 177.924 544.085C179.054 537.423 181.78 531.564 185.08 525.844Z" fill="#27AD97"/>
<path d="M314.874 469.535C314.874 469.535 302.927 448.465 289.794 445.534C276.664 442.6 258.544 444.097 255.821 439.666C253.093 435.227 231.184 418.443 216.108 432.737C201.027 447.035 178.721 525.409 182.047 529.941C185.371 534.47 204.005 545.948 223.704 550.342C243.399 554.739 268.5 568.313 270.231 552.765C271.958 537.217 300.836 466.924 300.836 466.924C300.836 466.924 310.951 468.906 314.874 469.535Z" fill="#80E1D3"/>
<path opacity="0.4" d="M233.641 461.915C224.768 459.391 228.531 450.797 229.303 443.662C229.808 437.703 227.846 432.502 224.803 427.802C238.485 424.141 253.589 436.028 255.82 439.665C257.309 442.094 263.47 442.736 270.843 443.312C267.167 445.162 263.604 447.345 260.074 450.296C253.047 456.019 243.469 464.268 233.641 461.915Z" fill="#27AD97"/>
<path opacity="0.4" d="M273.02 507.681C275.91 494.644 278.6 480.906 283.847 468.606C286.818 461.196 291.738 453.123 300.309 455.597C303.094 456.392 305.726 457.951 308.238 459.868C312.299 465.008 314.875 469.534 314.875 469.534C310.952 468.904 300.838 466.923 300.838 466.923C300.838 466.923 271.959 537.215 270.232 552.763C269.711 557.436 267.054 559.449 263.091 559.895C263.75 555.009 264.366 550.094 265.192 545.287C267.383 532.788 270.529 520.124 273.02 507.681Z" fill="#27AD97"/>
<path d="M378.202 188.292C359.079 188.292 348.5 203.099 348.5 203.099C348.5 203.099 337.921 188.292 318.798 188.292C299.675 188.292 276.075 210.066 289.096 245.776C302.116 281.485 348.5 301.518 348.5 301.518C348.5 301.518 394.884 281.485 407.905 245.776C420.927 210.066 397.326 188.292 378.202 188.292Z" fill="#ED7474"/>
<path opacity="0.3" d="M375.781 264.773C356.912 278.612 337.083 283.466 320.005 284.305C334.677 295.535 348.5 301.518 348.5 301.518C348.5 301.518 394.884 281.485 407.905 245.776C418.65 216.307 404.455 196.343 388.42 190.26C388.42 190.26 423.401 229.853 375.781 264.773Z" fill="#E6605D"/>
<path d="M295.093 250.145C295.093 250.145 281.877 222.762 297.739 205.785C313.601 188.807 333.894 201.065 333.894 201.065C333.894 201.065 291.126 203.426 295.093 250.145Z" fill="#EFBAA5"/>
<path d="M250.132 247.592C241.024 247.592 235.986 254.644 235.986 254.644C235.986 254.644 230.948 247.592 221.84 247.592C212.731 247.592 201.492 257.963 207.693 274.97C213.895 291.977 235.986 301.519 235.986 301.519C235.986 301.519 258.078 291.977 264.279 274.97C270.479 257.963 259.239 247.592 250.132 247.592Z" fill="#ED7474"/>
<path opacity="0.3" d="M248.978 284.018C239.991 290.608 230.548 292.92 222.414 293.32C229.401 298.669 235.985 301.517 235.985 301.517C235.985 301.517 258.077 291.976 264.277 274.969C269.395 260.933 262.634 251.425 254.997 248.527C254.997 248.527 271.659 267.386 248.978 284.018Z" fill="#E6605D"/>
<path d="M210.55 277.052C210.55 277.052 204.254 264.01 211.81 255.925C219.364 247.84 229.03 253.678 229.03 253.678C229.03 253.678 208.659 254.8 210.55 277.052Z" fill="#EFBAA5"/>
<path d="M470.797 287.277C461.688 287.277 456.651 294.328 456.651 294.328C456.651 294.328 451.613 287.277 442.504 287.275C433.396 287.275 422.157 297.646 428.358 314.654C434.56 331.661 456.651 341.202 456.651 341.202C456.651 341.202 478.743 331.661 484.943 314.654C491.144 297.646 479.904 287.277 470.797 287.277Z" fill="#ED7474"/>
<path opacity="0.3" d="M469.644 323.702C460.657 330.292 451.214 332.605 443.08 333.005C450.067 338.354 456.651 341.202 456.651 341.202C456.651 341.202 478.743 331.66 484.943 314.653C490.061 300.618 483.3 291.109 475.663 288.212C475.663 288.212 492.323 307.071 469.644 323.702Z" fill="#E6605D"/>
<path d="M431.214 316.735C431.214 316.735 424.919 303.694 432.474 295.609C440.028 287.522 449.694 293.36 449.694 293.36C449.694 293.36 429.324 294.485 431.214 316.735Z" fill="#EFBAA5"/>
</g>
</svg>
