<svg width="106" height="148" viewBox="0 0 106 148" fill="none" xmlns="http://www.w3.org/2000/svg">
<path d="M91.0937 60C94.6382 61.1815 95.0713 62.3383 96.6947 65.5591C97.1397 66.4889 97.1397 66.4889 97.5937 67.4375C97.9019 68.0677 98.2101 68.6979 98.5277 69.3472C100.95 74.423 102.762 79.5308 104.094 85C104.275 85.5827 104.457 86.1653 104.644 86.7656C106.84 97.6863 105.707 108.671 99.7733 118.098C98.3111 120.171 96.7554 122.083 95.0937 124C94.3357 124.899 94.3357 124.899 93.5624 125.816C87.0751 132.879 78.8867 138.119 71.0731 143.593C69.6909 144.575 68.3443 145.609 67.0282 146.678C65.0937 148 65.0937 148 62.0937 148C59.0342 140.261 59.51 132.354 62.3397 124.574C65.8146 117.216 70.2085 110.986 75.0993 104.533C84.6496 91.7516 88.7142 76.7256 90.0937 61C90.4237 60.67 90.7537 60.34 91.0937 60Z" fill="url(#paint0_linear_33_34)"/>
<path d="M40.7944 0C53.9549 3.81521 67.1328 15.8685 73.7919 27.7852C74.9025 29.8441 75.9804 31.9166 77.0444 34C77.3861 34.6645 77.7278 35.329 78.0798 36.0137C84.6588 49.3453 83.9483 63.0476 79.5043 76.9736C75.4509 88.5429 68.6656 98.6064 61.6308 108.555C54.4131 118.936 51.6648 129.06 53.7319 141.625C54.0731 143.419 54.4226 145.212 54.7944 147C50.0111 148.597 46.7214 147.139 42.3569 145.125C41.3067 144.65 41.3067 144.65 40.2353 144.166C24.5538 136.85 8.92439 126.526 1.98189 110.062C-1.86395 98.5021 0.211559 88.6569 5.41939 78C9.38351 70.2207 14.2153 63.7995 20.2045 57.4414C31.2063 45.7255 43.1744 30.2944 42.7241 13.3555C42.4943 10.8839 42.1819 8.45146 41.7944 6C41.6088 4.80375 41.4231 3.6075 41.2319 2.375C41.0875 1.59125 40.9431 0.8075 40.7944 0Z" fill="url(#paint1_linear_33_34)"/>
<defs>
<linearGradient id="paint0_linear_33_34" x1="82.8414" y1="60" x2="82.8414" y2="148" gradientUnits="userSpaceOnUse">
<stop stop-color="#0098BA"/>
<stop offset="1" stop-color="#004554"/>
</linearGradient>
<linearGradient id="paint1_linear_33_34" x1="41.465" y1="0" x2="41.465" y2="147.68" gradientUnits="userSpaceOnUse">
<stop stop-color="#0098BA"/>
<stop offset="1" stop-color="#004554"/>
</linearGradient>
</defs>
</svg>
